<svg width="624" height="240" viewBox="0 0 624 240" fill="none" xmlns="http://www.w3.org/2000/svg">
<mask id="path-1-inside-1_1846_361" fill="white">
<path fill-rule="evenodd" clip-rule="evenodd" d="M239.997 120C239.997 186.274 186.272 240 119.998 240C53.7251 240 0 186.274 0 120C0 101.876 4.01777 84.6909 11.2112 69.2861H31.4042V172.173V175.373H34.6042H69.5602H72.7602V172.173V69.2861H113.316V168.973H95.6468V175.373H116.516H119.716V172.173V66.0861V62.8861H116.516H69.5602H66.3602V66.0861V168.973H37.8042V66.0861V62.8861H34.6042H14.4369C34.7434 25.4324 74.4009 0 119.998 0C165.596 0 205.253 25.4324 225.56 62.886H207.12H203.92V66.0859V168.973H175.364V66.0859V62.886H172.164H125.208H122.008V66.0859V172.173V175.373H125.208H146.078V168.973H128.408V69.2859H168.964V172.173V175.373H172.164H207.12H210.32V172.173V69.2859H228.785C235.979 84.6908 239.997 101.876 239.997 120Z"/>
</mask>
<path d="M11.2112 69.2861V65.2861H8.66446L7.58692 67.5937L11.2112 69.2861ZM31.4042 69.2861H35.4042V65.2861H31.4042V69.2861ZM31.4042 175.373H27.4042V179.373H31.4042V175.373ZM72.7602 175.373V179.373H76.7602V175.373H72.7602ZM72.7602 69.2861V65.2861H68.7602V69.2861H72.7602ZM113.316 69.2861H117.316V65.2861H113.316V69.2861ZM113.316 168.973V172.973H117.316V168.973H113.316ZM95.6468 168.973V164.973H91.6469V168.973H95.6468ZM95.6468 175.373H91.6469V179.373H95.6468V175.373ZM119.716 175.373V179.373H123.716V175.373H119.716ZM119.716 62.8861H123.716V58.8861H119.716V62.8861ZM66.3602 62.8861V58.8861H62.3603V62.8861H66.3602ZM66.3602 168.973V172.973H70.3602V168.973H66.3602ZM37.8042 168.973H33.8042V172.973H37.8042V168.973ZM37.8042 62.8861H41.8041V58.8861H37.8042V62.8861ZM14.4369 62.8861L10.9205 60.9796L7.71815 66.8861H14.4369V62.8861ZM225.56 62.886V66.8859H232.278L229.076 60.9794L225.56 62.886ZM203.92 62.886V58.886H199.92V62.886H203.92ZM203.92 168.973V172.973H207.92V168.973H203.92ZM175.364 168.973H171.364V172.973H175.364V168.973ZM175.364 62.886H179.364V58.886H175.364V62.886ZM122.008 62.886V58.886H118.009V62.886H122.008ZM122.008 175.373H118.009V179.373H122.008V175.373ZM146.078 175.373V179.373H150.078V175.373H146.078ZM146.078 168.973H150.078V164.973H146.078V168.973ZM128.408 168.973H124.408V172.973H128.408V168.973ZM128.408 69.2859V65.2859H124.408V69.2859H128.408ZM168.964 69.2859H172.964V65.2859H168.964V69.2859ZM168.964 175.373H164.964V179.373H168.964V175.373ZM210.32 175.373V179.373H214.32V175.373H210.32ZM210.32 69.2859V65.2859H206.32V69.2859H210.32ZM228.785 69.2859L232.41 67.5935L231.332 65.2859H228.785V69.2859ZM119.998 244C188.481 244 243.997 188.483 243.997 120H235.997C235.997 184.065 184.062 236 119.998 236V244ZM-3.99997 120C-3.99997 188.483 51.5159 244 119.998 244V236C55.9343 236 3.99997 184.065 3.99997 120H-3.99997ZM7.58692 67.5937C0.151153 83.5174 -3.99997 101.279 -3.99997 120H3.99997C3.99997 102.473 7.88439 85.8644 14.8355 70.9785L7.58692 67.5937ZM31.4042 65.2861H11.2112V73.286H31.4042V65.2861ZM35.4042 172.173V69.2861H27.4042V172.173H35.4042ZM35.4042 175.373V172.173H27.4042V175.373H35.4042ZM34.6042 171.373H31.4042V179.373H34.6042V171.373ZM69.5602 171.373H34.6042V179.373H69.5602V171.373ZM72.7602 171.373H69.5602V179.373H72.7602V171.373ZM68.7602 172.173V175.373H76.7602V172.173H68.7602ZM68.7602 69.2861V172.173H76.7602V69.2861H68.7602ZM113.316 65.2861H72.7602V73.286H113.316V65.2861ZM117.316 168.973V69.2861H109.316V168.973H117.316ZM95.6468 172.973H113.316V164.973H95.6468V172.973ZM99.6468 175.373V168.973H91.6469V175.373H99.6468ZM116.516 171.373H95.6468V179.373H116.516V171.373ZM119.716 171.373H116.516V179.373H119.716V171.373ZM115.716 172.173V175.373H123.716V172.173H115.716ZM115.716 66.0861V172.173H123.716V66.0861H115.716ZM115.716 62.8861V66.0861H123.716V62.8861H115.716ZM116.516 66.8861H119.716V58.8861H116.516V66.8861ZM69.5602 66.8861H116.516V58.8861H69.5602V66.8861ZM66.3602 66.8861H69.5602V58.8861H66.3602V66.8861ZM70.3602 66.0861V62.8861H62.3603V66.0861H70.3602ZM70.3602 168.973V66.0861H62.3603V168.973H70.3602ZM37.8042 172.973H66.3602V164.973H37.8042V172.973ZM33.8042 66.0861V168.973H41.8041V66.0861H33.8042ZM33.8042 62.8861V66.0861H41.8041V62.8861H33.8042ZM34.6042 66.8861H37.8042V58.8861H34.6042V66.8861ZM14.4369 66.8861H34.6042V58.8861H14.4369V66.8861ZM119.998 -3.99997C72.8755 -3.99997 31.8983 22.2877 10.9205 60.9796L17.9533 64.7926C37.5885 28.5771 75.9263 3.99997 119.998 3.99997V-3.99997ZM229.076 60.9794C208.098 22.2877 167.121 -3.99997 119.998 -3.99997V3.99997C164.07 3.99997 202.408 28.5771 222.043 64.7925L229.076 60.9794ZM225.56 58.886H207.12V66.8859H225.56V58.886ZM207.12 58.886H203.92V66.8859H207.12V58.886ZM199.92 62.886V66.0859H207.92V62.886H199.92ZM199.92 66.0859V168.973H207.92V66.0859H199.92ZM203.92 164.973H175.364V172.973H203.92V164.973ZM179.364 168.973V66.0859H171.364V168.973H179.364ZM179.364 66.0859V62.886H171.364V66.0859H179.364ZM175.364 58.886H172.164V66.8859H175.364V58.886ZM172.164 58.886H125.208V66.8859H172.164V58.886ZM125.208 58.886H122.008V66.8859H125.208V58.886ZM118.009 62.886V66.0859H126.008V62.886H118.009ZM118.009 66.0859V172.173H126.008V66.0859H118.009ZM118.009 172.173V175.373H126.008V172.173H118.009ZM122.008 179.373H125.208V171.373H122.008V179.373ZM125.208 179.373H146.078V171.373H125.208V179.373ZM150.078 175.373V168.973H142.078V175.373H150.078ZM146.078 164.973H128.408V172.973H146.078V164.973ZM132.408 168.973V69.2859H124.408V168.973H132.408ZM128.408 73.2859H168.964V65.2859H128.408V73.2859ZM164.964 69.2859V172.173H172.964V69.2859H164.964ZM164.964 172.173V175.373H172.964V172.173H164.964ZM168.964 179.373H172.164V171.373H168.964V179.373ZM172.164 179.373H207.12V171.373H172.164V179.373ZM207.12 179.373H210.32V171.373H207.12V179.373ZM214.32 175.373V172.173H206.32V175.373H214.32ZM214.32 172.173V69.2859H206.32V172.173H214.32ZM210.32 73.2859H228.785V65.2859H210.32V73.2859ZM243.997 120C243.997 101.279 239.846 83.5173 232.41 67.5935L225.161 70.9783C232.112 85.8642 235.997 102.473 235.997 120H243.997Z" fill="white" mask="url(#path-1-inside-1_1846_361)"/>
<path d="M95.6476 172.173H116.517V66.0859H69.561V119.129M69.561 119.129H56.3438M69.561 119.129H82.7782" stroke="white" stroke-width="6.39996"/>
<path d="M146.079 172.173H125.21V66.0859H172.166V119.129M172.166 119.129H158.948M172.166 119.129H185.383" stroke="white" stroke-width="6.39996"/>
<path d="M297.916 177.56C271.356 177.56 251.516 159.16 251.516 132.92V63.0008H275.836V131.8C275.836 145.72 284.956 154.68 297.916 154.68C310.716 154.68 319.836 145.72 319.836 131.8V63.0008H344.155V132.92C344.155 159.16 324.316 177.56 297.916 177.56ZM451.936 115.96C461.696 121.24 467.456 130.84 467.456 142.84C467.456 160.76 451.616 175.16 432.096 175.16H384.576V63.1608H430.816C450.176 63.1608 464.576 75.4807 464.576 91.9606C464.576 101.561 459.776 110.52 451.936 115.96ZM441.056 95.6405C441.056 88.6006 436.096 83.8006 428.576 83.8006H408.256V107.64H428.576C436.096 107.64 441.056 102.68 441.056 95.6405ZM429.856 152.92C437.856 152.92 443.136 147.64 443.136 140.28C443.136 133.08 437.856 127.8 429.856 127.8H408.256V152.92H429.856ZM556.351 177.56C522.112 177.56 496.512 152.28 496.512 119C496.512 85.8806 522.112 60.6008 556.351 60.6008C590.431 60.6008 615.871 85.7206 615.871 119C615.871 152.44 590.431 177.56 556.351 177.56ZM556.351 154.68C576.351 154.68 591.231 139.32 591.231 119C591.231 98.6805 576.351 83.4806 556.351 83.4806C536.352 83.4806 521.152 98.8405 521.152 119C521.152 139.16 536.352 154.68 556.351 154.68Z" fill="white"/>
</svg>
