<svg width="1201" height="318" viewBox="0 0 1201 318" fill="none" xmlns="http://www.w3.org/2000/svg">
<g clip-path="url(#clip0_1864_11883)">
<path d="M597.17 0.75C618.67 71.12 647.43 138.92 671.35 210.19C686.67 167.88 701.84 126.97 716.09 85.74C718.61 78.45 720.84 75.53 728.94 75.33C739.67 75.06 742.23 78.19 738.07 87.9C727.5 112.63 717.01 137.4 706.74 162.25C697.23 185.27 687.73 208.3 678.95 231.59C676.91 237.01 674.37 238.31 669.29 238.27C664.29 238.23 661.56 237.16 659.59 231.62C632.08 154.18 597.08 79.54 573.17 0.75H579.17C584.17 3.19 589.17 3.19 594.17 0.75H597.17Z" fill="white"/>
<path d="M594.17 0.75C589.17 5.19 584.17 5.21 579.17 0.75H594.17Z" fill="white"/>
<path d="M893.67 126.94C894.39 160.86 894.75 194.79 896.09 228.68C896.44 237.57 892.85 238.27 885.8 238.35C878.59 238.43 875.12 237.31 875.49 228.68C877.54 180.81 877.63 132.91 875.82 85.02C875.69 81.6 873.42 75.57 879.82 76.02C887.11 76.54 895.83 71.22 901.56 80.47C926.7 121.09 958.6 157.34 979.66 200.62C980.01 201.35 981.26 201.64 983.47 202.95C979.63 163.7 982.48 125.19 979.89 86.8C979.35 78.81 980.14 75.34 989.52 75.3C998.97 75.26 1000.84 77.7 1000.33 87.11C997.84 133.47 998.45 179.88 1000.01 226.27C1000.14 230.15 1003.92 236.27 997.28 237.62C991.35 238.83 984.59 240.23 979.94 233.02C952.95 191.18 920.84 152.77 896.87 108.91C887.79 113.49 894.08 120.8 893.66 126.92L893.67 126.94Z" fill="white"/>
<path d="M398.46 165.05C398.46 185.97 397.81 206.92 398.73 227.8C399.21 238.66 393.65 238.03 386.03 238.45C376.92 238.95 375.57 235.31 375.72 227.18C376.47 186.85 376.3 146.5 377.11 106.17C377.33 95.01 374.95 89.6 362.34 91.64C352.56 93.22 342.44 92.69 332.49 93.33C327.43 93.66 323.43 93.44 324.27 86.61C324.89 81.54 322.64 75.45 331.84 75.53C368.74 75.84 405.65 75.76 442.55 75.55C449.07 75.51 449.94 78.62 449.37 83.89C448.83 88.88 449.42 93.93 441.48 93.21C430.57 92.21 419.51 92.7 408.63 91.53C399.69 90.57 397.54 94 397.72 102.3C398.18 123.21 397.87 144.14 397.87 165.06C398.06 165.06 398.26 165.06 398.45 165.06L398.46 165.05Z" fill="white"/>
<path d="M200.75 156.56C200.76 133.11 201.2 109.64 200.53 86.21C200.29 77.69 202.46 75.09 211.03 75.4C218.92 75.68 223.5 75.57 223.19 86.22C221.96 127.61 222.27 169.05 221.19 210.45C220.95 219.59 222.49 222.67 232.21 222.01C251.13 220.72 270.15 220.83 289.12 220.22C294.76 220.04 300.14 218.8 299.86 227.8C299.63 235.03 298.25 238.55 289.83 238.39C263.36 237.88 236.87 237.93 210.39 238.37C202.59 238.5 200.32 236.42 200.52 228.42C201.11 204.48 200.73 180.52 200.75 156.57V156.56Z" fill="white"/>
<path d="M808.72 156.93C808.72 180.37 808.23 203.83 808.98 227.25C809.25 235.8 807.39 238.89 798.59 238.36C790.83 237.89 784.7 239.36 785.27 227.13C787.45 180.27 787.73 133.32 785.31 86.47C784.66 73.92 791.28 76.05 798.77 75.49C807.72 74.82 809.12 78.14 808.82 86.6C807.99 110.01 808.53 133.48 808.53 156.92C808.59 156.92 808.66 156.92 808.72 156.92V156.93Z" fill="white"/>
<path d="M893.67 126.94C890.4 121.18 890.81 114.57 891.5 108.7C892.45 100.65 895.19 104.25 896.87 108.93C891.46 114.16 896.59 121.27 893.66 126.94H893.67Z" fill="white"/>
<path d="M1142.2 85.99C1139.25 78.44 1136.24 74.32 1127.5 75.51C1119.27 76.62 1111.3 73.17 1106.51 85.64C1088.85 131.61 1069.25 176.82 1050.66 222.44C1048.8 227.02 1043 233.54 1048.67 236.88C1053.5 239.72 1061.69 239.23 1067.5 237.39C1073.75 235.41 1072.68 227.43 1074.09 221.97C1083.31 186.29 1083.2 186.26 1119.69 186.26H1125.68C1147.55 186.26 1161.95 196.63 1168.89 217.37C1173.78 231.97 1184.2 238.67 1200.17 237.47V231.48C1180.78 183.01 1161.19 134.62 1142.2 85.99ZM1143.93 169.16C1127.09 168.94 1110.25 169.08 1091.83 169.08C1102 143.38 1111.69 118.91 1122.19 92.38C1131.82 116.89 1140.47 139.27 1149.46 161.52C1151.98 167.76 1149.99 169.24 1143.94 169.16H1143.93Z" fill="white"/>
<path d="M150.27 220.12C133.42 173.86 111.76 129.46 96.3599 82.64C92.1799 69.93 82.1699 77.44 74.8899 75.79C68.1899 74.27 65.1299 77.1 62.4399 84.41C43.7399 135.27 21.6799 184.77 0.169922 234.48V237.48C15.9299 238.687 26.0099 232.307 30.4099 218.34C37.1433 196.953 51.8099 186.26 74.4099 186.26H81.8999C103.933 186.26 118.163 196.81 124.59 217.91C129.03 232.49 139.39 238.84 155.67 236.96C153.84 231.24 152.26 225.61 150.26 220.13L150.27 220.12ZM47.5899 168.44C57.4499 143.36 67.0699 118.88 77.6899 91.85C88.0399 118.85 97.3399 143.14 107.04 168.44H47.5899Z" fill="white"/>
<path d="M649.62 300.67C649.54 295.92 646.8 291.22 645.25 286.5C623.21 219.35 595.26 154.42 570.61 88.26C566.87 78.22 562.74 72.87 551.52 75.76C545.63 76.71 539.07 73.05 535.12 83.12C516.81 129.89 497.18 176.14 478.07 222.6C471.52 238.51 471.9 238.46 489.03 238.44C496.11 238.44 498.43 235.84 500.03 229.64C503.01 218.09 507.06 206.83 510.19 195.31C512.03 188.54 515.29 185.77 522.77 186.06C539.72 186.7 556.76 187 573.68 185.98C583.76 185.37 587.7 189.57 590.45 198.23C601.9 234.26 614.56 269.93 625.09 306.23C629.79 322.43 641.9 317.59 649.9 315.83C659.66 313.68 649.71 305.98 649.62 300.68V300.67ZM519.72 168.49C529.7 143.24 539.33 118.87 549.87 92.19C560.17 118.76 569.66 143.23 579.45 168.49H519.71H519.72Z" fill="white"/>
</g>
<defs>
<clipPath id="clip0_1864_11883">
<rect width="1200" height="317.13" fill="white" transform="translate(0.169922 0.75)"/>
</clipPath>
</defs>
</svg>
