<svg width="32" height="38" viewBox="0 0 32 38" fill="none" xmlns="http://www.w3.org/2000/svg">
<path d="M2.34071 12.25C1.6891 12.25 1.13623 12.4772 0.681767 12.9317C0.227301 13.3861 0 13.9315 0 14.568V24.3407C0 24.9931 0.227233 25.5455 0.681767 26.0001C1.13623 26.4545 1.6891 26.6818 2.34071 26.6818C2.99184 26.6818 3.54136 26.4546 3.98878 26.0001C4.43532 25.5456 4.6592 24.9931 4.6592 24.3407V14.568C4.6592 13.9314 4.43196 13.3861 3.97743 12.9317C3.5229 12.4772 2.97721 12.25 2.34071 12.25ZM21.1593 3.477L22.7729 0.500198C22.8789 0.303122 22.8412 0.151998 22.6596 0.0457323C22.4624 -0.0458994 22.3109 0.000531852 22.2051 0.181744L20.5689 3.18234C19.1291 2.54577 17.6063 2.22691 16.0005 2.22691C14.3943 2.22691 12.8714 2.54584 11.4321 3.18234L9.79584 0.181744C9.6895 0.000531852 9.53804 -0.0454891 9.34137 0.0457323C9.15934 0.152476 9.12166 0.303122 9.22799 0.500198L10.8417 3.477C9.20543 4.31146 7.90221 5.47361 6.93255 6.96598C5.9629 8.45916 5.47786 10.0909 5.47786 11.864H26.5002C26.5002 10.0913 26.0151 8.4595 25.0455 6.96598C24.0758 5.47361 22.7801 4.31146 21.1593 3.477ZM11.8297 7.8068C11.6552 7.98172 11.4468 8.06877 11.2045 8.06877C10.9617 8.06877 10.7576 7.98172 10.591 7.8068C10.4244 7.6327 10.3411 7.42509 10.3411 7.18199C10.3411 6.93972 10.4244 6.7317 10.591 6.55719C10.7576 6.38309 10.9622 6.29604 11.2045 6.29604C11.4468 6.29604 11.6552 6.38309 11.8297 6.55719C12.0038 6.73211 12.0913 6.93972 12.0913 7.18199C12.0908 7.42468 12.0034 7.6327 11.8297 7.8068ZM21.4091 7.8068C21.2421 7.98172 21.0375 8.06877 20.7956 8.06877C20.5528 8.06877 20.3444 7.98172 20.1702 7.8068C19.9958 7.6327 19.9088 7.42509 19.9088 7.18199C19.9088 6.93972 19.9958 6.7317 20.1702 6.55719C20.3444 6.38309 20.5528 6.29604 20.7956 6.29604C21.0379 6.29604 21.2421 6.38309 21.4091 6.55719C21.5758 6.73211 21.6589 6.93972 21.6589 7.18199C21.6589 7.42468 21.5757 7.6327 21.4091 7.8068ZM5.56813 27.818C5.56813 28.5156 5.81041 29.1062 6.29503 29.5908C6.78006 30.0754 7.37061 30.3177 8.06776 30.3177H9.74968L9.77272 35.4774C9.77272 36.1289 9.99996 36.6822 10.4544 37.1367C10.9089 37.5913 11.4546 37.8185 12.0907 37.8185C12.7419 37.8185 13.2951 37.5913 13.7497 37.1367C14.2042 36.6822 14.4314 36.129 14.4314 35.4774V30.3182H17.5677V35.4774C17.5677 36.1289 17.7949 36.6822 18.2494 37.1367C18.7039 37.5913 19.2567 37.8185 19.9083 37.8185C20.5595 37.8185 21.1128 37.5913 21.5673 37.1367C22.0218 36.6822 22.249 36.129 22.249 35.4774V30.3182H23.9536C24.6353 30.3182 25.2183 30.0758 25.7038 29.5912C26.1883 29.1066 26.4307 28.516 26.4307 27.8185V12.6814H5.56813V27.818ZM29.6593 12.25C29.0228 12.25 28.4775 12.4739 28.0229 12.9204C27.5685 13.3677 27.3412 13.9173 27.3412 14.568V24.3407C27.3412 24.9931 27.5684 25.5455 28.0229 26.0001C28.4775 26.4546 29.0232 26.6818 29.6593 26.6818C30.3105 26.6818 30.8637 26.4546 31.3183 26.0001C31.7728 25.5455 32 24.9931 32 24.3407V14.568C32 13.9172 31.7728 13.3677 31.3183 12.9204C30.8637 12.4739 30.3105 12.25 29.6593 12.25Z" fill="#111D2E"/>
</svg>
