<svg width="32" height="39" viewBox="0 0 32 39" fill="none" xmlns="http://www.w3.org/2000/svg">
<path d="M26.7545 20.1233C26.7375 17.0032 28.1488 14.6483 31.0053 12.9139C29.407 10.627 26.9926 9.36876 23.8045 9.12222C20.7864 8.88417 17.4878 10.882 16.2806 10.882C15.0053 10.882 12.0808 9.20723 9.78534 9.20723C5.04145 9.28375 0 12.9904 0 20.5314C0 22.7588 0.408077 25.0599 1.22423 27.4347C2.31244 30.5548 6.24018 38.2062 10.3379 38.0787C12.4804 38.0277 13.9936 36.5569 16.7822 36.5569C19.4857 36.5569 20.8884 38.0787 23.2774 38.0787C27.4092 38.0192 30.9628 31.0649 32 27.9363C26.457 25.3263 26.7545 20.2848 26.7545 20.1233ZM21.9426 6.16366C24.2636 3.40914 24.051 0.90117 23.983 0C21.9341 0.119022 19.5622 1.39426 18.2104 2.96706C16.7227 4.65038 15.847 6.73327 16.034 9.07971C18.2529 9.24974 20.2763 8.11053 21.9426 6.16366Z" fill="#111D2E"/>
</svg>
