<svg width="960" height="416" viewBox="0 0 960 416" fill="none" xmlns="http://www.w3.org/2000/svg">
<g clip-path="url(#clip0_1876_798)">
<path d="M479.704 312.919C321.277 312.919 162.85 312.919 4.4123 312.93C2.07363 312.93 -0.213079 313.241 0.00519725 309.676C0.109138 308.065 0.410568 307.348 2.21914 307.348C5.6388 307.348 9.04807 306.932 12.4677 306.932C324.967 306.911 637.466 306.911 949.975 306.922C952.22 306.922 954.465 307.13 956.7 307.015C959.007 306.891 959.943 307.566 959.995 310.092C960.047 312.867 958.695 313.127 956.585 312.94C955.671 312.857 954.735 312.93 953.81 312.93C795.778 312.93 637.746 312.93 479.714 312.93L479.704 312.919Z" fill="white"/>
<path d="M471.928 137.598C470.473 137.598 468.976 137.349 467.583 137.64C458.551 139.511 452.408 134.314 446.223 129.106C444.591 127.734 443.853 127.028 446.223 125.188C460.816 113.858 475.16 102.217 489.691 90.8042C498.838 83.6218 508.38 76.9488 517.651 69.9432C522.745 66.087 527.817 62.0645 532.609 57.7821C534.729 55.8904 536.756 55.09 538.939 57.4079C539.905 58.4369 541.225 58.6344 542.327 59.3204C547.514 62.5218 551.245 66.2013 550.019 73.2381C549.26 77.5933 549.717 82.1978 549.946 86.6673C550.071 89.0788 549.135 90.5443 547.347 91.9371C528.513 106.551 509.69 121.186 490.918 135.873C488.735 137.578 486.241 137.432 483.819 137.557C479.869 137.744 475.898 137.609 471.949 137.609L471.928 137.598Z" fill="white"/>
<path d="M428.131 102.081C425.584 93.1734 429.419 87.9139 436.654 82.8624C448.565 74.5575 459.313 64.6 470.913 55.8169C476.474 51.6073 481.993 47.3146 487.574 43.1257C488.905 42.1279 490.194 42.0759 491.628 42.0759C499.819 42.0759 507.999 42.1695 516.179 42.024C518.985 41.972 521.231 42.5956 523.351 44.5185C525.887 46.8156 528.642 48.8841 531.448 50.8382C533.516 52.2622 533.246 53.1249 531.406 54.5281C522.738 61.1907 514.225 68.0404 505.525 74.6615C494.071 83.3717 482.928 92.4769 471.287 100.938C461.776 107.85 452.588 115.209 443.348 122.495C441.102 124.262 439.814 123.826 437.423 122.318C429.69 117.485 424.898 111.633 428.12 102.081H428.131Z" fill="white"/>
<path d="M732.654 235.124C721.733 235.388 711.987 232.2 703.416 225.562C697.886 221.311 692.762 215.698 686.473 213.515C680.455 211.426 673.169 212.964 666.444 212.943C658.128 212.923 649.813 213.141 641.508 212.839C637.829 212.704 637.028 214.066 637.174 217.361C637.382 222.371 637.174 227.391 637.257 232.401C637.288 234.386 636.685 235.124 634.575 235.239C624.566 235.79 624.566 235.852 624.566 225.915C624.566 205.335 624.639 184.744 624.493 164.164C624.472 160.807 625.231 159.944 628.775 159.653C636.28 159.04 641.092 162.386 646.092 167.521C649.896 171.429 654.74 174.693 659.469 177.697C666.683 182.26 673.345 187.582 679.686 193.163C688.375 200.803 698.291 206.759 707.105 214.191C715.452 221.228 724.568 227.308 732.737 234.584C732.633 234.75 732.613 234.927 732.654 235.114V235.124ZM670.331 201.406C670.529 199.94 669.645 198.787 669.042 198.506C662.941 195.7 658.201 191.001 652.869 187.145C648.514 183.996 644.346 180.597 640.136 177.26C639.429 176.699 639.648 174.839 638.13 175.483C636.987 175.972 637.403 177.333 637.392 178.331C637.319 185.191 637.382 192.051 637.195 198.901C637.122 201.416 638.068 202.03 640.406 201.967C650.395 201.687 660.363 200.969 670.352 201.416L670.331 201.406Z" fill="white"/>
<path d="M228.208 233.764C236.357 227.31 244.464 220.803 252.665 214.421C271.718 199.599 290.812 184.839 309.885 170.048C312.483 168.032 315.196 166.13 317.608 163.906C320.975 160.777 324.676 159.415 329.364 159.748C334.8 160.132 334.904 159.841 335.111 165.465C335.257 169.279 335.143 173.115 335.143 176.94C335.143 195.14 335.07 213.34 335.215 231.54C335.236 234.554 334.353 235.303 331.432 235.261C322.992 235.147 322.992 235.282 322.992 226.717C322.992 223.027 322.909 219.327 323.023 215.637C323.085 213.569 322.316 212.893 320.269 212.903C305.104 212.966 289.928 212.997 274.763 212.883C272.175 212.862 270.668 214.494 268.974 215.772C260.835 221.915 252.78 228.183 244.745 234.481C243.643 235.344 242.531 235.168 241.377 235.168C237.022 235.199 232.667 235.168 228.322 235.168C228.291 234.7 228.25 234.232 228.218 233.764H228.208ZM289.585 200.545C289.668 200.867 289.741 201.189 289.824 201.501C300.083 200.721 310.28 201.99 320.518 201.927C321.776 201.927 322.961 201.917 322.961 200.181C322.961 192.209 322.961 184.226 322.961 175.152C311.215 184.08 300.405 192.313 289.585 200.545Z" fill="white"/>
<path d="M463.813 179.118C459.364 179.118 455.591 179.076 451.807 179.139C450.435 179.159 449.625 178.38 448.783 177.528C442.266 170.906 434.896 168.557 425.323 170.085C414.046 171.873 407.788 178.359 404.098 188.13C402.591 192.121 401.988 196.258 403.527 200.935C404.462 203.773 404.109 207.234 405.72 210.248C410.553 219.249 420.833 226.91 431.861 225.767C441.039 224.81 451.735 219.01 455.248 207.67C445.29 207.67 435.437 207.712 425.593 207.629C423.993 207.618 421.342 208.564 420.958 206.86C420.313 204.001 420.708 200.852 421.01 197.869C421.103 196.954 422.61 197.276 423.494 197.276C437.484 197.256 451.475 197.318 465.465 197.214C467.814 197.193 468.365 198.045 468.261 200.207C467.513 215.612 458.231 229.893 440.519 234.498C421.592 239.414 407.019 233.708 396.583 217.534C390.42 207.972 389.526 196.902 393.122 185.521C395.949 176.54 401.178 169.722 408.765 164.701C413.37 161.645 418.515 159.338 424.263 159.327C431.695 159.317 439.262 158.33 446.143 162.456C453.065 166.603 459.208 171.509 463.813 179.139V179.118Z" fill="white"/>
<path d="M568.042 213.936C568.042 212.886 568.042 211.826 568.042 210.776C568.998 209.986 568.987 209.185 568.042 208.395C568.094 193.885 568.156 179.365 568.197 164.855C568.211 161.508 569.937 159.834 573.374 159.834C574.954 159.834 576.544 159.813 578.124 159.803C578.602 159.917 579.08 160.021 579.558 160.136C579.631 167.775 579.756 175.415 579.777 183.065C579.808 198.895 579.704 214.715 579.849 230.545C579.88 233.861 578.831 235.119 575.536 234.765C573.582 234.557 571.576 234.661 569.601 234.745C568.239 234.797 567.366 234.204 566.67 233.133C560.662 223.779 555.039 214.133 548.511 205.153C542.503 196.889 538.252 187.535 531.818 179.51C530.394 180.841 530.935 182.504 530.935 183.98C530.893 199.675 530.914 215.37 530.903 231.065C530.903 235.711 530.883 235.722 526.392 234.713C526.268 234.682 526.143 234.62 526.018 234.599C523.794 234.09 520.977 235.763 519.345 233.487C517.838 231.387 519.667 228.945 519.657 226.596C519.563 205.755 519.688 184.926 519.512 164.085C519.48 160.499 520.592 159.845 523.95 159.709C529.168 159.502 532.65 160.385 535.622 165.603C541.62 176.111 548.418 186.204 555.111 196.297C559.051 202.232 561.888 208.998 567.168 214.029C567.543 214.861 566.888 216.098 568.343 216.711C568.582 215.682 569.123 214.777 568.021 213.967L568.042 213.936Z" fill="white"/>
<path d="M351.577 202.583C351.577 211.761 351.421 220.95 351.66 230.117C351.754 233.63 350.953 234.94 347.159 234.774C339.998 234.462 339.987 234.691 339.987 227.384C339.987 206.273 340.081 185.152 339.894 164.042C339.863 160.414 340.965 159.562 344.353 159.759C353.656 160.321 363.062 158.814 372.292 160.882C382.24 163.106 389.848 171.619 389.879 182.252C389.9 189.85 388.247 196.492 382.343 201.772C379.329 204.465 375.587 205.608 372.012 206.606C368.634 207.552 370.162 208.83 371.055 210.036C374.111 214.1 377.146 218.206 380.556 221.958C383.57 225.274 385.025 229.67 388.58 232.591C389.827 233.62 389.152 234.701 387.405 234.691C383.84 234.659 380.275 234.649 376.72 234.67C375.483 234.67 375.016 233.963 374.402 232.996C371.679 228.704 368.894 224.369 365.869 220.378C362.397 215.794 359.081 211.054 355.506 206.523C354.456 205.192 353.469 203.799 352.46 202.427C352.169 202.479 351.868 202.542 351.577 202.594V202.583ZM351.577 183.801C351.577 187.626 351.567 191.451 351.577 195.287C351.577 196.586 351.348 198.031 353.406 198.051C359.591 198.114 365.775 198.426 371.638 195.806C376.44 193.665 379.111 188.728 378.695 182.543C378.394 177.939 374.018 172.118 369.808 171.276C364.393 170.206 358.874 170.289 353.365 170.372C351.608 170.403 351.556 171.453 351.567 172.721C351.577 176.421 351.567 180.111 351.567 183.811L351.577 183.801Z" fill="white"/>
<path d="M492.264 234.685C486.588 234.685 480.924 234.685 475.248 234.685C472.702 234.685 470.581 234.456 471.985 230.901C472.39 229.872 472.12 228.563 472.12 227.378C472.12 206.278 472.192 185.167 472.047 164.067C472.026 160.772 472.598 159.473 476.298 159.587C487.233 159.91 498.188 159.868 509.133 159.764C511.929 159.733 512.688 160.565 512.646 163.309C512.553 170.377 512.688 170.377 505.661 170.377C499.331 170.377 492.991 170.512 486.671 170.314C484 170.231 483.304 171.135 483.387 173.671C483.564 178.681 483.564 183.702 483.387 188.701C483.293 191.217 484.25 191.809 486.588 191.778C494.103 191.653 501.629 191.861 509.144 191.664C511.94 191.591 512.698 192.412 512.657 195.187C512.532 202.266 512.678 202.266 505.641 202.266C499.311 202.266 492.97 202.39 486.651 202.203C483.927 202.12 483.314 203.149 483.397 205.644C483.564 210.778 483.564 215.934 483.397 221.069C483.325 223.47 484.042 224.27 486.505 224.218C493.885 224.073 501.286 224.291 508.665 224.104C511.597 224.031 512.813 224.582 512.688 227.898C512.438 234.664 512.646 234.674 505.734 234.674C501.254 234.674 496.764 234.674 492.284 234.674L492.264 234.685Z" fill="white"/>
<path d="M116.63 366.538C116.63 360.998 116.557 355.448 116.672 349.908C116.713 347.787 116.235 346.686 113.855 346.935C108.689 347.465 110.56 343.536 110.155 341.021C109.583 337.424 112.13 338.09 114.136 338.09C122.451 338.09 130.797 337.684 139.081 338.256C147.449 338.828 155.972 340.116 161.554 347.517C168.497 356.726 168.923 366.996 164.838 377.348C160.182 389.135 150.889 394.426 138.427 394.467C130.111 394.498 121.786 394.395 113.481 394.53C110.945 394.571 109.729 393.906 110.186 391.245C110.518 389.27 108.824 386.027 113.179 386.599C116.1 386.984 116.734 385.341 116.682 382.784C116.568 377.379 116.651 371.964 116.651 366.549L116.63 366.538ZM128.428 366.601C128.428 372.265 128.563 377.941 128.365 383.605C128.282 386.131 129.145 386.703 131.504 386.651C144.237 386.37 151.71 382.66 154.298 368.679C155.733 360.936 152.22 352.621 145.484 348.577C141.046 345.916 136.119 346.405 131.265 346.228C128.968 346.145 128.344 346.997 128.386 349.191C128.511 354.99 128.428 360.79 128.428 366.59V366.601Z" fill="white"/>
<path d="M379.434 395.044C373.25 388.88 374.123 384.764 382.438 381.407C376.992 378.299 372.844 374.578 373.032 367.593C373.26 358.935 378.894 352.137 387.583 351.877C396.366 351.607 405.191 352.075 413.984 352.449C417.56 352.605 415.523 355.64 415.866 357.345C416.136 358.706 416.572 360.837 413.849 360.473C410.128 359.974 410.305 361.502 411.064 364.517C413.309 373.414 408.423 380.118 399.828 381.927C396.99 382.53 394.152 382.769 391.263 382.706C389.527 382.675 387.479 382.675 387.386 385.014C387.292 387.394 389.278 387.197 391.034 387.508C396.387 388.454 401.927 388.059 407.166 389.743C415.159 392.311 417.799 399.534 413.361 406.727C411.5 409.741 408.714 411.592 405.711 413.39C400.493 416.518 394.911 415.728 389.361 415.614C385.733 415.541 382.21 414.855 378.842 413.4C374.809 411.654 371.784 408.962 371.66 404.399C371.545 400.137 374.248 397.466 378.073 395.876C378.551 395.678 378.956 395.335 379.424 395.044H379.434ZM392.801 359.621C388.072 359.6 384.039 362.282 383.478 365.806C382.875 369.599 385.692 373.622 389.662 374.641C394.204 375.805 400.638 372.894 401.563 369.256C401.626 369.007 401.626 368.737 401.657 368.477C402.353 363.082 398.923 359.652 392.801 359.631V359.621ZM391.595 407.216C395.337 407.517 398.632 406.893 401.802 405.532C403.84 404.648 404.172 403.027 404.11 401C404.048 398.765 402.01 398.838 401.023 398.713C396.231 398.11 391.429 397.237 386.565 397.705C384.787 397.882 383.218 398.734 382.75 400.522C382.261 402.403 382.833 404.108 384.444 405.459C386.658 407.309 389.236 407.361 391.595 407.216Z" fill="white"/>
<path d="M773.45 364.759C774.011 365.144 774.438 365.622 774.968 365.778C786.069 368.979 785.372 373.916 785.143 382.003C785.008 386.888 779.406 392.283 773.014 393.468C762.432 395.432 751.716 394.258 741.052 394.403C737.559 394.455 739.493 391.441 739.233 389.85C738.994 388.426 738.339 385.963 741.301 386.368C744.866 386.847 745.022 384.882 745.001 382.159C744.897 371.463 744.897 360.778 745.001 350.083C745.022 347.744 744.492 346.663 741.946 346.933C737.102 347.442 738.734 343.732 738.36 341.289C737.861 338.067 739.773 338.025 742.133 338.067C750.583 338.213 759.044 337.942 767.473 338.41C772.993 338.711 778.938 339.813 780.903 346.029C783.356 353.762 783.47 359.77 773.45 364.769V364.759ZM765.135 386.046C765.467 385.994 765.8 385.942 766.133 385.89C771.995 384.009 773.471 381.618 772.463 375.621C771.839 371.9 766.237 369.384 759.449 370.341C754.616 371.027 758.046 375.257 756.913 377.617C756.757 377.939 756.871 378.396 756.892 378.791C757.433 387.034 754.865 386.659 765.135 386.046ZM762.328 346.881C760.748 346.964 759.106 346.777 757.62 347.203C756.331 347.567 756.58 360.446 757.776 361.111C760.79 362.784 768.554 360.196 769.978 357.057C772.774 350.873 769.822 346.975 762.328 346.881Z" fill="white"/>
<path d="M600.93 366.605C603.705 366.605 606.48 366.709 609.245 366.574C611.344 366.47 612.373 367.385 611.843 369.318C611.282 371.355 613.891 374.941 609.661 375.191C606.917 375.357 606.761 376.542 606.823 378.61C606.917 381.645 606.844 384.68 606.844 387.715C606.844 392.871 606.397 393.796 601.221 394.399C593.82 395.262 586.409 396.052 578.915 394.596C567.18 392.32 557.066 380.419 557.482 367.748C557.7 361.117 558.792 355.182 562.357 349.808C569.508 339.04 580.297 336.514 592.344 337.065C597.167 337.283 601.761 338.614 606.386 339.83C607.956 340.246 607.665 341.285 607.675 342.252C607.717 345.682 607.582 349.112 607.738 352.542C607.831 354.787 607.363 355.639 604.775 355.826C597.77 356.325 597.77 356.533 597.344 349.372C597.271 348.176 597.406 347.303 595.67 346.898C588.716 345.256 578.572 345.952 573.894 352.885C570.225 358.331 569.882 364.422 570.787 370.576C572.346 381.178 581.139 387.757 591.741 386.593C593.747 386.375 595.254 385.782 595.005 383.246C594.839 381.552 594.87 379.816 595.005 378.111C595.15 376.199 594.703 375.315 592.479 375.253C587.604 375.128 590.203 371.23 589.704 369.006C589.101 366.293 591.294 366.595 592.999 366.595C595.639 366.595 598.279 366.595 600.919 366.595L600.93 366.605Z" fill="white"/>
<path d="M436.357 332.766V358.283C442.189 350.467 449.932 350.716 457.645 352.733C461.21 353.668 463.257 357.213 464.245 360.986C465.908 367.337 464.889 373.812 465.264 380.215C465.419 382.813 463.642 386.285 468.933 386.701C470.866 386.857 469.577 390.775 469.993 392.948C470.253 394.32 468.642 394.486 467.374 394.476C462.228 394.434 457.083 394.413 451.928 394.476C450.171 394.496 448.851 394.018 449.36 392.095C449.88 390.141 447.365 386.878 451.315 386.399C453.425 386.14 453.955 385.422 453.913 383.479C453.809 378.593 453.965 373.708 453.851 368.833C453.726 363.543 451.71 361.433 446.866 361.163C442.022 360.903 438.031 363.803 437.303 368.043C436.399 373.292 436.929 378.573 436.784 383.843C436.752 385.204 437.116 386.046 438.727 386.181C443.633 386.597 440.733 390.349 441.17 392.522C441.7 395.162 439.289 394.403 437.906 394.434C433.156 394.507 428.406 394.403 423.656 394.496C421.712 394.538 420.361 393.998 420.901 391.888C421.39 389.975 418.916 386.649 423.084 386.368C425.09 386.233 425.444 385.37 425.433 383.645C425.392 370.185 425.34 356.724 425.464 343.264C425.496 340.218 423.645 340.457 421.868 340.717C418.189 341.258 418.313 339.075 418.261 336.477C418.209 333.857 418.428 332.288 421.764 332.506C426.358 332.818 430.994 332.589 435.619 332.589L435.963 332.766H436.347H436.357Z" fill="white"/>
<path d="M820.337 382.974C823.112 377.797 824.183 372.756 825.939 367.985C827.821 362.903 829.338 357.695 831.095 352.571C831.906 350.211 831.916 348.289 829.214 347.166C825.347 345.555 827.239 342.125 827.239 339.578C827.239 336.907 829.879 338.185 831.303 338.144C836.437 337.978 841.582 338.071 846.728 338.092C847.871 338.092 849.451 337.853 849.181 339.693C848.858 341.875 850.615 345.617 848.141 345.939C844.254 346.438 843.942 349.11 843.006 351.417C837.591 364.929 832.311 378.504 827.062 392.079C826.407 393.773 825.596 394.47 823.663 394.532C812.666 394.906 812.167 395.104 808.446 383.764C806.097 376.602 802.75 369.867 800.526 362.664C798.998 357.737 796.534 353.101 794.695 348.268C794.237 347.083 793.614 346.927 792.678 346.968C787.159 347.249 789.456 343.071 789.113 340.545C788.635 337.042 791.452 338.154 793.125 338.123C798.26 338.009 803.415 338.009 808.55 338.123C809.839 338.154 812.354 337.125 811.907 339.859C811.554 341.99 814.184 345.274 809.901 346.199C808.29 346.542 807.937 347.26 808.56 349.016C812.5 360.065 816.262 371.166 820.337 382.984V382.974Z" fill="white"/>
<path d="M498.289 34.8963C507.415 27.766 516.541 20.6356 525.646 13.4948C526.914 12.497 528.203 11.8318 529.929 11.8318C547.993 11.8838 566.058 11.8734 584.123 11.8942C584.352 11.8942 584.581 12.0605 585.34 12.3515C578.24 17.9123 570.954 22.8495 564.603 28.7742C557.93 35.0002 550.623 36.892 541.705 36.4346C529.346 35.8006 516.925 36.2995 504.536 36.2579C502.301 36.2579 500.077 36.0085 497.852 35.863C497.998 35.5407 498.143 35.2185 498.289 34.8859V34.8963Z" fill="white"/>
<path d="M333.438 358.686C333.75 358.54 334.156 358.467 334.384 358.228C341.057 351.108 345.704 350.038 354.705 353.187C357.75 354.247 359.517 356.233 360.494 359.091C363.01 366.471 361.939 374.121 362.147 381.667C362.22 384.099 361.16 386.739 365.66 386.885C368.217 386.968 366.118 390.689 367.178 392.612C367.562 393.309 366.388 394.535 364.829 394.514C359.424 394.41 354.019 394.441 348.614 394.504C346.961 394.525 345.922 393.974 346.327 392.259C346.774 390.367 344.675 387.27 347.907 386.771C350.682 386.334 351.036 385.118 351.005 382.873C350.932 378.123 351.056 373.383 350.953 368.633C350.859 363.976 348.822 361.742 344.508 361.201C340.008 360.64 336.131 362.875 334.842 366.668C332.836 372.593 334.021 378.694 333.729 384.723C333.688 385.648 334.197 386.126 335.122 386.303C336.193 386.511 337.939 385.71 338.189 387.228C338.532 389.276 338.355 391.438 338.157 393.527C338.033 394.805 336.744 394.452 335.902 394.462C330.892 394.493 325.882 394.473 320.872 394.483C319.645 394.483 318.149 394.493 318.523 392.758C318.959 390.71 316.777 387.664 319.968 386.75C322.244 386.095 322.535 384.993 322.525 383.133C322.493 376.543 322.431 369.943 322.556 363.353C322.597 361.076 321.839 360.297 319.614 360.494C315.197 360.889 317.286 357.47 316.912 355.599C316.465 353.426 317.141 352.137 319.791 352.325C322.805 352.532 325.861 352.532 328.886 352.325C331.775 352.127 333.428 352.74 332.856 356.098C332.721 356.888 332.43 357.927 333.449 358.696L333.438 358.686Z" fill="white"/>
<path d="M289.835 351.757C305.769 351.164 312.338 360.3 312.141 373.626C311.943 387.45 303.649 395.09 289.669 395.401C275.335 395.713 267.997 386.92 267.81 373.771C267.643 361.766 277.113 350.572 289.835 351.757ZM299.512 372.971C299.512 372.004 299.761 370.497 299.46 369.115C298.732 365.757 297.672 362.556 293.92 361.246C290.116 359.916 286.644 360.352 283.702 363.18C279.378 367.358 278.963 378.594 282.84 383.219C287.475 388.739 296.477 386.525 298.462 381.12C299.418 378.511 299.387 376.037 299.512 372.981V372.971Z" fill="white"/>
<path d="M582.47 159.797C594.08 159.808 605.691 159.901 617.301 159.777C620.045 159.745 621.271 160.172 621.188 163.373C621.001 170.379 621.188 170.389 614.12 170.389C609.387 170.389 607.021 172.707 607.021 177.343C606.979 195.543 606.865 213.753 606.938 231.953C606.948 234.781 606.054 235.456 603.342 235.383C594.766 235.144 595.712 236.319 595.702 227.775C595.681 209.835 595.639 191.894 595.754 173.944C595.775 171.293 595.234 170.056 592.313 170.337C589.829 170.576 587.283 170.192 584.798 170.441C581.888 170.732 581.129 169.537 581.4 166.865C581.628 164.641 581.535 162.386 581.576 160.151C581.867 160.037 582.169 159.922 582.46 159.797H582.47Z" fill="white"/>
<path d="M210.586 383.938C210.742 393.874 212.914 393.064 202.157 394.81C191.95 396.473 182.262 395.797 175.319 386.349C173.261 383.553 172.7 380.435 172.232 377.275C170.829 367.868 173.167 359.616 181.597 354.481C189.611 349.596 205.42 349.533 210.545 361.466C211.969 364.792 212.779 368.367 213.351 371.995C213.819 374.978 213.029 375.965 209.931 375.903C202.416 375.737 194.902 375.976 187.376 375.903C184.341 375.872 183.468 376.381 184.954 379.603C188.145 386.536 195.307 387.493 202.541 386.318C205.171 385.892 207.697 384.811 210.586 383.938ZM192.656 368.222C194.902 368.222 197.136 368.211 199.381 368.222C200.94 368.232 201.325 367.775 200.951 366.06C199.683 360.229 193.81 357.277 188.571 360.177C185.983 361.611 184.081 364.199 184.559 366.954C185.048 369.739 188.073 367.713 189.902 368.191C190.765 368.419 191.742 368.232 192.656 368.222Z" fill="white"/>
<path d="M690.149 395.313C684.62 395.479 680.15 394.679 675.67 393.805C673.82 393.452 673.259 392.485 673.332 390.812C673.363 390.022 673.332 389.232 673.332 388.442C673.394 378.235 672.292 381.436 681.626 381.083C682.863 381.041 683.871 381.447 683.56 382.84C682.697 386.623 685.597 386.987 687.811 387.028C691.178 387.101 694.671 387.278 697.623 384.679C699.057 383.411 698.818 382.133 698.693 380.823C698.569 379.524 697.404 378.952 696.147 378.724C691.823 377.934 687.499 377.144 683.196 376.312C681.356 375.959 679.204 377.206 677.687 375.21C675.66 372.539 672.926 370.273 672.604 366.604C672.074 360.627 675.899 354.765 681.761 352.977C689.786 350.524 697.779 351.605 705.709 353.705C706.988 354.048 707.684 354.828 707.476 356.272C707.362 357.052 707.456 357.852 707.456 358.642C707.456 365.471 706.136 366.479 699.213 365.211C697.456 364.889 697.155 363.902 697.145 362.446C697.145 361.573 697.436 360.596 696.448 359.941C695.211 359.131 686.064 359.806 684.932 360.825C682.666 362.883 683.165 365.793 686.21 366.521C690.981 367.654 695.856 368.319 700.679 369.213C705.855 370.18 708.942 373.475 709.056 378.11C709.337 389.544 704.223 394.959 692.769 395.313C691.584 395.344 690.399 395.313 690.149 395.313Z" fill="white"/>
<path d="M235.432 402.194C242.749 398.858 245.493 393.11 246.73 385.127C248.57 373.278 247.229 361.522 247.915 349.756C248.05 347.396 247.635 346.087 244.776 346.211C240.608 346.399 242.926 343.041 242.521 341.285C242.126 339.58 242.209 337.938 244.943 338.021C250.607 338.198 256.282 338.146 261.958 338.031C263.985 337.99 264.93 338.572 264.66 340.703C264.556 341.482 264.421 342.376 264.691 343.062C265.866 346.014 265.294 347.407 261.802 346.991C259.141 346.669 259.796 348.82 259.785 350.244C259.744 359.734 259.931 369.234 259.702 378.724C259.536 385.813 258.528 392.798 254.36 398.91C251.293 403.41 246.928 406.3 242.365 409.002C240.224 410.281 238.831 409.283 237.843 407.495C236.918 405.822 236.243 404.003 235.432 402.194Z" fill="white"/>
<path d="M495.657 136.54C513.431 122.685 531.195 108.819 549.79 94.3298C549.79 101.398 549.852 107.614 549.727 113.819C549.707 114.962 548.522 115.752 547.586 116.48C539.687 122.571 531.756 128.599 523.94 134.794C521.57 136.675 519.179 137.746 516.082 137.663C509.409 137.497 502.725 137.611 496.042 137.611C495.917 137.257 495.782 136.904 495.657 136.54Z" fill="white"/>
<path d="M482.508 42.0802C474.941 49.4288 466.637 54.7714 459.059 60.9974C449.736 68.6475 440.121 75.8922 430.299 82.877C429.685 83.3136 429.238 84.2387 428.345 83.9165C427.17 83.4799 427.815 82.3365 427.648 81.505C427.596 81.2556 427.638 80.9749 427.648 80.7151C427.721 75.5908 426.318 69.7597 428.303 65.5397C430.216 61.4964 435.641 59.0953 439.549 55.9979C444.809 51.8402 450.079 47.7138 455.369 43.5977C456.294 42.8805 457.167 42.0698 458.488 42.0802C466.314 42.101 474.141 42.0802 482.529 42.0802H482.508Z" fill="white"/>
<path d="M647.227 361.32C642.145 361.196 639.972 357.963 641.791 353.244C642.238 352.08 643.132 351.591 644.286 351.779C647.3 352.288 647.571 350.479 647.248 348.296C646.718 344.794 647.924 343.12 651.635 343.817C651.884 343.869 652.165 343.837 652.425 343.817C654.316 343.702 656.208 343.588 658.089 343.474C658.193 345.428 658.432 347.392 658.349 349.346C658.245 351.768 659.274 352.724 661.634 352.558C663.078 352.465 664.565 352.724 665.978 352.506C669.429 351.976 670.24 353.244 670.406 356.736C670.604 361.123 668.151 360.52 665.532 360.51C659.014 360.489 659.014 360.51 659.014 366.86C659.014 371.216 658.962 375.56 659.035 379.915C659.129 385.622 661.343 387.358 667.049 386.578C668.047 386.443 669.928 384.655 670.063 386.973C670.198 389.197 671.789 392.471 668.858 393.688C663.962 395.725 658.63 396.338 653.526 394.394C649.94 393.033 648.423 389.675 647.518 386.11V386.141C647.404 377.847 647.3 369.552 647.186 361.258C647.321 361.175 647.456 361.081 647.591 360.998C647.519 360.998 647.415 360.988 647.373 361.029C647.3 361.102 647.279 361.216 647.227 361.32Z" fill="white"/>
<path d="M632.196 369.674C632.196 374.424 632.165 379.175 632.227 383.914C632.237 384.943 631.624 386.409 633.578 386.606C634.67 386.721 636.333 385.952 636.707 387.407C637.164 389.226 637.143 391.221 637.039 393.123C636.967 394.496 635.699 394.475 634.618 394.475C629.337 394.464 624.068 394.412 618.787 394.506C616.896 394.537 615.835 393.789 616.386 392.022C616.979 390.12 614.266 386.825 618.33 386.409C620.43 386.191 620.991 385.505 620.97 383.53C620.887 376.805 620.856 370.08 620.981 363.355C621.022 361.068 620.211 360.205 618.018 360.517C613.507 361.162 615.108 357.794 614.796 355.653C614.411 353.065 615.451 352.191 618.06 352.316C621.874 352.514 625.71 352.462 629.535 352.327C631.593 352.254 632.3 352.95 632.248 355.029C632.123 359.904 632.206 364.789 632.206 369.664L632.196 369.674Z" fill="white"/>
<path d="M124.941 290.904C125.201 292.765 124.795 293.929 122.509 293.804C119.764 293.648 117 293.742 114.245 293.721C113.975 293.503 113.694 293.295 113.424 293.076C113.497 292.172 113.424 290.52 113.642 290.488C118.205 289.688 116.251 286.144 116.553 283.649C116.761 281.955 116.729 280.209 116.584 278.504C116.428 276.706 117.779 274.211 114.141 273.858C112.8 273.723 113.102 271.613 113.809 270.511C114.536 269.388 121.085 269.856 121.719 271.145C122.217 272.153 122.145 272.631 123.444 271.862C127.622 269.378 131.884 268.442 135.803 272.434C136.915 273.567 137.809 272.683 138.484 272.039C141.779 268.837 145.781 269.108 149.356 270.625C152.984 272.163 153.119 275.999 153.046 279.543C153.005 281.788 152.994 284.034 153.005 286.279C153.005 287.89 152.423 289.74 154.99 290.208C155.957 290.384 156.165 291.528 156.04 292.526C155.874 293.825 154.876 293.752 153.951 293.762C151.706 293.783 149.46 293.762 147.215 293.762C146.238 293.762 145.282 293.669 145.22 292.411C145.178 291.538 144.877 290.509 146.051 290.041C146.29 289.948 146.685 290.01 146.8 289.854C149.523 285.936 148.057 281.612 147.714 277.485C147.506 274.949 145.469 273.879 142.787 274.107C139.711 274.367 137.32 277.059 137.123 280.947C137.019 283.057 137.123 285.167 137.102 287.277C137.102 288.628 136.956 289.989 138.994 289.937C140.324 289.906 140.345 290.946 140.282 291.891C140.199 293.118 139.503 293.856 138.276 293.887C135.907 293.939 133.526 293.939 131.146 293.887C129.899 293.856 129.265 293.087 129.192 291.85C129.14 290.863 129.254 290 130.554 289.896C131.042 289.854 131.666 289.73 131.957 289.397C133.246 287.973 132.165 276.155 130.699 274.887C128.724 273.172 124.712 274.003 123.091 276.425C120.627 280.105 121.178 284.241 121.334 288.274C121.396 289.989 122.997 290.021 124.338 290.083C124.535 290.353 124.733 290.623 124.941 290.894V290.904ZM121.885 273.941C121.822 273.837 121.771 273.723 121.708 273.619C121.615 273.681 121.448 273.785 121.448 273.806C121.531 273.972 121.635 274.118 121.739 274.274C121.781 274.159 121.833 274.055 121.874 273.941H121.885Z" fill="white"/>
<path d="M71.4587 261.641C74.8264 261.641 78.1837 261.641 81.5514 261.641C81.8944 261.787 82.227 261.932 82.57 262.078C82.6636 263.543 83.5679 265.342 80.8758 265.539C79.0776 265.674 79.535 267.213 79.5246 268.304C79.4622 274.499 79.4622 280.704 79.431 286.909C79.431 288.354 79.192 289.82 81.4163 290.007C82.9962 290.132 82.331 291.618 82.4141 292.553C82.5285 293.905 81.541 293.936 80.5744 293.936C78.0694 293.936 75.5644 293.925 73.049 293.936C71.6874 293.936 70.7727 293.458 70.5856 291.982C70.3881 290.454 71.0222 289.789 72.5709 289.882C74.2963 289.986 74.2859 288.76 74.3899 287.502C74.8195 282.312 72.4635 279.717 67.3219 279.717H66.5319C59.3184 279.717 58.3414 280.933 59.5367 288.115C59.7654 289.466 60.3474 289.861 61.5635 289.944C63.1019 290.059 62.9252 291.265 62.8836 292.314C62.8212 293.551 61.9481 293.749 60.9503 293.759C58.4453 293.759 55.9403 293.77 53.425 293.77C52.3648 293.77 51.1798 293.873 51.0863 292.356C51.0135 291.181 50.868 289.57 52.2816 289.383C54.4955 289.103 54.2253 287.71 54.2461 286.286C54.3292 280.351 54.4436 274.416 54.5059 268.481C54.5163 267.14 55.0672 265.435 52.4271 266.1C50.8368 266.506 51.0863 264.915 51.0551 263.918C51.0239 262.837 51.0343 261.673 52.5622 261.652C55.4622 261.621 58.3622 261.641 61.2725 261.652C62.4159 261.652 62.9564 262.317 62.9252 263.398C62.894 264.521 63.1538 265.643 61.5428 266.225C57.1564 267.826 60.0356 271.526 59.6614 274.187C59.308 276.734 61.9585 275.414 63.2786 275.653C64.5571 275.881 65.9083 275.705 67.2283 275.705C75.2006 275.705 75.1694 275.705 74.5458 267.701C74.4419 266.35 74.3067 265.352 72.6229 265.498C69.8684 265.737 70.7 263.741 70.6584 262.307C70.939 262.088 71.2093 261.87 71.4899 261.641H71.4587Z" fill="white"/>
<path d="M852.354 276.834C856.293 278.507 858.559 280.762 858.122 285.253C857.696 289.722 856.075 292.186 851.564 293.142C846.335 294.264 841.045 293.589 835.775 293.755C834.819 293.786 833.821 293.724 833.727 292.466C833.634 291.302 833.447 289.629 834.808 289.431C837.241 289.078 836.835 287.498 836.866 285.98C836.96 280.835 837.178 275.69 837.054 270.545C837.012 268.788 838.872 265.535 834.361 265.93C833.26 266.024 833.759 264.163 833.717 263.186C833.665 262.012 834.424 261.617 835.515 261.617C839.735 261.637 843.986 261.409 848.186 261.741C851.626 262.012 854.963 262.968 856.064 267.063C857.135 271.054 856.293 274.339 852.364 276.823L852.354 276.834ZM847.728 274.994C851.72 273.944 851.522 270.587 850.628 268.019C849.641 265.192 846.086 264.693 843.893 265.701C840.452 267.271 842.51 271.023 842.448 273.726C842.386 276.646 845.119 275.108 846.71 275.285C847.053 275.191 847.385 275.098 847.728 274.994ZM842.521 285.481C842.916 286.469 840.296 290.138 845.317 289.94C850.472 289.743 852.426 288.548 852.447 284.764C852.458 280.711 851.21 280.014 846.367 279.567C842.074 279.172 841.804 281.313 842.531 285.481H842.521Z" fill="white"/>
<path d="M488.924 261.648C492.083 261.648 495.254 261.648 498.413 261.627C499.567 261.627 500.544 261.783 500.544 263.269C500.544 264.361 500.44 265.005 499.099 265.577C493.798 267.843 490.389 272.603 486.003 276.096C484.496 277.301 486.055 278.278 486.866 278.892C491.491 282.405 494.235 288.08 500.097 290.19C501.209 290.585 500.575 292.082 500.617 293.09C500.347 293.308 500.066 293.526 499.796 293.755C496.761 293.755 493.726 293.703 490.691 293.797C487.791 293.89 487.25 291.999 488.632 290.387C489.921 288.891 489.62 288.184 488.591 287.196C485.774 284.473 482.905 281.812 479.34 278.434C479.34 282.426 479.33 285.513 479.34 288.6C479.34 289.722 479.538 290.73 481.045 290.678C482.344 290.637 482.448 291.5 482.458 292.529C482.458 293.869 481.606 293.942 480.629 293.942C478.124 293.942 475.619 293.932 473.114 293.942C471.763 293.953 470.817 293.506 470.62 292.03C470.422 290.543 470.973 289.795 472.553 289.889C473.966 289.972 474.299 289.067 474.309 287.851C474.351 281.126 474.372 274.401 474.497 267.676C474.528 265.878 473.727 265.358 472.127 265.483C470.9 265.577 470.599 264.86 470.588 263.758C470.578 262.469 471.295 262.251 472.345 262.251C475.245 262.271 478.145 262.251 481.045 262.271C481.731 262.271 482.386 262.417 482.417 263.29C482.448 264.038 482.708 265.265 481.793 265.306C478.467 265.452 479.506 267.863 479.403 269.62C479.288 271.668 479.371 273.736 479.371 276.449C482.438 273.84 485.005 271.72 487.5 269.516C488.924 268.258 490.971 267.094 488.258 264.974C487.791 264.61 488.113 263.228 488.082 262.313C488.362 262.095 488.633 261.876 488.913 261.658L488.924 261.648Z" fill="white"/>
<path d="M756.284 290.918C756.398 292.457 756.44 294.109 754.216 293.735C751.867 293.34 748.478 295.554 747.647 291.209C742.054 295.305 739.591 295.565 735.163 292.602C731.567 290.201 729.789 284.796 731.006 280.015C732.949 272.375 736.961 269.309 744.674 269.454C746.046 269.486 748.343 270.515 747.958 267.719C747.698 265.837 749.954 262.563 745.692 262.366C744.3 262.303 743.915 261.69 743.894 260.401C743.873 258.728 744.83 258.572 746.171 258.447C753.311 257.792 753.311 257.761 753.27 265.058C753.228 272.313 753.218 279.578 753.124 286.833C753.093 288.725 753.145 290.326 755.692 290.097C755.889 290.367 756.087 290.638 756.274 290.918H756.284ZM747.761 279.755C746.669 278.269 750.266 273.737 744.352 274.049C741.472 274.205 738.895 274.225 737.377 277.24C735.756 280.472 735.298 283.632 737.19 286.896C739.258 290.461 743.052 291.074 745.89 288.164C748.01 285.981 747.875 283.133 747.761 279.755Z" fill="white"/>
<path d="M554.581 280.847C554.56 290.555 548.293 295.846 539.125 294.058C538.304 293.902 537.639 293.704 537.192 294.671C536.173 296.875 537.597 300.949 539.957 301.801C541.495 302.352 540.975 303.392 541.027 304.327C541.1 305.626 540.196 305.751 539.198 305.751C536.963 305.741 534.718 305.793 532.483 305.73C531.652 305.71 530.436 306.146 530.176 304.878C529.968 303.818 529.375 302.498 530.934 301.812C532.795 300.991 532.577 299.348 532.577 297.769C532.598 290.919 532.629 284.08 532.67 277.23C532.67 275.515 532.961 273.872 530.394 273.488C528.544 273.218 528.835 270.817 529.698 270.598C532.067 269.985 535.373 268.925 536.87 271.128C538.304 273.228 538.657 271.97 539.666 271.326C544.083 268.499 551.037 269.954 553.583 274.122C554.924 276.326 554.425 278.716 554.571 280.826L554.581 280.847ZM537.805 283.258C537.805 283.258 537.888 283.258 537.93 283.269C537.93 284.059 538.044 284.869 537.909 285.628C537.223 289.412 539.073 290.046 542.462 290.17C546.786 290.326 550.559 284.817 549.145 278.872C548.584 276.513 547.97 274.621 545.278 274.153C542.171 273.623 539.655 274.735 538.439 277.5C537.701 279.184 537.982 281.325 537.805 283.258Z" fill="white"/>
<path d="M682.993 272.495C682.993 272.017 682.993 271.528 683.004 271.05C683.243 270.78 683.492 270.52 683.731 270.25C686.112 271.133 689.438 268.109 691.163 272.152C691.537 273.025 692.504 272.017 693.045 271.528C694.063 270.593 695.207 270.219 696.61 270.136C703.511 269.751 707.077 271.778 708.178 276.861C709.758 284.126 707.149 290.695 701.505 292.982C698.959 294.011 696.402 295.767 693.367 294.125C692.556 293.689 691.215 293.782 691.381 295.081C691.652 297.171 689.594 300.091 692.805 301.172C694.417 301.713 695.03 302.243 694.812 303.792C694.572 305.465 693.419 305.819 691.953 305.787C690.113 305.746 688.263 305.839 686.424 305.756C685.488 305.715 684.137 306.318 683.815 304.79C683.544 303.501 683.305 301.962 684.833 301.328C686.33 300.705 686.164 299.593 686.164 298.439C686.216 291.194 686.164 283.949 686.361 276.705C686.424 274.439 685.498 273.638 683.492 273.514C683.326 273.171 683.17 272.838 683.004 272.495H682.993ZM702.701 281.621C702.701 281.226 702.69 280.831 702.701 280.436C702.836 277.297 702.306 274.584 698.47 274.158C694.624 273.732 692.857 275.322 691.558 279.293C690.706 281.881 690.987 284.428 690.841 287.005C690.727 288.928 691.465 289.687 693.502 289.988C699.718 290.903 703.719 286.953 702.711 281.611L702.701 281.621Z" fill="white"/>
<path d="M251.977 289.989C252.258 287.806 248.183 283.108 246.479 283.628C245.418 283.95 245.605 284.834 245.647 285.561C245.761 287.37 244.805 289.771 247.934 290.062C248.162 290.332 248.401 290.592 248.63 290.862C248.848 292.681 248.557 293.97 246.219 293.804C244.119 293.658 242.009 293.783 239.899 293.762C238.984 293.762 237.903 293.825 237.779 292.557C237.685 291.58 237.311 290.176 238.818 290.01C241.063 289.75 240.668 288.181 240.679 286.798C240.731 279.813 240.689 272.839 240.814 265.854C240.855 263.588 240.689 261.884 237.737 262.31C236.583 262.476 236.136 261.821 236.126 260.667C236.105 259.431 236.687 259.036 237.799 259.077C238.059 259.088 238.33 259.077 238.589 259.077C243.433 258.807 245.838 261.059 245.803 265.833C245.782 270.292 245.803 274.762 245.803 279.543C248.298 278.795 249.794 276.893 251.686 275.635C252.809 274.887 252.632 274.408 251.395 273.847C250.314 273.359 250.2 272.143 250.501 271.082C250.917 269.586 252.237 270.272 253.162 270.23C255.262 270.126 257.372 270.178 259.482 270.209C260.355 270.22 261.405 269.981 261.477 271.415C261.529 272.402 261.269 272.943 260.324 273.567C257.912 275.136 255.771 277.101 253.411 278.753C251.53 280.073 250.854 281.196 253.1 282.817C256.218 285.073 257.787 289.251 262.111 290.083C263.099 290.27 262.901 291.309 262.912 292.068C262.922 292.931 262.631 293.69 261.633 293.71C258.608 293.752 255.573 293.856 252.549 293.669C250.751 293.565 251.478 291.923 251.333 290.852C251.561 290.561 251.78 290.28 252.008 289.989H251.977Z" fill="white"/>
<path d="M166.074 273.751C168.787 269.926 172.259 270.155 175.793 270.082C179.503 270.009 181.936 272.098 182.518 275.04C183.578 280.393 184.305 286.079 179.982 290.694C176.728 294.165 168.943 295.454 163.964 293.593C161.854 292.804 160.898 291.723 160.981 289.29C161.251 281.526 161.262 273.762 161.324 265.997C161.345 264.261 161.969 262.068 158.861 262.286C157.509 262.38 157.582 261.289 157.582 260.343C157.582 259.262 158.299 259.085 159.162 259.075C160.347 259.075 161.563 259.231 162.707 259.033C166.116 258.441 166.802 260.239 166.334 263.035C165.783 266.33 165.149 269.604 166.053 273.73L166.074 273.751ZM177.518 280.965C177.518 278.377 178.225 275.227 174.826 274.375C172.072 273.689 168.995 273.491 167.238 276.776C165.305 280.393 165.44 284.291 165.752 288.168C165.856 289.446 167.28 289.779 168.444 289.976C174.296 290.985 177.518 287.794 177.508 280.975L177.518 280.965Z" fill="white"/>
<path d="M795.281 293.762C792.641 293.762 790.011 293.783 787.371 293.783C786.415 293.783 785.427 293.752 785.323 292.484C785.24 291.465 785.001 290.29 786.467 289.947C786.591 289.916 786.799 289.947 786.851 289.885C789.637 285.457 787.454 280.562 788.171 275.936C788.504 273.826 787.142 273.597 785.521 273.545C784.533 273.514 784.284 272.745 784.315 271.862C784.336 271.196 784.305 270.354 785.136 270.313C787.506 270.219 789.886 270.136 792.235 270.334C793.68 270.458 792.62 272.163 793.576 273.099C796.258 269.086 800.447 270.053 804.251 270.167C806.953 270.251 808.138 272.568 808.856 274.959C809.947 278.576 809.261 282.287 809.396 285.966C809.458 287.578 808.346 289.76 811.381 290.218C812.369 290.363 811.974 291.808 811.984 292.681C812.005 294.105 810.903 293.918 810.009 293.928C807.764 293.949 805.529 293.928 803.284 293.928C802.089 293.928 801.205 293.481 800.987 292.255C800.758 290.956 800.935 289.885 802.671 289.843C803.097 289.833 803.897 289.365 803.887 289.126C803.752 284.709 805.155 280.104 803.212 275.905C801.871 273.015 796.84 273.254 794.855 276.144C792.173 280.042 793.233 284.532 793.129 288.825C793.119 289.407 793.566 289.833 794.127 289.823C796.726 289.781 796.185 291.579 796.112 293.107C795.821 293.315 795.541 293.533 795.25 293.741L795.281 293.762Z" fill="white"/>
<path d="M518.547 291.196C515.128 293.68 511.822 296.227 507.28 293.254C505.16 291.861 503.798 290.5 503.725 287.735C503.653 284.762 505.056 282.953 507.363 281.779C510.035 280.417 512.924 279.679 515.99 279.648C517.019 279.648 518.579 280.365 518.901 278.588C519.161 277.143 519.025 275.615 517.768 274.586C514.889 272.248 511.001 273.017 509.359 276.374C508.579 277.975 507.342 277.164 506.303 277.33C505.17 277.517 504.505 276.914 504.671 275.75C504.9 274.181 503.684 271.977 505.908 271.219C510.741 269.566 515.793 268.641 520.522 271.208C522.736 272.414 523.453 275.127 523.557 277.663C523.672 280.563 523.537 283.463 523.547 286.363C523.547 287.984 523.058 289.595 525.667 290.177C527.278 290.541 527.143 292.589 525.813 293.587C523.942 294.979 519.472 293.379 518.547 291.206V291.196ZM512.352 290.042C515.98 290.021 518.994 287.475 518.818 285.084C518.61 282.371 516.406 283.827 515.169 283.733C512.571 283.546 509.525 283.39 509.359 287.163C509.255 289.543 511.209 290.021 512.352 290.032V290.042Z" fill="white"/>
<path d="M655.968 282.16C655.947 274.864 661.009 270.155 668.898 270.145C676.506 270.124 680.57 274.334 680.467 282.119C680.373 289.073 674.687 294.872 668.098 294.727C661.58 294.592 655.999 288.792 655.978 282.16H655.968ZM674.261 281.755C674.261 275.352 673.347 274.126 668.555 274.147C663.992 274.167 661.528 276.901 661.508 281.984C661.487 285.684 664.376 289.873 667.027 289.987C672.099 290.216 674.261 287.763 674.261 281.755Z" fill="white"/>
<path d="M225.69 282.734C223.975 282.734 222.26 282.661 220.545 282.765C219.454 282.827 217.801 282.131 217.427 283.482C217.125 284.552 217.718 285.966 218.612 286.995C221.501 290.321 225.191 290.352 229.151 289.781C230.347 289.614 232.228 287.494 232.914 290.259C233.475 292.514 231.615 292.878 229.91 293.481C218.632 297.441 210.941 288.772 211.544 281.091C212.043 274.688 216.741 269.876 223.112 269.46C228.995 269.076 233.319 273.005 234.286 279.345C234.691 281.985 233.922 283.014 231.22 282.765C229.39 282.598 227.53 282.734 225.68 282.734H225.69ZM223.434 279.127C224.214 279.127 225.014 279.22 225.784 279.106C226.823 278.95 228.434 279.771 228.694 278.087C228.902 276.809 228.288 275.312 227.145 274.678C225.846 273.95 224.152 273.233 222.79 273.462C220.586 273.836 217.801 274.564 217.967 277.547C218.133 280.499 220.794 278.597 222.26 279.106C222.613 279.231 223.039 279.127 223.424 279.127H223.434Z" fill="white"/>
<path d="M110.249 281.767C110.291 289.355 105.208 294.458 97.3398 294.728C91.7894 294.916 85.5841 288.17 85.6361 282.016C85.6984 275.468 91.8621 269.388 98.3585 269.46C105.655 269.544 110.197 274.252 110.239 281.777L110.249 281.767ZM104.595 281.455C104.636 276.269 102.942 274.2 98.6183 274.138C94.232 274.075 91.3112 277.09 91.1657 281.809C91.041 285.987 94.2632 290.03 97.7036 289.999C102.194 289.958 104.553 287.026 104.595 281.455Z" fill="white"/>
<path d="M773.619 282.741C771.644 282.741 769.659 282.835 767.695 282.72C764.67 282.544 764.722 284.03 765.72 286.119C767.362 289.539 771.582 290.869 776.841 289.747C777.995 289.497 779.658 287.824 780.251 290.214C780.708 292.033 779.533 292.719 777.683 293.333C771.582 295.359 766.281 294.84 761.801 289.84C758.579 286.233 758.683 277.804 761.936 273.532C765.148 269.301 772.039 268.719 776.571 270.881C779.71 272.378 782.558 278.677 781.789 281.691C781.529 282.72 780.729 282.72 779.939 282.731C777.829 282.751 775.719 282.731 773.609 282.751L773.619 282.741ZM770.584 279.134C771.499 279.134 772.424 279.217 773.328 279.113C774.274 279.01 775.854 279.623 775.979 278.303C776.093 277.014 775.781 275.101 774.378 274.623C772.58 274.01 770.886 272.856 768.536 273.916C766.582 274.8 765.221 275.87 765.325 277.741C765.46 280.246 767.757 278.687 769.035 279.103C769.503 279.259 770.075 279.124 770.594 279.124L770.584 279.134Z" fill="white"/>
<path d="M885.687 282.277C885.687 289.594 880.635 295.217 873.983 294.646C867.746 294.105 861.915 290.322 861.926 282.214C861.926 274.7 866.811 270.126 874.752 270.136C882.704 270.136 885.697 273.473 885.697 282.266L885.687 282.277ZM880.178 281.58C880.188 275.687 879.097 274.201 874.679 274.138C869.815 274.076 867.435 276.695 867.445 282.121C867.445 285.873 870.21 289.958 872.653 289.844C878.723 289.542 880.157 287.962 880.178 281.58Z" fill="white"/>
<path d="M200.217 282.729C198.502 282.729 196.787 282.645 195.093 282.76C194.023 282.833 192.308 282.105 192.068 283.56C191.892 284.589 192.391 286.013 193.337 287.042C196.673 290.67 200.696 290.493 204.978 289.412C205.789 289.204 207.109 288.186 207.566 289.859C207.878 291.013 207.784 292.385 206.443 292.915C201.693 294.807 196.569 295.42 192.245 292.738C188.368 290.327 185.874 286.315 186.206 281.19C186.632 274.663 191.705 269.549 198.024 269.445C203.866 269.341 207.982 273.073 208.959 279.111C209.406 281.856 208.657 283.061 205.737 282.76C203.918 282.573 202.057 282.729 200.217 282.729ZM197.557 279.662C198.482 279.662 199.396 279.662 200.321 279.662C201.61 279.662 203.211 279.901 203.408 278.114C203.564 276.648 202.93 274.995 201.527 274.486C199.563 273.769 197.577 273 195.239 274.06C193.045 275.047 192.12 276.991 192.235 278.665C192.339 280.296 194.636 279.496 195.987 279.652C196.507 279.714 197.037 279.652 197.567 279.652L197.557 279.662Z" fill="white"/>
<path d="M626.227 282.727C624.512 282.727 622.797 282.696 621.082 282.727C617.932 282.8 617.454 283.735 619.086 286.479C620.999 289.701 624.803 290.855 629.875 289.753C631.008 289.504 632.422 288.069 632.973 290.325C633.409 292.102 632.245 292.851 630.717 293.422C624.522 295.74 618.888 294.088 615.687 290.491C611.966 286.313 611.322 279.442 614.118 274.287C616.072 270.68 622.984 268.757 628.545 270.264C631.86 271.158 635.155 276.792 634.885 280.804C634.771 282.467 633.898 282.737 632.567 282.716C630.457 282.696 628.347 282.716 626.237 282.716L626.227 282.727ZM623.42 279.12C629.158 279.12 629.231 279.12 629.106 277.738C628.815 274.526 626.809 273.258 623.795 273.279C621.009 273.299 617.756 275.815 618.39 277.81C619.284 280.617 621.996 278.34 623.41 279.12H623.42Z" fill="white"/>
<path d="M572.251 282.738C570.401 282.738 568.551 282.697 566.711 282.759C565.849 282.79 564.705 282.354 564.248 283.424C563.759 284.589 564.342 285.555 565.038 286.636C568.031 291.345 572.605 289.858 576.794 289.869C577.604 289.869 578.737 288.195 579.07 290.305C579.247 291.438 579.434 292.582 577.823 293.174C569.591 296.209 563.177 294.099 558.822 286.501C556.795 282.967 559.186 274.953 562.689 272.001C566.14 269.101 573.301 268.831 576.887 271.741C579.683 274.007 580.681 277.271 580.827 280.816C580.899 282.499 579.933 282.77 578.571 282.749C576.461 282.718 574.351 282.749 572.241 282.749L572.251 282.738ZM570.089 279.464C571.534 278.019 574.777 280.847 575.131 277.666C575.432 274.87 573.031 273.342 570.1 273.29C567.075 273.228 564.29 274.787 564.414 277.51C564.581 280.909 568.115 278.165 570.089 279.475V279.464Z" fill="white"/>
<path d="M312.157 266.254C310.318 266.347 308.831 266.316 308.998 263.666C309.143 261.348 310.557 261.639 311.991 261.639C314.236 261.628 316.471 261.639 318.716 261.639C319.839 261.639 320.868 261.732 320.857 263.26C320.857 264.331 321.003 265.516 319.412 265.495C317.635 265.474 317.656 266.669 317.656 267.906C317.625 274.371 317.645 280.837 317.51 287.291C317.469 289.443 318.342 290.098 320.327 289.931C321.637 289.827 322.967 289.817 324.277 289.931C326.314 290.119 327.208 289.287 327.146 287.25C327.104 285.743 327.166 284.371 329.401 284.464C331.927 284.568 331.085 286.345 331.158 287.593C331.262 289.433 331.158 291.272 331.158 293.122C330.867 293.341 330.586 293.549 330.295 293.767C324.246 293.767 318.196 293.808 312.147 293.756C310.993 293.746 309.309 294.432 309.112 292.312C308.987 290.94 309.07 289.526 310.806 289.287C312.022 289.121 312.334 288.528 312.313 287.468C312.147 280.39 312.864 273.301 312.137 266.222C312.293 266.129 312.438 266.035 312.594 265.952C312.511 265.952 312.386 265.911 312.355 265.952C312.272 266.035 312.241 266.16 312.189 266.274L312.157 266.254Z" fill="white"/>
<path d="M335.858 281.853C335.879 276.188 339.216 271.167 343.498 270.149C349.506 268.725 354.713 270.596 356.906 275.034C357.364 275.97 357.717 276.988 357.904 278.007C358.684 282.3 358.299 282.726 353.934 282.736C350.639 282.736 347.354 282.705 344.059 282.767C343.228 282.778 342.064 282.331 341.7 283.547C341.398 284.545 341.586 285.459 342.24 286.468C344.974 290.688 348.934 290.376 353.081 289.773C354.246 289.607 355.929 287.996 356.491 290.521C356.979 292.704 355.514 292.912 353.819 293.38C345.421 295.718 339.819 293.536 336.576 286.655C335.786 284.981 336.025 283.339 335.858 281.863V281.853ZM347.126 273.288C344.039 273.35 341.139 275.762 341.689 278.287C342.324 281.146 344.922 279.15 346.564 279.628C347.531 279.909 348.654 279.732 349.703 279.67C352.593 279.483 353.362 277.965 351.845 275.554C350.743 273.808 349.09 273.236 347.126 273.298V273.288Z" fill="white"/>
<path d="M374.787 290.25C376.336 289.98 377.884 289.689 379.433 289.45C380.389 289.304 381.658 288.618 381.824 290.375C381.928 291.373 382.105 292.371 380.826 293.057C375.91 295.697 368.27 294.657 364.518 290.697C360.62 286.592 360.017 280.064 362.865 275.023C365.1 271.063 369.205 269.057 373.716 269.784C379.121 270.657 381.585 271.905 382.967 278.432C383.965 283.141 382.125 282.85 379.028 282.756C375.868 282.652 372.698 282.694 369.528 282.756C368.603 282.777 367.272 282.216 366.94 283.754C366.711 284.814 366.981 285.719 367.729 286.644C369.569 288.909 371.565 290.635 374.777 290.24L374.787 290.25ZM371.762 279.669C371.762 279.669 371.762 279.669 371.762 279.659C373.082 279.659 374.392 279.659 375.712 279.659C376.907 279.659 377.947 279.077 377.885 277.902C377.739 275.168 376.118 273.63 373.384 273.318C369.902 272.923 366.669 275.21 367.012 278.162C367.355 281.083 369.923 279.097 371.378 279.669C371.492 279.711 371.638 279.669 371.773 279.669H371.762Z" fill="white"/>
<path d="M900.103 270.182C901.672 270.182 903.294 269.953 904.812 270.234C907.368 270.702 908.907 274.225 907.815 276.522C907.348 277.51 906.537 277.219 905.799 277.291C904.676 277.395 903.824 277.073 903.169 276.003C901.298 272.926 897.827 272.375 895.207 274.693C893.815 275.93 894.261 276.844 895.685 277.749C898.284 279.412 901.298 279.734 904.177 280.347C906.433 280.825 908.626 281.324 908.647 283.829C908.668 286.792 909.967 290.346 906.329 292.373C901.34 295.148 896.226 295.2 890.967 293.132C888.545 292.176 890 290.211 889.688 288.725C889.501 287.831 889.615 286.677 890.987 286.864C892.287 287.041 893.856 285.919 894.615 288.507C895.394 291.188 901.621 291.427 903.46 289.172C904.708 287.644 903.907 284.983 901.922 284.494C899.666 283.944 897.307 283.788 895.083 283.143C891.008 281.969 889.033 279.017 889.626 275.441C890.125 272.375 893.004 270.286 896.922 270.171C897.972 270.14 899.032 270.171 900.082 270.171V270.192L900.103 270.182Z" fill="white"/>
<path d="M404.868 273.392C404.837 275.326 405.221 276.926 403.101 277.28C401.324 277.571 401.105 276.625 400.7 275.118C399.91 272.218 397.291 273.424 395.368 273.392C393.819 273.361 392.322 274.13 392.333 275.866C392.343 278.111 393.964 278.777 396.054 279.016C397.956 279.224 399.775 280.18 401.677 280.356C404.754 280.637 406.261 282.352 406.427 285.148C406.614 288.402 405.98 291.478 402.529 292.975C398.049 294.929 393.58 295.043 388.913 293.297C386.741 292.486 386.522 291.156 386.699 289.358C386.793 288.433 386.159 286.988 387.822 286.905C389.339 286.822 390.742 286.26 391.771 288.693C392.977 291.541 399.297 291.426 401.084 288.838C402.654 286.551 401.438 285.107 399.13 284.473C396.282 283.703 393.195 283.901 390.566 282.279C388.092 280.751 385.815 278.808 386.813 275.658C387.738 272.738 389.641 270.544 393.237 270.056C396.116 269.661 398.891 269.879 401.677 270.149C403.766 270.347 405.72 271.064 404.899 273.403L404.868 273.392Z" fill="white"/>
<path d="M583.945 293.104C584.018 291.794 583.197 290.173 585.598 289.882C586.991 289.715 587.126 288.343 587.126 287.075C587.136 279.695 587.157 272.326 587.251 264.956C587.272 263.21 586.897 262.16 584.881 262.337C583.436 262.462 583.187 261.495 583.197 260.289C583.207 258.907 583.945 258.439 585.203 258.491C585.338 258.491 585.463 258.491 585.598 258.491C590.241 258.103 592.552 260.224 592.531 264.852C592.5 272.097 592.448 279.342 592.458 286.587C592.458 288.042 591.855 289.85 594.433 290.027C595.93 290.131 595.628 291.534 595.545 292.532C595.441 293.8 594.412 293.79 593.477 293.79C590.577 293.79 587.677 293.79 584.787 293.79C584.507 293.571 584.236 293.353 583.956 293.124L583.945 293.104Z" fill="white"/>
<path d="M513.684 375.329C510.92 375.329 508.144 375.204 505.39 375.37C503.072 375.505 502.178 374.861 502.157 372.335C502.116 365.475 501.991 365.465 509.028 365.485C513.508 365.496 517.988 365.693 522.457 365.558C524.993 365.485 526.178 366.223 525.856 368.884C525.7 370.184 525.679 371.524 525.752 372.834C525.856 374.736 524.993 375.401 523.164 375.36C520.004 375.287 516.844 375.339 513.674 375.349L513.684 375.329Z" fill="white"/>
<path d="M598.215 293.097C598.288 292.109 597.675 290.394 598.714 290.28C602.789 289.833 601.438 286.85 601.51 284.698C601.718 278.566 601.604 272.423 601.895 266.29C602.04 263.349 601.344 261.79 598.143 262.257C597.935 261.956 597.737 261.665 597.529 261.364C597.238 259.295 597.935 258.256 600.221 258.453C602.123 258.609 604.046 258.495 605.949 258.505C606.229 258.723 606.499 258.931 606.78 259.15C606.78 268.369 606.78 277.578 606.77 286.798C606.77 288.503 606.427 290.405 609.181 290.062C609.431 290.322 609.68 290.592 609.919 290.852C610.252 292.962 609.576 293.98 607.227 293.824C604.514 293.648 601.77 293.762 599.047 293.752C598.766 293.533 598.496 293.315 598.215 293.097Z" fill="white"/>
<path d="M497.386 0.999156C497.396 9.97967 497.209 18.9602 497.521 27.9199C497.656 31.9632 494.704 33.2001 492.396 35.0918C491.191 36.0793 490.557 35.3205 490.557 33.8757C490.598 24.6354 490.525 15.395 490.681 6.15463C490.733 3.0364 494.08 2.43354 495.795 0.572998C496.325 0.708121 496.855 0.853639 497.386 0.988762V0.999156Z" fill="white"/>
<path d="M413.553 282.9C413.553 281.06 413.553 279.22 413.553 277.37C413.553 275.728 414.031 273.867 411.204 274.013C410.04 274.075 409.572 272.901 409.604 271.705C409.635 270.51 410.123 269.46 411.339 269.491C413.408 269.543 413.782 268.483 413.595 266.81C413.314 264.336 415.071 264.544 416.661 264.43C418.667 264.284 418.854 265.563 418.626 266.966C418.127 269.959 419.873 270.105 422.108 270.063C423.345 270.042 425.278 269.252 425.382 271.664C425.507 274.397 423.345 273.659 422.004 273.545C419.177 273.316 418.293 274.46 418.47 277.173C418.667 280.052 418.449 282.962 418.532 285.852C418.615 288.596 419.686 290.394 422.898 290.041C423.927 289.926 425.371 289.438 425.444 291.433C425.507 292.961 424.644 293.419 423.407 293.845C417.306 295.934 413.564 293.325 413.481 286.839C413.46 285.519 413.481 284.21 413.481 282.889H413.543L413.553 282.9Z" fill="white"/>
<path d="M626.304 331.936C631.958 331.957 633.081 333.059 633.039 338.547C632.998 343.286 630.794 345.189 625.119 345.344C621.949 345.428 617.885 341.353 617.968 338.173C618.072 334.327 621.284 331.926 626.304 331.936Z" fill="white"/>
<path d="M293.755 259.862C292.549 263.312 291.448 266.503 290.315 269.684C287.248 278.259 284.182 286.834 281.095 295.399C280.742 296.386 280.409 297.467 278.902 296.865C277.613 296.345 277.041 295.7 277.592 294.183C280.648 285.681 283.61 277.137 286.635 268.624C287.716 265.578 288.922 262.564 290.055 259.539C290.46 258.469 291.146 258.074 292.186 258.656C292.809 259.009 293.807 259.03 293.755 259.862Z" fill="white"/>
<path d="M455.562 260.455C454.138 264.374 452.652 268.448 451.176 272.512C448.401 280.152 445.656 287.802 442.829 295.431C442.528 296.253 443.089 297.968 440.865 297.292C439.129 296.762 439.056 296.221 439.368 294.59C440.106 290.713 441.977 287.251 443.12 283.52C445.542 275.631 448.785 268.001 451.737 260.279C452.07 259.406 452.246 257.992 453.795 258.532C454.606 258.813 455.656 259.011 455.552 260.455H455.562Z" fill="white"/>
<path d="M645.612 282.979C644.167 282.979 642.722 282.937 641.277 282.989C639.645 283.051 639.333 282.137 639.333 280.754C639.333 279.393 639.604 278.416 641.215 278.416C643.969 278.416 646.734 278.478 649.489 278.364C651.349 278.291 652.035 278.967 652.014 280.869C651.994 282.719 651.089 283.072 649.551 283.01C648.241 282.958 646.921 282.999 645.612 282.989V282.979Z" fill="white"/>
<path d="M719.455 282.982C718.02 282.982 716.586 282.951 715.151 282.982C713.759 283.024 712.938 282.629 713 281.018C713.041 279.76 713.062 278.544 714.684 278.502C717.937 278.419 721.201 278.388 724.465 278.45C726.19 278.482 725.993 279.874 726.013 281.049C726.034 282.317 725.494 282.993 724.163 282.972C722.594 282.951 721.035 282.972 719.465 282.972L719.455 282.982Z" fill="white"/>
<path d="M822.23 282.987C820.91 282.987 819.601 282.966 818.281 282.987C817.002 283.008 815.942 282.924 815.952 281.157C815.973 279.671 816.129 278.528 817.979 278.528C821.004 278.538 824.039 278.559 827.064 278.528C828.675 278.507 829.028 279.432 829.049 280.804C829.059 282.259 828.519 283.018 826.97 282.976C825.39 282.924 823.81 282.966 822.23 282.966V282.987Z" fill="white"/>
<path d="M582.471 159.794C582.18 159.908 581.878 160.022 581.587 160.147C580.933 159.16 580.247 160.126 579.581 160.126C579.103 160.012 578.625 159.908 578.147 159.794C579.592 157.975 581.037 157.798 582.471 159.794Z" fill="white"/>
<path d="M568.041 213.938C569.132 214.749 568.602 215.653 568.363 216.682C566.898 216.069 567.563 214.832 567.189 214.001C567.48 213.98 567.76 213.959 568.051 213.928L568.041 213.938Z" fill="white"/>
<path d="M568.05 208.387C568.996 209.177 569.006 209.978 568.05 210.768C566.772 209.978 566.772 209.177 568.05 208.387Z" fill="white"/>
<path d="M228.209 233.762C228.24 234.23 228.281 234.698 228.313 235.165C227.689 235.311 226.941 235.477 226.868 234.583C226.795 233.7 227.564 233.721 228.209 233.762Z" fill="white"/>
<path d="M436.361 332.768H435.977L435.634 332.602C435.873 332.082 436.008 331.178 436.808 331.708C437.349 332.061 436.86 332.55 436.361 332.768Z" fill="white"/>
<path d="M497.387 1.00317C496.857 0.868042 496.326 0.722524 495.796 0.587401C496.566 -0.171369 497.179 -0.358462 497.387 1.00317Z" fill="white"/>
<path d="M598.215 293.094C598.496 293.312 598.766 293.53 599.047 293.748C598.496 293.883 598.236 293.644 598.215 293.094Z" fill="white"/>
<path d="M583.95 293.102C584.23 293.32 584.501 293.538 584.781 293.767C584.23 293.892 583.97 293.653 583.95 293.102Z" fill="white"/>
<path d="M499.806 293.759C500.076 293.54 500.357 293.322 500.627 293.094C500.616 293.644 500.357 293.883 499.806 293.759Z" fill="white"/>
<path d="M330.288 293.755C330.579 293.537 330.86 293.329 331.151 293.11C331.109 293.651 330.839 293.89 330.288 293.755Z" fill="white"/>
<path d="M113.427 293.085C113.697 293.303 113.978 293.511 114.248 293.729C113.697 293.865 113.437 293.636 113.427 293.085Z" fill="white"/>
<path d="M682.995 272.488C683.161 272.831 683.317 273.163 683.483 273.506C683.005 273.319 682.86 272.976 682.995 272.488Z" fill="white"/>
<path d="M683.74 270.247C683.501 270.518 683.252 270.778 683.013 271.048C682.93 270.487 683.189 270.227 683.74 270.247Z" fill="white"/>
<path d="M756.283 290.92C756.085 290.65 755.888 290.38 755.701 290.099C756.231 290.13 756.449 290.39 756.283 290.92Z" fill="white"/>
<path d="M597.52 261.356C597.728 261.658 597.926 261.949 598.134 262.25C597.583 262.188 597.375 261.886 597.52 261.356Z" fill="white"/>
<path d="M488.922 261.655C488.642 261.874 488.371 262.092 488.091 262.31C488.101 261.759 488.361 261.52 488.922 261.655Z" fill="white"/>
<path d="M82.5687 262.081C82.2257 261.935 81.8931 261.79 81.55 261.644C82.0282 261.478 82.3712 261.613 82.5687 262.081Z" fill="white"/>
<path d="M71.4529 261.642C71.1722 261.86 70.902 262.079 70.6213 262.307C70.6421 261.757 70.902 261.517 71.4529 261.642Z" fill="white"/>
<path d="M606.783 259.146C606.502 258.927 606.232 258.72 605.951 258.501C606.502 258.366 606.762 258.595 606.783 259.146Z" fill="white"/>
<path d="M609.92 290.832C609.671 290.572 609.421 290.302 609.182 290.042C609.743 290.011 609.993 290.271 609.92 290.832Z" fill="white"/>
<path d="M251.977 289.998C251.748 290.289 251.53 290.569 251.302 290.86C251.208 290.32 251.405 290.018 251.977 289.998Z" fill="white"/>
<path d="M248.643 290.866C248.414 290.596 248.175 290.336 247.947 290.065C248.497 290.055 248.736 290.315 248.643 290.866Z" fill="white"/>
<path d="M732.658 235.123C732.616 234.936 732.637 234.759 732.741 234.593C732.928 234.718 733.115 234.842 733.302 234.967C733.084 235.019 732.876 235.071 732.658 235.123Z" fill="white"/>
<path d="M124.941 290.91C124.744 290.64 124.547 290.369 124.339 290.099C124.869 290.13 125.087 290.38 124.941 290.91Z" fill="white"/>
<path d="M647.511 386.145V386.114C647.314 386.145 647.116 386.176 646.908 386.218C647.002 386.155 647.085 386.041 647.189 386.03C647.293 386.02 647.397 386.103 647.511 386.145Z" fill="white"/>
<path d="M498.287 34.8987C498.141 35.2209 497.996 35.5431 497.85 35.8757C497.372 35.2729 497.642 35.0026 498.287 34.8987Z" fill="white"/>
<path d="M795.283 293.761C795.574 293.553 795.855 293.335 796.146 293.127C796.115 293.678 795.824 293.896 795.283 293.761Z" fill="white"/>
<path d="M647.229 361.314C647.271 361.22 647.302 361.106 647.375 361.023C647.416 360.981 647.52 361.002 647.593 360.992C647.458 361.075 647.323 361.168 647.188 361.252L647.229 361.304V361.314Z" fill="white"/>
<path d="M121.889 273.944C121.847 274.058 121.795 274.162 121.754 274.276C121.65 274.12 121.546 273.975 121.463 273.808C121.463 273.788 121.629 273.684 121.722 273.621C121.785 273.725 121.837 273.84 121.899 273.944H121.889Z" fill="white"/>
<path d="M846.7 275.283C847.043 275.189 847.376 275.096 847.719 274.992C847.376 275.085 847.043 275.179 846.7 275.283Z" fill="white"/>
<path d="M312.158 266.248C312.21 266.144 312.241 266.019 312.324 265.925C312.366 265.884 312.48 265.925 312.564 265.925C312.408 266.019 312.262 266.113 312.106 266.196L312.158 266.237V266.248Z" fill="white"/>
</g>
<defs>
<clipPath id="clip0_1876_798">
<rect width="960" height="415.764" fill="white"/>
</clipPath>
</defs>
</svg>
