<svg width="1200" height="315" viewBox="0 0 1200 315" fill="none" xmlns="http://www.w3.org/2000/svg">
<g clip-path="url(#clip0_1912_1606)">
<path d="M254.828 108.792L286.027 94.7178V146.839C294.187 144.271 300.609 141.729 316.903 141.729C352.249 141.729 369.426 160.565 369.426 203.402C369.426 253.624 349.707 264.915 304.408 264.915C282.762 264.915 264.113 261.196 254.802 256.996V108.792H254.828ZM306.79 239.604C331.058 239.604 338.523 225.824 338.523 203.402C338.523 180.981 330.737 167.816 306.79 167.816C299.806 167.816 293.492 169.208 286.027 171.536V235.911C291.431 237.677 299.137 239.631 306.79 239.631V239.604ZM431.582 264.808C392.223 264.808 381.172 252.474 381.172 226.948C381.172 201.422 392.571 189.275 430.538 189.275C442.471 189.275 453.656 191.068 457.188 191.549V183.79C457.188 174.425 452.238 167.576 427.301 167.576C407.474 167.576 396.29 173.221 392.383 174.746L389.975 150.532C395.113 148.498 411.568 141.729 436.157 141.729C473.134 141.729 487.931 157.488 487.931 187.857V255.872C479.074 259.832 456.331 264.808 431.555 264.808H431.582ZM457.214 212.901C451.622 212.018 441.241 210.52 432.652 210.52C412.424 210.52 410.712 218.894 410.712 226.199C410.712 238.052 416.09 242.44 433.455 242.44C444.799 242.44 453.014 240.621 457.214 239.47V212.901ZM861.397 263.364C873.812 263.364 881.893 261.437 883.23 261.089L884.622 237.089C883.552 237.544 877.531 239.203 873.678 239.203C859.337 239.203 854.788 229.008 854.788 215.496V172.659H888.154V144.913H854.788V119.949L823.938 134.023V224.272C823.938 251.082 837.932 263.337 861.37 263.337L861.397 263.364ZM540.641 261.892V210.413H548.052L585.752 261.892H620.696L572.214 193.904L616.335 144.94H582.22L547.276 184.325H540.641V94.7178L509.443 108.792V261.892H540.641ZM681.139 238.828C698.691 238.828 709.554 234.975 714.959 233.289L717.983 256.594C713.434 258.681 698.504 264.915 679.159 264.915C636.777 264.915 614.783 243.189 614.783 201.262C614.783 159.335 635.814 141.702 672.095 141.702C711.668 141.702 724.27 163.589 724.27 200.62C724.27 204.58 724.03 210.172 723.575 212.259H645.981C645.981 233.396 661.553 238.801 681.112 238.801L681.139 238.828ZM695.427 190.399V187.83C695.427 171.99 688.417 164.766 671.346 164.766C654.276 164.766 646.944 174.318 646.489 190.399H695.427ZM921.278 131.08C911.726 131.08 904.502 127.361 904.502 113.849C904.502 101.514 911.03 96.3767 921.278 96.3767C931.526 96.3767 938.509 100.337 938.509 113.608C938.509 126.879 932.222 131.08 921.278 131.08ZM905.92 261.892V144.779L937.118 144.94V261.892H905.92ZM1017.87 261.838L1018.99 238.186C1017.76 238.453 1014.39 239.203 1011.23 239.203C1000.66 239.203 997.534 232.326 997.534 222.908V94.7178L966.336 108.792V228.955C966.336 246.159 974.898 263.364 999.594 263.364C1009.39 263.364 1016.64 262.079 1017.9 261.838H1017.87ZM1082.03 261.838L1083.15 238.186C1081.92 238.453 1078.55 239.203 1075.4 239.203C1064.83 239.203 1061.7 232.326 1061.7 222.908V94.7178L1030.5 108.792V228.955C1030.5 246.159 1039.06 263.364 1063.76 263.364C1073.55 263.364 1080.8 262.079 1082.06 261.838H1082.03ZM772.78 261.892V171.295C776.285 170.144 784.9 168.726 794.667 168.726C799.804 168.726 807.911 169.101 812.112 169.582V143.147C808.847 142.21 800.018 141.943 791.884 141.943C771.388 141.943 751.83 147.294 741.582 152.191V261.892H772.78ZM1093.32 314.897C1094.34 314.897 1100.06 313.933 1101.56 313.719C1129.63 309.411 1150.18 297.023 1161.5 262.775C1169.2 239.47 1199.97 144.94 1199.97 144.94H1167.33L1141.22 234.172H1135.97L1116.2 144.94H1082.27L1115.32 261.972H1133.11C1133.11 261.972 1132.39 264.3 1131.85 266.146C1128.05 279.177 1107.82 287.98 1089.09 290.441L1093.3 314.923L1093.32 314.897Z" fill="white"/>
<path d="M188.874 90.4635C188.874 92.497 188.82 96.9118 188.767 98.9453C179.803 83.159 162.358 74.0886 144.298 74.0886C117.969 74.0886 93.8884 97.1794 93.8884 127.708C93.8884 158.238 118.049 179.375 145.127 179.375C152.539 179.375 159.95 177.743 166.746 174.452C163.83 178.894 160.565 183.121 156.927 187.001C155.294 188.74 153.609 190.934 151.334 191.763C148.766 192.7 143.361 194.867 133.755 194.867C101.567 194.867 79.6539 171 69.4062 155.669C59.1585 140.338 50.3289 119.842 50.3289 97.9018C50.3289 54.1283 86.7176 31.5726 126.665 31.5726C170.144 31.5726 188.847 66.1419 188.847 90.4903L188.874 90.4635ZM149.087 88.5906C125.006 88.5906 104.966 106.517 104.966 130.411C104.966 152.565 123.106 173.569 149.542 173.569C155.669 173.569 161.743 172.204 167.335 169.663C168.298 169.234 169.556 168.806 170.358 168.164C171.027 167.629 171.348 166.666 171.803 165.89C178.867 154.064 186.76 126.986 187.911 111.788C188.018 110.237 187.589 109.675 186.68 108.417C180.419 99.9621 168.271 88.5906 149.06 88.5906H149.087ZM140.605 5.77939C132.471 1.73917 119.842 0 107.668 0C52.5229 0 0 31.091 0 83.4533C0 101.942 5.85966 121.715 16.1341 139.428C27.7197 159.468 43.8003 177.77 62.9847 190.8C77.5402 200.673 94.3968 207.576 111.815 207.576C126.317 207.576 136.057 203.59 139.428 200.807C137.956 201.048 134.451 201.556 130.117 201.556C84.2828 201.556 53.0848 160.753 41.419 131.133C36.9239 119.708 33.5793 105.982 33.5793 92.3632C33.5793 36.6028 83.4801 5.99344 132.23 5.99344C134.96 5.99344 137.715 6.07371 140.471 6.26101C140.685 6.26101 140.819 6.15398 140.819 5.99344C140.819 5.91317 140.766 5.80615 140.632 5.72588L140.605 5.77939Z" fill="white"/>
</g>
<defs>
<clipPath id="clip0_1912_1606">
<rect width="1200" height="314.923" fill="white"/>
</clipPath>
</defs>
</svg>
