<svg width="1200" height="393" viewBox="0 0 1200 393" fill="none" xmlns="http://www.w3.org/2000/svg">
<g clip-path="url(#clip0_1864_11437)">
<path d="M179.45 121.73C172.24 136.24 160.47 143.8 145.57 147.35C140.62 148.53 135.64 148.58 130.66 148.95C122.18 149.58 113.69 149.86 105.17 149.82C71.51 149.66 37.86 149.72 4.19999 149.83C1.05999 149.84 -0.130007 149.19 0.0299929 145.82C0.319993 139.73 0.289993 133.61 0.0299929 127.52C-0.100007 124.4 0.889993 123.65 3.92999 123.66C34.08 123.77 64.22 123.66 94.37 123.77C103.53 123.8 112.61 123.38 121.59 121.43C128.84 119.86 132.59 115.16 131.99 108.3C131.54 103.15 124.97 97.7499 119.15 97.1899C100.76 95.4199 82.33 96.2399 63.92 96.2399C48.99 96.2399 34.84 93.1699 21.94 86.1199C11.43 80.3699 3.14999 71.5499 0.549993 59.4399C-1.38001 50.4499 1.70999 42.0299 8.04999 35.1599C17.17 25.2799 29.06 20.5099 41.93 18.7799C65.08 15.6699 88.44 16.4999 111.74 16.4899C130.19 16.4799 148.64 16.5399 167.1 16.4399C169.74 16.4299 170.76 17.0599 170.68 19.8799C170.48 26.2399 170.47 32.6099 170.68 38.9599C170.78 41.9199 169.85 42.6399 166.95 42.6299C141.35 42.5099 115.75 42.6499 90.15 42.5199C79.53 42.4699 69 43.6499 58.43 44.3899C53.74 44.7199 48.93 49.5699 48.51 53.9599C47.98 59.4499 51.41 64.5699 57.03 66.3399C61.85 67.8599 66.86 68.3399 71.89 68.5199C88.51 69.1199 105.16 68.0499 121.77 69.2299C132.61 69.9999 143.35 71.7799 153.96 74.0799C158.73 75.1099 162.87 77.9399 167.52 80.3399C168.3 73.7499 169.17 67.5499 171.26 61.5199C175.25 50.0099 182.26 40.8099 191.87 33.6099C199.34 28.0199 207.38 23.2499 216.29 20.2799C223.04 18.0299 230.18 17.5999 237.19 17.1599C265.98 15.3699 294.81 16.6399 323.62 16.1999C326.87 16.1499 327.82 17.0299 327.69 20.2699C327.43 26.4899 327.45 32.7399 327.69 38.9599C327.8 41.9999 326.42 42.2299 323.99 42.2199C307.62 42.1399 291.24 42.0999 274.87 42.2099C262.48 42.2899 249.95 42.2899 237.92 45.2899C225.73 48.3299 218.84 55.7699 218.16 68.6399C218.08 70.0899 218.48 70.5299 219.77 70.5399C220.81 70.5399 221.85 70.5499 222.89 70.5499C256.42 70.5499 289.94 70.6099 323.47 70.4699C326.97 70.4599 327.88 71.4199 327.71 74.8099C327.42 80.7699 327.44 86.7599 327.71 92.7199C327.86 95.9099 326.76 96.5399 323.79 96.5299C289.87 96.4299 255.96 96.4699 222.04 96.4699C217.33 96.4699 217.3 96.4799 218.67 101.07C221.88 111.84 229.53 117.34 240.14 119.99C251.11 122.73 262.21 123.31 273.4 123.32C295.23 123.34 317.06 123.29 338.89 123.38C341.92 123.39 343.01 123.12 341.7 119.65C339.32 113.35 338.61 106.7 338.61 99.9399C338.63 73.4599 338.6 46.9799 338.42 20.4899C338.4 17.2299 339.34 16.3899 342.55 16.4399C354.76 16.6299 366.98 16.6099 379.19 16.4499C382.1 16.4099 382.9 17.2199 382.9 20.1499C382.85 47.0199 382.44 73.9099 383.25 100.76C383.64 113.61 385.26 117.71 399.63 121.46C403.48 122.47 407.38 123.24 411.43 123.22C429.06 123.13 446.69 123.18 464.43 123.18C464.69 122.25 463.68 121.6 463.14 120.79C456.42 110.68 452.28 99.8999 452.31 87.4399C452.34 76.2299 453.06 65.3499 458.2 55.1399C464.74 42.1399 475.06 33.0599 487.72 26.3599C497.27 21.3099 507.43 18.7299 518.25 17.7899C544.95 15.4599 571.69 16.8799 598.4 16.5599C618.41 16.3199 638.42 16.5599 658.43 16.4599C661.02 16.4499 662.73 17.2499 664.41 19.1799C675.14 31.5199 686.08 43.6899 696.74 56.0899C698.99 58.6999 700.05 58.4399 702.3 56.1099C714.19 43.7699 726.32 31.6499 738.26 19.3599C740.21 17.3599 742.15 16.4099 745.03 16.4399C760.36 16.5899 775.7 16.5099 791.03 16.5099C792.02 16.5099 793.02 16.5099 794.34 16.5099C789.58 21.4599 785.27 26.1899 780.7 30.6599C763.81 47.1899 746.87 63.6699 729.83 80.0399C727.67 82.1099 727.77 83.0699 729.83 85.1099C747.05 102.22 764.14 119.46 781.27 136.65C782.36 137.74 783.5 138.77 785.39 140.57C785.39 136.58 785.39 133.43 785.39 130.28C785.39 104.71 785.45 79.1299 785.31 53.5599C785.29 50.2599 786.23 49.4699 789.42 49.5199C801.76 49.6999 814.11 49.6499 826.45 49.5399C828.9 49.5199 829.8 50.0799 829.79 52.7399C829.7 84.0299 829.7 115.31 829.79 146.6C829.79 149.24 828.92 149.84 826.45 149.83C799.29 149.76 772.13 149.76 744.97 149.83C742.82 149.83 741.39 149.06 739.93 147.55C727.68 134.83 715.35 122.19 703.03 109.54C699.26 105.67 699.28 105.74 695.67 109.64C684.05 122.21 672.37 134.73 660.77 147.31C659.19 149.03 657.57 149.85 655.1 149.84C572.72 149.74 490.33 149.75 407.95 149.7C361.56 149.67 315.17 149.49 268.78 149.51C254.51 149.51 240.15 149.24 226.1 147.55C208.36 145.41 192.58 137.64 180.84 123.32C180.52 122.93 180.16 122.58 179.41 121.76L179.45 121.73ZM612.27 26.3099C612.27 30.7999 612.27 34.1299 612.27 37.4599C612.27 40.8466 610.637 42.5399 607.37 42.5399C588.79 42.5499 570.21 42.5499 551.63 42.5799C542.23 42.5899 532.85 43.0399 523.67 45.1699C513.07 47.6399 505.5 53.4899 503.09 64.6899C501.83 70.5399 501.78 70.5099 507.79 70.5199C541.56 70.6099 575.33 70.7299 609.11 70.7399C611.7 70.7399 612.41 71.5099 612.34 74.0199C612.17 80.1199 612.03 86.2299 612.38 92.3099C612.59 95.9799 611.23 96.4999 607.98 96.4899C574.33 96.3799 540.68 96.4199 507.03 96.4199C506.12 96.4199 505.21 96.4699 504.3 96.4199C502.75 96.3199 502.24 96.8999 502.57 98.4799C504.03 105.4 506.76 111.51 512.96 115.55C522.8 121.96 534.09 123.32 545.27 123.61C566.43 124.16 587.62 123.78 608.8 123.67C611.46 123.66 612.49 124.32 612.34 127.12C612.11 131.33 612.28 135.56 612.28 140.21C620.92 133.16 627.71 125.13 635.32 117.92C646.88 106.96 658.34 95.8999 669.92 84.9599C671.99 82.9999 671.73 81.7999 669.75 79.9699C659.26 70.2799 648.9 60.4499 638.47 50.6999C630.04 42.8199 621.59 34.9799 612.28 26.3099H612.27Z" fill="white"/>
<path d="M1026.27 115.13C1021.62 122.25 1017.25 128.02 1011.58 132.78C1000.92 141.71 988.75 146.89 975.01 148.71C958.56 150.88 942.04 150.64 925.5 150.83C915.3 150.95 905.18 150.12 895.09 149.29C878.23 147.91 863.69 141.03 851.4 129.09C843.24 121.16 838.29 111.64 835.38 101.01C832.04 88.77 831.96 76.34 835.63 64.1C842.78 40.3 858.88 25.49 882.43 18.42C888.6 16.57 895.06 16.29 901.41 15.62C915.42 14.13 929.5 12.68 943.58 14C958.57 15.4 973.73 15.19 988.44 19.34C1000.65 22.79 1010.5 29.63 1018.73 39.01C1021.28 41.92 1023.41 45.2 1026.29 49.06C1026.29 46.46 1026.29 44.5 1026.29 42.53C1026.27 25.39 1039.83 13.3 1055.93 12.98C1070.85 12.69 1081.72 18.55 1090.77 30.14C1111.75 57.02 1133.28 83.47 1154.67 110.22C1156.31 109.27 1155.48 107.68 1155.48 106.46C1155.53 77.91 1155.58 49.35 1155.44 20.8C1155.42 17.43 1156.2 16.37 1159.71 16.43C1171.92 16.66 1184.13 16.62 1196.34 16.45C1199.32 16.41 1200 17.33 1199.99 20.19C1199.89 52.25 1200.09 84.31 1199.73 116.36C1199.68 120.68 1200.33 125.02 1199.45 129.46C1196.8 142.83 1185.47 153.7 1171.91 155.72C1159.22 157.61 1149.2 152.62 1141.09 143.66C1132.21 133.85 1124.02 123.43 1115.47 113.32C1105.43 101.45 1095.3 89.67 1085.28 77.79C1080.08 71.63 1075.02 65.35 1069.93 59.1C1069.45 58.51 1069.17 57.58 1068.23 57.87C1067.23 58.17 1067.59 59.18 1067.62 59.87C1067.77 63.35 1068.17 66.82 1068.18 70.29C1068.23 95.47 1068.16 120.65 1068.26 145.83C1068.27 148.76 1067.66 149.9 1064.44 149.85C1052.88 149.65 1041.31 149.65 1029.75 149.85C1026.66 149.9 1026.15 148.8 1026.19 146.06C1026.35 137.24 1026.25 128.41 1026.25 119.58C1026.25 118.48 1026.25 117.38 1026.25 115.15L1026.27 115.13ZM933.84 123.06C940.87 122.7 949.06 123.7 957.04 120.37C973.05 113.68 982.41 100.01 982.48 83.01C982.51 76.07 980.65 69.74 977.54 63.54C972.59 53.66 964.88 47.32 954.38 44.37C942.71 41.09 930.75 42.82 918.9 42.84C916.76 42.84 914.52 43.22 912.5 43.92C889.38 51.94 878.62 74.87 886.77 97.55C890.47 107.84 897.58 115.18 907.67 119.79C915.77 123.49 924.23 123 933.84 123.08V123.06Z" fill="white"/>
<path d="M807.76 0.500036C813.34 0.500036 818.92 0.570036 824.5 0.470036C827.16 0.430036 828.25 1.54004 828.24 4.17004C828.2 15.58 828.19 26.99 828.25 38.4C828.27 41.11 827.05 42.05 824.47 42.03C813.05 41.97 801.63 41.97 790.21 42.03C787.74 42.04 786.95 41.05 786.7 38.59C786.17 33.26 787.61 29.12 791.94 25.67C795.46 22.86 798.18 19.12 802.03 16.6C802.89 16.03 804.4 15.25 803.88 13.99C803.37 12.75 801.8 13.32 800.69 13.3C797.19 13.24 793.68 13.17 790.18 13.31C787.64 13.41 786.74 12.37 786.75 9.90004C786.8 -1.01996 786.01 0.650036 795.7 0.530036C799.72 0.480036 803.75 0.530036 807.77 0.520036L807.76 0.500036Z" fill="white"/>
<path d="M1177.92 189.2C1183.62 189.2 1189.33 189.28 1195.03 189.17C1197.52 189.12 1198.51 190.05 1198.49 192.56C1198.42 204.09 1198.42 215.61 1198.49 227.14C1198.5 229.6 1197.6 230.62 1195.06 230.6C1183.39 230.52 1171.72 230.51 1160.06 230.58C1157.56 230.59 1156.62 229.7 1156.64 227.17C1156.73 215.64 1156.74 204.12 1156.66 192.59C1156.64 190.09 1157.49 189.12 1160.03 189.17C1165.99 189.29 1171.96 189.21 1177.92 189.21V189.2Z" fill="white"/>
<path d="M572.58 211C572.58 205.68 572.58 200.36 572.58 195.04C572.58 193.83 572.05 192.29 574.24 192.35C576.32 192.41 575.32 193.97 575.58 194.91C575.83 195.82 574.96 197.19 576.32 197.6C577.37 197.91 577.71 196.65 578.3 196.03C584.52 189.54 592.72 190.05 598.23 197.28C599.17 198.51 599.66 199.11 600.88 197.21C605.43 190.11 617.65 190.74 621.31 196.11C623.78 199.73 624.33 203.84 624.56 207.88C624.95 214.48 624.68 221.11 624.65 227.73C624.65 228.94 625.07 230.4 622.9 230.35C620.88 230.31 621.03 229.03 621.02 227.71C620.97 220.31 621.13 212.91 620.79 205.52C620.58 201 619.16 196.71 614.06 195.26C607.02 193.27 601.04 197.65 600.73 204.12C600.37 211.76 600.62 219.43 600.52 227.09C600.5 228.43 601.33 230.45 598.58 230.32C596.18 230.21 596.88 228.44 596.86 227.18C596.76 219.52 596.86 211.86 596.66 204.21C596.53 199.19 594.07 196.3 589.72 195.37C582.64 193.86 576.69 198.95 576.48 206.99C576.3 213.61 576.5 220.23 576.4 226.85C576.38 228.15 577.36 230.24 574.64 230.29C571.94 230.34 572.79 228.28 572.77 226.94C572.69 221.62 572.74 216.3 572.74 210.97C572.68 210.97 572.62 210.97 572.57 210.97L572.58 211Z" fill="white"/>
<path d="M942.06 198.74C950.01 190.15 959.5 189.06 966.49 195.42C969.9 198.52 971.66 202.5 971.64 207.06C971.62 211.92 972.51 216.85 970.08 221.56C964.7 231.99 952.84 234.33 944.23 226.49C943.58 225.9 943.13 224.78 942.09 225.06C940.64 225.45 941.43 226.79 941.3 227.7C941.12 228.9 941.67 230.51 939.49 230.3C937.58 230.11 938.22 228.65 938.22 227.62C938.24 210.88 938.27 194.13 938.35 177.39C938.35 176.02 937.56 174 940.2 174C942.88 174 942 176.07 942.02 177.41C942.1 184.26 942.05 191.1 942.05 198.74H942.06ZM967.84 211.88C967.84 210.25 967.8 209.34 967.84 208.44C968.25 199.79 962.19 194.89 955 194.64C948.08 194.4 942.27 200.78 942.06 208.37C941.99 210.83 941.96 213.3 942.07 215.75C942.32 221.09 946.66 226.4 951.98 228.01C955.82 229.16 962.76 226.14 965.52 222.31C967.98 218.9 968.01 215.07 967.83 211.89L967.84 211.88Z" fill="white"/>
<path d="M679.45 210.27C684.62 204.76 689.47 199.77 694.09 194.58C695.76 192.7 697.45 191.87 700.46 192.71C696.29 197.06 692.44 201.35 688.27 205.32C686.11 207.38 686.04 208.74 687.96 211.02C692.39 216.28 696.54 221.77 700.75 227.21C701.25 227.86 702.69 228.69 701.19 229.58C700.15 230.2 699.09 231.26 697.71 229.32C693.95 224.04 689.86 218.99 685.8 213.93C684.92 212.84 684.25 210.43 682.62 211.29C681 212.14 679.18 213.64 679.23 216.12C679.3 220.01 679.24 223.91 679.25 227.8C679.25 229.11 679.44 230.4 677.38 230.36C675.32 230.33 675.54 229.01 675.54 227.72C675.54 210.85 675.54 193.97 675.55 177.1C675.55 175.9 675.11 174.48 677.26 174.39C679.66 174.28 679.24 175.84 679.24 177.2C679.25 187.45 679.24 197.71 679.26 207.96C679.26 208.56 679.35 209.15 679.45 210.28V210.27Z" fill="white"/>
<path d="M725.09 210.96C721.33 210.96 717.56 211.07 713.81 210.91C711.78 210.82 710.95 211.42 711.25 213.48C712.85 224.48 721.46 230.35 731.29 227.28C732.28 226.97 733.3 226.77 734.29 226.48C735.21 226.21 736.16 225.32 736.85 226.87C737.58 228.52 736.32 228.97 735.31 229.38C724.32 233.86 712.49 230.32 708.85 219.18C706.25 211.22 707.14 203.68 712.62 196.97C717.28 191.27 725.38 190.41 731.56 192.92C736.66 194.99 740.07 202.81 739.36 209.11C739.13 211.13 738.04 210.95 736.74 210.95C732.85 210.95 728.96 210.95 725.07 210.95L725.09 210.96ZM723.6 207.97C726.96 207.97 730.33 207.92 733.69 207.99C735.24 208.02 735.66 207.46 735.57 205.95C735.21 199.99 731.78 195.88 726 194.7C721.48 193.77 715.88 196.7 713.49 201.24C710.67 206.61 711.47 207.98 717.39 207.98C719.46 207.98 721.53 207.98 723.6 207.98V207.97Z" fill="white"/>
<path d="M1087.08 210.95C1083.31 210.95 1079.54 211.07 1075.78 210.9C1073.52 210.8 1072.73 211.57 1073.07 213.76C1074.64 223.75 1083.09 230.34 1092.32 227.39C1093.79 226.92 1095.37 226.75 1096.81 226.19C1098.04 225.71 1098.89 225.95 1099.38 227.02C1099.98 228.33 1099.04 228.65 1097.96 229.12C1082.95 235.71 1068.56 226.53 1069.27 210.51C1069.59 203.22 1074.09 193.99 1082.12 192.06C1087.26 190.83 1092.18 191.45 1096.16 194.86C1100.6 198.67 1101.27 204.12 1101.08 209.67C1101.02 211.3 1099.71 210.92 1098.76 210.93C1094.86 210.96 1090.97 210.94 1087.07 210.94L1087.08 210.95ZM1085.44 207.97C1088.69 207.97 1091.93 207.98 1095.18 207.97C1096.15 207.97 1097.13 208.26 1097.32 206.58C1097.79 202.38 1094.9 197.24 1090.93 195.71C1083.47 192.83 1075.69 196.96 1073.95 204.78C1073.53 206.7 1073.58 208.32 1076.5 208.04C1079.46 207.76 1082.47 207.98 1085.45 207.98L1085.44 207.97Z" fill="white"/>
<path d="M831.39 211.13C830.89 206.86 831.92 202.92 834.41 199.23C838.52 193.11 844.93 191.04 851.06 191.7C859.3 192.59 863.68 197.44 865.76 205.22C867.39 211.34 866.52 217.05 863.64 222.33C860.16 228.7 854.05 231.48 847.08 231.08C840.97 230.73 836.36 227.16 833.34 221.68C831.52 218.38 831.05 214.9 831.4 211.13H831.39ZM862.54 211.4C862.54 210.49 862.57 209.58 862.54 208.68C862.32 203.01 858.48 197.17 853.74 195.62C846.36 193.21 841.26 195.19 838.13 200.25C833.24 208.16 832.58 215.88 839.66 223.75C844.8 229.46 851.31 229.62 857.09 224.55C861.02 221.11 862.75 216.62 862.54 211.4Z" fill="white"/>
<path d="M997.24 210.96C993.61 210.96 989.96 211.17 986.35 210.9C983.12 210.66 983.02 212.23 983.52 214.6C985.98 226.12 995.65 230.48 1005.1 227C1006.12 226.63 1008.05 224.46 1008.91 226.92C1009.86 229.64 1007.1 229.56 1005.56 230.02C995.78 232.91 988.27 230.8 983 223.15C979.35 217.85 979.77 211.7 980.81 205.62C982.58 195.32 992.85 188.79 1003.47 192.9C1008.65 194.9 1012.53 204.46 1011.38 209.88C1011.04 211.47 1009.8 210.92 1008.9 210.94C1005.01 211 1001.12 210.97 997.23 210.96H997.24ZM995.58 207.98C998.81 207.98 1002.04 207.99 1005.27 207.98C1006.37 207.98 1007.51 208.3 1007.69 206.43C1007.99 203.3 1005.57 197.79 1002.96 196.4C994.97 192.13 985.78 196.59 984.23 205.49C983.95 207.1 984.13 208.16 986.28 208.04C989.37 207.87 992.48 208 995.58 207.99V207.98Z" fill="white"/>
<path d="M662.12 216.28C662.12 220.3 662.15 224.32 662.09 228.33C662.08 229.09 662.61 230.33 661.09 230.38C659.88 230.43 659.07 229.8 659.06 228.57C659.03 225.29 657.94 225.98 655.95 227.43C652.05 230.27 647.84 232.46 642.75 230.51C638.34 228.82 635.22 225.95 634.9 220.99C634.56 215.66 637.74 212.29 641.99 209.95C645.87 207.82 650.19 206.95 654.65 207.13C657.73 207.25 658.78 206.38 657.86 203.01C655.73 195.2 650.45 192.77 641.74 195.99C640.65 196.39 639.32 197.87 638.48 195.96C637.6 193.98 639.6 193.5 640.76 193.15C651.56 189.91 662.25 191.23 662.06 206.55C662.02 209.79 662.06 213.03 662.06 216.27C662.08 216.27 662.1 216.27 662.13 216.27L662.12 216.28ZM658.22 214.83C657.44 213.59 659.75 210.64 656.74 210.37C651.46 209.91 646.13 210.21 641.77 213.95C639.4 215.99 638.27 221.81 640.02 224.17C642.34 227.3 645.45 228.99 649.31 227.63C655.95 225.29 658.2 222.51 658.22 214.82V214.83Z" fill="white"/>
<path d="M793.73 192.68C796.79 191.95 797.84 192.58 798.75 195.25C800.99 201.82 803.94 208.14 806.6 214.56C807.05 215.64 807.29 216.85 807.95 217.77C809.16 219.47 807.84 223.06 810.08 223.05C812.22 223.05 812.1 219.48 812.89 217.56C815.94 210.14 818.57 202.55 821.23 194.98C821.88 193.14 822.87 191.83 824.8 192.44C826.99 193.14 825.55 194.72 825.07 195.83C819.68 208.34 815.4 221.3 809.56 233.62C807.02 238.97 803.65 243.62 798.05 246.11C797.36 246.42 796.22 248.03 795.25 246.01C794.47 244.37 795.57 243.98 796.54 243.38C797.09 243.04 797.67 242.73 798.22 242.39C802.12 239.99 804.3 236.18 806.74 232.47C809.88 227.69 805.99 224.35 804.69 220.67C801.38 211.28 797.47 202.11 793.73 192.67V192.68Z" fill="white"/>
<path d="M903.12 223.44C900.22 227.43 897.1 229.36 893.31 230.65C885.6 233.28 877.98 226.77 877.45 219.27C876.88 211.15 877.29 202.95 877.25 194.79C877.25 193.41 877.25 192.27 879.22 192.3C881.4 192.33 880.93 193.81 880.94 195C881.03 202.38 880.92 209.77 881.17 217.15C881.38 223.09 885.36 227.75 890.02 228.1C895.29 228.49 901.62 223.42 902.4 217.83C903.28 211.52 902.58 205.15 902.74 198.81C902.78 197.26 902.78 195.7 902.76 194.15C902.74 192.85 903.31 192.33 904.64 192.34C906.09 192.34 906.36 193.1 906.35 194.29C906.32 205.3 906.35 216.3 906.2 227.31C906.19 228.27 907.14 230.32 905 230.34C902.65 230.36 903.15 228.35 903.11 226.86C903.09 226.09 903.11 225.31 903.11 223.44H903.12Z" fill="white"/>
<path d="M756.46 231.2C753.55 231.44 751.3 230.02 748.92 229.1C748.14 228.8 746.63 229.01 747.58 227.18C748.28 225.84 749.15 225.35 750.28 226.09C753.14 227.94 756.03 228 759.34 227.44C762.75 226.86 765.01 225.31 765.67 222.11C766.3 219.06 765.36 216.15 762.56 214.42C760.37 213.07 757.93 212.13 755.57 211.06C751.57 209.25 748.64 206.25 748.07 201.97C747.62 198.56 749.64 195.64 752.51 193.57C755.32 191.53 764.27 191.37 767.23 193.13C768.18 193.7 768.03 194.21 767.79 195C767.3 196.58 766.14 196.49 764.98 196.1C762.22 195.16 759.7 194.09 756.51 195.2C753.76 196.17 752.5 197.99 751.87 200.34C751.17 202.93 752.87 204.85 754.83 206.15C757.17 207.71 759.69 209.07 762.28 210.16C765.82 211.65 768.77 213.55 769.02 217.76C769.33 222.87 768.85 227.7 762.97 229.77C760.79 230.54 758.65 231.45 756.45 231.18L756.46 231.2Z" fill="white"/>
<path d="M1053.23 183.53C1053.44 186.9 1052.69 190.23 1054.01 191.79C1055.44 193.48 1058.88 192.12 1061.43 192.37C1062.45 192.47 1064.04 191.77 1064.1 193.66C1064.15 195.45 1062.69 195.12 1061.57 195.18C1061.44 195.18 1061.31 195.18 1061.18 195.18C1056.03 195.353 1053.45 197.967 1053.45 203.02C1053.45 208.85 1053.37 214.68 1053.49 220.51C1053.61 226.38 1055.62 228.12 1061.51 227.61C1062.29 227.54 1062.71 227.5 1062.87 228.31C1063.1 229.45 1062.75 230.12 1061.59 230.7C1057.83 232.6 1051.49 229.71 1050.39 225.52C1049.12 220.67 1049.82 215.72 1049.69 210.82C1049.58 206.68 1049.53 202.52 1049.71 198.38C1049.81 196.09 1049.32 194.96 1046.78 195.34C1045.79 195.49 1044.68 195.4 1043.72 195.11C1042.99 194.9 1042.59 194.12 1042.71 193.23C1042.83 192.34 1043.51 192.24 1044.12 192.36C1049.04 193.3 1050.19 190.85 1049.72 186.52C1049.48 184.26 1051.78 184.75 1053.23 183.52V183.53Z" fill="white"/>
<path d="M1032.66 231.22C1028.42 231.2 1024.84 228.11 1024.29 223.41C1023.81 219.31 1023.96 215.13 1023.9 210.98C1023.85 206.96 1023.75 202.93 1023.93 198.92C1024.05 196.39 1023.6 194.98 1020.63 195.32C1019.63 195.44 1017.84 196.24 1017.7 193.99C1017.54 191.58 1019.35 192.04 1020.63 192.14C1023.15 192.34 1024.3 191.46 1023.91 188.84C1023.79 188.08 1023.9 187.29 1023.9 186.51C1023.9 185.36 1024.12 184.5 1025.6 184.51C1027.19 184.51 1027.04 185.55 1027.13 186.6C1027.64 192.35 1027.66 192.2 1033.17 192.44C1034.93 192.52 1038.24 190.87 1038.27 193.7C1038.31 196.69 1034.96 195.01 1033.21 195.1C1026.89 195.41 1027.85 194.44 1027.81 200.48C1027.76 207.1 1027.75 213.71 1027.82 220.33C1027.89 226.45 1029.81 228.09 1035.94 227.47C1036.8 227.38 1037.48 227.47 1037.75 228.42C1038.05 229.45 1037.84 230.28 1036.67 230.46C1035.28 230.68 1034 231.54 1032.67 231.22H1032.66Z" fill="white"/>
<path d="M1116.06 198.71C1118.33 195.35 1120.7 192.11 1125.04 191.52C1126.72 191.29 1127.82 191.47 1127.69 193.6C1127.61 194.89 1127.19 195.27 1125.88 195.45C1120.53 196.17 1117.36 199.61 1116.61 205C1115.59 212.36 1116.36 219.76 1116.06 227.13C1116.01 228.34 1116.88 230.18 1114.45 230.32C1111.81 230.48 1112.4 228.56 1112.39 227.13C1112.3 216.5 1112.24 205.87 1112.24 195.25C1112.24 194.18 1111.38 192.45 1113.64 192.37C1115.99 192.28 1114.91 194.07 1115.15 195.12C1115.39 196.18 1114.67 197.41 1116.07 198.71H1116.06Z" fill="white"/>
<path d="M10.4001 326.92C10.4001 307.46 10.4701 288.01 10.3201 268.55C10.3001 265.64 11.3101 265 13.8701 265C33.9901 265.05 54.1301 264.71 74.2401 265.15C87.7901 265.44 98.9001 272.29 101.91 286.13C102.8 290.22 103.82 294.36 102.76 298.95C101.64 303.82 102.37 309.03 100.2 313.91C98.8001 317.07 97.4301 320.08 94.5201 321.97C92.7401 323.12 93.1001 323.83 94.2201 325.18C97.2601 328.83 100.92 331.84 103.34 336.15C107.72 343.94 107.05 352.08 106.04 360.27C105.53 364.43 104.53 368.61 102.72 372.44C97.5401 383.43 88.2901 388.58 76.5901 388.78C55.6901 389.13 34.7801 388.83 13.8801 388.95C10.6601 388.97 10.3601 387.49 10.3701 384.9C10.4401 365.57 10.4101 346.25 10.4001 326.92ZM55.9501 366.26C61.5301 366.26 67.1201 366.27 72.7001 366.26C77.6601 366.25 80.6201 363.9 82.0901 359.28C83.2601 355.61 82.7701 351.9 82.8001 348.2C82.8601 342.24 79.2201 338.22 73.3501 338.15C61.8001 338 50.2401 338.14 38.6801 338.07C36.3901 338.06 35.3601 338.88 35.3801 341.23C35.4401 348.62 35.4401 356.02 35.3801 363.41C35.3601 365.58 36.2201 366.35 38.4001 366.31C44.2401 366.2 50.0901 366.27 55.9301 366.26H55.9501ZM54.5501 314.67C59.0901 314.67 63.6301 314.61 68.1801 314.69C72.8101 314.76 76.8101 312.99 78.9501 307.45C82.6901 297.78 77.4601 288.06 67.8501 287.8C58.1201 287.53 48.3901 287.76 38.6501 287.68C36.3301 287.66 35.3601 288.51 35.3901 290.86C35.4601 297.73 35.4801 304.6 35.3801 311.47C35.3401 314.13 36.6001 314.76 38.9801 314.72C44.1701 314.61 49.3601 314.69 54.5501 314.68V314.67Z" fill="white"/>
<path d="M346.38 325.95C346.38 317.91 345.56 309.76 346.56 301.84C348.46 286.74 351.99 272.18 368.51 265.66C374.39 263.34 380.5 262.82 386.7 262.73C394.23 262.62 401.82 262.09 409.29 262.77C416.44 263.42 423.83 262.28 430.73 264.57C440.77 267.9 448.4 274.03 451.69 284.65C454.25 292.94 455.71 301.39 455.81 310.03C455.95 322.1 455.97 334.18 455.77 346.25C455.6 356.72 453.89 367.07 449.05 376.39C444.78 384.6 437 389.01 428.19 391.21C421.76 392.81 415.07 392.45 408.49 392.58C397.84 392.78 387.14 392.98 376.56 391.83C367.93 390.89 361 386.11 355.2 379.68C349.67 373.54 348.67 365.7 347.33 358.15C345.44 347.53 346.42 336.71 346.39 325.97L346.38 325.95ZM371.36 327.16H371.3C371.3 331.05 371.3 334.94 371.3 338.83C371.3 342.72 371.36 346.61 371.35 350.5C371.31 361.1 376.29 366.63 386.95 367.89C395.1 368.86 403.28 368.31 411.45 368.4C423.88 368.53 430.65 362.5 430.79 350.19C430.96 335.02 431 319.84 430.7 304.67C430.63 301.07 430.3 297.19 428.24 293.89C425.15 288.93 420.05 287.21 414.82 286.95C405.76 286.5 396.66 286.89 387.57 286.89C378.14 286.89 371.38 293.61 371.37 303.04C371.36 311.08 371.37 319.12 371.37 327.16H371.36Z" fill="white"/>
<path d="M223.95 326.9C223.95 318.6 223.16 310.21 224.15 302.02C225.4 291.58 226.83 280.74 235.08 272.88C241.39 266.87 248.9 263.61 257.93 263.24C267.51 262.84 277.09 262.33 286.65 262.7C294.53 263 302.51 262.7 310.15 265.62C320.75 269.68 327.51 276.76 330.25 287.96C335.4 308.99 333.68 330.31 332.97 351.51C332.69 360.04 331.1 368.88 326.62 376.54C322.02 384.41 314.66 388.92 306.01 391.16C299.45 392.85 292.64 392.43 285.93 392.56C276.86 392.73 267.74 393.19 258.71 392.56C246.69 391.73 236.66 386.36 230.22 375.95C226.88 370.56 225.76 364.11 224.78 357.84C223.18 347.58 224.1 337.21 223.95 326.89V326.9ZM248.97 326.9C248.97 326.9 248.95 326.9 248.94 326.9C248.94 335.2 248.8 343.51 248.97 351.81C249.21 363.1 256.45 367.73 266.32 368.3C273.95 368.74 281.63 368.24 289.28 368.39C300.81 368.62 307.85 362.91 308.18 351.45C308.65 335.25 308.82 318.99 308.05 302.81C307.64 294.1 306.34 289.91 295.98 287.98C283.87 285.73 271.56 285.76 259.42 288.27C253.67 289.46 248.99 295.5 248.97 301.24C248.94 309.8 248.97 318.36 248.97 326.92V326.9Z" fill="white"/>
<path d="M119.46 326.64C119.46 307.18 119.49 287.73 119.42 268.27C119.42 265.9 120.24 265.01 122.55 265.02C143.85 265.06 165.15 264.76 186.44 265.18C200.24 265.45 210.84 277.05 211.51 291.93C211.63 294.53 212.89 296.88 212.62 299.54C211.95 306.03 211.92 312.64 210.7 319.02C209.31 326.27 204.32 331.33 198.12 335.07C196.04 336.32 195.46 336.94 197.31 339.24C202.44 345.63 204.36 353.56 206.89 361.17C209.74 369.76 212.05 378.55 215.96 386.76C216.74 388.4 216.15 388.87 214.6 388.87C207.2 388.87 199.8 388.9 192.4 388.85C190.18 388.83 188.88 387.2 188.23 385.41C184.47 374.97 180.83 364.49 177.2 354C173.99 344.74 171.97 343.25 162.37 343.27C158.34 343.27 154.32 343.27 150.29 343.27C146.537 343.277 144.657 345.097 144.65 348.73C144.65 360.79 144.57 372.86 144.71 384.92C144.74 387.92 143.95 389.09 140.77 388.94C135.33 388.69 129.85 388.65 124.42 388.94C120.72 389.14 119.53 388.05 119.57 384.22C119.76 365.02 119.66 345.82 119.66 326.62C119.6 326.62 119.55 326.62 119.49 326.62L119.46 326.64ZM163.47 287.71C158.41 287.71 153.34 287.8 148.28 287.67C145.72 287.61 144.52 288.29 144.57 291.16C144.73 299.2 144.7 307.25 144.58 315.29C144.54 318.07 145.4 319.29 148.35 319.25C157.7 319.13 167.05 319.22 176.4 319.19C180.91 319.18 183.93 316.89 185.84 312.89C188.23 307.9 188.56 302.6 187.77 297.29C186.81 290.84 182.83 287.71 176.32 287.7C172.03 287.7 167.75 287.7 163.46 287.7L163.47 287.71Z" fill="white"/>
<path d="M895.12 327.66C895.12 308.84 895.03 290.01 895.26 271.19C895.28 269.39 893.06 267.2 895.57 265.62C897.45 264.44 899.64 265.07 901.68 265.07C920.91 265.03 940.14 265.11 959.38 265.02C974.48 264.95 983.88 275.71 986.33 286.5C988.21 294.78 988.42 303.28 987.38 311.86C986.5 319.15 984.64 325.69 979.11 330.8C977.97 331.85 976.82 332.92 975.55 333.8C971.24 336.79 971.22 336.77 974.04 341C978.91 348.29 980.45 356.89 983.55 364.88C986.37 372.16 987.36 380.08 991.4 386.91C992.17 388.21 991.69 388.88 990.26 388.88C982.59 388.88 974.92 389.03 967.26 388.77C964.71 388.68 964.04 385.99 963.29 383.95C960.72 376.93 958.52 369.75 955.66 362.85C953.68 358.09 952.69 352.99 950.05 348.42C947.94 344.75 945.13 343.32 941.23 343.29C935.64 343.26 930.05 343.46 924.47 343.22C921.09 343.08 919.94 344.13 919.99 347.61C920.18 359.94 919.95 372.28 920.14 384.61C920.19 388.06 919.15 389.13 915.72 388.96C910.15 388.69 904.54 388.7 898.96 388.96C895.72 389.11 895.04 387.84 895.05 384.91C895.15 365.83 895.1 346.74 895.1 327.66H895.12ZM938.89 287.7C933.82 287.7 928.76 287.81 923.7 287.66C921 287.58 920.01 288.55 920.05 291.26C920.16 299.3 920.18 307.35 920.05 315.39C920 318.27 921.06 319.28 923.9 319.25C933.25 319.14 942.6 319.26 951.95 319.19C956.6 319.15 959.86 316.48 961.53 312.1C963.23 307.64 963.57 303 962.98 298.45C962.03 291.13 959.24 286.94 950.96 287.65C946.96 287.99 942.91 287.71 938.89 287.71V287.7Z" fill="white"/>
<path d="M563.94 326.89C563.94 307.95 564.04 289 563.86 270.06C563.82 266.24 564.68 264.66 568.8 264.96C573.71 265.32 578.67 265.04 583.6 265.05C589.05 265.05 589.08 265.05 589.06 270.36C589.02 283.98 589.06 297.6 588.81 311.22C588.75 314.68 589.82 315.69 593.22 315.64C605.17 315.47 617.12 315.48 629.07 315.64C632.25 315.68 633.39 314.79 633.35 311.46C633.19 297.32 633.38 283.17 633.23 269.03C633.2 265.94 634.12 264.89 637.21 265C642.92 265.19 648.64 265.22 654.35 265C657.75 264.86 658.57 266.39 658.54 269.39C658.45 277.3 658.51 285.22 658.51 293.14C658.51 323.5 658.45 353.87 658.59 384.23C658.61 388.02 657.5 389.19 653.76 388.99C648.19 388.69 642.59 388.78 637.01 388.97C634.13 389.07 633.19 388.17 633.22 385.23C633.36 370.96 633.17 356.68 633.36 342.41C633.4 338.94 632.34 337.98 628.94 338.04C617.25 338.23 605.56 338.22 593.87 338.04C590.21 337.98 588.92 339.01 588.98 342.86C589.2 356.74 588.93 370.63 589.15 384.51C589.21 388.21 588.01 389.18 584.5 388.99C579.45 388.71 574.37 388.92 569.31 388.92C565.744 388.92 563.957 387.197 563.95 383.75C563.95 364.81 563.95 345.86 563.95 326.92L563.94 326.89Z" fill="white"/>
<path d="M772.06 388.89C768.68 388.89 765.31 388.86 761.93 388.89C759.65 388.91 758.59 387.93 757.95 385.63C755.39 376.51 752.56 367.47 749.87 358.38C749.35 356.61 748.3 355.93 746.46 355.94C733.47 355.99 720.48 355.96 707.5 355.98C705.67 355.98 704.79 356.58 704.2 358.72C701.6 368.11 698.56 377.38 695.71 386.7C695.21 388.33 694.15 388.9 692.51 388.89C685.5 388.85 678.48 388.86 671.47 388.89C669.33 388.89 668.95 388.37 669.67 386.11C674.81 370.09 679.71 354 684.73 337.94C688.73 325.12 692.84 312.34 696.82 299.51C699.12 292.08 701.2 284.58 703.5 277.15C705.91 269.38 709.84 266.48 717.87 265.57C725.77 264.67 733.56 265.21 741.36 266.51C745.6 267.22 747.93 270.29 749.31 273.73C751.58 279.39 753.23 285.3 755.03 291.14C756.22 294.99 757.1 298.93 758.32 302.76C761.4 312.44 765.01 321.97 767.64 331.76C772.28 349.02 778.79 365.71 783.09 383.07C784.05 386.957 782.46 388.897 778.32 388.89C776.24 388.89 774.16 388.89 772.09 388.89H772.06ZM726.68 332.12C729.28 332.12 731.87 332.12 734.47 332.12C742.9 332.12 741.76 332.56 739.41 325.03C735.89 313.74 732.75 302.34 729.13 291.08C728.72 289.8 728.32 288.35 726.87 288.36C725.52 288.36 725.38 289.92 725.02 290.99C720.9 303.51 717.59 316.28 713.04 328.66C712.18 331.01 713 332.27 715.78 332.15C719.41 331.99 723.05 332.11 726.68 332.11V332.12Z" fill="white"/>
<path d="M795.47 328.76C795.47 314.87 795.18 300.98 795.57 287.1C795.85 277.13 803.67 266.85 814.69 265.75C830.1 264.2 845.55 265.42 860.97 265.06C866.42 264.93 871.89 265.13 877.34 265.01C880.14 264.95 881.36 265.9 881.26 268.84C881.1 273.77 881.03 278.71 881.29 283.63C881.47 287.06 880.01 287.77 876.94 287.75C859.66 287.65 842.38 287.79 825.1 287.63C821.55 287.6 820.27 288.55 820.44 292.22C820.73 298.31 820.68 304.42 820.46 310.52C820.34 313.74 821.38 314.78 824.64 314.75C840.62 314.61 856.6 314.78 872.58 314.62C876.14 314.59 877.47 315.62 877.25 319.28C876.96 324.07 877 328.89 877.25 333.68C877.42 337.07 876.3 338.2 872.84 338.16C856.99 338.01 841.14 338.2 825.29 338.02C821.6 337.98 820.27 338.95 820.44 342.79C820.74 349.4 820.65 356.03 820.46 362.64C820.37 365.6 821.41 366.35 824.27 366.33C841.42 366.21 858.57 366.27 875.72 366.27C879.38 366.27 881.213 368.15 881.22 371.91C881.22 376.45 881.13 381 881.26 385.54C881.33 388.06 880.41 388.94 877.86 388.93C855.77 388.86 833.68 388.95 811.6 388.85C803.71 388.81 795.52 379.55 795.47 370.82C795.39 356.8 795.45 342.78 795.45 328.77H795.46L795.47 328.76Z" fill="white"/>
<path d="M1132.91 388.89C1122.78 388.89 1112.64 388.78 1102.51 388.96C1099.48 389.01 1098.3 388.2 1098.44 385.06C1098.65 380.27 1098.65 375.45 1098.44 370.66C1098.29 367.32 1099.35 366.16 1102.85 366.19C1119.22 366.36 1135.59 366.27 1151.95 366.28C1159.14 366.28 1163.22 362.7 1164.06 355.36C1164.55 351.11 1164.39 346.82 1162.57 342.85C1161.7 340.95 1160.2 339.59 1158.01 338.95C1154 337.78 1149.93 337.59 1145.79 337.51C1136.88 337.34 1127.88 338.53 1119.09 336.59C1109.94 334.57 1102.85 329.52 1099.54 320.39C1095.54 309.34 1094.93 298.02 1098.01 286.66C1101.47 273.93 1115.2 264.27 1128.1 264.86C1144.69 265.62 1161.35 265.12 1177.98 264.98C1181.31 264.95 1182.68 265.8 1182.48 269.33C1182.21 274.12 1182.25 278.94 1182.46 283.73C1182.6 286.81 1181.56 287.79 1178.47 287.77C1163.53 287.64 1148.58 288.02 1133.66 287.56C1127.7 287.38 1123.43 291.81 1122.45 296.65C1121.55 301.06 1121.67 305.76 1123.81 309.91C1125.44 313.09 1128.73 313.95 1132.07 314.01C1139.47 314.15 1146.88 314.17 1154.28 314.17C1161.19 314.17 1167.89 314.77 1174.25 318C1180.69 321.27 1184.62 326.51 1186.78 333.03C1189.12 340.12 1190.07 347.52 1189.54 355.03C1188.6 368.12 1184.68 379.55 1172.14 386.22C1168.99 387.9 1165.8 388.99 1162.15 388.95C1152.41 388.83 1142.66 388.91 1132.92 388.91L1132.91 388.89Z" fill="white"/>
<path d="M496.8 338.24C496.8 322.93 496.71 307.61 496.87 292.3C496.91 288.83 496.09 287.48 492.35 287.61C484.57 287.89 476.76 287.57 468.97 287.74C465.98 287.8 465.14 286.63 465.21 283.87C465.34 278.81 465.32 273.75 465.21 268.69C465.15 266.09 466 264.98 468.79 264.99C495.94 265.06 523.09 265.05 550.23 265C552.69 265 553.76 265.77 553.69 268.36C553.56 273.68 553.55 279 553.69 284.32C553.75 286.88 552.75 287.75 550.26 287.72C542.34 287.63 534.41 287.84 526.49 287.62C523.05 287.53 521.87 288.38 521.89 292.08C522.05 322.57 521.98 353.07 521.97 383.57C521.97 387.103 520.21 388.873 516.69 388.88C511.36 388.88 506.03 388.72 500.72 388.94C497.6 389.07 496.71 388.02 496.73 384.94C496.87 369.37 496.79 353.8 496.8 338.22V338.24Z" fill="white"/>
<path d="M1030.13 338.58C1030.13 323.01 1030.05 307.44 1030.2 291.87C1030.23 288.63 1029.23 287.56 1025.99 287.64C1018.2 287.83 1010.41 287.59 1002.62 287.75C999.67 287.81 998.37 286.98 998.48 283.84C998.66 278.66 998.57 273.46 998.52 268.27C998.5 266.03 999.3 265 1001.71 265C1029.11 265.05 1056.51 265.05 1083.92 265.01C1086.07 265.01 1086.98 265.84 1086.96 268C1086.9 273.58 1086.88 279.16 1086.97 284.74C1087.01 287.29 1085.64 287.73 1083.52 287.71C1075.47 287.66 1067.41 287.84 1059.37 287.63C1056.14 287.54 1055.22 288.5 1055.23 291.75C1055.35 322.5 1055.23 353.25 1055.38 383.99C1055.4 387.93 1054.36 389.23 1050.36 388.97C1045.06 388.62 1039.7 388.67 1034.4 388.97C1030.83 389.17 1030.05 387.83 1030.08 384.51C1030.23 369.2 1030.15 353.89 1030.15 338.58H1030.13Z" fill="white"/>
</g>
<defs>
<clipPath id="clip0_1864_11437">
<rect width="1200" height="392.41" fill="white" transform="translate(0 0.469971)"/>
</clipPath>
</defs>
</svg>
