<svg width="553" height="583" viewBox="0 0 553 583" fill="none" xmlns="http://www.w3.org/2000/svg">
<g clip-path="url(#clip0_1864_11638)">
<path d="M0.04 291.35C0.04 195.07 0.05 98.78 0 2.50005C0 0.700049 0.4 0.300049 2.2 0.300049C185.03 0.350049 367.85 0.350049 550.68 0.300049C552.47 0.300049 552.88 0.700049 552.88 2.50005C552.83 195.23 552.83 387.96 552.88 580.69C552.88 582.48 552.48 582.89 550.68 582.89C367.85 582.84 185.03 582.84 2.2 582.89C0.41 582.89 0 582.49 0 580.69C0.05 484.25 0.04 387.8 0.04 291.36V291.35ZM532.9 456C535.37 456 537.85 455.87 540.31 456.04C542.22 456.17 542.98 455.75 542.83 453.64C542.62 450.79 542.78 447.91 542.78 445.04V46.43C542.78 41.73 542.78 37.0201 542.78 32.32C542.78 26.58 542.71 20.84 542.82 15.1C542.86 13.28 542.45 12.72 540.52 12.73C524.81 12.82 509.1 12.78 493.39 12.78C488.52 12.78 483.65 12.78 478.78 12.78C473.44 12.78 468.1 12.78 462.75 12.78C411.87 12.78 360.98 12.78 310.1 12.78C304.84 12.78 299.58 12.78 294.31 12.78C289.21 12.78 284.1 12.78 279 12.78C273.9 12.78 268.8 12.78 263.7 12.78C258.76 12.78 253.82 12.78 248.88 12.78C228.46 12.78 208.05 12.78 187.63 12.78C182.52 12.78 177.41 12.78 172.31 12.78C167.2 12.78 162.09 12.78 156.99 12.78C151.89 12.78 146.77 12.78 141.67 12.78C136.56 12.78 131.45 12.78 126.35 12.78C121.24 12.78 116.13 12.78 111.03 12.78C105.92 12.78 100.81 12.78 95.71 12.78C90.6 12.78 85.49 12.78 80.39 12.78C75.44 12.78 70.49 12.78 65.54 12.78C60.11 12.78 54.69 12.78 49.26 12.78C44.79 12.78 40.32 12.78 35.85 12.78C30.18 12.78 24.52 12.82 18.85 12.75C17.58 12.73 17.24 13.13 17.27 14.36C17.38 19.0201 16.72 23.64 17.19 28.35C17.72 33.6 16.71 38.91 17.2 44.24C17.66 49.26 16.75 54.32 17.2 59.41C17.66 64.75 16.75 70.1301 17.22 75.54C17.64 80.33 16.79 85.14 17.2 90C17.66 95.34 16.78 100.72 17.21 106.13C17.6 111 16.75 115.89 17.21 120.83C17.67 125.85 16.75 130.91 17.21 136C17.64 140.82 16.95 145.69 17.26 150.57C17.59 155.66 17.03 160.76 17.28 165.87C17.53 170.96 17.02 176.06 17.28 181.17C17.54 186.26 16.99 191.36 17.28 196.47C17.57 201.64 17.07 206.82 17.27 212.01C17.48 217.34 17.29 222.69 17.32 228.02C17.35 233.04 17.05 238.05 17.28 243.08C17.52 248.17 17.06 253.27 17.27 258.38C17.48 263.55 17.27 268.74 17.33 273.91C17.39 278.61 17.24 283.31 17.25 288.01C17.35 336.99 17.31 385.96 17.36 434.94C17.36 436.22 17.06 437.43 17.2 438.77C17.51 441.69 17.25 444.66 17.35 447.61C17.38 448.37 16.14 448.61 16.71 449.35C17.59 450.51 17.26 451.59 16.98 452.87C16.52 454.95 17.59 456 19.8 456C25.3 456 30.8 456 36.3 456H510.71C518.12 456 525.54 456 532.95 456H532.9ZM280.02 458.37C193.48 458.37 106.94 458.37 20.41 458.37C19.69 458.37 18.97 458.37 18.26 458.37C17.76 458.37 17.32 458.42 17.26 459.08C17.1 460.89 16.47 463.11 16.76 464.43C17.37 467.16 17.19 469.8 17.2 472.44C17.28 505.7 17.27 538.96 17.21 572.22C17.21 574.08 17.47 574.77 19.59 574.77C107.81 574.71 196.02 574.72 284.24 574.72C289.67 574.72 295.09 574.72 300.52 574.72C305.47 574.72 310.42 574.72 315.37 574.72C320.64 574.72 325.91 574.72 331.17 574.72C336.12 574.72 341.07 574.72 346.02 574.72C351.29 574.72 356.56 574.72 361.82 574.72C366.77 574.72 371.72 574.72 376.67 574.72C381.86 574.72 387.05 574.72 392.23 574.72H484.41C489.36 574.72 494.31 574.62 499.25 574.75C503.2 574.85 507.17 574.93 511.1 574.96C516.28 575.01 521.48 575.05 526.66 574.96C531.16 574.89 535.68 574.78 540.19 574.79C542.49 574.79 542.99 574.06 542.83 571.99C542.66 569.85 543 567.66 542.73 565.54C542.48 563.5 542.82 561.52 542.8 559.52C542.76 556.89 542.82 554.26 542.78 551.62C542.75 549.14 542.65 546.66 542.76 544.17C542.87 541.54 542.79 538.91 542.79 536.27C542.79 533.79 542.72 531.31 542.77 528.82C542.87 523.71 542.69 518.59 542.8 513.48C542.91 508.36 542.58 503.25 542.77 498.13C542.87 495.5 542.92 492.86 542.75 490.24C542.59 487.75 542.8 485.27 542.79 482.79C542.78 480.16 542.98 477.51 542.73 474.9C542.49 472.39 542.81 469.93 542.79 467.45C542.78 465.38 542.59 463.28 542.84 461.23C543.14 458.74 542.2 458.3 539.86 458.3C453.24 458.36 366.62 458.35 280.01 458.35L280.02 458.37Z" fill="white"/>
<path d="M465.96 387.95C465.96 383.09 465.89 378.23 466 373.37C466.04 371.73 465.63 371.17 463.92 371.22C462.29 371.27 460.37 371.96 459.06 370.91C457.56 369.7 459.51 368.02 459.14 366.47C458.63 364.34 459.81 362.28 459.55 360.11C459.42 359.04 460.35 358.85 461.18 358.86C461.62 358.86 462.04 359.2 462.49 359.28C465.48 359.83 465.98 359.42 465.96 356.39C465.94 353.6 466.02 350.8 465.77 348.03C465.58 345.92 466.48 345.04 468.35 344.57C472.72 343.46 477.08 342.33 481.41 341.06C483.12 340.56 483.5 341.11 483.47 342.7C483.38 347.56 483.45 352.43 483.31 357.29C483.27 358.57 483.53 358.97 484.81 358.93C487.28 358.85 489.76 358.97 492.23 358.88C493.56 358.83 494.15 359.24 494 360.63C493.65 363.9 493.34 367.18 493.04 370.46C492.93 371.69 492.11 371.67 491.18 371.76C488.94 371.98 486.81 371.15 484.59 371.16C483.34 371.16 482.95 371.48 482.96 372.75C483.04 380.64 482.96 388.54 483.11 396.43C483.19 400.92 484.51 402.88 487.49 403.68C489.18 404.13 490.71 403.26 492.29 402.93C493.85 402.61 494.66 402.83 494.51 404.72C494.28 407.7 494.04 410.67 493.54 413.62C493.43 414.26 493.24 414.69 492.58 414.77C487.17 415.48 481.85 416.96 476.29 415.51C470.1 413.89 466.22 409.6 465.77 403.21C465.42 398.12 465.5 393.02 466 387.92L465.96 387.95Z" fill="white"/>
<path d="M226.04 507.52C228.24 506.27 230.15 504.81 232.39 504.03C237.13 502.38 242.04 501.76 245.84 505.58C247.97 507.72 249.08 507.24 251.15 505.98C255.78 503.16 260.85 502.03 266.21 503.43C270.47 504.54 273.7 508.91 273.79 513.32C273.9 518.8 274.26 524.28 274.01 529.74C273.76 534.96 274.26 540.1 274.61 545.27C274.67 546.22 274.03 546.42 273.21 546.44C269.39 546.57 265.57 546.71 261.75 546.91C260.37 546.98 259.98 546.39 259.94 545.08C259.86 542.93 260.37 540.84 260.41 538.72C260.51 533.22 260.49 527.71 260.41 522.21C260.39 520.49 260.2 518.75 259.85 517.07C259.47 515.27 258.45 513.77 256.49 513.42C254.18 513 252.05 513.66 250.21 515.08C249.56 515.58 249.94 516.43 249.95 517.12C250.08 526.2 250.17 535.29 250.38 544.37C250.42 546.08 249.92 546.6 248.25 546.44C244.85 546.12 241.46 546.67 238.07 546.89C236.47 546.99 235.86 546.39 236.02 544.84C236.68 538.43 236.41 531.99 236.54 525.56C236.59 523.09 236.3 520.67 236 518.25C235.74 516.14 234.56 514.47 232.37 513.98C230.02 513.46 227.99 514.46 226.19 515.87C225.58 516.35 225.9 517.22 225.89 517.92C225.82 526.69 225.98 535.46 226.48 544.21C226.59 546.15 225.98 546.47 224.26 546.45C220.78 546.4 217.33 547.08 213.82 546.91C212.41 546.84 212.08 546.42 212.09 545.11C212.14 537.85 212.22 530.59 212.07 523.34C211.96 518.06 211.55 512.79 211.18 507.52C211.07 506.02 211.46 505.42 213.04 505.22C216.17 504.82 219.28 504.19 222.38 503.59C225.7 502.95 225.86 503.05 225.95 506.39C225.95 506.69 226.01 506.98 226.06 507.49L226.04 507.52Z" fill="white"/>
<path d="M156.53 512.24C156.53 518.86 156.3 525.48 156.61 532.08C156.81 536.36 156.82 540.64 157.18 544.91C157.29 546.22 156.95 546.46 155.9 546.43C151.94 546.32 147.98 546.47 144.04 546.92C142.37 547.11 142.11 546.42 142.13 544.89C142.26 537.72 142.55 530.55 142.31 523.37C142.26 521.9 141.91 521.48 140.43 521.51C135.41 521.6 130.38 521.58 125.36 521.53C123.7 521.51 123 521.88 123.12 523.83C123.35 527.6 123.4 531.39 123.06 535.19C122.77 538.42 123.83 541.63 123.51 544.89C123.43 545.68 123.65 546.5 122.36 546.45C118.32 546.27 114.28 546.52 110.26 546.92C108.16 547.13 108.05 545.85 108.23 544.37C109.06 537.57 108.86 530.74 108.84 523.91C108.83 519.76 108.8 515.62 108.68 511.47C108.5 505.04 108.11 498.62 108.13 492.18C108.13 490.27 108.65 489.95 110.37 489.95C113.95 489.95 117.54 489.8 121.11 489.53C122.76 489.41 123.37 489.79 123.33 491.54C123.18 497.44 123.23 503.34 123.06 509.23C123 511.07 123.59 511.52 125.35 511.47C130.21 511.35 135.07 511.39 139.94 511.45C141.6 511.47 142.28 511.01 142.25 509.15C142.14 503.44 141.48 497.75 141.65 492.02C141.7 490.5 141.9 489.94 143.55 489.94C147.21 489.94 150.88 489.78 154.53 489.52C156.07 489.41 156.57 489.75 156.55 491.4C156.46 498.34 156.51 505.28 156.51 512.22L156.53 512.24Z" fill="white"/>
<path d="M430.23 525C430.23 528.64 430.23 532.28 430.23 535.91C430.23 538.7 430.1 541.5 430.34 544.28C430.52 546.43 429.24 547.18 427.77 546.83C424.82 546.11 421.98 546.71 419.11 546.95C417.04 547.13 416.38 546.52 416.4 544.34C416.52 533.74 416.64 523.13 416.38 512.53C416.22 506.03 416.32 499.52 415.89 493.04C415.74 490.84 415.65 488.64 415.49 486.44C415.37 484.86 415.99 484.41 417.48 484.23C421.1 483.77 424.7 483.16 428.29 482.49C429.85 482.2 430.36 482.5 430.34 484.21C430.2 495.61 430.18 507.01 430.12 518.41C430.12 519.27 430.12 520.13 430.12 521.17C431.32 520.89 431.57 519.96 431.98 519.29C434.73 514.81 437.47 510.33 440.11 505.79C440.85 504.53 441.7 504.01 443.16 504.03C446.35 504.08 449.53 503.96 452.72 503.95C453.39 503.95 454.25 503.58 454.68 504.37C455.13 505.18 454.37 505.68 453.96 506.23C450.63 510.7 447.31 515.19 443.91 519.6C443.31 520.38 443.31 520.75 443.8 521.58C448.22 529.14 452.55 536.75 456.92 544.33C457.6 545.51 457.99 546.54 456.02 546.41C452.04 546.15 448.13 547.03 444.16 546.95C442.67 546.92 441.9 546.44 441.23 545.12C438.23 539.15 435.13 533.23 432.06 527.29C431.63 526.46 431.14 525.67 430.68 524.86C430.53 524.9 430.38 524.94 430.23 524.98V525Z" fill="white"/>
<path d="M190.41 542.95C186.49 546.18 182.37 547.69 177.58 547.43C172.4 547.14 168.75 544.71 166.51 540.11C165.65 538.34 165.15 536.48 165.15 534.43C165.16 525.1 165.36 515.77 164.7 506.46C164.6 505.09 164.93 504.41 166.49 504.41C169.9 504.41 173.32 504.57 176.7 503.93C178.45 503.6 179.08 504.26 179.04 506.11C178.89 513.84 178.87 521.58 178.82 529.31C178.8 532.52 179.17 535.52 182.66 537.03C185.56 538.28 189.7 535.9 190.1 532.99C191.27 524.34 189.81 515.71 190.01 507.07C190.06 504.9 190.64 504.35 192.68 504.36C195.76 504.38 198.84 504.13 201.91 503.88C203.45 503.76 203.96 504.2 203.93 505.82C203.84 510.6 204.01 515.39 203.97 520.17C203.89 528.22 204.08 536.27 204.44 544.32C204.52 546.07 204.04 546.49 202.37 546.49C199.69 546.49 197.03 546.34 194.33 546.85C190.78 547.53 190.71 547.28 190.4 542.95H190.41Z" fill="white"/>
<path d="M282.9 394.49C282.72 391.02 282.52 387.55 282.43 384.07C282.19 375.3 281.39 366.56 281.06 357.79C280.86 352.5 281.11 347.2 280.57 341.9C280.41 340.32 279.89 340.16 278.57 340.13C275.48 340.07 272.46 340.84 269.34 340.68C265.36 340.48 261.37 340.66 257.39 340.51C255.62 340.44 255.09 341.37 254.65 342.78C253.65 346.04 252.98 349.38 251.88 352.63C250.26 357.41 249.26 362.41 247.92 367.29C246.74 371.6 245.89 376.03 244.57 380.25C243.51 383.68 242.91 387.26 241.42 390.61C240.36 388.97 240.47 387.02 240.01 385.24C238.5 379.45 236.85 373.68 235.56 367.84C233.61 359.06 230.81 350.5 228.81 341.74C228.58 340.72 228.26 340.13 226.96 340.16C219.55 340.35 212.14 340.47 204.73 340.52C203.27 340.52 202.69 341.05 202.72 342.43C202.83 348.51 202.18 354.57 202.04 360.64C201.91 366.75 201.33 372.83 201.15 378.92C201.03 383.28 200.54 387.61 200.46 391.98C200.34 399.11 199.62 406.23 199.1 413.34C199.01 414.54 199.46 414.86 200.58 414.84C204.81 414.77 209.03 414.74 213.26 414.76C214.4 414.76 215.18 413.94 214.92 413.28C214.24 411.6 214.94 410.1 214.99 408.52C215.34 397.73 215.46 386.93 215.94 376.15C216.24 369.36 215.42 362.53 216.54 355.12C217.16 357.94 217.62 360.13 218.13 362.31C220.21 371.33 222.9 380.19 225.11 389.17C227.07 397.15 229.47 405.04 231.28 413.07C231.53 414.18 232.15 414.91 233.62 414.86C237.76 414.7 241.91 414.65 246.06 414.78C247.96 414.84 248.53 414.13 248.99 412.37C250.93 404.88 253.09 397.44 255.16 389.98C256.89 383.72 258.73 377.49 260.31 371.19C261.6 366.03 263.01 360.92 264.59 355.62C264.65 356.3 264.72 356.75 264.72 357.19C264.8 375.61 264.9 394.03 264.92 412.45C264.92 414.3 265.39 414.93 267.32 414.86C272.02 414.69 276.74 414.57 281.43 414.81C283.56 414.92 284.02 414.33 283.89 412.42C283.51 406.43 283.22 400.44 282.91 394.45L282.9 394.49Z" fill="white"/>
<path d="M345.33 396.8C345.03 388.09 346.32 379.36 344.71 370.67C343.81 365.81 341.37 362.16 336.82 360.19C333.38 358.7 329.71 357.87 325.94 357.81C322.46 357.76 319 357.81 315.52 358.28C311.35 358.85 307.31 359.75 303.35 361.14C302.08 361.58 301.47 362.35 301.52 363.8C301.62 366.51 301.67 369.23 301.51 371.93C301.38 374 301.83 374.51 303.85 373.63C309.74 371.04 315.9 369.87 322.36 370.3C324.13 370.42 325.62 370.9 326.8 372.25C327.76 373.35 327.57 374.81 327.53 376C327.5 376.94 326.05 376.44 325.23 376.56C319.62 377.37 314.02 378.26 308.68 380.27C297.34 384.55 292.63 394.06 296.73 404.6C299.97 412.93 306.12 415.78 313.14 416.14C318.38 416.41 323.36 414.61 327.58 410.97C328.4 412.41 326.77 414.74 329.36 414.79C334.46 414.9 339.57 414.77 344.67 414.74C345.51 414.74 346 414.45 345.89 413.48C345.27 407.93 345.51 402.36 345.32 396.79L345.33 396.8ZM328.12 396.47C328.12 400.48 328.14 400.6 324.28 401.79C322.09 402.46 319.9 403.47 317.45 402.5C315.18 401.6 313.45 400.35 313.06 397.77C312.57 394.61 313.64 392.11 316.39 390.47C318.86 389 321.61 388.24 324.45 388.02C328.12 387.73 328.12 387.8 328.12 391.7C328.12 392.42 328.12 393.13 328.12 393.85C328.12 394.72 328.12 395.6 328.12 396.47Z" fill="white"/>
<path d="M187.07 387.78C186.98 382.27 186.68 376.73 184.36 371.47C182.01 366.15 178.39 362.22 173.08 360.11C166.26 357.39 159.09 357.17 151.94 358.45C142.42 360.15 135.8 365.61 132.81 374.84C130.74 381.24 130.88 387.99 131.73 394.59C132.67 401.82 135.87 407.93 142.21 412.03C147.12 415.2 152.56 416.13 157.61 415.89C161.14 415.87 163.97 415.88 166.81 415.32C174.67 413.78 180.8 409.97 184.32 402.51C186.53 397.83 187.14 392.79 187.06 387.78H187.07ZM172.42 394.9C170.58 398.81 167.37 400.8 163.26 401.6C161.78 401.89 160.29 401.89 158.45 401.9C155.81 402.03 152.96 401.54 150.4 399.88C147.08 397.74 145.41 394.54 144.92 390.76C144.47 387.31 144.4 383.78 145.48 380.43C147.04 375.6 150.5 372.75 155.48 371.86C159.22 371.19 162.97 371.3 166.54 372.73C169.32 373.84 171.21 375.89 172.44 378.67C173.65 381.42 173.81 384.32 173.86 387.2C173.9 389.82 173.58 392.45 172.43 394.9H172.42Z" fill="white"/>
<path d="M120.79 396.69C117.57 399.1 113.92 400.42 110.02 401.32C106 402.25 102.13 402.08 98.36 400.46C89.1 396.5 86.18 388.54 85.25 379.39C84.94 376.3 85.68 373.29 86.19 370.27C87.51 362.53 92.8 353.7 103.82 353.14C109.38 352.86 114.62 354.06 119.25 357.38C119.93 357.87 120.95 359.03 121.13 356.97C121.47 353.12 121.67 349.25 122.14 345.41C122.38 343.44 121.74 342.53 119.89 341.95C114.15 340.16 108.33 338.93 100.04 338.96C95.68 338.94 89.32 340.07 83.58 343.44C72.58 349.89 67.6 360.09 66.2 372.32C65.39 379.39 65.63 386.57 68.27 393.16C74.17 407.84 85.27 415.63 101.22 416.28C107.85 416.55 114.24 415.53 120.4 413.04C121.34 412.66 122.18 412.36 122.1 411.12C121.83 406.68 122.39 402.26 122.58 397.83C122.64 396.36 122.36 395.52 120.79 396.69Z" fill="white"/>
<path d="M384.44 232.29C387.19 226.35 389.91 220.4 392.66 214.47C398.18 202.6 403.73 190.74 409.26 178.86C414.68 167.21 420.07 155.55 425.47 143.9C429.48 135.24 433.55 126.6 437.48 117.9C440.3 111.66 443.08 105.4 446.01 99.22C448.03 94.96 450.43 90.77 452.19 86.43C456.42 76.03 461.81 66.2 466.13 55.85C468.26 50.74 470.85 45.83 473.25 40.84C474.54 38.15 474.55 38.16 471.5 38.16C384.4 38.16 297.31 38.16 210.21 38.12C208.18 38.12 207.11 38.71 206.25 40.62C200.97 52.35 195.56 64.02 190.16 75.7C186.61 83.37 182.81 90.94 179.47 98.7C176.27 106.13 172.29 113.18 169.2 120.65C168.05 123.43 166.08 125.89 165.2 128.63C164.18 131.8 162.65 134.69 161.34 137.68C158.04 145.21 154.33 152.56 150.87 160.02C145.74 171.1 140.74 182.23 135.6 193.3C123.48 219.4 111.29 245.46 99.16 271.56C94.17 282.29 89.28 293.07 84.35 303.83C83.5167 305.65 84.0767 306.56 86.03 306.56C129.58 306.56 173.13 306.56 216.67 306.56C260.22 306.56 303.77 306.54 347.31 306.61C349.4 306.61 350.4 305.93 351.22 304.08C354.48 296.78 357.89 289.54 361.26 282.28C368.98 265.62 376.7 248.95 384.41 232.29H384.44Z" fill="white"/>
<path d="M392.84 358.04C391.6 357.43 389.74 357.64 388.18 358.11C388.11 358.13 388.06 358.24 387.99 358.25C383.51 359.38 381.08 362.75 378.63 367.13C378.63 364.02 378.6 361.56 378.64 359.09C378.67 357.7 378.26 357.32 376.79 357.63C372.18 358.6 367.54 359.45 362.9 360.24C360.09 360.72 359.65 361.08 359.97 363.75C360.71 369.97 360.76 376.23 360.86 382.46C361.01 392.58 361.13 402.7 360.67 412.82C360.6 414.38 361.08 414.9 362.68 414.86C367.62 414.74 372.56 414.7 377.5 414.78C379.24 414.81 379.75 414.16 379.59 412.53C379.23 408.85 378.75 405.17 378.66 401.48C378.51 395.27 378.54 389.04 378.66 382.83C378.79 376.48 382.34 373.58 389.11 375.8C390.51 376.26 390.97 375.77 390.99 374.64C391.08 370.33 393.1 366.35 393.01 362.01C392.98 360.64 394.43 358.82 392.83 358.03L392.84 358.04Z" fill="white"/>
<path d="M448.9 400.08C445.5 394.12 442.23 388.08 438.78 382.15C438 380.8 438.16 379.95 439.03 378.8C443.41 373.02 447.72 367.18 452.07 361.38C452.57 360.72 453.11 360.05 452.74 359.24C452.35 358.4 451.47 358.86 450.83 358.85C446.2 358.83 441.58 358.9 436.95 358.9C435.66 358.9 434.79 359.34 434.1 360.53C430.86 366.11 427.54 371.64 424.22 377.16C423.26 378.76 422.19 380.29 421.17 381.86C421 381.78 420.83 381.7 420.66 381.62C420.66 376.91 420.64 372.19 420.66 367.48C420.73 356.24 420.67 345.01 421.21 333.78C421.35 330.82 420.96 330.63 417.92 331.18C413.29 332.02 408.64 332.81 403.97 333.4C402.13 333.63 401.31 334.33 401.61 336.11C402.39 340.72 401.97 345.39 402.45 350.02C402.99 355.15 402.89 360.36 402.92 365.54C403 379.26 403 392.98 403.01 406.7C403.01 408.19 402.99 409.64 402.62 411.15C401.87 414.24 402.48 414.84 405.63 414.83C410.1 414.81 414.56 414.71 419.03 414.78C420.84 414.81 421.52 414.19 421.28 412.41C420.48 406.57 420.77 400.68 420.74 394.81C420.72 391.68 420.74 388.55 420.74 384.78C421.27 385.67 421.46 385.97 421.64 386.3C426.34 395.05 431.05 403.79 435.34 412.76C436.11 414.36 437.03 414.96 438.8 414.87C444.02 414.61 449.26 414.53 454.48 414.35C456.65 414.28 456.92 413.78 455.84 411.93C453.53 407.97 451.17 404.05 448.9 400.07V400.08Z" fill="white"/>
<path d="M492.26 402.96C490.68 403.29 489.15 404.16 487.46 403.71C484.48 402.92 483.16 400.95 483.08 396.46C482.94 388.57 483.01 380.67 482.93 372.78C482.92 371.51 483.31 371.2 484.56 371.19C486.78 371.18 488.91 372.01 491.15 371.79C492.08 371.7 492.9 371.71 493.01 370.49C493.31 367.21 493.62 363.93 493.97 360.66C494.12 359.26 493.54 358.86 492.2 358.91C489.73 358.99 487.25 358.88 484.78 358.96C483.5 359 483.25 358.6 483.28 357.32C483.42 352.46 483.35 347.59 483.44 342.73C483.47 341.14 483.09 340.59 481.38 341.09C477.05 342.35 472.69 343.48 468.32 344.6C466.46 345.07 465.55 345.95 465.74 348.06C465.99 350.83 465.91 353.63 465.93 356.42C465.95 359.45 465.45 359.86 462.46 359.31C462.01 359.23 461.59 358.9 461.15 358.89C460.33 358.87 459.39 359.07 459.52 360.14C459.78 362.3 458.6 364.37 459.11 366.5C459.48 368.05 457.53 369.74 459.03 370.94C460.34 371.99 462.27 371.3 463.89 371.25C465.6 371.2 466.01 371.75 465.97 373.4C465.86 378.26 465.93 383.12 465.93 387.98C465.43 393.08 465.35 398.18 465.7 403.27C466.14 409.66 470.03 413.94 476.22 415.57C481.78 417.03 487.11 415.54 492.51 414.83C493.17 414.74 493.36 414.31 493.47 413.68C493.98 410.73 494.21 407.76 494.44 404.78C494.58 402.89 493.78 402.67 492.22 402.99L492.26 402.96Z" fill="white"/>
<path d="M320.96 512.35C318.82 507.38 314.92 504.2 309.24 503.28C304.47 502.51 300.14 503.2 295.74 505.86C295.74 504.87 295.74 504.31 295.74 503.75C295.84 497.3 295.94 490.85 296.05 484.4C296.07 483.21 296.12 482.08 294.34 482.41C290.93 483.04 287.53 483.95 284.1 484.09C281.14 484.21 281.25 485.95 281.54 487.73C282.46 493.38 281.92 499.08 282.43 504.75C282.88 509.69 282.43 514.69 282.5 519.66C282.54 522.61 282.5 525.56 282.44 528.51C282.37 531.23 282.32 533.95 282.44 536.67C282.57 539.44 282.38 542.2 281.97 544.94C281.81 546 282.18 546.66 283.35 546.61C290.18 546.3 297.04 547.02 303.84 545.91C311.04 544.74 316.92 541.46 320.33 534.76C324.06 527.44 324.18 519.8 320.97 512.36L320.96 512.35ZM308.26 530.62C306.58 535.44 301.68 538.24 296.75 537.41C295.63 537.22 295.82 536.58 295.82 535.9C295.82 532.4 295.82 528.91 295.82 525.41H295.8C295.8 522.7 295.8 520 295.8 517.29C295.8 513.67 296.97 512.51 300.68 512.45C304.32 512.39 307.31 514.69 308.3 518.12C309.52 522.31 309.7 526.47 308.25 530.61L308.26 530.62Z" fill="white"/>
<path d="M386.29 528.69C393.62 528.65 400.94 528.4 408.27 528.39C410.25 528.39 410.72 527.68 410.65 525.86C410.57 523.96 410.3 522.08 410.12 520.2C409.41 512.99 406.66 506.77 399.36 504.14C393.44 502.01 387.36 502.31 381.56 505.16C375.18 508.28 372.42 513.88 371.03 520.41C369.99 525.3 370.68 530.12 372.43 534.72C375.73 543.38 382.65 546.83 391.4 547.37C396.74 547.7 401.97 547.2 406.94 545C407.6 544.71 408.21 544.54 408.31 543.61C408.62 540.69 408.99 537.79 408.62 534.47C403.87 537.07 399.06 538.2 393.84 537.96C390.14 537.8 385.62 534.57 384.67 530.81C384.21 529 384.52 528.69 386.28 528.69H386.29ZM384.51 517.82C384.92 516.63 385.44 515.45 386.11 514.39C387.67 511.89 390.47 510.98 393.1 511.85C396.07 512.83 397.22 515.59 397.32 518.56C397.35 519.35 397.09 519.75 396.24 519.68C394.97 519.59 393.76 519.86 392.51 520.1C391.36 520.32 390.13 520.15 388.94 520.15C388.17 520.15 387.4 520.08 386.64 520.14C386.53 520.14 386.42 520.16 386.32 520.17C384.3 520.42 383.97 519.39 384.51 517.82Z" fill="white"/>
<path d="M342.59 528.69C349.99 528.66 357.4 528.42 364.8 528.38C366.61 528.38 367.22 527.76 367.07 526.02C366.73 522.1 366.66 518.12 365.35 514.36C363.08 507.82 358.52 504.06 351.61 503.13C343.87 502.09 335.18 504.52 330.89 511.52C327.29 517.39 326.22 523.84 327.62 530.56C328.97 537.06 332.09 542.48 338.55 545.16C346.87 548.61 355.22 548.4 363.51 544.96C364.09 544.72 364.8 544.54 364.71 543.7C364.38 540.7 365.79 537.77 364.98 534.52C360.42 537 355.63 538.13 350.42 537.98C346.85 537.87 341.97 534.62 341.1 530.71C340.74 529.11 340.83 528.68 342.59 528.68V528.69ZM340.78 519.38C340.21 516.61 342.51 513.48 345.3 512.17C345.34 512.15 345.38 512.14 345.42 512.12C345.54 512.06 345.67 512.01 345.8 511.96C346.38 511.74 346.98 511.6 347.58 511.56C347.74 511.55 347.89 511.54 348.05 511.55C348.44 511.56 348.83 511.62 349.2 511.73C349.97 511.96 350.64 512.28 351.19 512.69C351.33 512.79 351.46 512.9 351.59 513.01C351.92 513.3 352.2 513.63 352.45 513.99C352.59 514.19 352.71 514.39 352.83 514.6C352.91 514.75 352.98 514.91 353.05 515.07C353.17 515.35 353.28 515.66 353.37 515.97C353.39 516.05 353.42 516.14 353.44 516.23C353.61 516.91 353.72 517.65 353.77 518.44C353.79 518.78 353.75 519.05 353.66 519.27C353.65 519.31 353.63 519.34 353.61 519.37C353.56 519.46 353.51 519.54 353.45 519.61C353.37 519.69 353.29 519.76 353.19 519.82C353.12 519.86 353.05 519.9 352.97 519.93C352.62 520.08 352.19 520.12 351.76 520.14C351.2 520.16 350.64 520.17 350.09 520.17C348.97 520.17 347.86 520.16 346.74 520.16C345.41 520.16 344.08 520.16 342.75 520.16C342.48 520.16 342.22 520.16 341.95 520.16C341.82 520.16 341.69 520.16 341.57 520.16C341.57 520.16 341.57 520.16 341.56 520.16C341.51 520.16 341.45 520.16 341.4 520.14C341.4 520.14 341.38 520.14 341.37 520.14C341.1 520.08 340.88 519.91 340.78 519.4V519.38Z" fill="white"/>
</g>
<defs>
<clipPath id="clip0_1864_11638">
<rect width="552.88" height="582.58" fill="white" transform="translate(0 0.300049)"/>
</clipPath>
</defs>
</svg>
