<svg width="768" height="401" viewBox="0 0 768 401" fill="none" xmlns="http://www.w3.org/2000/svg">
<g clip-path="url(#clip0_1864_11860)">
<path d="M103.64 358.2C103.66 368.6 103.66 378.99 103.73 389.39C103.74 391.43 103.3 393.65 104.64 395.4C105.82 396.95 105.94 398.16 103.92 398.6C102.25 398.97 101.27 397.98 101.08 396.15C99.9501 385.06 96.5401 374.35 96.0701 363.12C95.1601 341.29 94.7901 319.47 95.5901 297.63C95.7201 294.17 96.6301 290.84 97.4001 286.91C79.3201 294.5 60.6101 295.63 42.2601 298.87C43.1801 302.26 45.3101 302.08 46.9901 302.12C54.9001 302.31 62.8401 303.87 70.7001 302.25C74.5601 301.45 76.1601 303.31 75.9201 306.33C75.0701 317 76.3801 327.84 73.8601 338.81C70.8701 334.39 69.6601 326.54 70.5701 319C71.8801 308.1 71.8801 308.03 61.0501 308.13C55.5901 308.18 50.3201 306.95 45.1501 305.57C40.0401 304.21 38.6801 306.06 39.0901 310.75C39.7301 318 40.2201 325.26 40.7801 332.51C40.9501 334.67 41.4301 336.88 40.2101 338.98C37.3901 338.04 37.7201 335.7 37.6801 334.15C37.4501 323.63 33.2501 313.23 36.6501 302.59C37.1301 301.1 36.9601 299.66 34.8901 299.4C32.0101 299.05 29.1501 298.57 26.2601 298.33C23.5901 298.11 22.8001 299.52 22.7201 302.16C22.3801 312.72 21.7901 323.27 21.2901 333.83C20.3701 353.29 16.0101 372.49 17.0401 392.12C17.2101 395.27 18.5401 400.86 13.9101 400.85C9.1101 400.85 11.4101 395.32 11.7501 392.71C13.6601 378.05 11.2801 362.95 14.9301 348.67C18.5401 334.57 16.5601 320.5 17.5701 306.45C18.0001 300.48 15.8301 296.51 9.9701 294.49C3.5401 292.27 0.0400965 287.31 0.190097 280.72C0.670097 259.81 -1.7799 238.7 4.1301 218.1C5.1401 214.57 4.6901 210.62 5.6101 207.05C9.7301 190.97 18.0101 177.57 31.8901 168.02C33.8301 166.69 35.2901 165.25 36.0101 162.82C37.2001 158.76 38.1501 154.94 42.1301 151.77C45.0301 149.46 43.7001 143.82 42.1701 139.95C40.6901 136.2 38.9701 133.03 44.5201 131.36C46.3301 130.81 46.3901 129.14 45.5901 127.74C44.4801 125.79 43.4801 126.82 42.2201 127.93C37.9501 131.71 36.1901 129.1 36.3101 124.94C36.5001 118.45 35.7601 112.22 34.0701 105.96C31.0801 94.9 36.6001 86.1 43.7001 78.99C48.8201 73.86 56.4401 71.95 63.8701 74.63C70.5101 77.02 78.2001 78.02 81.8101 85.52C90.4101 84.73 91.2801 92.27 91.3101 96.95C91.3501 102.93 92.0301 108.88 92.0101 114.85C91.9801 123.61 91.9701 132.38 91.9101 141.14C91.8801 145.15 91.3801 149.03 88.9001 152.41C87.5401 154.26 87.1001 156.28 88.9401 158.06C90.6001 159.66 91.9301 158.18 93.3401 157.34C94.4001 156.7 95.5601 155.99 96.7401 155.82C110.74 153.85 118.25 144.09 125.01 133.03C129.39 125.85 133.06 118.12 140.81 113.31C144.46 111.04 144.61 106.18 144.37 101.84C143.28 81.86 142.17 61.84 143.41 41.88C144.13 30.33 142.58 18.58 146.45 7.18001C148.65 22.79 146.09 38.46 146.64 54.09C147.18 69.74 146.76 85.42 146.76 102.02C151.4 100.07 151.58 96.96 152 94.63C153.17 88.1 155.95 82.4 159.61 77.01C161.28 74.55 162.09 71.75 162.82 68.91C165.01 60.37 165.42 60.12 173.84 62.05C174.27 55.41 174.01 48.75 175.52 42.25C176.72 37.07 182.72 33.37 187.86 34.62C190.83 35.34 190.31 37.64 190.38 39.6C190.66 47.1 190.81 54.6 191.03 62.11C191.51 78.55 192.1 94.99 192.39 111.44C192.44 114.57 193.79 118.85 188.1 119.49C178.73 120.55 175.65 119.24 174.34 113.16C174.01 111.65 174.87 109.34 172.92 108.77C170.85 108.16 169.73 110.37 168.44 111.58C164.69 115.1 165.1 119.99 164.9 124.45C164.47 134.22 161.8 143.07 157.45 151.9C153.81 159.28 151.21 167.14 146.47 174.03C145.48 175.47 144.92 177.62 145.05 179.37C145.96 191.46 145.08 203.56 145.38 215.65C145.54 221.89 148.08 224.49 154.13 224.02C155.9 223.88 157.55 223.74 158.84 224.89C164.01 229.51 171.14 230.36 176.62 234.69C182.88 239.63 187.2 238.36 187.74 228.6C188.06 222.79 188.3 217.21 190.07 211.59C191.91 205.76 191.26 199.74 190.5 193.64C189.67 186.98 189.04 180.14 195.23 174.73C196.92 173.26 197.07 169.38 196.99 166.64C196.44 149.58 197.14 132.5 195.45 115.43C193.55 96.33 194.21 76.99 196.19 58.07C198.03 40.51 191.92 26.91 182.56 13.58C181.88 12.6 180.46 12.05 180.91 10.48C184.123 11.34 189.187 18 196.1 30.46C198.01 19.7 195.8 10.12 198.02 0.880005C200.33 5.18001 200.24 9.87 200.31 14.35C200.72 40.62 200.81 66.9 201.16 93.17C202.11 165.55 199.72 237.92 200.35 310.3C200.36 311.55 200.35 312.8 200.26 314.05C200.19 315.15 199.77 316.18 198.57 316.37C196.92 316.62 196.39 315.32 196.2 314.09C195.95 312.45 195.93 310.77 195.94 309.11C195.95 292 196.01 274.89 195.97 257.78C195.97 256.06 196.92 253.7 194.68 252.8C192.92 252.09 191.77 253.99 190.45 254.9C186.19 257.82 184.2 261.69 182.54 266.86C177.57 282.36 180.26 298.28 178.74 313.92C177.89 322.59 172.92 326.84 166.88 329.88C162.13 332.27 157.32 334.83 152.35 336.93C144.94 340.05 140.09 337.34 140.16 329.48C140.28 315.71 140.35 301.94 140.77 288.19C140.9 283.99 139.99 281.95 135.38 282.17C128.5 282.5 121.59 282.19 114.78 281.05C109.46 280.16 107.46 282.97 107.08 287.5C106.67 292.27 106.66 297.07 106.47 301.86C103.85 303.1 105.05 305.12 105.42 306.97C102.98 316.81 104.89 326.91 103.67 336.83C102.92 336.83 102.16 336.85 101.41 336.86V305.06C100.52 305.06 99.6301 305.06 98.7401 305.06V336.88C98.7401 338.14 98.7401 339.39 98.7401 340.65C98.6601 341.05 98.7001 341.43 98.8701 341.81C99.0901 342.26 99.3101 342.72 99.5301 343.17V369.37C100.1 369.43 100.67 369.48 101.23 369.54C102.38 366.05 101.71 362.28 101.77 358.62C102.4 358.49 103.02 358.37 103.65 358.24L103.64 358.2ZM165.66 69.52C164.51 72.12 163.37 74.71 162.22 77.31C157.91 82.42 157.22 89.03 154.93 94.98C154.15 95.19 153.73 95.6 154.09 96.46C154.09 97.25 154.09 98.03 154.1 98.82C153.63 99.76 153.36 100.88 154.48 101.35C156.03 102 156.43 100.61 156.89 99.53C157.32 99.55 157.75 99.56 158.19 99.58C158.29 100.19 158.51 100.8 158.49 101.4C158.4 103.92 158.13 106.69 161.25 107.51C163.74 108.16 166.6 109.33 168.91 107.28C171.49 104.98 169.44 102.27 168.95 99.77C168.63 98.11 167.91 96.41 165.84 96.55C162.95 96.75 164.01 99.2 163.7 100.84C163.42 102.28 164.3 103.93 162.39 106.2C161.97 103.18 161.67 101.08 161.38 98.97C163.59 92.05 166.26 85.2 164.97 77.69C166.79 75.69 166.42 73.01 167.12 70.67C168.6 68.79 170.16 66.93 168.44 63.99C166.5 65.61 166.06 67.57 165.66 69.55V69.52ZM98.8101 295.56C98.9901 297.22 97.7901 299.25 100.01 300.41C101.92 299.29 102.38 297.63 102.09 295.65C102.72 292.48 102.88 289.32 102.01 284.59C99.8601 289.02 98.9101 292.16 98.8101 295.56ZM179.81 85C180.24 84.1 180.51 82.59 181.12 82.44C182.62 82.06 182.39 83.49 182.45 84.47C182.58 86.96 182.72 89.44 182.89 91.93C183.22 96.58 185.61 101.34 179.38 104.86C177.59 105.87 177.62 111.51 178.17 114.79C178.58 117.25 182.08 117.64 184.48 117.49C186.43 117.37 186.65 115.39 186.64 113.59C186.5 90.95 186.44 68.31 186.2 45.67C186.18 43.61 187.81 40.05 183.83 39.86C180.09 39.68 178.03 42.06 178.46 45.89C179.33 53.61 175.83 61.58 179.97 69.16C180.63 70.37 180.2 72.55 179.58 73.99C178.06 77.57 178.03 81.27 177.96 85.01C177.29 88.55 175.83 92.07 177.62 97.46C179.43 92.37 180.35 88.84 179.8 85.01L179.81 85ZM153 134.42C156.21 134.49 157.23 132.41 157.79 129.71C159.68 120.49 157.19 111.82 154.66 102.7C152.85 105.05 154.35 110.79 148.71 107.94C148.6 107.89 147.68 109.13 147.37 109.86C146.51 111.94 145.77 114.08 144.99 116.19C137.75 116.21 135.22 121.96 132.79 127.03C127.78 137.44 119.96 146.48 117.55 158.15C117.53 158.23 117.17 158.23 116.63 158.33C115.81 156.29 117.68 153.57 115.09 151.37C111.49 155.75 108.03 160.27 101.42 159.34C99.9401 159.13 97.7201 160.55 98.2001 162.43C99.4501 167.36 95.5001 172.3 100.26 177.66C104.95 182.94 103.93 183.96 108.09 177.77C108.67 176.91 109.23 176.02 109.68 175.08C110.63 173.11 110.74 171.28 113.77 173.96C118.01 177.71 122.25 176.4 125.92 171.78C127.06 170.35 127.44 167.23 129.21 167.61C134.15 168.67 135.28 164.86 136.91 162.16C142.45 153.02 147.67 143.67 153 134.4V134.42ZM86.2701 151.62C88.8201 145.94 88.4701 139.83 88.9501 133.84C89.2701 129.76 87.4001 127.39 83.4901 126.51C83.7001 125.66 83.2501 125.28 82.4901 125.12C82.3501 124.77 82.2101 124.42 82.0901 124.07C82.9501 121.34 88.3101 123.28 87.5101 119.28C86.8101 115.8 83.3101 120.02 81.8101 117.82C81.5901 117.49 81.5401 117.04 81.4201 116.65C83.9701 114.98 88.7001 115.94 88.5801 111.06C88.4401 104.97 88.4801 98.7 81.5401 95.32C81.1201 99.87 78.7501 101.71 74.4001 101.41C72.6001 101.29 70.3601 100.69 69.0101 102.15C65.8501 105.57 65.2401 103.05 65.1101 100.5C64.9601 97.58 63.1601 97.09 60.9601 96.96C59.3301 96.87 56.9501 96.6 56.7501 98.61C56.3501 102.81 53.2501 106.03 53.3401 110.47C53.4801 117.1 52.9001 117.24 47.1701 114.4C46.2101 113.92 45.3401 112.39 43.9101 113.77C43.5601 116.19 47.4501 116.8 46.3501 119.62C45.3401 122.21 48.2401 123.66 48.4901 125.87C48.7401 128.09 48.8301 130.24 47.2301 132.33C43.0401 137.8 44.5901 144.4 50.5601 147.76C54.1901 149.8 57.8101 151.85 61.4301 153.89C61.1401 154.96 60.8501 156.02 60.5601 157.09C61.9701 162.8 71.4801 169.47 77.3901 167.57C81.1101 166.37 79.6001 161.25 80.1701 157.81C80.3001 157.02 80.7201 156.27 81.0101 155.5C83.2301 154.84 85.1801 153.82 86.2701 151.63V151.62ZM50.0001 176.79C48.2601 173.52 44.6501 173.17 41.8001 171.66C40.3901 170.91 38.8201 171.22 38.2701 172.96C37.6101 175.03 39.4001 174.94 40.6501 175.61C43.0901 176.91 47.3501 175.91 47.3601 180.53C38.5201 177.83 30.3901 177.12 25.5701 187.46C24.7501 189.22 22.6301 190.36 21.1901 191.87C19.6201 193.52 18.0101 195.17 16.6601 197C15.4801 198.61 15.3401 200.74 16.3001 202.35C17.4501 204.28 19.3201 202.82 20.8001 202.41C24.6101 201.36 28.3201 201.09 32.1101 202.47C31.4501 204.9 29.6801 204.47 28.4001 204.83C21.3401 206.83 16.3101 210.37 13.3501 217.84C6.9201 234.06 6.9901 250.78 7.5501 267.67C7.6001 269.07 9.2201 270.45 8.3201 271.79C6.2901 274.78 6.1601 270.71 4.9001 270.73C3.9301 270.74 3.4301 271.4 3.3901 272.32C3.1701 277.92 2.6101 283.37 7.2201 288.08C11.1901 292.14 15.3501 290.18 17.1701 287.57C20.0201 283.48 21.6601 281.76 26.0101 285.5C27.6201 286.89 29.4501 284.71 30.6101 283.27C33.6501 279.49 40.2101 284.16 42.3101 278.31C42.6401 278.53 43.0901 278.67 43.2901 278.97C47.9401 286.4 51.3001 280.55 54.9201 277.82C56.8201 276.39 57.8101 273.73 60.6401 273.49C62.3501 279.85 63.9801 280.73 69.5901 277.16C73.3501 274.77 79.1201 278.57 81.5801 272.93C81.6301 272.82 82.6501 272.9 82.7001 273.05C84.5801 278.96 92.6901 276.83 95.1301 282.46C93.7901 275.49 91.3801 269.1 87.1901 263.48C86.7101 262.83 85.3001 262.56 84.3501 262.61C75.2601 263.09 66.8701 259.24 58.0301 258.37C48.2001 257.4 38.2501 256.7 31.0801 265.73C29.9401 267.17 28.3901 268.28 26.8301 267.19C25.0301 265.94 26.4901 264.15 27.0601 262.68C29.1901 257.13 32.6901 252.28 35.1201 246.79C42.6001 229.92 48.1901 213.06 47.8001 194.48C47.7701 193.15 47.4701 191.51 50.4501 190.55C51.9901 198.13 55.2701 205.15 57.8201 212.23C60.5301 219.76 60.1001 228.67 59.8201 236.94C59.6401 242.21 62.6001 246.39 62.7301 251.36C62.9701 260.24 71.1901 254.4 74.5801 257.6C75.1301 258.12 76.1601 258.11 76.9001 258.48C80.2101 260.13 83.5601 259.73 86.4901 257.95C90.0801 255.78 93.8501 255.31 97.8701 255.23C99.5301 255.2 102.07 256.19 102.36 253.36C102.58 251.22 100.35 250.96 98.8801 250.42C95.0901 249.04 90.5101 247.6 90.5501 243.14C90.6001 238.23 95.7301 237.3 99.5601 235.79C100.14 235.56 100.75 235.38 101.36 235.26C105 234.51 105.99 232.31 106.39 228.62C108.21 211.74 97.5201 200.92 87.9201 189.63C86.0501 187.43 82.3001 185.14 79.9801 189.04C77.3401 193.47 75.0101 192.05 71.9201 190.04C64.7601 185.38 57.7401 180.48 50.0001 176.77V176.79ZM142.71 323.99C142.71 325.03 142.67 326.08 142.71 327.12C143.06 334.33 143.82 334.77 150.43 332.07C154.05 330.59 157.67 328.85 161.46 328.05C168.35 326.6 174.47 318.89 175.54 311.89C177.71 297.71 173.61 283.13 178.68 269.19C179.51 266.91 178.66 264.22 175.79 266.04C171.4 268.83 167.74 267.26 163.46 266.16C158.83 264.97 154.44 263.11 149.83 262.01C147.56 261.47 145.02 260.62 144.6 264.9C142.67 284.57 145.49 304.38 142.7 324L142.71 323.99ZM116.36 238.39C115.46 242.84 118.28 243.41 121.88 243.2C127.18 242.89 132.02 243.1 135.66 248.23C139.39 253.48 145.54 254.29 151.5 251.15C153.67 250.01 154.99 251.18 156.39 252.54C159.22 255.3 162 255.58 165.08 252.69C168.56 249.41 172.85 248.05 177.66 248.16C181.95 248.26 181.91 246.08 180.3 242.98C178.29 239.13 173.92 238.54 171.03 236.04C160.73 227.13 147.36 226.77 135.31 222.77C133.52 222.18 132.04 223.51 131.33 225.1C129.78 228.58 126.72 229.53 123.44 230.37C119.41 231.4 116.04 233.15 116.36 238.4V238.39ZM141.7 179.74C141.18 179.46 140.67 179.17 140.15 178.89C132.2 190.11 120.63 196.17 108.85 201.98C106.78 203 104.76 204.73 105.71 207.42C108.14 214.34 108.59 221.48 108.68 228.71C108.73 232.5 110.55 233.33 113.95 231.71C117.82 229.87 121.85 228.35 125.77 226.59C127.99 225.59 129.28 223.67 129.87 221.39C131.07 216.77 133.04 214.07 138.15 217.29C140.5 218.77 141.67 217.64 141.68 215.16C141.72 203.35 141.7 191.54 141.7 179.74ZM140.28 275.85C138.36 272.62 134.6 275.59 132.89 272.4C133.93 272.1 134.68 271.76 135.46 271.68C137.32 271.51 139.93 271.73 140.14 269.59C140.41 266.72 137.56 267.8 135.92 267.51C133.1 267 133.67 265.75 135.1 264.2C136.23 262.98 139.24 262.34 137.53 260.07C135.96 257.99 133.73 259.78 131.87 260.53C130.03 261.28 127.57 262.64 126.42 260.71C123.56 255.94 123.69 255.56 119.46 258.29C117.31 259.67 115.15 259.41 112.96 259.8C107.59 260.74 106.79 263.66 109.09 268.59C111.06 272.79 115.26 273.25 118.4 275.27C117.12 277.85 114.39 275.89 112.6 278.22C122.4 279.96 131.38 280.59 140.28 275.85ZM54.8801 166.68C56.1001 177.18 64.7801 179.23 71.4401 183.5C76.0801 186.47 79.6101 183.37 81.5101 180.54C83.7001 177.27 81.6801 173.69 77.6801 172.17C67.2101 168.17 56.2301 165.59 46.0701 160.7C43.4501 159.44 41.4801 160.4 41.0201 163.98C40.4301 168.54 43.4801 169.28 46.4901 170.83C50.7301 173.01 52.7601 171.05 54.8701 166.7L54.8801 166.68ZM197.09 199.81H197.89C197.89 193.56 197.91 187.31 197.87 181.06C197.87 179.9 198.14 178.24 196.36 178.25C195.04 178.26 194.21 179.39 194.18 180.81C194.05 186.36 191.96 191.84 193.95 197.48C195.36 201.48 195.25 205.59 194.38 209.8C192.82 217.34 191.54 224.93 190.26 232.52C189.78 235.39 189.03 238.63 193.52 239.11C198.37 239.63 196.97 235.74 197.01 233.54C197.21 222.3 197.1 211.05 197.1 199.8L197.09 199.81ZM151.32 258.86C156.52 260.58 161.29 262.37 166.19 263.69C168.96 264.44 172.11 264.56 174.47 262.5C180.25 257.47 185.86 252.25 191.51 247.07C192.38 246.27 193.62 245.3 192.37 244C190.86 242.43 188.91 241.68 186.7 242.17C185.06 242.53 184.97 243.68 185.53 245.02C187.67 250.06 183.17 251.57 180.58 251.5C171.51 251.23 164.47 260.47 154.79 256.64C153.83 256.26 152.34 256.96 151.31 258.86H151.32ZM107.36 274.23C107.25 269.93 105.28 266.37 104.33 262.54C103.77 260.27 103.59 257.62 100.46 257.85C97.1901 258.09 93.4401 258.29 91.5101 261.3C89.9701 263.71 90.7101 266.68 92.9101 268.73C95.2801 270.94 96.4801 273.69 97.7901 276.57C98.6001 278.35 97.9101 282.84 101.83 281.25C104.6 280.12 108.25 278.46 107.36 274.24V274.23ZM55.0601 221.29C53.5401 231.29 52.0301 241.3 50.5101 251.3C50.0201 254.55 51.9901 255.26 54.6001 255.31C57.4201 255.37 57.1701 253.77 57.0501 251.6C56.8401 247.88 57.1701 244.12 57.3801 240.38C57.7401 233.95 57.6601 227.58 55.0701 221.28L55.0601 221.29ZM98.2001 246.21C109.95 248.13 121.39 251.67 134.1 255.05C132.1 250.26 130.95 246.09 126.9 246.34C117.36 246.91 107.91 246.34 98.2001 246.21ZM86.6201 177.83C91.2001 173.82 94.4501 170.36 93.8901 164.8C93.7701 163.6 93.7201 162.04 92.2101 161.92C91.3901 161.86 90.2301 162.63 89.6701 163.37C86.6701 167.29 85.4401 171.68 86.6201 177.83ZM112.27 234.48C108.1 234.76 105.59 236.8 105.35 240.53C105.19 242.95 107.73 243.4 109.51 242.86C114.2 241.42 111.88 237.61 112.27 234.49V234.48ZM115.68 255.47C112.76 254.75 111.26 249.79 107.46 252.5C106.08 253.48 105.61 255.89 106.67 257C109.86 260.33 112.51 256.09 115.67 255.46L115.68 255.47Z" fill="white"/>
<path d="M436.94 45.05C436.94 45.05 436.91 45.04 436.89 45.04C436.89 45.07 436.88 45.1 436.87 45.14L436.94 45.06V45.05Z" fill="white"/>
<path d="M61.2201 310.33C63.4301 319.3 63.5501 327.72 64.4401 336.02C64.5401 336.95 63.9901 337.77 63.1101 337.75C62.4001 337.74 61.5301 337.27 61.0101 336.74C58.6001 334.27 58.3101 314.73 61.2201 310.33Z" fill="white"/>
<path d="M53.1401 324.35C53.1401 327.46 53.1001 330.56 53.1601 333.67C53.1801 334.79 53.1301 335.86 51.8401 336C50.9801 336.09 50.3501 335.39 50.2601 334.44C49.6101 327.67 47.8201 320.98 48.7301 314.1C48.9101 312.72 49.1001 310.66 50.7301 310.64C52.8201 310.62 52.9801 312.75 53.0201 314.4C53.1001 317.71 53.0401 321.03 53.0401 324.34C53.0701 324.34 53.1101 324.34 53.1401 324.34V324.35Z" fill="white"/>
<path d="M56.6101 386.21C56.6101 389.83 56.6501 393.46 56.6001 397.08C56.5701 399.34 54.8001 399.75 53.1501 399.62C51.0301 399.45 51.3401 397.66 51.7001 396.31C52.6201 392.83 52.9001 389.09 56.6201 386.2L56.6101 386.21Z" fill="white"/>
<path d="M82.7101 221.53C91.0201 217.76 85.2901 209.87 88.3201 202.81C92.7101 212.99 92.6801 222.23 91.9001 231.3C91.5301 235.68 75.5101 240.94 71.5801 238.6C70.0101 237.67 69.4301 235.98 69.1601 234.39C67.9501 227.23 67.1801 220.01 67.4001 212.73C67.4701 210.51 67.4401 208.37 70.9401 210.64C74.3401 212.84 79.5801 210.21 79.8201 206.68C79.9601 204.55 79.8601 202.35 82.0101 201.28C83.1801 200.7 83.8301 202.03 84.0601 203.02C84.6501 205.49 86.4601 208.06 83.5101 210.35C81.1801 212.16 78.8501 213.86 75.7001 213.67C73.6601 213.55 71.9501 214.05 71.1801 216.15C70.4001 218.27 70.6001 220.24 72.2901 221.9C73.3101 222.91 74.3001 224.48 75.8001 224.13C77.6601 223.7 76.8301 221.74 77.1001 220.4C77.4301 218.76 76.1101 216.12 78.8601 215.85C80.9401 215.64 80.8601 218.12 81.5501 219.54C81.9001 220.25 82.3501 220.91 82.7201 221.53H82.7101ZM88.2301 222.64C85.2401 224.31 83.8601 226.26 83.3301 229.13C82.5501 233.33 80.8201 234.29 77.8401 230.5C76.8701 229.27 75.8901 227.44 73.9501 227.92C72.3701 228.31 72.6601 230.01 73.0301 231.09C73.6601 232.94 73.0701 236.34 75.4301 236.27C79.6501 236.13 83.8401 234.62 87.2001 231.83C90.0601 229.45 88.9901 226.32 88.2401 222.65L88.2301 222.64Z" fill="white"/>
<path d="M21.4601 235.26C24.9701 240.45 18.7501 244.05 16.1201 248.82C15.6101 249.75 14.9001 250.6 13.7101 250.38C12.7301 250.2 12.6801 249.28 12.5401 248.44C10.4901 236.03 13.3801 225.03 21.9601 215.7C23.8701 213.62 25.3001 214.71 26.2501 216.72C28.4801 221.41 30.6501 226.12 32.7401 230.87C33.0201 231.5 32.9701 232.58 32.6001 233.13C32.0501 233.93 31.1001 233.52 30.4101 233.03C29.4001 232.31 28.5501 231.29 27.4501 230.77C25.5801 229.89 25.0401 226.15 22.0401 227.88C19.7301 229.22 20.8401 231.55 21.4601 235.25V235.26Z" fill="white"/>
<path d="M66.1401 128.93C63.7901 128.91 61.5101 127.46 61.4401 125.64C61.3201 122.75 64.0401 121.61 66.7001 121.64C68.7001 121.66 71.9201 122.1 71.3401 124.3C70.9101 125.94 69.2501 128.94 66.1401 128.93Z" fill="white"/>
<path d="M77.3901 123.96C78.1601 123.97 78.9401 123.98 79.7101 123.99C79.1901 127.27 81.1601 129.9 82.1401 132.74C83.2901 136.06 82.9901 138.62 79.5601 140.74C80.6401 134.77 78.3901 129.46 77.3801 123.96H77.3901Z" fill="white"/>
<path d="M84.7001 150.01C80.7601 148.93 76.9601 149.49 73.2401 150.96C70.8301 151.44 68.6901 149.54 71.0201 148.57C74.8701 146.98 79.5801 146.43 84.0201 147.23C84.4001 147.3 84.4901 149.04 84.7101 150.01H84.7001Z" fill="white"/>
<path d="M62.1801 118.67C65.8501 115.5 68.7901 116.01 71.7301 117.28C72.0001 117.4 72.0801 118.83 71.9701 118.87C68.9601 119.94 66.0301 118.91 62.1901 118.67H62.1801Z" fill="white"/>
<path d="M143.09 138.3C140.22 132.73 143.26 127.94 144.67 122.99C144.88 122.26 145.93 121.67 146.69 122.32C147.22 122.78 147.61 123.73 147.59 124.45C147.44 129.44 146.08 134.09 143.09 138.29V138.3Z" fill="white"/>
<path d="M150.26 118.98C156.03 121.05 156.8 125.33 152.51 131.64C152.13 127.35 152.79 122.88 150.26 118.98Z" fill="white"/>
<path d="M139.76 129.21C139.54 130.84 140.33 133.32 138.31 133.55C135.88 133.82 136.54 131.26 136.53 129.79C136.52 128.25 135.82 125.76 137.88 125.52C140.39 125.23 139.35 127.85 139.76 129.21Z" fill="white"/>
<path d="M436.87 45.13C437.45 44.91 438.3 44.86 438.58 44.44C442.08 39.05 446.83 36.69 453.01 39.12C459.85 41.81 463.06 47.34 464.3 54.45C466.68 68.12 465.29 81.86 465.52 95.57C465.6 100.04 466.19 104.15 468.22 108.22C471.84 115.46 469.29 120.3 461.27 121.84C458.62 122.35 455.89 122.63 453.2 122.64C442.74 122.69 440.36 118.38 443.16 108.34C446.89 94.93 446.16 81.1 444 67.45C443.49 64.23 441.51 60.97 437.19 61.46C432.84 61.96 431.92 65.57 431.93 68.86C431.97 82.53 429.99 96.28 434.03 109.82C436.12 116.83 433.37 120.48 426.16 121.89C422.03 122.7 417.91 122.99 413.77 121.77C407.89 120.05 404.95 114.4 408.05 109.12C410.56 104.86 411.11 100.51 410.8 95.93C410.14 85.97 412.01 76.05 411.01 66.08C410.75 63.45 409.78 61.38 408.43 59.21C404.9 53.53 405.84 49.11 411.33 45.17C413.52 43.6 415.95 42.34 418.33 41.04C428.96 35.22 429.35 35.39 431.71 47C432.06 48.72 432.34 50.74 434.45 50.44C437.63 49.99 437.16 47.32 436.94 45.01L436.87 45.09V45.13Z" fill="white"/>
<path d="M762.52 79.76C762.52 84.97 762.58 90.18 762.49 95.39C762.44 98.43 763.13 100.95 765.31 103.33C769.29 107.69 767.09 116.04 760.93 121.16C755.9 125.34 751.53 125.02 747.28 119.12C744.18 114.83 742.25 115.09 738.78 118.64C731.97 125.61 723.67 124.35 718.57 116.03C712.22 105.68 714.27 87.76 722.77 79.31C727 75.11 732.29 73.88 737.79 75.24C743.02 76.53 744.09 74.5 743.74 69.96C743.38 65.2 744.3 60.4 743.02 55.66C742.3 53 742.01 50.02 738.78 49.38C735.2 48.68 733.69 51.63 732.15 54.07C730.82 56.18 729.87 58.53 728.53 60.64C727.11 62.89 725.64 65.92 722.45 65.03C719.12 64.09 719.01 60.75 718.94 57.76C718.71 48.34 726.61 40.06 737.04 38.81C752.88 36.9 761.77 45.46 762.5 63.51C762.72 68.92 762.53 74.35 762.53 79.77L762.52 79.76ZM743.66 95.13C743.66 93.28 743.63 92.03 743.66 90.78C743.76 87.87 743.28 84.98 739.92 84.54C736.63 84.11 734.5 86.14 733.61 89.36C732.25 94.27 732.07 99.21 733.62 104.09C734.3 106.22 735.82 107.67 738.25 107.59C740.67 107.51 741.99 106.07 742.54 103.78C743.28 100.74 743.95 97.69 743.65 95.13H743.66Z" fill="white"/>
<path d="M654.98 80.9C653.74 68.24 657.45 56.56 666 46.46C671.85 39.56 681.29 36.9 689.17 39.78C696.95 42.62 701.52 49.92 701.76 59.52C701.88 64.39 701.66 69.16 698.86 73.35C695.82 77.9 691.76 77.76 689.23 72.89C687.51 69.58 686.62 65.83 684.87 62.54C682.32 57.75 678.02 57.87 675.26 62.54C670.45 70.67 674.44 89.48 682.18 94.67C685.89 97.16 689.61 96.55 693.35 94.37C700.32 90.29 701.47 91.12 701.68 99.42C701.94 109.52 696.7 116.46 688.74 121.5C682.78 125.27 676.12 125.1 670.38 121.13C662.05 115.37 658.21 106.57 656.09 96.97C654.96 91.87 654.47 86.68 654.98 80.9Z" fill="white"/>
<path d="M482.35 101.94C482.35 100.48 481.99 98.9 482.45 97.6C482.9 96.34 483.98 94.88 485.15 94.41C486.74 93.76 487.63 95.44 488.44 96.65C490.29 99.42 491.96 102.34 494.07 104.9C495.91 107.13 498.31 109.69 501.48 107.62C504.65 105.55 503.83 102.06 502.9 99.07C502.13 96.58 499.78 95.28 497.84 93.69C488.24 85.83 483.45 75.38 483.63 63.26C483.74 55.54 487.12 48.33 492.72 42.71C496.11 39.32 500.43 37.88 505.39 39.13C507.39 39.63 509.89 40.65 511.45 39.92C517.56 37.06 519.25 41.1 520.84 45.35C522.68 50.25 523.95 55.37 522.57 60.57C521.41 64.94 518.97 65.33 516.08 61.8C514.5 59.87 513.34 57.61 511.8 55.64C510 53.32 507.63 51.65 504.87 53.86C502.4 55.84 501.5 58.8 503.28 61.66C505.49 65.21 508.48 68.08 511.82 70.69C528.32 83.59 526.42 106.23 518.35 116.81C514.15 122.31 508.78 124.51 501.89 122.93C498.35 122.12 495.07 119.64 491.04 121.59C489.52 122.33 488.46 120.63 487.75 119.33C484.76 113.9 481.96 108.4 482.35 101.93V101.94Z" fill="white"/>
<path d="M625.56 82.51C623.47 82.51 621.39 82.49 619.3 82.52C611.03 82.62 609.29 85.05 611.86 92.92C615.64 104.53 623.01 107.18 633.27 100.63C634.6 99.78 635.78 97.97 637.62 99.24C639.18 100.32 638.85 102.22 638.85 103.85C638.85 111.46 632.07 120.31 624.13 123.15C616.44 125.9 608.45 123.37 602.97 116.45C589.2 99.06 589.58 63.88 603.73 46.59C612.95 35.33 626.46 36.01 634.52 48.21C640.62 57.45 640.91 67.81 640.02 78.35C639.76 81.42 637.94 82.63 634.94 82.53C631.82 82.43 628.68 82.51 625.56 82.51ZM624.65 62.44C626.03 56.62 624.9 51.95 618.88 50.59C614.99 49.71 610.55 56.19 610.39 62.58C610.28 66.85 611.46 70.38 617 70.1C622.18 69.83 627.09 69.58 624.66 62.44H624.65Z" fill="white"/>
<path d="M276.6 51.48C277.26 63.7 279.12 74.66 285.26 84.57C292.99 97.04 303.4 98.26 313.33 87.74C314.69 86.3 315.66 83.42 317.91 84.11C320.35 84.86 320.18 87.86 320.24 90.06C320.43 96.39 320.41 103.51 316.28 108.02C309.43 115.5 301.96 123.33 290.48 123.45C280.94 123.55 273.7 118.83 268.42 111.27C257.42 95.51 254.21 77.62 255.48 58.88C256.53 43.49 260.35 28.8 270.12 16.36C278.71 5.41999 289.16 3.15999 301.76 9.15999C304.73 10.57 307.43 12.48 311.15 11.19C313.81 10.27 315.46 12.39 316.43 14.56C320.03 22.62 322.11 30.9 319.96 39.83C319.38 42.22 319.7 44.81 319.42 47.29C319.12 49.97 317.82 52.16 315.04 52.76C312.02 53.41 310.46 51.32 309.32 48.95C307.53 45.2 305.91 41.36 304.06 37.64C303.23 35.98 302.12 34.43 300.95 32.98C297.47 28.68 293.05 25.72 287.4 27.08C281.65 28.47 279.45 33.65 278.18 38.74C277.08 43.14 277.01 47.79 276.58 51.5L276.6 51.48Z" fill="white"/>
<path d="M337.64 85.24C335.96 69.99 340.18 57.3 349.16 46.32C359.5 33.68 377.27 35.49 385.26 49.67C395.77 68.32 393.63 97.2 380.49 114.19C370.99 126.48 355.36 125.99 346.3 113.38C340.01 104.62 336.12 95.32 337.64 85.24ZM373.02 92.76C371.75 81.66 372.24 70.28 367.78 59.68C366.81 57.37 365.54 54.93 362.5 55.06C359.2 55.21 357.9 57.7 357.48 60.52C355.26 75.18 356.56 89.51 362.52 103.16C364.49 107.67 368.42 107.39 370.94 103.05C372.79 99.85 373.17 96.38 373.03 92.76H373.02Z" fill="white"/>
<path d="M577.48 96.57C575.03 96.64 571.05 96.97 569.12 98.09C569.12 97.88 569.08 97.66 569.05 97.43C567.22 86.24 568.83 74.97 568.26 63.75C568.05 59.71 569.77 58.28 573.68 57.97C582.32 57.29 584.14 54.33 583.21 44.17C582.78 39.47 580.91 36.6 575.8 37.29C569.52 38.15 567.55 35.25 568.4 29.44C568.64 27.8 568.52 26.11 568.57 24.45C568.65 21.83 568.33 19.35 565.63 18.09C563.05 16.89 560.58 17.72 558.63 19.41C550.58 26.38 542.69 33.6 537.11 42.75C534.52 46.99 533.52 53.1 538.08 55.79C544.04 59.29 543.2 63.96 543.24 68.94C543.29 74.78 543.25 80.62 543.25 86.46H543.17C543.17 91.67 543.14 96.89 543.17 102.1C543.22 108.57 544 114.69 548.25 120.15C554.05 127.58 562.95 129.36 571.6 124.18C572.78 123.47 573.88 122.65 574.91 121.75H574.93V121.73C581.66 115.79 584.86 106.15 581.7 99.65C580.84 97.87 579.72 96.51 577.46 96.57H577.48Z" fill="white"/>
</g>
<defs>
<clipPath id="clip0_1864_11860">
<rect width="767.21" height="400" fill="white" transform="translate(0.100098 0.880005)"/>
</clipPath>
</defs>
</svg>
