<svg width="836" height="401" viewBox="0 0 836 401" fill="none" xmlns="http://www.w3.org/2000/svg">
<g clip-path="url(#clip0_1864_11702)">
<path d="M233.08 157.44C237.42 155.34 241.77 153.23 246.11 151.13C249.26 149.82 250.46 151.5 250.94 154.28C251.02 156.74 249.61 158.54 248.07 160.17C240.36 168.34 233.88 177.55 226.37 185.91C231.1 181.25 234.99 175.62 241.19 172.61C244.75 172.31 247.02 173.84 247.92 177.33C248.07 183.49 242.07 186.37 240.18 192.68C244.84 185.2 250.89 180.28 255.92 174.42C262.96 163.98 273.15 156.85 282.59 148.92C287.22 149.07 286.41 151.89 285.01 154.45C283.14 157.88 280.45 160.82 278.4 164.16C275.16 169.53 271.33 174.46 267.3 179.25C264.82 182.66 262.44 186.13 258.76 190.6C262.82 186.07 265.49 182.45 267.91 178.64C273.93 171.61 280.78 165.4 287.28 158.84C288.72 157.39 290.34 156.24 292.53 156.31C296.01 156.96 296.36 159.62 296.48 162.43C296.4 165.62 294.61 167.97 292.7 170.34C286.25 178.36 281.44 187.36 277.47 196.8C276.57 198.93 274.56 201.85 277.17 203.54C279.36 204.96 281.01 202.03 282.62 200.62C292.55 191.96 300.85 181.48 312.07 174.26C319.2 172.34 321.42 165.21 326.26 160.85C327.74 158.78 329.49 157.02 331.86 155.98C335.51 154.84 338.24 152.33 341.14 149.99C345.36 146.59 347.42 147.86 347.02 153.23C346.8 153.91 346.47 154.54 346.02 155.1C342.89 157.66 339.15 159.7 338.12 164.12C334.89 169.95 331.35 175.55 326.14 179.88C321.92 184.11 318.35 188.82 315.17 194.94C319.38 189.75 323.22 185.42 326.27 180.45C335.72 169.64 345.98 159.67 356.94 150.41C362.13 147.91 366.61 144.52 370.14 139.92C370.9 139.14 371.78 138.58 372.85 138.34C374.93 138.19 376.39 138.9 376.75 141.14C376.73 141.85 376.56 142.54 376.25 143.18C374.36 146.79 369.46 147.85 368.53 152.29C365.74 158.52 359.89 162.18 355.88 167.39C347.57 175.09 342.93 185.53 337.42 192.85C342.33 184.07 351.93 176.72 359.3 167.43C360.81 164.56 363.04 162.37 365.68 160.55C370.92 156.88 376.18 153.23 379.54 147.55C381.99 145.01 384.33 142.33 387.66 140.87C389 140.31 390.34 139.77 391.7 139.3C393.27 138.75 395.11 137.79 396.45 139.25C398.26 141.23 396.23 142.69 395.23 144.22C394.53 144.99 393.74 145.65 392.89 146.25C389.34 148.22 386.75 150.94 386.05 155.13C381.09 161.39 376.73 168.14 371.1 173.88C366.39 177.76 364.21 183.53 362.15 186.05C365.3 180.96 373.45 176.7 377.46 168.8C380.77 163.61 384.99 159.33 390.21 156.04C398.17 151.35 405.46 145.89 410.69 138.08C411.89 136.57 413.31 135.4 415.26 135.02C421.82 136.89 421.85 137.23 416.3 145.48C404.82 161.11 390.56 174.7 381.86 192.38C380.14 195.87 376.19 200.51 379.15 203.05C382.3 205.76 385.27 200.32 387.76 198.04C400.64 186.28 414.76 175.99 427.57 164.16C429.78 162.12 432.3 160.5 435.03 159.22C440.06 157.75 443.76 154.54 446.68 150.29C447.82 148.86 449.1 147.65 451.07 147.52C452.69 147.65 453.75 148.56 454.43 149.97C454.62 150.68 454.56 151.38 454.31 152.07C451.05 156.5 445.45 158.68 442.98 163.87C440.63 167.74 436.94 170.35 433.82 173.49C427.97 179.24 421.86 184.76 417.62 191.92C422.61 185.12 429.87 180.6 435.28 174.22C444.43 164.22 456.48 157.81 466.59 149C468.29 147.51 470.45 146.75 472.77 146.61C475.59 146.71 478.45 146.76 479.02 150.49C478.75 153.43 477.09 155.46 474.7 156.98C461.05 166.73 450.52 179.59 439.48 191.95C444.41 186 451.35 182.05 455.91 175.73C466.25 167.45 476 158.41 487.23 151.27C488.94 150.18 490.63 149.15 492.62 148.71C496.08 148.63 499.9 144.42 502.91 149.58C502.57 156.1 496.77 157.84 492.79 161.17C487.8 164.26 483.72 168.38 479.76 172.64C479.31 173.17 478.81 173.65 478.31 174.13C472.74 179.52 468.18 185.83 463.94 190.06C472.44 180.16 485.16 172.45 495.9 162.47C499.8 160.81 502.48 157.09 506.76 156.06C512.83 156.06 513.1 158.85 510.18 163.17C509.74 163.75 509.25 164.29 508.73 164.8C497.69 174.86 486.79 185.05 479.92 198.65C479.62 200.54 478.07 202.8 480.03 204.21C482.21 205.78 484.29 203.89 486.11 202.69C500.24 193.39 513.75 183.15 528.45 174.71C537.72 169.39 546.14 162.61 556.21 158.67C559.18 158.56 564.04 154.49 563.37 162.06C555.25 170.17 545.32 175.94 536.25 182.83C529.99 185.79 526.02 191.54 522.21 194.44C526.11 191.05 531.62 186.58 537.7 182.88C552.87 172.4 568.78 163.2 585.64 155.69C587.97 154.65 590.14 153.63 591.68 151.54C593.37 150.05 595.14 150.13 596.97 151.26V151.24C598.44 153.71 605.38 152.66 601.65 158.5C590.39 164.84 579.2 171.29 568.6 178.71C566.35 180.28 564.16 181.9 561.58 182.9C555.1 185.45 551.97 192.37 546.93 194.29C552.06 191.08 558.42 186.99 564.78 182.86C575.56 175 587.85 170.03 599.9 164.59C603.07 164.15 606.95 161.44 608.25 167.13C607.8 169.56 606.11 171.14 604.09 172.08C596.36 175.65 589.97 181.29 582.79 185.7C577.72 187.39 575.29 192.76 570.34 194.62C575.19 192.8 579.33 189.93 582.89 186.2C592.41 180.9 601.55 174.87 611.78 170.9C614.45 170.42 617.04 169.91 619 167.69C620.54 165.95 622.41 164.69 624.71 166.64C626.68 168.3 628.49 170.04 626.26 172.78C618.1 179.35 608.09 183.38 600.47 191.91C609.49 184.74 619.05 179.85 628.75 175.19C631.01 173.52 633.33 171.8 636.19 173.8C638.01 175.08 640.19 176.45 640.47 178.76C640.78 181.34 638.03 181.58 636.37 182.4C629.71 185.7 625.08 191.63 618.19 196.01C626.42 191.57 633.85 187.46 640.13 181.65C641.77 180.14 643.26 178.77 645.06 180.96C648.09 184.65 653.02 186.21 655.48 190.49C670.58 203.65 680.46 219.05 680.02 240.23C679.63 258.98 668.35 269.75 651.42 274.93C645.52 276.74 639.36 277.66 633.31 280.25C636.54 280.44 639.76 280.78 642.99 280.79C667.79 280.86 692.59 280.83 717.38 280.91C720.7 280.91 723.92 281.04 726.02 277.82C729.49 278.61 733.27 277.5 736.57 279.48C739.54 280.36 742.57 279.92 745.55 279.92C845.54 279.95 719.22 279.95 819.21 279.92C823.23 279.92 827.24 279.85 831.13 281.04C833.03 281.62 835.36 282.3 834.98 284.8C834.65 287 832.57 287.84 830.44 288.04C827.69 288.29 824.93 288.18 822.17 288.18C694.11 288.18 792.36 288 664.31 288.42C648.36 288.47 632.29 288.5 616.32 290.05C608.1 290.85 599.86 289.11 591.58 289.12C474.3 289.23 357.01 290.07 239.73 288.98C85.1299 287.55 164.13 287.01 9.53994 286.38C7.78994 286.38 6.01994 286.51 4.27994 286.27C-0.870056 285.55 -1.29006 284.01 2.18994 279.02C109.05 279.02 -17.6901 280.81 89.1699 280.75C91.6499 280.75 94.9699 282.15 95.8799 278.02C98.4899 276.06 101.26 280.25 103.87 277.82C106.46 279.14 108.65 280.95 111.99 280.93C147.28 280.77 182.57 280.82 217.86 280.77C219.06 280.77 220.26 280.38 221.71 278.84C217.43 277.93 213.18 276.65 208.85 276.17C197.9 274.96 188.06 270.86 178.97 264.94C166.7 256.95 160.67 237.56 165.34 223.57C169.63 210.72 177.11 200.05 186.38 190.44C195.52 181.68 206.15 174.85 216.32 167.42C218.17 166.07 220.37 163.24 222.59 165.7C224.41 167.71 221.99 169.8 220.38 171.31C214.36 176.94 209.3 183.36 204.66 190.16C212.91 183.01 219.99 174.62 228.22 167.43C229.86 166 233.09 164.58 229.95 161.1C229 160.04 231.64 158.45 233.01 157.42L233.08 157.44Z" fill="white"/>
<path d="M736.62 275.94C734.32 275.84 733.9 277.52 733.51 279.23C730.75 280.27 727.73 282.66 726.09 277.82C751.29 253.64 753.56 223.5 746.89 191.96C743.56 176.23 734.19 162.97 722.46 151.65C720.41 149.67 715.65 147.14 718.64 144.02C721.93 140.58 724.06 145.83 726.14 147.63C738.71 158.55 746.66 172.45 751.4 188.28C752.04 190.41 752.24 192.74 754.82 194.66C759.32 187.74 763.92 181.18 771.1 176.28C785.77 166.27 789.64 165.43 798.37 180.05C810.27 199.98 815.79 222.19 814.93 245.71C808.35 235.67 806.47 223.77 801.63 213.03C798.96 207.11 795.79 201.48 792.92 195.71C789.94 189.71 785.66 189.59 781.31 194.77C771.05 207 762.53 220.16 756.47 235.2C750.85 249.17 746.74 264.08 736.62 275.94Z" fill="white"/>
<path d="M708.1 94.35C709.6 98.26 714.75 98.93 715.9 103.15C709.23 105.38 708.86 109.83 710.3 116.03C711.68 121.98 716.04 126.59 716.95 132.65C717.52 125.28 717.36 117.92 715.54 110.7C714.87 108.04 713.33 105.55 715.85 103.1C728.01 113.54 729.9 133.19 716.2 141C714.92 141.73 714.65 142.77 714.15 143.85C713.18 144.21 712.09 144.29 711.33 143.65C701.73 135.58 690.33 136.6 679.02 137.16C678.03 137.02 677.03 136.81 676.16 136.34C674.31 135.35 671.44 136.7 670.44 133.88C670.16 133.09 671.14 132.04 675.4 128.2C668.83 131.7 661.49 128.12 656.73 134.13C656.17 134.83 653.87 134.33 652.64 133.25C647.77 128.14 641.88 125.8 634.31 127.25C638.22 122.89 647.78 126.49 646.51 117.01C648.01 110.93 653.12 110.6 657.94 109.8C664.97 110.36 671.99 111.77 679.07 110.19C682.58 109.44 684.42 112.44 687 113.74C692.24 116.36 694.05 115.5 695.37 109.79C696.31 105.74 694.46 101.18 697.63 97.56C700.64 98.15 697.73 103.02 701.27 102.84C703.21 102.74 703.54 100.51 703.89 98.8C705.32 97.34 702.95 92.31 708.09 94.34L708.1 94.35Z" fill="white"/>
<path d="M629.74 52.31C633.86 50.39 632.95 47.64 630.54 45.23C626.87 41.56 622.9 38.18 619.01 34.73C617.64 33.52 614.52 33 616 30.57C617.31 28.43 620.01 30.13 621.37 31.07C630.37 37.3 639.09 43.89 641.93 55.37C642.62 64.4 639.64 73.74 644.14 82.45C646.33 86.63 648.97 90.47 652.55 93.62C652.93 94.29 652.97 94.97 652.68 95.68C651.61 96.97 650.15 97.24 648.59 97.26C638.09 94.86 628.92 97.53 620.47 104.05C615.16 108.15 608.72 109.34 602.09 109.29C595.54 109.83 589.63 106.88 583.37 105.82C582.25 105.63 581.08 104.57 580.29 106.3C578.88 105.99 576.33 105.88 576.22 105.32C574.86 98.09 570.3 100.44 565.79 101.29C558.46 102.66 551.52 101.21 545.01 98.11C545.07 97.34 545.12 96.56 545.18 95.79H574.42C573.9 99.73 571.38 97.19 569.55 98.13C575.91 97.93 582.12 95.85 588.37 96.95C590.87 97.36 593.07 98.58 595.37 99.54C604.56 103.37 618.6 99.36 624.42 91.32C625.16 90.3 626.45 89.02 626.04 88.06C623.01 80.95 629.46 80.92 632.84 78.59C634.98 72.5 634.31 66.56 632.17 60.63C631.19 57.91 629.22 55.46 629.74 52.3V52.31Z" fill="white"/>
<path d="M169.21 346.32C165.12 341.32 162.85 336.54 158.59 333.27C146.32 323.88 132.1 328.34 128.15 343.17C126.04 351.11 126.58 359.04 129.98 366.63C136.68 381.59 151.86 385.04 164.51 374.6C166.34 373.09 167.27 370.4 171.31 370.01C166.07 380.28 158.03 385.22 147.8 386.47C137.11 387.78 127.98 384.36 121.81 375.09C114.33 363.85 115.54 346.9 124.37 335.78C132.67 325.33 144.66 322.57 158.9 327.85C159.37 328.02 159.82 328.24 160.29 328.41C170.52 332.13 170.66 332.4 169.23 346.31L169.21 346.32Z" fill="white"/>
<path d="M677.95 136.07C691.2 133.19 703.76 133.47 714.15 143.86C713.45 150.72 707.35 153.31 702.71 155.13C693.48 158.76 683.54 159.36 675.6 151.27C672.33 147.94 668.68 146.74 664.19 146.99C657.15 147.38 650.38 146.02 643.79 142.97C652.8 142.82 662.03 145.11 670.65 140.9C673.47 139.86 674.26 135.78 677.95 136.05V136.07Z" fill="white"/>
<path d="M634.47 80.94C632.5 83.78 629.31 81.62 626.88 82.71C632.68 89.38 626.25 93.16 622.71 95.85C612.54 103.57 601.3 106.75 589.45 98.72C587.79 96.58 581.63 100.41 583.18 94.01C583.35 93.61 583.55 93.23 583.79 92.87C585.34 90.38 587.38 88.09 586.99 84.83C587.51 83.04 588.59 81.87 590.54 81.67C594.46 82.93 597.22 80.2 600.38 78.8C606.1 75.52 613.07 79.19 618.71 75.46C624.22 76.55 629.58 78.1 634.49 80.94H634.47Z" fill="white"/>
<path d="M601.5 107.84C609.38 106.81 616.61 105.06 623.32 99.76C630.75 93.89 640.09 92.67 649.49 95.8C654.02 96.28 658.54 96.76 661.23 101.23C663.67 105.36 663.67 108.8 658.51 110.77C654.08 112.04 649.91 113.83 646.5 117.04C639.73 119.35 633.07 120.11 626.76 115.71C622.45 111.01 616.85 110.74 610.98 110.68C607.71 110.65 603.54 112.43 601.5 107.84Z" fill="white"/>
<path d="M697.64 97.58C697.54 102.07 697.88 106.63 697.23 111.04C696.11 118.59 694.01 119.29 687.18 116.09C683.99 114.6 682.15 111.1 678.39 110.67C678.09 110.49 677.79 110.3 677.48 110.12C676.41 108.19 674.82 105.89 677.51 104.42C679.69 103.22 681.24 105.36 682.94 107.42C681.35 103.48 678.53 100.94 677.16 97.56C677.88 99.68 678.5 102.29 676.11 103.12C674.04 103.83 673.04 101.18 672.04 99.52C671.4 98.46 670.95 97.31 670.62 96.11C669.92 92.63 669.86 89.17 670.76 85.72C673.75 81.53 674.19 77.16 672.2 72.35C671.52 70.7 669.39 68.04 673.49 67.36C675.49 74.76 680.24 79.29 687.36 82.16C693.94 84.82 694.95 91.92 697.63 97.57L697.64 97.58Z" fill="white"/>
<path d="M198.69 117.16C198.67 117.54 198.55 117.9 198.35 118.22C187.15 120.41 176.92 119.44 169.45 109.4C169.06 108.68 168.8 107.92 168.63 107.12C168.15 98.61 174.52 96.53 180.7 94.24C185.33 92.66 190.01 91.59 194.91 92.88C200.46 95.05 206.11 97.02 210.84 100.84C216.67 103.87 222.86 105.39 229.42 105.65C232.44 105.77 235.89 105.24 238.11 109.37C231.54 110.21 225.48 110.99 219.35 110.75C215.5 110.6 211.94 111.2 208.7 113.32C201.7 110.71 194.48 113.64 187.42 112.52C185.79 112.5 184.38 111.33 182.51 111.55C184.14 111.77 185.39 112.58 186.79 112.92C190.71 114.49 196.56 110.62 198.68 117.18L198.69 117.16Z" fill="#FCFCFC"/>
<path d="M126.01 154.56C122.16 152.56 118.06 150.88 115.69 146.89C114.4 139.46 120.41 137.43 125.05 134.66C128.5 132.6 132.75 133.11 136.57 132.08C138.15 131.77 139.74 131.77 141.33 132.05C146.9 133.36 153.43 132.67 156.46 139.29C162.42 145.38 170.61 141.91 177.63 143.82C176.65 147.79 172.99 144.93 171.43 146.85C163.84 147.94 155.89 148.01 150.13 154.33C147.96 155.41 145.84 156.1 144.04 153.7C142.81 152.74 147.55 150.56 143.46 150.35C139.52 150.14 135.55 150.38 131.53 150.24C131.22 151.68 133.3 152.47 132.56 154C130.54 156.01 128.27 155.16 126.02 154.57L126.01 154.56Z" fill="#FCFCFC"/>
<path d="M477.77 65.31C481 60.8 486.27 58.76 490.15 55.04C498.88 51.67 507.63 52.28 516.41 54.84C525.26 60.97 525.34 62.27 517.28 69.48C507.96 77.82 496.36 79.65 485.78 74.45C484.19 73.08 482.59 71.72 481 70.35C479.75 68.78 476.75 68.33 477.78 65.31H477.77Z" fill="white"/>
<path d="M109.81 139.35C101.55 126.52 103.91 109.18 115.75 100.49C121.17 96.51 122.04 90.1 126.47 83.71V100.08C129.48 105.8 125.18 110.42 124.1 115.51C123.34 119.11 122.2 122.62 120.67 126.35C122.81 127.03 125.77 125.18 126.8 128.35C126.77 130.84 125.45 132.65 123.73 134.27C119.25 136.39 116.6 143.58 109.8 139.34L109.81 139.35Z" fill="#FCFCFC"/>
<path d="M634.47 80.94C628.24 82.09 623.38 78.31 618 76.37C613.65 76.67 612.06 73.72 610.87 70.31C613.42 62.43 616.13 68.66 619.18 70.47C615.24 65.51 613.38 59.78 609.05 55.41C605.69 52.02 607.33 46.73 611.87 43.23C618.1 45.73 625.07 46.76 629.74 52.31C635.5 61.16 638.74 70.43 634.47 80.94Z" fill="white"/>
<path d="M600 80.84C596.82 80.6 594.67 87.81 590.73 82.12C592.93 73 591.09 70.75 581.37 69.22C575.49 68.29 570.19 71.4 564.46 70.88C563.76 70.49 563.45 69.88 563.47 69.09C567.66 61.49 575.19 64.61 581.44 63.49C575.09 58.51 571.79 51.62 571.4 43.97C571.02 36.51 568.52 30.04 565.37 23.59C561.44 17.97 556.25 13.91 549.87 11.46C548.2 10.82 545.88 10.42 546.54 8.35998C547.29 6.04998 549.42 7.33998 550.9 8.08998C559.75 12.6 567.73 18.65 573.62 26.37C576.52 30.18 579.45 32.19 583.43 33.25C593.32 35.88 600.62 41.35 604.12 51.15C606.86 51.06 605.67 48.11 607.34 47.5C608.24 52.15 609.32 56.77 610.12 61.43C608.42 66.29 607.31 71.03 600.75 72.57C596.52 73.56 599.07 77.89 599.99 80.84H600Z" fill="white"/>
<path d="M564.14 70.66C571.81 66.51 579.98 66.2 588.02 68.7C596.47 71.33 597.1 75.51 590.73 82.13C589.78 83.08 588.84 84.03 587.89 84.99C587.05 87.23 585.86 89.09 583.2 89.38C581.55 89.38 580.25 88.83 579.74 87.1C579.68 85.92 580.2 85.01 581.08 84.27C582.19 83.37 583.64 82.96 585.21 81.2C582.59 81.83 580.92 82.85 579.24 83.81C575.14 88.05 568.29 85.1 564.28 89.58C563.19 90.74 561.85 91.17 560.29 90.92C556.15 88.86 552.09 87.9 547.48 89.95C545.13 91 542.24 91.21 539.77 89.58C539.81 86.26 543.32 88.53 544.13 86.61C545.17 86.13 546.21 85.64 547.25 85.16C549.94 83.57 552.4 82.23 553.67 78.68C555.25 74.23 558.81 70.95 564.13 70.67L564.14 70.66Z" fill="white"/>
<path d="M132.43 97.35C134.44 88.29 139.66 82.05 148.57 79.06C151.06 78.98 152.87 73.91 155.29 77.09C157.75 80.31 158.71 84.73 156.95 88.97C156.31 90.53 154.19 91.09 153.86 92.98C152.33 99.34 149.35 104.85 144.75 109.03C148.18 107.34 148.63 101.65 153.55 101.04C155.33 101.51 155.82 102.8 155.77 104.46C155.52 106.05 154.83 107.46 153.95 108.79C150.7 112.84 147.03 116.41 142.16 118.46C138.91 119.83 135.62 120.88 132.78 117.55C129.16 110.88 131.43 104.11 132.42 97.35H132.43Z" fill="#FCFCFC"/>
<path d="M643.45 83.87C638.78 79.36 638.63 72.93 639.81 67.93C640.79 63.75 637.08 58.7 641.92 55.39C644.3 61.63 651.92 59.9 655.5 64.31C665.68 72.61 672.21 82.41 668.78 96.36C668.43 97.13 667.89 97.73 667.17 98.18C661.36 100.37 656.88 97.47 652.46 94.34H652.5C651.43 91.16 654.26 87.4 650.26 84.44C646.82 81.88 646.48 77.16 645.41 73.59C644.39 76.76 649.3 81.17 643.45 83.89V83.87Z" fill="white"/>
<path d="M194.16 61.39C195.54 59.27 196.93 57.16 198.31 55.04C202.72 47.36 211.23 45.76 218.09 41.73L218.11 41.7C219.61 40.4 221.42 40.79 221.42 42.47C221.42 47.1 223.92 51.95 219.1 56.21C215.08 59.77 215.03 66.27 210.13 70.03C212.41 70.93 216.53 68.43 215.65 73.32C212.66 77.8 208.49 80.68 203.46 82.45C196.93 83.65 193.47 80.64 192.38 74.38C191.28 69.82 192.54 65.58 194.16 61.39Z" fill="white"/>
<path d="M222.69 48.91C224.04 50.7 225.18 52.98 226.92 49.04C228.54 45.37 229.78 41.18 234.51 40.06C235.75 42.87 233.5 44.71 232.53 46.87C231.3 49.59 229.51 52.05 228.47 54.85C225.72 62.23 227.47 64.65 235.99 65.47C236.54 66.31 236.39 63.84 236.08 64.79C235.88 65.41 235.82 65.18 235.33 64.7C232.03 61.47 235.25 59.74 237.06 58.15C241.97 53.84 245.55 48.38 250.1 43.78C251.51 42.35 252.76 40.41 251.29 38.45C249.96 36.68 248.11 38.15 246.47 38.4C242.49 39.02 238.93 42.68 234.5 40.07C234.93 39.47 235.26 38.45 235.79 38.33C251.86 34.74 260.63 20.98 272.67 11.82C275.93 9.34 279.09 7.63 283.45 8.04C273.7 14.31 263.62 20.12 258.66 31.29C257.4 32.97 257.04 34.96 257.33 36.92C258.72 46.38 255.52 54.57 250.38 62.37C252.27 65.57 258.47 61.83 258.7 67.5C256.91 69.1 254.67 69.13 252.49 69.22C245.69 69.5 239.62 71.57 234.55 76.23C230.25 75.62 232.82 72.54 232.5 70.5C230.04 72.24 227.36 72.19 224.79 71.04C222.2 69.87 220.67 67.62 219.79 64.93C219.02 59.28 221.25 54.17 222.68 48.92L222.69 48.91Z" fill="white"/>
<path d="M303.82 357.59C303.71 362.09 303.75 366.6 303.46 371.09C303.1 376.63 303.7 381.56 310.02 384.32C303.6 385.88 297.41 384.05 290.59 385.86C296.87 374.9 296.13 333.75 290.18 328.41C292.21 326.21 294.99 326.18 297.61 325.76C300.83 324.41 302.91 324.88 302.95 328.94C303.03 338.5 302.58 348.07 303.81 357.59H303.82Z" fill="white"/>
<path d="M675.34 353.13C675.21 351.51 675.43 350 677.46 349.97C682.33 349.89 687.19 349.94 693.82 349.94C685.38 355.77 691.04 360.22 693.03 364.6C694.38 367.57 694.87 372.72 698.49 372.53C701.4 372.37 701.32 367.24 702.61 364.34C704.73 359.58 707.27 354.71 699.16 350.37H712.26C704.64 365.05 699.94 380.5 693.6 395.26C692.19 398.53 691.41 402.26 686.43 400.36C686.47 399.82 686.32 399.15 686.58 398.88C696.17 388.76 692.1 378.92 685.77 369.36C682.18 363.94 681.99 356.32 675.22 352.97L675.34 353.13Z" fill="white"/>
<path d="M341.07 75.66C336.84 80.17 331.21 76.39 326.31 78.22C327.63 79.84 331.1 79.01 330.85 82.18C326.47 85 322.55 82.22 318.48 81.19C315.71 79.8 312.85 78.57 310.03 77.26C308.73 76.47 307.66 75.43 306.96 74.09C302.17 64.91 294.51 61.34 284.33 61.58C280.76 61.66 275.33 63.63 274.56 56.95C281.96 48.82 287.64 39.98 287.13 28.32C287.06 26.83 287.62 24.64 290.25 25.22V39.81C299.76 30.96 309.74 26.67 321.79 31.12C318.97 33.99 315.31 32.98 311.95 33.16C309.16 33.3 306.61 34.05 304.16 35.24C300.23 37.44 297.12 40.7 293.92 43.74C288.95 48.46 289.97 51.53 296.89 54C300.29 54.99 303.63 54.46 307.05 54C309.74 53.63 313.43 52.74 312.71 57.83C312.31 58.85 311.79 59.81 311.32 60.79C311.71 67.41 319.27 73.43 327.97 74.22C332.34 74.62 336.93 73.22 341.07 75.68V75.66Z" fill="white"/>
<path d="M207.86 112.52C211.55 108.99 216.16 109.82 220.6 109.81C225.75 109.81 230.91 109.83 236 108.24C226.61 107.6 217.05 107.78 209.03 101.76C207.73 96.87 211.23 97.4 213.5 98.5C224 103.56 233.75 100.98 243.43 96.3C248.31 95.2 252.66 98.9 257.54 97.86C254.44 98.6 251.68 97.37 248.91 96.31C247 95.58 245 94.39 245.15 92.22C245.32 89.73 247.75 89.71 249.72 89.48C251.78 89.76 253.99 89.83 254.3 92.63C252.84 96.19 255.9 95.58 257.42 95.61C263.3 95.76 269.03 97.5 275.12 95.96C278.38 95.13 282.51 94.55 286.91 97.78C281.42 101.4 275.7 100.37 270.47 100.84C266.79 101.17 263.03 100.41 259.3 100.32C256.55 100.25 255.02 100.14 253.31 104.1C251.15 109.1 243.67 109.78 238.25 110.48C226.29 112.03 214.1 112.02 202.66 116.57C202.54 112.84 205.75 113.37 207.87 112.52H207.86Z" fill="white"/>
<path d="M675.22 352.97C673.94 358.31 672.51 363.05 665.49 358.3C663.65 357.05 661.67 358.37 660.54 360.35C657.18 366.22 660.29 379.87 667.21 384.56H646.88C651.92 379.81 651.16 373.81 650.76 368.1C650.39 362.89 653.81 356.15 645.51 353.58C656.79 346.96 658.58 347 660.93 354.37C665.41 348.86 670.25 347.75 675.35 353.14L675.23 352.98L675.22 352.97Z" fill="white"/>
<path d="M286.16 349.42C286.62 351.32 285.83 351.92 285.04 352.54C282.56 354.5 277.21 351.74 276.84 356C276.18 363.65 275.31 371.59 277.45 379.08C278.77 383.69 283.63 379.72 287.19 381.2C283.29 386.16 278.38 386.92 273.15 385.77C268.12 384.66 267.97 380.3 267.87 376.23C267.76 371.49 267.79 366.74 267.76 361.99C267.76 360.49 267.4 358.89 267.81 357.51C268.78 354.26 260.1 352.58 266.65 348.3C269.85 346.21 272.07 342.63 275.96 338.38C275.49 347.03 277.47 352.42 286.16 349.42Z" fill="white"/>
<path d="M546.04 26.46C549.97 28.03 553.9 29.59 557.83 31.16C564.85 32.92 568.23 38.28 570.93 44.35C571.2 45.08 571.4 45.82 571.57 46.58C571.72 47.06 571.82 47.54 571.95 48.02C573.13 52.5 573.82 57.47 569.45 60.13C564.78 62.98 559.5 62.6 555.2 58.4C552.33 55.72 557.63 54.68 556.4 52.32C552.02 49.02 549.88 44.05 546.79 39.81C540.88 37.1 544.39 30.5 541.3 26.62C542.273 24.6867 543.853 24.6367 546.04 26.47V26.46Z" fill="white"/>
<path d="M223.78 349.73C224.66 349.29 226.27 348.41 226.31 348.47C230.47 355.48 234.94 349.2 239.2 348.78C245.82 348.12 250.41 350.62 252.35 357.12C253.72 361.7 253.85 366.46 253.65 371.21C253.44 376.24 253.48 381.11 260.38 384.31C252.92 386.2 247.08 383.85 241.04 385.34C247.09 377.51 244.68 369.12 243.96 361C243.55 356.35 240.58 353.99 235.78 354.16C230.74 354.34 228.78 357.34 228.69 361.96C228.59 367.44 228.59 372.93 228.55 378.41C223.98 377.51 225.21 373.7 224.96 370.84C224.34 363.82 226.28 356.65 223.76 349.73H223.78Z" fill="white"/>
<path d="M303.82 357.59C300.96 349.05 302.58 340.24 302.29 331.55C302.18 328.21 302 325.43 297.62 325.75C301.5 322.9 303.91 322.73 303.78 328.68C303.61 336.42 303.74 344.16 303.74 351.88C306.5 353.14 308.09 350.97 310 350.17C319.4 346.26 326.5 350.14 327.84 360.3C328.33 364 328.37 367.81 328.18 371.54C327.93 376.69 328.18 381.44 333.59 384.79H315.63C321.15 378.58 319.13 371.34 319.18 364.42C319.21 360.61 318.82 356.67 314.65 354.89C310.48 353.12 306.84 354.3 303.82 357.58V357.59Z" fill="white"/>
<path d="M194.16 61.39C194.14 65.77 194.12 70.15 194.1 74.53C194.9 75.82 194.67 77.24 194.61 78.63C191.12 79.17 189.38 81.78 188.26 84.63C186.53 89.02 183.6 92.49 180.56 95.92C175.53 98.56 169.24 100.05 169.87 107.79C157.63 100.76 154.87 81.72 164.79 72.85C168.17 74.99 167.01 78.03 166.2 80.85C165.51 83.24 164.36 85.51 164.48 88.09C164.61 91 165.27 93.81 168.61 94.38C172.72 95.08 170.65 91.33 171.55 89.72C174.98 83.65 179.51 78.27 182.23 71.72C183.48 68.7 184.49 69.04 187.94 72.82C187.88 69.41 186.84 66.23 186.7 62.88C182.05 63.88 178.2 67.51 173.15 66.13C171.49 62.85 174.46 62.49 176.17 61.33C183.58 60.99 187.08 55.34 191.26 50.45C193.2 48.18 193.52 44.32 198.41 43.41C195.31 50.79 189.35 56.63 190.99 65.61C192.47 63.64 193.32 62.52 194.16 61.4V61.39Z" fill="#FCFCFC"/>
<path d="M296.08 55.26C293.42 54.53 289.67 55.88 288.66 51.93C287.7 48.22 289.46 45.1 292.03 42.64C295.22 39.59 298.71 36.87 302.06 34C309.54 31.92 317.05 30.88 324.71 33.07C326.87 33.69 329.48 33.82 327.85 37.23C326.88 38.73 324.68 39.42 324.85 41.69C319.98 39.47 317.8 43.98 314.56 45.82C311.14 48.16 307.76 50.6 303.69 51.62C303.91 53.18 307.83 55.78 302.66 55.84C300.46 55.87 298.17 56.43 296.06 55.26H296.08Z" fill="white"/>
<path d="M309.63 59.53C310.15 59.04 310.67 58.54 311.19 58.05C320.06 50.75 329.76 51.97 339.66 55.28C340.24 55.72 340.82 56.16 341.4 56.6C345.23 59.23 347.85 63.24 351.85 65.68C350.72 69.44 346.94 70.65 344.57 73.23C344.1 73.74 342.93 74.17 342.53 73.68C337.39 67.46 329.59 71.83 323.68 68.86C323 68.76 322.33 68.59 321.67 68.39C318.91 67.59 316.42 66.02 313.37 65.98C308.77 65.93 308.4 63.12 309.63 59.53Z" fill="white"/>
<path d="M165.39 73.19C159.88 79.38 160.74 86.86 161.13 94.24C161.16 94.71 161.29 95.42 161.61 95.61C166.37 98.32 169.42 102.16 169.87 107.79L169.84 107.86C171.82 111.65 169.93 113.48 166.42 114.06C162.77 114.67 159.04 114.66 155.39 114.06C150.93 113.32 151.14 110.86 153.4 107.85C153.86 106.73 154.32 105.61 154.77 104.48C155.28 95.36 157.53 86.48 155.82 77.05C154.41 69.25 158.88 62.71 165.23 57.87C167.16 64.46 172.42 60.49 176.17 61.32C175.09 62.78 174.01 64.25 172.93 65.71C171.05 68.84 169 71.8 165.39 73.19Z" fill="#FCFCFC"/>
<path d="M503.36 40.34C503 40.31 502.66 40.21 502.35 40.02C501.11 38.7 501.28 37.05 501.3 35.44C510.65 29.64 523.3 30.87 534.03 38.63C534.77 38.91 535.41 39.35 535.95 39.92C537.31 43.96 541.49 46.29 542.47 50.58C539.76 57.16 532.65 59.41 523.19 56.68C521.47 52.47 525.32 52.8 527.63 51.48C518.97 48.62 511.99 42.72 503.36 40.32V40.34Z" fill="white"/>
<path d="M153.4 107.84C154.09 109.26 150.97 112.06 154.75 112.26C158.86 112.47 163.01 112.19 167.13 112.1C170.11 112.03 169.53 109.65 169.84 107.85C177.36 116.75 187.25 119.14 198.34 118.22C196.38 120.49 193.67 119.26 191.33 119.75C189.35 120.17 185.99 118.35 185.7 121.43C185.44 124.16 188.77 124.02 190.92 124.43C191.81 125.16 193.38 125.53 192.37 127.23C189.25 127.63 185.93 126.82 183.25 129.43C177.16 135.39 169.67 137.09 161.4 136.3C159.14 136.09 156.78 136.08 156.46 139.27C152.26 135.02 146.33 135.3 141.21 133.49C143.3 131.8 143.76 129.27 144.57 126.92C147.11 125.72 148.86 127.29 150.35 128.87C152.27 130.9 154.42 131.38 156.98 130.68C160.16 130.57 163.27 131.75 166.71 131.07C163.55 129.78 159.05 132.29 157.57 127.46C163.68 123.99 170.05 125.15 176.38 126.54C177.52 126.79 178.46 128.06 179.52 126.46C180.42 125.1 180.95 123.62 179.75 122.33C173.61 115.76 165.62 115.4 157.48 116.18C150.85 116.81 145.66 121.43 144.37 127.26C141.81 129.27 140.18 127.44 139.09 125.59C137.68 123.21 135.49 121.68 133.71 119.72C133.44 118.99 133.6 118.39 134.24 117.93C143.16 119.38 147.3 111.76 153.39 107.84H153.4Z" fill="#FCFCFC"/>
<path d="M523.04 55.37C532.58 57.47 539.74 55.03 541.37 49.13C539.22 46.21 537.03 43.31 535.38 40.06V40.04C534.41 39.2 534.38 38.26 535.09 37.25C537.46 36.6 538.86 40.58 541.5 38.59C545.89 39.69 544.49 44.48 546.82 46.9C548.47 50.88 552.47 53.14 554.25 57.03C556.15 61.45 552.43 60.83 550.21 61.58C542.47 61.65 534.55 60.97 528.14 66.73C525.1 67.75 524.08 71.91 520.3 71.78C519.72 68.39 518.71 69.81 517.27 71.37C508.97 80.39 498.26 77.77 488.03 77.13C487.22 77.08 486.52 75.38 485.77 74.45C496.84 76.43 507.55 78.55 516.76 68.49C523.13 61.52 523.82 62.15 515.82 56.56C517.53 51.93 520.24 53.4 523.03 55.38L523.04 55.37Z" fill="white"/>
<path d="M335.66 352.79C345.193 349.37 349.953 352.383 349.94 361.83C349.94 365.33 350.11 368.84 349.9 372.32C349.6 377.08 350.43 381.21 354.95 384.67H337.44C343.38 375.45 342.64 357.8 335.67 352.78L335.66 352.79Z" fill="white"/>
<path d="M258.29 67.45C255.55 64.11 251.81 66.42 248.59 65.74C247.42 65.49 245.86 65.74 245.75 64.15C245.7 63.39 246.51 62.39 247.2 61.79C253.85 55.99 255.99 48.45 255.76 39.98C255.67 36.71 255.71 33.52 258.67 31.28C258.95 33.13 257.77 35.58 260.13 36.59C262.5 37.61 263.48 35.5 264.74 33.92C267.47 30.49 271.13 28.63 275.55 28.34C275.79 29.91 274.98 30.99 273.9 31.96C268.9 34.33 265.91 38.78 262.66 42.95C260.06 48.18 259.05 53.41 262.53 58.67C263.18 58.86 263.83 59.04 264.5 59.14C270.19 58.87 272 62.42 272.53 67.25C272.99 70.23 274.44 73.64 269.54 74.36C265.25 72.94 260.76 71.84 258.31 67.45H258.29Z" fill="white"/>
<path d="M323.2 67.3C329.06 67.06 334.63 69.64 340.82 67.93C345.02 66.77 342.89 70.64 342.95 73.08C345.92 70.61 348.88 68.15 351.85 65.68C363.93 67.1 376.02 68.11 389.84 65.35C385.5 69.62 381.71 70.25 377.88 70.38C369.92 70.64 361.9 71.26 354.01 69.7C348.09 68.52 346.13 75.34 341.06 75.67C329.77 77.84 319.43 76.65 311.06 67.68C308.68 65.13 306.55 62.89 309.63 59.54C310.2 62.33 309.15 66.51 314.89 63.9C316.4 63.21 319.46 65.91 321.81 67.06C323.51 72.03 327.98 71.12 331.7 71.8C328.51 70.99 324.26 72.22 323.2 67.31V67.3Z" fill="white"/>
<path d="M223.78 349.73C228.24 351.03 227.86 354.39 227.6 358.01C227.12 364.83 225.57 371.74 228.57 378.41C229.72 381.51 233.38 381.69 235.76 384.53C229.06 386.54 222.74 383.5 216.3 385.28C222.59 376.62 219.07 367.33 219.65 358.53C219.68 358.05 219.58 357.51 219.38 357.07C217.813 353.537 219.28 351.09 223.78 349.73Z" fill="white"/>
<path d="M564.14 70.66C560.37 73.81 556.23 76.56 553.84 81.11C552.49 83.68 550.23 85.06 547.26 85.15C548.59 83.59 549.93 82.03 551.26 80.47C540.41 86.01 529.71 84.14 518.99 81.04C518.8 80.74 518.62 80.44 518.43 80.15C518.52 79.92 518.63 79.7 518.7 79.46C519.85 75.17 524.98 82.21 526.56 76.4C527.44 73.14 532.72 74.2 536.03 73.71C544.04 72.52 550.76 67.19 558.97 66.81C559.63 69.18 561.09 70.3 563.6 69.79C563.78 70.08 563.96 70.37 564.14 70.66Z" fill="white"/>
<path d="M563.6 69.79C560.59 71.49 558.89 71.02 559.24 67.15C558.79 66.53 558.61 65.83 558.67 65.08C559.32 62.61 559.99 60.65 563.42 60.6C571.32 60.48 573.43 57.35 571.13 49.52C570.66 47.93 571.36 45.97 569.74 44.73C569.25 39.09 563.66 36.31 562.13 31.24C564.42 29.2 564.64 26.29 565.36 23.59C570.38 28.07 573.46 33.28 573.05 40.4C572.48 50.2 577.81 57.66 584.48 64.96C577.05 66.8 569.1 63.4 563.6 69.79Z" fill="white"/>
<path d="M324.83 85.19C322.5 85.82 317.41 83.16 319.89 89.55C320.38 90.81 318.63 92.51 317.1 92.48C307.12 92.27 297.02 94.6 287.19 91.19C288.67 89.3 290.78 90.04 292.29 89.93C286.36 89.19 281.14 85.99 275.92 82.73C274.84 81.55 274.18 80.23 274.55 78.58C276.62 75.39 279.27 76.46 281.6 77.92C289.62 82.95 297.91 82.44 306.39 79.49C308.33 78.98 310.28 78.95 312.23 79.34C314.44 79.94 316.67 80.5 318.88 81.13C320.55 82.95 324.72 81.1 324.83 85.19Z" fill="white"/>
<path d="M273.46 30.97C274.15 30.09 274.85 29.21 275.54 28.34C283.35 28.34 286.96 22.15 291.59 17.47C293.38 16.64 294.83 16.47 294.78 19.14C293.27 21.16 291.76 23.18 290.25 25.21C287.08 27.67 288.49 31.18 288.35 34.23C287.9 44.09 284.21 51.96 275.3 56.89C274.95 56.92 274.61 56.95 274.26 56.98C272.26 57.22 270.25 57.14 268.36 56.46C265.77 55.53 265.03 53.47 267.69 52.37C276.96 48.53 276.38 37.85 283.4 32.46C279.67 29.77 276.19 33.92 273.46 30.95V30.97Z" fill="white"/>
<path d="M523.04 55.37C520.62 55.65 517.9 54.15 515.83 56.55C507.46 52.92 498.84 53.37 490.16 55.03C494.41 50.75 499.87 52.61 504.87 52.14C506.26 52.01 508.04 52.74 508.84 51.11C509.66 49.45 507.88 48.59 507.18 47.39C505.84 45.07 504.63 42.69 503.36 40.33C515.04 38.2 521 50.15 531.6 50.85C529.62 55.37 524.89 52.2 523.04 55.36V55.37Z" fill="white"/>
<path d="M132.43 97.35C132.09 104.29 132.24 111.2 134.25 117.93C134.01 118.15 133.76 118.37 133.53 118.6C130.21 119.1 132.11 122.17 131 123.81C129.69 125.74 130.07 129.29 126.14 128.5C122.01 124.7 121.66 132.2 117.6 130.82C119.59 120.36 125.02 110.73 126.47 100.08C127.53 101.62 128.59 103.16 129.79 104.9C131.61 102.58 129.43 99.01 132.43 97.35Z" fill="#FCFCFC"/>
<path d="M222.69 48.91C222.15 54.52 221.6 60.13 221.06 65.74C221.66 69.48 218.78 71.28 216.7 73.53C215.98 73.72 215.34 73.55 214.79 73.06C211.62 69.19 209.78 76.53 205.82 73.11C212.08 67.94 213.31 59.53 218.91 53.5C222.3 49.85 222.67 45.34 218.11 41.7C219.86 36.79 222.58 32.56 226.72 29.3C228.16 29.01 230.01 27.89 229.81 30.85C225.4 36.06 221.43 41.45 222.7 48.9L222.69 48.91Z" fill="white"/>
<path d="M339.66 55.29C329.85 52.89 320.36 53.82 311.19 58.06C312.78 54.16 309.84 55.18 308.21 55.58C304.1 56.59 300.06 58.04 296.08 55.27C298.49 55.27 300.9 55.27 303.14 55.27C304.65 52.27 296.18 55.35 300.84 50.73C306.43 51.11 311.56 50.51 314.2 44.53C315.33 43.31 316.69 42.24 317.54 40.86C320.68 35.76 322.81 38.04 324.85 41.71C325.66 46.1 321.44 47.88 319.68 51.38C326.14 54.3 334.09 49.23 339.65 55.3L339.66 55.29Z" fill="white"/>
<path d="M608.75 62.96C607.28 57.9 607.55 52.68 607.35 47.5C608.8 42.44 604.53 39.62 602.79 35.8C602.41 33.89 600.94 31.59 604.47 31.07C607.89 34.54 612.25 37.43 611.87 43.22C608.78 47.76 606.63 51.52 612.6 56.35C617.25 60.12 617.93 67.52 622.98 71.63C623.74 72.25 624.21 73.47 623.17 74.15C622.48 74.6 621 74.83 620.49 74.41C618.59 72.85 616.78 71.11 615.26 69.19C613.3 66.71 612.61 67.78 612.08 70.03C607.15 69.46 607.92 66.22 608.75 62.95V62.96Z" fill="white"/>
<path d="M165.24 57.87C159.95 65.94 154.72 73.76 157.37 84.49C159.01 91.15 158.94 98.25 154.78 104.48C154.68 103.32 154.46 102.24 153.25 101.7C150.56 99.08 155.19 95.4 151.97 92.85C151.98 91.44 151.41 89.46 153.05 88.97C161.05 86.56 154.19 81.71 154.23 78.49C154.27 75.57 150.78 80.6 148.57 79.07C155.05 73.32 156.08 64.2 161.73 57.89C165.34 53.86 168.47 49.41 171.92 45.22C173.1 43.79 174.63 43.06 176.52 44.85C172.72 49.24 168.99 53.56 165.25 57.88L165.24 57.87Z" fill="#FCFCFC"/>
<path d="M395.5 350.75C399.66 344.66 402.48 339.24 396 332.77C393.62 330.4 397.81 328.25 399.72 326.54C402.1 324.41 404.29 325.14 406.08 327.54C409.97 332.76 408.8 338.06 405.67 342.91C403.4 346.42 400.38 349.51 395.5 350.75Z" fill="white"/>
<path d="M544.14 86.6C543.14 87.55 542.15 88.5 540.8 89.79C547.73 89.59 554.3 85.29 560.7 89.89C566.76 90.37 572.83 87.87 578.9 89.93C579.7 90.27 580.29 90.83 580.7 91.6C572.87 93.71 564.96 94.14 557.42 90.96C551.51 88.47 546.14 91.25 540.71 91.99C532.97 93.04 525.31 92.32 517.63 92.69C515.12 92.81 512.71 92.04 512.17 87.6C523.27 91.98 533.68 88.9 544.15 86.59L544.14 86.6Z" fill="white"/>
<path d="M677.95 136.07C675.31 137.37 674.17 140.93 670.65 140.92C671.74 138.73 674.63 136.32 668.82 136.28C663.36 136.25 657.22 138.45 652.64 133.27C653.43 131.9 658.69 136.19 656.21 130.33C655.56 128.8 658.11 127.94 659.42 128.27C666 129.91 672.09 126.85 678.68 126.38C677.49 130.17 673.98 131.44 671.52 133.43C673.09 136.53 677.41 131.02 677.95 136.07Z" fill="white"/>
<path d="M276.74 82.09C282.71 84.71 288.67 87.34 296.39 90.73C292.09 90.94 289.65 91.07 287.2 91.19C276.07 87.89 265.34 93.57 254.32 92.62C252.79 92.11 251.25 91.61 249.71 91.1C249.15 90.43 249.15 89.75 249.71 89.07C250.8 87.92 252.16 87.23 253.66 86.8C257.4 86.02 261.16 86.1 264.91 86.67C269.75 87.47 274.28 87.47 276.75 82.1L276.74 82.09Z" fill="white"/>
<path d="M673.5 67.36C671.12 69.35 672.77 71.35 673.61 73.22C675.59 77.6 675.16 81.62 672.17 85.37C671.29 84.29 671.22 83.18 672.07 82.05C673.13 68.42 665.74 58.75 657.1 49.56C655.76 48.14 651.37 46.9 654.46 44.14C656.69 42.15 659.15 45.2 660.38 47.08C664.78 53.83 672.17 58.66 673.51 67.36H673.5Z" fill="white"/>
<path d="M708.1 94.35C704.83 94.08 705.81 97.81 703.9 98.81C704.37 86.09 699.74 75.18 692.06 65.34C691.01 64 689.26 62.26 690.98 60.85C693.23 59.01 694.92 61.68 695.6 63.05C699.53 70.96 705.56 77.91 706.77 87.09C707.09 89.53 707.66 91.93 708.11 94.35H708.1Z" fill="white"/>
<path d="M502.02 35.69C502.13 37.13 502.24 38.58 502.35 40.02C492.33 29.79 479.41 26.29 465.93 23.77C478.2 20.54 488.85 25.3 499.31 31C499.91 30.2 498.74 32.55 498.85 31.55C498.97 30.55 497.57 30.73 498.23 31.43C499.54 32.81 501.81 33.31 502.02 35.68V35.69Z" fill="white"/>
<path d="M109.81 139.35C116.1 141.39 117.97 133.64 123.2 133.32C127.79 132.03 132.41 129.49 136.93 133.51C130.38 135.39 123.06 135.39 118.42 141.76C117.23 143.39 116.01 144.86 115.69 146.89C114.19 147.36 112.7 147.84 111.2 148.31C111.3 144.93 110.91 142.18 106.99 145.8C104.61 147.99 102.29 150.17 99.1599 151.25C101.34 146.06 107.49 144.42 109.8 139.35H109.81Z" fill="#FCFCFC"/>
<path d="M198.4 350.93C207.19 354.15 204.52 359.03 202.84 363.75C201.83 366.58 200.8 369.39 199.77 372.22C194.2 372.77 195.01 367.36 193.39 364.71C190.81 360.51 186.37 355.73 192.4 350.53H175.06C180.95 356.99 183.25 364.18 186.86 370.65C191.76 379.44 197.27 388.21 187.58 397.43C186.72 398.25 185.91 399.75 187.47 400.51C188.38 400.96 190.27 400.85 190.87 400.2C192.18 398.81 193.19 397 193.89 395.19C196.47 388.54 198.88 381.83 201.36 375.14C206.94 367.79 207.27 358.01 214.44 349.7C208.73 350.09 204.72 349 198.4 350.94V350.93Z" fill="white"/>
<path d="M514.43 82.43C505.16 85.16 495.88 87.78 486.05 86.8C483.98 86.6 480.74 87.41 480.83 84.26C480.89 81.79 483.86 82.11 485.77 82.29C493.81 83.02 501.66 81.31 509.59 80.59C511.34 80.84 513.33 80.48 514.44 82.43H514.43Z" fill="white"/>
<path d="M327.86 37.23C323.12 31.87 316.85 32.27 310.75 33.17C307.84 33.6 305.01 34.26 302.06 34C308.13 29.62 315.15 31.67 321.79 31.11C327.21 32.85 332.09 31.17 336.81 28.66C341.28 26.28 345.73 23.91 353.05 24.59C343.59 29.51 334.71 31.45 327.86 37.23Z" fill="white"/>
<path d="M171.42 146.83C172.81 146.07 174.21 145.32 175.71 144.5C169.18 142.52 161.31 146.54 156.46 139.27C169.65 144.44 182.67 142.95 195.65 138.37C197.25 137.81 199.35 135.32 200.55 138.39C201.31 140.34 199.04 141.72 197.5 141.91C188.7 143 180.7 148.39 171.42 146.82V146.83Z" fill="#FCFCFC"/>
<path d="M477.77 65.31C478.84 66.99 479.92 68.67 480.99 70.35C471.75 70.4 462.51 70.47 453.27 70.49C449.33 70.5 445.53 70.02 442.5 66.66C454.37 67.41 466.13 67.63 477.77 65.31Z" fill="white"/>
<path d="M536.62 22.24C531.98 15.22 525.3 10.52 518.38 6.06998C516.96 5.15998 513.68 4.95998 515.63 2.12998C517 0.129984 519.53 0.959984 521.03 2.23998C527.4 7.66998 535.11 11.67 539.54 19.21C538.77 20.41 538.2 21.81 536.63 22.24H536.62Z" fill="white"/>
<path d="M192.37 127.24C191.89 126.31 191.4 125.37 190.92 124.44C196.42 124.44 201.92 124.27 207.41 124.48C212.13 124.67 216.19 123.44 219.99 120.63C221.83 119.27 224.96 118.68 225.99 120.88C227.32 123.72 223.89 124.53 222.05 125.17C212.38 128.53 202.32 127.24 192.37 127.24Z" fill="white"/>
<path d="M672.07 82.05C672.1 83.16 672.14 84.26 672.17 85.37C672.21 89.26 672.24 93.16 672.28 97.05C672.7 97.69 672.73 98.34 672.36 99.01C670.37 99.71 668.9 98.95 667.72 97.36C669.89 84.04 664.74 73.42 655.52 64.3C663.13 66.25 665.23 73.35 668.89 78.9C669.8 80.28 669.65 82.31 672.07 82.05Z" fill="white"/>
<path d="M604.47 31.08C602.63 32.2 603.13 34.15 602.79 35.81C598.35 28.08 593.94 20.35 585 16.82C583.38 16.18 581.56 15.17 583.17 13C584.57 11.1 586.43 12.06 587.79 13.05C594.52 17.95 601.3 22.86 604.47 31.08Z" fill="white"/>
<path d="M324.83 85.19C322.81 84.26 320.78 83.33 318.76 82.41C317.89 81.46 317.85 80.47 318.64 79.45C322.71 80.36 326.78 81.27 330.85 82.18C335.47 82.62 339.99 84.77 344.78 82.46C346.21 81.77 348.82 81.89 349.1 84.05C349.48 86.95 346.72 86.78 344.89 86.76C338.18 86.69 331.39 87.44 324.85 85.18L324.83 85.19Z" fill="white"/>
<path d="M294.78 19.15C294.13 17.81 292.83 17.69 291.59 17.48C295.86 11.2 302.81 7.91999 308.11 2.76999C309.62 1.29999 312.36 -0.230005 314.01 2.03999C316.26 5.14999 312.51 5.35999 310.96 6.32999C305.09 10.02 299.81 14.42 294.78 19.15Z" fill="white"/>
<path d="M601.5 107.84C605.36 110.36 609.66 108.71 613.75 109.11C619 109.62 623.95 110.5 626.76 115.71C623.92 114.52 621.09 113.32 618.25 112.13C613.26 110.46 607.96 112.63 602.97 110.91C602.06 110.8 601.15 110.69 600.24 110.57C594.58 109.94 588.9 109.44 583.42 107.77C582.38 107.29 581.34 106.8 580.29 106.32C580.44 105.36 575.79 102.61 581.22 103.65C588 104.94 594.74 106.45 601.5 107.86V107.84Z" fill="white"/>
<path d="M433.7 364.48C431.18 362.91 428.35 361.85 425.68 360.53C422.95 359.17 420.99 357.11 422.5 354.01C423.94 351.05 426.74 351.18 429.67 351.91C433.11 352.77 434.52 356.33 438.59 358.79C437.45 354.54 439.11 351.08 434.93 349.34C428.42 346.63 419.28 349.61 416.67 355.46C413.86 361.74 416.47 366.6 424.68 370.36C426.04 370.98 427.39 371.62 428.78 372.18C433.21 373.94 435.14 376.83 433.14 381.56C423.53 387.07 420.49 378.83 415.58 371.37C415.5 377.55 412.91 383.14 417.97 384.97C423.73 387.05 430.62 388.48 436.08 382.95C442.45 375.36 441.76 369.54 433.71 364.51L433.7 364.48Z" fill="white"/>
<path d="M229.8 30.86C228.77 30.34 227.74 29.83 226.72 29.31C230.45 23.39 234.61 17.88 240.64 14.04C242.45 12.89 244.67 11.89 245.94 13.89C247.16 15.8 244.9 16.87 243.37 17.64C237.47 20.65 234.19 26.31 229.8 30.86Z" fill="white"/>
<path d="M589.49 366.34C587.16 362.29 588.79 359.32 592.27 357.13C595.66 355 599.24 353.16 604.73 350.07H586.45C592.67 355.21 585.97 356.86 584.53 360.06C582.07 360.9 580.94 364.26 577.77 363.85C577.55 363.23 577.24 362.78 577.24 362.34C577.24 353.59 577.22 344.85 577.29 336.1C577.37 327.26 573.303 324.333 565.09 327.32C564.78 327.43 564.66 328.07 564.46 328.45C570.01 334.16 570.4 374.84 565.1 384.57H584.1C581.43 382.71 579.91 382.09 579.05 380.97C576.16 377.21 575.6 371.7 578.55 369.29C582.74 365.88 583.24 372.34 585.44 374.34C586.68 375.47 587.31 377.27 588.27 378.73C593.07 386.04 596.88 387.13 605.87 383.56C598 379.93 594.41 372.51 589.48 366.33L589.49 366.34Z" fill="white"/>
<path d="M350.67 334.79C349.61 337.57 348.13 340.65 344.88 340.37C342.26 340.14 339.98 337.53 340.12 334.62C340.26 331.57 342.38 328.48 345.33 328.44C348.44 328.4 349.85 331.69 350.67 334.79Z" fill="white"/>
<path d="M502.02 35.69C500.02 34.41 498.02 33.12 495.54 31.54C497.07 31.32 498.19 31.17 499.31 31.01C502.94 31.43 506.45 31.83 510.22 31.2C519.24 29.7 527.75 31.36 535.1 37.25C535.2 38.18 535.29 39.11 535.39 40.04C530.87 40.18 529.49 35.23 525.55 34.1C517.43 31.77 509.7 32.63 502.03 35.68L502.02 35.69Z" fill="white"/>
<path d="M207.86 112.52C206.12 113.87 204.39 115.22 202.65 116.58C201.33 116.78 200 116.97 198.68 117.17C194.81 112.88 188.89 117.53 184.85 113.99C188.72 112.31 192.55 113 196.37 113.91C197.32 114.53 195.41 114.17 196.19 113.54C193.36 111.28 188.57 115.77 186.55 110.74C191.46 110.31 196.57 111.8 201.27 109.53C204.84 107.81 205.1 112.8 207.86 112.53V112.52Z" fill="white"/>
<path d="M126.01 154.56C128.09 153.92 130.68 155.19 132.32 152.88C136.44 149.94 140.5 149.69 144.44 153.21C146.05 155.03 148.2 154.04 150.11 154.32C142.12 159.11 134.08 158.62 126.01 154.57V154.56Z" fill="#FCFCFC"/>
<path d="M545.62 47.98C542.61 45.57 543.47 41.46 541.5 38.58C541.43 34.59 541.36 30.59 541.28 26.6C543.51 27.35 544.45 29.2 544.13 31.22C543.5 35.12 546.07 36.85 548.53 38.78C547.41 40.69 548.51 42.79 548.02 44.75C547.62 46.12 547.03 47.36 545.62 47.98Z" fill="white"/>
<path d="M514.43 82.43C512.69 82.14 510.73 82.44 509.58 80.59C512.93 77.38 518 76.27 520.3 71.78C522.51 70 523.07 66.52 526.36 65.85C528.16 70.85 523.82 73.1 521.7 76.36C520.75 77.81 517.68 77.59 518.53 80.42C518.68 80.63 518.83 80.84 518.98 81.05C517.46 81.51 515.94 81.98 514.42 82.44L514.43 82.43Z" fill="white"/>
<path d="M583.17 94.01C583.3 98.19 588.09 96.18 589.44 98.72C582.58 98.72 575.71 98.72 568.1 98.72C570.12 96.47 573.24 98.08 574.41 95.79C577.33 95.2 580.25 94.6 583.16 94.01H583.17Z" fill="white"/>
<path d="M218.1 41.73C217.68 42.55 217.37 43.99 216.82 44.09C209.29 45.49 204.05 50.68 198.32 55.04C201.86 46.07 210.27 44.33 218.1 41.73Z" fill="white"/>
<path d="M536.62 22.24C536.9 20.57 537.45 19.15 539.53 19.21C541.46 21.84 545.35 22.71 546.03 26.46C544.45 26.5 542.8 24.32 541.29 26.61C539.73 25.16 538.18 23.7 536.62 22.25V22.24Z" fill="white"/>
<path d="M562.14 31.24C565.18 35.45 570.53 38.37 569.75 44.74C566.47 39.61 563.31 34.36 557.82 31.16C559.26 31.19 560.7 31.22 562.14 31.24Z" fill="white"/>
<path d="M583.73 88.52C585.12 87.34 586.51 86.16 587.9 84.98C590.49 89.68 588.04 91.76 583.77 92.87C583.01 91.79 581.95 91.45 580.68 91.6C580.49 91.36 580.31 91.12 580.12 90.88C580.23 88.43 582.5 89.27 583.72 88.52H583.73Z" fill="white"/>
<path d="M583.42 107.75C589.23 107.46 594.64 109.55 600.24 110.56C594.36 111.26 588.65 110.93 583.42 107.75Z" fill="white"/>
<path d="M351.85 65.68C346.74 64.53 344.26 60.35 341.4 56.6C346.27 58.03 348.99 61.94 351.85 65.68Z" fill="white"/>
<path d="M111.04 143.74C109.55 142.56 108.12 143.35 107.09 144.48C104.72 147.06 101.66 148.82 99.17 151.25C88.17 163.42 81.98 178.37 75.2 194.74C68.19 183.04 59.71 175.27 48.38 170.2C42.87 167.73 40.22 169.08 36.96 172.84C25.64 185.89 21.33 202.11 16.85 218.12C14.62 226.08 14.71 234.48 15.29 244.4C20.09 235.37 22.9 227.51 25.73 219.54C29.03 210.25 33.1 201.08 39.11 193.04C41.19 190.25 43 189.05 46.18 192.41C58.65 205.6 68.01 220.63 74.5 237.53C80.01 251.89 84.65 266.72 95.93 278.03C98.62 278.93 101.42 284.28 103.92 277.83C103.26 277.24 102.6 276.64 101.95 276.05C99.51 273.2 98.03 269.55 94.71 267.44C84.47 253.83 80.42 237.95 79.81 221.47C78.73 192.37 89.11 167.7 111.2 148.3C112.41 146.73 112.76 145.11 111.03 143.74H111.04Z" fill="white"/>
<path d="M602.97 110.89C608.08 111.1 613.37 109.09 618.25 112.11C613.15 111.8 607.86 113.76 602.97 110.89Z" fill="white"/>
<path d="M366.63 161.61C369.68 155.6 375.63 152.58 380.38 148.33C377.97 155 372.06 158.06 366.63 161.61Z" fill="#E0BA90"/>
<path d="M491.66 160.38C488.09 165.42 484.2 170.1 478.22 172.46C482.08 167.74 485.76 162.83 491.66 160.38Z" fill="#E8C9A2"/>
<path d="M715.85 103.11C717.25 110.24 718.28 117.44 719.37 124.57C720.14 129.61 718.09 132.09 716.01 137.42C714.99 127.52 708.45 121.68 707.83 113.02C707.16 103.53 706.31 103.59 715.89 103.15L715.84 103.11H715.85Z" fill="white"/>
<path d="M706.94 135.28C697.82 132.48 690.12 133.47 682.22 133.15C683.07 127.45 690.64 126.44 690.3 120.18C690.25 119.32 694.68 119.62 697.07 118.42C700.94 116.49 699.44 121.03 700.38 122.41C702.71 125.86 704.26 129.84 706.94 135.27V135.28Z" fill="white"/>
<path d="M667.71 97.35C669.41 97.1 670.71 97.93 671.97 98.9C674.45 102.61 676.42 106.6 678.25 110.66H678.4C678.17 111.64 679.44 113.8 677.53 113.41C671.68 112.2 665.92 112.01 660.05 112.94C659.67 113 659.04 111.51 658.52 110.75C660.52 108 663.1 105.36 660.1 101.74C658.59 98.94 660.14 98.22 662.58 98.04C664.29 97.91 666.1 98.46 667.68 97.36H667.72L667.71 97.35Z" fill="white"/>
<path d="M508.69 352.11C518.95 342.35 517.49 331.06 504.98 327.55C492.9 324.17 480.5 327.19 466.83 326.18C470.24 330.69 476.63 330.03 476.32 334.87C475.25 351.6 482.04 369.2 470.55 385.65C480.42 385.65 489.82 385.8 499.22 385.61C510.35 385.38 516.65 380.9 519.02 371.97C521.29 363.42 518.67 358.37 508.68 352.11H508.69ZM493.42 329.62C500.81 329.95 506.07 335.21 505.99 342.65C505.92 349.82 503.05 352.25 493.97 352.13C484.21 353.33 486.95 345.52 487.01 340.09C487.06 335.66 484.79 329.23 493.42 329.62ZM498.81 381.81C488.79 383.37 486.87 381.02 486.89 366.69C488.45 363.23 483.35 355.99 492.68 355.59C501.53 355.22 508.33 359.81 509.2 367.13C510.11 374.73 505.87 380.71 498.81 381.81Z" fill="white"/>
<path d="M643.45 83.87C646.31 81.69 643.81 79.39 643.64 77.13C643.45 74.71 643.03 72.21 645.74 68.65C647.6 76.87 651.09 83.2 655.44 89.12C656.69 90.82 656.91 92.83 653.2 91.86C650.94 91.27 652.68 93.44 652.51 94.34C647.11 92.91 645.34 88.34 643.46 83.87H643.45Z" fill="white"/>
<path d="M667.67 97.36C666.29 100.8 660.6 96.78 660.09 101.74C656.56 99.76 653.02 97.77 649.49 95.79C650.48 95.3 651.47 94.81 652.46 94.32C657.56 95.18 662.25 98.09 667.66 97.36H667.67Z" fill="white"/>
<path d="M680.71 148.74H700.2C695.84 154.92 688.9 155.22 680.71 148.74Z" fill="white"/>
<path d="M608.75 62.96C609.7 65.39 609.7 68.27 612.08 70.04C613.71 72.47 615.49 74.76 618 76.37C619.81 79.98 617.21 79.07 615.29 79.13C610.16 79.3 604.82 77.82 600 80.84C592.42 80.78 598.13 75.39 596.91 72.71C595.27 69.1 599.04 69.98 600.34 70.31C606.95 72 604.91 64.16 608.75 62.96Z" fill="white"/>
<path d="M595.18 98.34C602.77 94.37 610.44 97.28 615.58 92.04C616.29 91.31 617.5 91.97 617.68 93.2C617.93 94.91 616.97 96.05 615.56 96.76C609.71 99.68 603.53 99.13 595.18 98.34Z" fill="white"/>
<path d="M626.45 109.86C634.58 111.38 642.34 111.7 649.54 107.2C650.73 106.45 652.46 105.75 653.26 107.69C653.83 109.07 652.4 109.8 651.49 110.61C644.06 117.31 632.46 117.1 626.44 109.86H626.45Z" fill="white"/>
<path d="M678.25 110.67C675.16 107.28 672.98 103.4 671.97 98.91C672.07 98.29 672.17 97.67 672.28 97.05C673.4 98.63 674.52 100.21 675.98 102.27C676.82 98.68 673.24 95.48 676.28 92.12C678.11 95.34 679.84 98.45 681.63 101.54C683.44 104.67 685.3 107.76 687.44 111.39C682 112.14 681.88 106.46 678.36 105.43C676.68 107.12 679.03 108.99 678.26 110.69L678.25 110.67Z" fill="white"/>
<path d="M243.84 97.58C233.75 103.96 223.42 106.54 212.41 99.72C210.25 98.38 209.2 99.48 209.04 101.76C205.04 98.24 199.6 97.47 195.28 94.55C197.84 91.35 201.95 94.37 204.77 92.19C205.56 90.4 208.14 96.34 208.5 91.19C208.71 88.1 211.93 88.31 213.78 89.35C222.71 94.35 232.92 93.59 242.38 96.1C243.03 96.43 243.52 96.93 243.84 97.58Z" fill="white"/>
<path d="M204.22 92.93C204.35 96.12 202.46 96.04 200.32 95.22C198.66 94.58 197.04 94.06 195.26 94.55C190.21 93.4 185.42 95.14 180.55 95.92C183.26 89.14 186.99 82.95 191.23 77.03C192.05 77.87 192.86 78.71 193.68 79.54C194.89 80 195.25 81.47 196.5 81.87C200.49 82.29 201.44 85.46 202.54 88.51C203.22 89.94 204.36 91.19 204.23 92.93H204.22Z" fill="white"/>
<path d="M186.55 110.73C189.58 113.53 193.71 110.71 197.34 113.02C193.06 114.97 188.84 113.37 184.85 113.98C181.86 113.47 179.47 112.07 177.01 108.91C181.13 108.07 183.74 109.99 186.55 110.73Z" fill="white"/>
<path d="M136.93 133.5C132.38 131.84 127.76 134.97 123.2 133.31C124.18 131.7 125.16 130.1 126.14 128.49C130.12 126.16 128.83 121.56 130.51 118.2C132.37 114.5 132.51 118.82 133.53 118.59C140 118.04 138.67 126.91 144.23 127.46H144.2C148.59 132.16 146.03 133.39 141.2 133.49C139.77 133.49 138.35 133.49 136.92 133.49L136.93 133.5Z" fill="#FCFCFC"/>
<path d="M144.45 153.2C140.41 153.09 136.37 152.98 132.33 152.87C130.72 151.84 129.12 150.81 126.18 148.93H148.94C148.4 151.62 147.07 153.09 144.46 153.2H144.45Z" fill="#FCFCFC"/>
<path d="M511.11 67C504.32 74.72 497.73 75.68 490.09 70.15C497.45 70.47 503.44 68.3 511.11 67Z" fill="white"/>
<path d="M586.57 62.4C589.89 61.92 591.74 65.16 595.08 62.97C588.23 59.15 585.43 50.69 578.5 47.42C577.88 48.13 577.26 48.84 576.63 49.54C576.4 48.91 575.91 48.26 575.97 47.66C576.4 43.32 573.59 37.39 577.47 35.01C581.48 32.55 586.41 36.32 590.57 38.49C599.61 43.22 603.21 51.48 604.41 60.99C605.07 66.19 603.41 69.29 597.13 67.52C593.41 66.47 589.07 67.13 586.57 62.39V62.4Z" fill="white"/>
<path d="M563.81 88.31C561.44 84.77 564.68 85.37 566.22 85.36C570.72 85.33 575.01 84.69 578.89 82.26C580.43 81.23 582.18 80.88 583.23 82.56C583.97 83.74 582.83 84.68 581.5 84.98C581.02 85.43 580.53 85.88 580.05 86.33C575.24 91.93 569.52 90.09 563.81 88.31Z" fill="white"/>
<path d="M563.81 88.31C569.33 88.51 574.92 89.31 580.05 86.33C580.8 87.85 582.24 88.21 583.72 88.52C582.52 89.31 581.32 90.1 580.12 90.88C573.62 91.09 567.04 92.76 560.69 89.89C561.73 89.36 562.77 88.84 563.81 88.31Z" fill="white"/>
<path d="M581.5 84.97C584 80.81 579.96 82.97 578.88 82.25C579.67 81.72 580.47 80.73 581.25 80.74C583.92 80.79 586.67 75.23 588.36 79.29C589.51 82.05 585.46 84.92 581.5 84.97Z" fill="white"/>
<path d="M151.96 92.84C153.32 92.16 154.64 91.29 155.02 93.87C155.45 96.75 153.79 99.08 153.24 101.69C149.53 104.24 148.51 109.92 141.4 111.03C146.98 105.07 150.76 99.6 151.96 92.84Z" fill="#FCFCFC"/>
<path d="M554.82 372.3C555.01 368.06 554.7 363.79 554.8 359.54C554.9 355.22 552.87 352.2 549.05 350.77C542.25 348.22 535.47 347.56 529.43 352.89C527.14 353.97 524.87 355.35 526.34 358.25C527.86 361.26 530.19 360 532.26 358.6C532.62 358.28 533.25 358 533.3 357.64C533.75 354.08 534.72 351.26 539.3 352.03C543.73 352.77 545.37 355.57 546.17 359.71C547.06 364.29 544 364.44 541.1 365.24C538.45 365.97 535.81 366.81 533.28 367.87C526.99 370.53 523.66 376.47 525.92 381.55C528.87 388.19 534.62 386.51 539.52 384.94C543.71 383.6 547.04 381.04 551.62 384.87C554.2 387.03 557.76 385.01 560.51 381.68C554.85 380.61 554.63 376.66 554.82 372.28V372.3ZM540.05 381.19C536.72 381.25 534.25 379.9 534.5 375.88C534.82 370.7 538.26 368.5 542.71 367.73C547.49 366.9 545.86 370.84 546.07 371.87C546.84 377.9 545.19 381.09 540.04 381.19H540.05Z" fill="white"/>
<path d="M390.97 372.3C391.16 368.06 390.85 363.79 390.95 359.54C391.05 355.22 389.02 352.2 385.2 350.77C378.4 348.22 371.62 347.56 365.58 352.89C363.29 353.97 361.02 355.35 362.49 358.25C364.01 361.26 366.34 360 368.41 358.6C368.77 358.28 369.4 358 369.45 357.64C369.9 354.08 370.87 351.26 375.45 352.03C379.88 352.77 381.52 355.57 382.32 359.71C383.21 364.29 380.15 364.44 377.25 365.24C374.6 365.97 371.96 366.81 369.43 367.87C363.14 370.53 359.81 376.47 362.07 381.55C365.02 388.19 370.77 386.51 375.67 384.94C379.86 383.6 383.19 381.04 387.77 384.87C390.35 387.03 393.91 385.01 396.66 381.68C391 380.61 390.78 376.66 390.97 372.28V372.3ZM376.2 381.19C372.87 381.25 370.4 379.9 370.65 375.88C370.97 370.7 374.41 368.5 378.86 367.73C383.64 366.9 382.01 370.84 382.22 371.87C382.99 377.9 381.34 381.09 376.19 381.19H376.2Z" fill="white"/>
<path d="M201.28 89.97C199.35 87.4 199.88 82.85 195.22 82.5C197.96 80.04 201.67 82.76 204.5 80.77C207.93 78.2 211.36 75.63 214.79 73.06C215.26 73.1 215.72 73.11 216.19 73.1C217.6 75.87 215.65 77.03 213.68 77.96C211.41 79.03 214.74 79.07 213.94 79.8C211.66 85.61 204.73 85.63 201.28 89.97Z" fill="white"/>
<path d="M204.5 80.77C201.77 83.31 198.26 81.65 195.22 82.5C194.71 81.51 194.2 80.53 193.69 79.54C193.83 77.87 193.97 76.2 194.1 74.53C194.85 81.13 199.6 81.07 204.5 80.77Z" fill="white"/>
<path d="M252.53 88.35C251.52 88.84 250.5 89.33 249.49 89.81C242.66 90.39 238.52 86.94 234.45 77.3C234.45 76.94 234.47 76.57 234.49 76.21C236.34 68.73 242.69 68.33 248.57 67.54C251.76 67.11 255.05 67.45 258.29 67.44C262.17 68.9 265.98 70.49 269.22 73.16C271.72 74.66 274.86 75.54 275.15 79.21C275.68 80.17 276.21 81.13 276.74 82.09C277.38 84.06 280.96 86.82 275.23 86.97C272.14 87.05 269.57 91.76 266 88.03C260.9 85.37 254.48 87.95 249.72 83.96C249.09 83.61 248.5 83.18 247.93 82.73C247.36 82.28 247.09 82.25 247.06 82.7C247.18 82.64 247.34 82.81 247.59 83.22C249.38 84.84 251.94 85.65 252.53 88.35Z" fill="white"/>
<path d="M234.5 40.07C238.75 38.73 242.94 37.15 247.26 36.16C249.33 35.69 252.33 32.71 253.64 36.11C254.66 38.76 255.31 42.35 252.03 44.95C245.62 50.02 242.24 58 234.93 62.04C236.85 65.28 239.58 61.09 241.23 64.08C240.26 64.7 239.34 65.56 238.25 65.95C234.24 67.39 229.15 69.07 226.46 65.66C224.09 62.65 224.67 57.49 226.71 53.57C229.11 48.96 231.9 44.55 234.52 40.06H234.5V40.07Z" fill="white"/>
<path d="M213.57 79.44C213.04 78.86 210.48 79.5 212.16 77.71C213.56 76.21 215.7 75.39 216.2 73.09C217.82 70.64 219.44 68.19 221.06 65.73C224.74 70.15 229.18 71.41 234.59 68.5C236.14 71.4 230.37 73.79 234.49 76.2L234.54 76.26C236.74 85.47 229.83 80.86 226.44 81.63C222.13 81.04 217.46 82.49 213.57 79.43V79.44Z" fill="white"/>
<path d="M312.63 80.88L306.83 80.83C305.74 81.6 303.97 81.96 303.34 81.38C296.97 75.6 287.45 78.4 280.99 73.05C280.43 72.58 279.92 71.61 279.37 71.63C273.47 71.86 273.47 71.9 270.67 67.17C270.16 62.75 268.37 59.83 263.23 60.87C265.49 55.58 270.72 57.55 274.6 56.24C274.85 56.43 275.08 56.65 275.29 56.89C276.11 62 280.02 59.41 282.38 59.35C291.11 59.14 298.99 60.33 305.47 67.18C308.11 69.97 307.31 74.57 311.21 76.3C312.26 76.92 313.27 77.61 314.31 78.24C315.14 78.74 316.23 79.27 315.69 80.39C315.02 81.78 313.77 81.48 312.62 80.87L312.63 80.88Z" fill="white"/>
<path d="M312.63 80.88C315.98 78.18 310.73 78.13 311.22 76.31C314.15 76.27 316.25 78.2 318.64 79.45C318.68 80.44 318.72 81.42 318.76 82.41C316.68 82.05 314.31 82.85 312.63 80.88Z" fill="white"/>
<path d="M226.97 79.47C229.63 78.72 234.88 84.1 234.54 76.27C239.49 80.82 241.06 89.11 249.5 89.81C249.56 90.24 249.63 90.67 249.71 91.1C248.54 91.37 246.98 91.27 246.32 92C245.63 92.76 246.82 93.6 247.72 94C251.71 95.74 255.55 97.9 260.13 97.99C254.58 99.04 249.18 98.87 243.83 97.57L243.44 97.08C239.71 91.25 235.89 85.56 228.92 83.03C227.55 82.53 226.6 81.22 226.96 79.48L226.97 79.47Z" fill="white"/>
<path d="M569.75 44.72C575.92 55.04 574.07 59.98 563.09 61.67C560.25 62.11 561.38 65.08 559.5 65.84C556.59 63.56 551.56 64.46 550.32 59.69C551.54 59.01 555.24 60.88 553.22 56.87C553.73 56.25 554.33 56.12 555.05 56.48C556.06 57.21 556.96 58.2 558.08 58.62C561.62 59.93 565.79 61.12 568.79 58.88C571.67 56.74 571.2 52.7 570.15 49.17C569.74 47.77 569.86 46.21 569.74 44.73L569.75 44.72Z" fill="white"/>
<path d="M555.05 56.47C554.44 56.6 553.83 56.73 553.22 56.86C550.57 54 546.68 52.19 545.62 47.98C545.82 46.68 545.95 45.34 547.32 44.64C552.54 44.79 552.66 52.12 557.95 52.18C559.33 52.36 561.17 52.37 561.06 54.2C560.97 55.66 559.23 55.17 558.17 55.24C556.97 55.32 555.83 55.4 555.05 56.49V56.47Z" fill="white"/>
<path d="M557.95 52.17C555.14 53.85 553.15 53.32 551.54 50.31C550.44 48.25 548.75 46.52 547.32 44.64C546.71 42.48 543.81 39.84 548.54 38.78C551.26 43.53 554.23 48.12 557.95 52.18V52.17Z" fill="white"/>
<path d="M165.39 73.19C167.19 69.98 169.48 67.25 172.93 65.71C177.68 63.82 182.99 63.25 187.35 59.53C189.09 65.71 191.09 71.7 187.53 78.07C185.32 75.94 187.61 72.85 184.47 70.47C182.23 77.77 178.03 83.69 173.69 89.54C173.25 90.13 172.47 91.24 172.59 91.37C178.89 97.62 170.6 96.68 169.26 96.8C164.79 97.2 162.57 94.18 162.49 89.81C162.44 87.11 161.81 84.21 163.7 81.83C165.78 79.2 165.35 76.18 165.38 73.21L165.39 73.19Z" fill="#FCFCFC"/>
<path d="M621.62 364.75C626.36 364.93 631.11 364.7 635.86 364.7C640.73 364.7 641.52 362.56 639.13 358.67C637.26 352.76 633.26 349.83 627.02 350.04C619.16 348.02 614.39 350.25 610.22 357.88C605.79 365.98 606.97 376.49 612.97 382.17C620.34 389.15 634.39 386.91 639.81 377.83C637.43 376.63 636.23 378.95 634.54 379.63C627.08 382.59 619.52 379.3 616.88 371.84C615.29 367.36 615.97 364.54 621.63 364.76L621.62 364.75ZM615.9 359.01C615.73 354.3 619.03 351.43 624.03 351.24C625.01 351.2 626 351.36 626.99 351.42C630.51 353.94 632.63 357.06 631.42 361.63C628.97 361.88 626.48 362.57 624.1 362.28C621.13 361.92 616.1 364.54 615.9 359V359.01Z" fill="white"/>
<path d="M314.21 44.52C315.45 45.02 317.95 45.47 315.92 47.17C311.63 50.76 307.07 54.73 300.84 50.72C305.3 48.65 309.75 46.59 314.2 44.52H314.21Z" fill="white"/>
<path d="M323.2 67.3C327.74 70.85 333.47 69.49 340.42 71.11C332.81 74.31 327.19 74.28 321.7 70.58C320.01 69.44 320.4 68.19 321.81 67.05C322.27 67.16 322.73 67.24 323.2 67.3Z" fill="white"/>
<path d="M535.38 40.05C538.7 42.2 540.66 45.25 541.37 49.12C538.04 46.98 534.82 44.76 535.38 40.05Z" fill="white"/>
<path d="M144.23 127.47C140.16 122.66 143.19 121.36 147.28 118.5C156.64 111.96 166.14 112.45 175.34 116.79C183.61 120.69 188.63 124.18 175.89 131.39C175.78 129.3 176.7 126.82 172.76 127.22C167.81 127.72 162.79 127.44 157.8 127.5C156.14 128.59 155.86 130.16 156.27 131.96C153.94 133.99 151.92 133.71 150.1 131.21C148.64 129.21 147.13 127.2 144.21 127.47H144.23Z" fill="#FCFCFC"/>
<path d="M156.27 131.95C154.77 130.87 152.62 130.02 153.14 127.83C153.25 127.38 156.17 127.59 157.8 127.5C162.01 130.58 167.01 127.87 172.32 129.68C167.35 135.96 161.56 132.48 156.27 131.96V131.95Z" fill="#FCFCFC"/>
<path d="M550.32 59.69C552.88 62.49 558.79 60.28 559.5 65.84C559.42 66.28 559.33 66.72 559.24 67.16C556.6 67.82 556.08 75.8 551.06 69.54C550.81 69.23 546.14 73.3 543.18 74.14C538.71 75.4 531.85 73.98 529.78 76.64C526.23 81.2 522.04 78.82 518.54 80.42C517.6 80.35 516.34 80.63 515.79 80.14C514.62 79.08 516.04 78.47 516.72 78.09C521.63 75.32 524.39 70.9 526.37 65.85C532.92 58.23 541.91 60.08 550.32 59.69Z" fill="white"/>
<path d="M274.6 56.25C271.55 59.62 266.62 58.36 263.23 60.89C262.73 60.94 262.22 60.99 261.72 61.04C257.66 54.6 258.91 48.14 261.66 41.68C264.66 37.09 267.21 31.99 273.45 30.98C275.83 30.36 278.22 29.78 280.58 29.12C282.21 28.67 284.21 27.44 285.16 29.54C286.04 31.48 286.56 34.17 283.78 35.27C280.49 36.57 279.45 39.61 278.79 42.25C277.25 48.42 273.14 51.72 267.42 54.14C269.53 56.4 272.8 54 274.58 56.25H274.6Z" fill="white"/>
<path d="M270.67 67.18C273.81 68.25 273.74 72.31 277.16 73.78C278.93 72.13 275.1 69.7 278.07 67.94C285.07 77.6 298.57 73.09 306.82 80.83C297.66 85.21 288.72 85.45 280.2 79.28C278.42 77.99 276.86 76.97 275.14 79.21C273.16 77.19 271.19 75.18 269.21 73.16C274.37 72.29 269.98 69.12 270.66 67.18H270.67Z" fill="white"/>
<path d="M261.66 41.67C260.46 48.13 259.09 54.59 261.71 61.03C257.1 56.56 257.08 48.82 261.66 41.67Z" fill="white"/>
<path d="M313.42 86.09C304.87 91.23 300.3 91.11 295.67 85.47C301.69 85.7 307.43 83.53 313.42 86.09Z" fill="white"/>
<path d="M249.59 82.04C253.37 84.48 257.63 85.07 262 85.29C263.84 85.39 266.15 84.96 265.99 88.03C261.5 88.14 257.01 88.24 252.52 88.35C250.37 87 247.94 86 246.47 83.76C246.44 81.25 247.83 81.31 249.58 82.04H249.59Z" fill="white"/>
<path d="M226.97 79.47C232.56 83.51 239.46 85.87 242.94 92.62C243.79 94.27 244.78 95.39 243.46 97.08C237.4 98.31 231.74 95.24 225.7 95.55C219.96 95.84 215.71 90.36 209.87 90.38C208.95 93.44 212.41 94.17 212.4 96.65C208.38 98.26 207.42 93.05 204.23 92.92C203.25 91.94 202.27 90.95 201.29 89.97C200.81 86.12 204.12 85.58 206.32 83.87C208.6 82.1 212.23 82.62 213.57 79.44C218.04 78.75 222.5 78.93 226.97 79.47Z" fill="white"/>
<path d="M249.59 82.04C248.55 82.61 247.51 83.19 246.48 83.76C244.44 83.5 241.62 82.3 242.97 80.53C245.04 77.81 247.57 80.44 249.59 82.04Z" fill="white"/>
</g>
<defs>
<clipPath id="clip0_1864_11702">
<rect width="835.1" height="400" fill="white" transform="translate(0 0.880005)"/>
</clipPath>
</defs>
</svg>
