<svg width="895" height="401" viewBox="0 0 895 401" fill="none" xmlns="http://www.w3.org/2000/svg">
<g clip-path="url(#clip0_1864_11899)">
<path d="M251.75 34.99C220.24 13.81 184.45 5.33002 147.39 2.77002C98.7303 -0.589978 49.9303 1.58002 1.19029 1.47002C-0.309706 5.17002 0.100294 13.76 0.170294 17.55C0.350294 27.41 0.510294 37.28 0.120294 47.12C-0.0897059 52.36 1.67029 53.66 6.76029 53.69C46.3803 53.95 86.0103 52.66 125.63 54.44C149.74 55.52 173.32 59.08 195.83 68.13C218.98 77.44 238.58 91.32 252.12 112.77C261.94 128.33 266.9 145.47 268.96 163.62C271.79 188.52 270.19 213.01 261.98 236.79C255.3 256.11 243.11 271.61 227.27 284.34C226.51 284.72 225.75 285.09 225 285.46L224.61 285.66C198.53 297.9 170.76 301.96 142.27 303.29C120.68 304.3 99.0903 303.49 77.5103 304.11C71.9303 304.27 70.2403 302.86 70.2703 297.04C70.5203 248.1 70.4103 199.16 70.4103 150.22C70.4103 148.73 70.3603 147.24 70.4103 145.75C70.4703 143.7 69.5903 142.56 67.4703 142.65C62.4603 142.84 52.2603 142.06 47.2503 143.08C33.8503 143.11 20.4403 143.21 7.04029 143.03C3.13029 142.98 3.02029 145.06 3.02029 147.97C3.06029 215.15 3.08029 282.32 2.98029 349.5C2.98029 353.51 4.38029 354.57 8.17029 354.5C56.8903 353.62 105.68 356.44 154.34 352.09C181.19 349.69 207.13 343.8 231.65 332.22C246.59 325.17 259.7 315.5 272.37 305.12L290.34 285.06C303.38 267.62 312.38 249.31 317.75 230.24C324.45 211.29 327.19 180.7 323.84 156.63C317.32 109.82 290.75 61.2 251.75 34.99ZM130.49 316.45C126.58 317.23 122.64 317.22 118.69 317.14C122.63 317.22 126.58 317.23 130.49 316.45ZM160.63 313.12C156.87 313.65 153.12 314.18 149.36 314.71L160.63 313.12C161.09 312.19 161.61 311.56 162.43 312.25C161.61 311.56 161.08 312.2 160.63 313.13V313.12ZM167.34 312C165.83 312.21 164.31 312.41 162.8 312.62C164.31 312.41 165.83 312.2 167.34 311.99V312ZM180.74 308.81C179.02 309.17 177.29 309.53 175.56 309.89C177.29 309.53 179.01 309.17 180.74 308.8C181.05 307.99 181.41 307.32 182.08 307.51C181.4 307.32 181.04 307.99 180.74 308.8V308.81ZM894.25 350.22C894.23 357.48 893.6 364.69 891.09 371.63C884.15 390.82 869.54 399.27 850.1 400.69C838.58 401.53 827.53 399.41 817.05 394.36C813.32 392.56 811.22 390.25 811.78 385.76C812.26 381.92 810.62 375.9 812.52 374.58C815.53 372.49 818.77 377.46 822.11 379.07C832.52 384.09 843.39 385.66 854.72 384.2C864.59 382.93 872.14 375.49 874.84 364.98C876.95 356.75 876.02 348.42 876.26 338.47C868.77 345.09 862.02 349.31 853.75 351.11C830.24 356.2 806.96 338.53 806.54 314.57C806.19 294.85 806.51 275.12 806.38 255.4C806.36 252.09 807.33 250.85 810.77 250.7C824.05 250.12 824.04 250.01 824.04 263.25C824.04 279.07 823.85 294.89 824.13 310.7C824.37 324.21 832.43 333.18 845.85 335.7C857.36 337.86 869.61 331.37 874.19 320.69C875.84 316.85 876.25 312.82 876.24 308.68C876.21 291.37 876.35 274.07 876.14 256.76C876.08 252.27 877.23 250.57 882.04 250.66C894.29 250.89 894.29 250.66 894.29 263.14C894.29 292.17 894.33 321.2 894.26 350.23L894.25 350.22ZM668.3 337.51C674.35 344.78 673.76 347.35 664.51 350.17C645.37 356.01 622.38 348.62 622.3 320.75C622.19 282.65 622.33 244.55 622.17 206.45C622.15 202.2 623.5 201.12 627.59 201.16C640.05 201.26 640.05 201.1 640.05 213.3C640.05 230.58 640.05 247.86 640.05 265.14C640.21 265.14 640.36 265.14 640.52 265.14C640.52 283.91 640.47 302.68 640.54 321.45C640.59 335.21 649.38 340.49 661.64 334.05C663.78 332.92 664.97 332.98 666.25 334.87C666.88 335.79 667.58 336.66 668.29 337.52L668.3 337.51ZM707.8 345.2C707.84 348.95 706.96 350.37 702.88 350.36C689.65 350.32 689.65 350.49 689.65 337.47C689.65 310.49 689.74 283.51 689.56 256.53C689.53 252.13 690.37 250.33 695.28 250.44C707.72 250.72 707.73 250.47 707.73 263.15C707.73 275.83 707.73 288.08 707.73 300.55C707.73 315.43 707.63 330.32 707.8 345.2ZM593.58 283.28C593.36 272.66 589.17 263.36 580.45 256.69C562.71 243.14 531.14 245.49 515.59 261.42C510.4 266.74 510.48 267.27 516.98 271.61C518.62 273.25 520.26 274.88 521.9 276.52C524.09 278.72 525.61 278.19 526.57 275.37C529.02 273.39 531.27 271.06 533.97 269.5C543.96 263.71 554.48 262.95 564.87 268.03C573.99 272.5 574.54 281.14 574.57 290.05C574.59 294.88 572.75 295.77 568.58 294.99C559.27 293.25 549.95 291.3 540.4 291.97C529.91 292.71 520.02 295.26 513.68 304.55C506.5 315.06 506.7 326.33 512.35 337.31C518.02 348.32 527.85 352.76 539.92 352.81C551.8 352.86 561.95 348.08 571.23 341.22C574.54 338.77 576.22 339.7 575.88 343.26C575.17 350.63 579.09 351.62 584.92 350.81C586.38 350.61 587.91 350.65 589.38 350.81C592.86 351.19 593.83 349.62 593.81 346.3C593.68 325.29 594.01 304.28 593.58 283.28ZM572.99 322.98V323C565.81 327.19 559.32 332.66 550.85 334.42C546.2 335.38 541.66 335.78 537.14 334.08C531.3 331.89 527.92 326.58 528.16 320.07C528.38 314.08 532.25 309.58 538.62 308C550.08 305.17 561.07 308.92 572.22 310.49C573.75 310.7 574.42 311.77 574.41 313.25C574.38 316.55 575.07 319.97 573 322.98C574.19 322.73 574.98 322.32 575.53 321.83C574.98 322.33 574.19 322.73 573 322.98H572.99ZM790.42 347.11C780.22 354.43 769.13 354.39 758 350.27C747.69 346.45 741.73 338.33 740.83 327.53C740.03 317.93 740.66 308.2 740.66 298.54C740.57 298.54 740.49 298.54 740.4 298.54C740.4 289.24 740.24 279.94 740.48 270.64C740.58 266.77 739.4 265.32 735.44 265.49C732.84 265.6 728.97 267.05 727.79 264.09C726.24 260.19 726.61 255.58 727.65 251.48C728.3 248.93 731.44 249.33 733.53 249.65C739.4 250.53 740.9 248.06 740.52 242.51C740.04 235.48 740.54 228.38 740.35 221.32C740.25 217.59 741.35 215.88 745.39 215.97C762.56 216.38 759.11 213.7 759.46 229.46C759.58 234.67 759.64 239.88 759.42 245.08C759.28 248.43 760.38 249.75 763.84 249.62C769.6 249.4 775.38 249.7 781.14 249.51C784.87 249.39 786.57 250.6 786.48 254.6C786.2 267.06 787.85 265.34 776.02 265.64C770.71 265.77 763.93 263.3 760.51 266.86C757.35 270.14 759.64 276.8 759.59 281.96C759.46 294.79 759.5 307.63 759.56 320.46C759.64 334.63 767.56 338.96 780.52 333.18C786.74 330.41 787.33 338.7 791.06 341.27C793.62 343.03 792.91 345.34 790.43 347.12L790.42 347.11ZM496.33 339.22C495.21 337.02 493.96 334.94 491.77 333.61C488.73 329.64 487.56 333.94 485.66 334.99C472.39 336.62 467.36 333.4 467.1 321.84C466.7 304.36 467.03 286.87 466.93 269.38C466.91 266.43 468.1 265.46 470.92 265.54C475.38 265.68 479.85 265.63 484.32 265.57C495.34 265.41 494.23 267.5 494.38 254.8C494.42 250.97 492.79 249.43 489.02 249.52C483.44 249.66 477.84 249.33 472.27 249.63C468.22 249.85 466.49 248.73 466.82 244.38C467.18 239.57 466.9 234.71 466.9 229.88C466.9 215.1 466.9 215.2 452.28 215.94C448.84 216.11 447.75 217.47 447.8 220.71C447.93 227.78 447.84 234.85 447.84 241.92C447.84 246.94 445.377 249.49 440.45 249.57C438.64 249.61 436.02 248.89 435.35 250.81C433.87 255.06 433.93 259.76 435.16 263.95C436.05 266.96 439.79 265.69 442.16 265.47C447.06 265.03 447.99 267.16 447.94 271.58C447.72 288.69 447.94 305.81 447.86 322.92C447.72 350.36 477.07 359.02 495.52 348.84C501.61 345.48 501.61 343.96 496.34 339.21L496.33 339.22ZM495.71 346.39C496.29 345.95 496.69 345.48 496.99 344.98C496.7 345.48 496.29 345.95 495.71 346.39ZM56.6503 130.7C60.3803 130.73 63.1103 129.51 65.1703 126.54C71.9303 123.6 75.0403 118.69 73.6003 111.22C73.3603 109.96 73.3703 108.65 73.2703 107.36C73.3803 106.26 73.4803 105.16 73.5903 104.06C75.7603 104 77.4303 105.3 79.2603 106.15C99.9703 115.79 120.67 125.45 141.37 135.11C141.52 135.45 141.77 135.68 142.1 135.83C142.04 137.68 142.03 140.28 142.01 141.21C141.777 152.217 147.29 157.06 158.55 155.74C158.48 156.66 158.63 157.66 158.31 158.49C153.2 171.61 148.02 184.71 142.9 197.82C142.43 199.03 141.64 199.56 140.43 199.66C140.79 196.61 141.45 193.68 136.54 193.75C124.46 193.94 112.36 193.68 100.28 193.87C93.4003 193.97 87.2403 200.68 87.2303 207.52C87.2303 217.93 87.3603 228.34 87.1603 238.75C87.0903 242.39 88.2303 243.59 91.9203 243.52C103.07 243.31 114.23 243.45 125.39 243.44C135.75 243.44 140.71 238.62 140.66 228.49C140.64 224.59 140.47 220.7 140.37 216.81C140.96 214.1 141.22 211.26 142.2 208.7C148.45 192.42 154.89 176.22 161.16 159.95C162.26 157.1 163.92 156.11 166.99 156.05C172.88 155.94 178.84 157.08 184.66 155.36C184.66 155.37 184.66 155.38 184.66 155.39C190.79 153.98 195.35 149.84 195.38 145.38C195.45 133.89 195.3 122.39 195.46 110.9C195.51 107.46 194.25 106.43 190.91 106.47C179.04 106.62 167.16 106.28 155.3 106.64C149.44 106.82 145.16 110.24 142.68 115.66C155.82 114.17 169.01 115.37 182.17 115C184.29 114.94 185.18 116.08 185.14 118.1C184.87 130.51 185.77 142.94 184.66 155.35C175.94 155.42 167.22 155.48 158.5 155.55C154.81 155.44 151.11 155.16 147.42 155.27C144.06 155.36 142.84 153.99 142.83 150.67C142.82 146.49 143.15 139.42 142.31 134.95C143.63 128.59 142.57 122.15 142.73 115.76C140.89 121.07 142.76 126.62 141.68 131.98C132.77 127.88 123.79 123.91 114.96 119.64C101.14 112.95 86.8503 107.22 73.4803 99.59C73.4003 97.35 73.3303 95.11 73.2503 92.87C73.3503 85.64 73.5903 78.41 73.4803 71.19C73.4403 68.37 74.6503 65.3 72.4203 62.72C72.0403 62.66 71.6503 62.6 71.2703 62.54C55.0103 62.47 38.7403 62.71 22.5003 62.2C15.7803 61.99 10.7003 63.98 6.58029 69.03C2.34029 70.15 0.820294 72.85 0.870294 77.25C1.06029 93.4 1.05029 109.55 0.870294 125.7C0.820294 129.6 2.04029 130.79 5.93029 130.75C22.8303 130.57 39.7303 130.59 56.6303 130.74L56.6503 130.7ZM130.55 238.35C130.58 241.66 128.93 242.44 126.04 242.39C120.28 242.29 114.52 242.36 108.76 242.36C103.37 242.36 97.9803 242.26 92.5903 242.4C89.5103 242.48 88.2203 241.29 88.2503 238.18C88.3403 227.59 88.3303 217 88.2503 206.41C88.2303 203.35 89.4503 202.12 92.5703 202.15C103.91 202.26 115.24 202.25 126.58 202.15C129.4 202.13 130.58 203.09 130.55 206.02C130.45 216.79 130.45 227.57 130.55 238.34V238.35ZM2.16029 124.08C2.28029 108.85 2.27029 93.62 2.16029 78.39C2.13029 74.77 3.52029 73.45 7.11029 73.52C15.1003 73.69 23.0903 73.57 31.0803 73.57C38.8803 73.57 46.6903 73.68 54.4903 73.52C57.9003 73.45 59.5503 74.26 59.5103 78.13C59.3403 93.54 59.3703 108.96 59.4903 124.38C59.5203 127.71 58.4703 128.96 55.0303 128.93C39.0503 128.8 23.0703 128.8 7.09029 128.93C3.49029 128.96 2.14029 127.7 2.16029 124.08ZM404.33 256.88C402.6 254.55 400.02 253.45 397.5 252.3C385.89 247 373.75 246.92 361.64 249.54C352.11 251.6 343.44 255.65 337.9 264.38C335.83 265.8 335.45 267.2 337.95 268.56C340.32 271.87 343.36 274.42 346.85 276.46C349.87 280.06 350.79 276.41 352.06 274.82C360.07 264.75 374.99 263.29 386.27 266.87C395.64 269.85 398.71 276.34 398.99 289.63C399.1 295.13 396.97 295.78 392.38 294.87C382.57 292.92 372.68 291.04 362.62 292.07C354.63 292.89 346.9 294.72 341.33 301.3C340.95 301.68 340.57 302.06 340.19 302.44C339.37 303.18 338.35 303.78 337.78 304.67C331.27 314.77 331.09 325.5 335.94 336.05C340.65 346.3 349.31 351.69 360.57 352.71C373.95 353.91 385.3 348.74 395.8 341.17C398.56 339.18 399.79 339 400.13 342.98C400.8 350.8 400.95 350.78 408.99 350.79C410.48 350.79 411.98 350.67 413.45 350.81C417.06 351.17 418.4 349.67 418.38 346.03C418.26 325.76 418.79 305.47 418.11 285.22C417.74 274.15 414.8 263.46 404.33 256.88ZM338.63 265.06C338.51 264.95 338.39 264.84 338.27 264.72C338.39 264.83 338.51 264.95 338.63 265.06ZM334.48 321.11C334.52 319.2 334.76 317.29 335.2 315.38C334.76 317.28 334.52 319.2 334.48 321.11ZM396.75 297.31C399.52 297.73 401.01 296.77 400.89 293.73C400.85 292.86 400.85 291.98 400.86 291.11C400.86 291.99 400.86 292.86 400.89 293.73C401.01 296.77 399.52 297.73 396.75 297.31C391.78 296.55 386.81 295.77 381.83 295.03C386.81 295.78 391.78 296.55 396.75 297.31ZM338.22 336.29C337.58 335.05 337.02 333.79 336.54 332.54C337.02 333.8 337.58 335.05 338.22 336.29ZM394.37 339.88C392.85 340.95 391.31 341.96 389.76 342.9C391.32 341.95 392.86 340.94 394.37 339.88C394.61 339.71 394.85 339.51 395.09 339.31C394.85 339.52 394.61 339.71 394.37 339.88ZM398.1 322.53C389.64 330.05 380.24 335.94 368.37 336.09C358.54 336.22 352.18 330.73 351.75 321.92C351.3 312.86 356.72 307.17 366.74 306.26C368.58 306.09 370.45 306.24 372.31 306.24C380.52 306.32 388.51 308.04 396.53 309.54C400.28 310.24 401.61 319.41 398.1 322.53ZM400.39 336.47C399.86 336.26 399.35 336.28 398.86 336.44C399.35 336.29 399.86 336.27 400.39 336.47ZM401.99 344.9C401.95 344.47 401.94 344.01 401.95 343.51C401.95 343.21 401.98 342.89 402.01 342.57C401.98 342.9 401.95 343.21 401.95 343.51C401.95 344.01 401.95 344.47 401.99 344.9ZM402.19 346.16C402.38 346.9 402.68 347.49 403.11 347.93C402.68 347.49 402.38 346.89 402.19 346.16ZM411.37 348.8C410.73 348.72 410.07 348.67 409.42 348.67C410.08 348.67 410.73 348.72 411.37 348.8C411.86 348.86 412.3 348.89 412.7 348.89C412.29 348.89 411.85 348.86 411.37 348.8ZM710.61 221.46C710.47 227.77 704.79 233.03 698.45 232.73C691.86 232.42 686.84 227.08 687.11 220.68C687.37 214.32 692.98 209.08 699.25 209.32C705.67 209.56 710.76 215.01 710.61 221.47V221.46Z" fill="white"/>
</g>
<defs>
<clipPath id="clip0_1864_11899">
<rect width="894.23" height="400" fill="white" transform="translate(0.0703125 0.880005)"/>
</clipPath>
</defs>
</svg>
