<svg width="850" height="401" viewBox="0 0 850 401" fill="none" xmlns="http://www.w3.org/2000/svg">
<g clip-path="url(#clip0_1864_11993)">
<path d="M302.82 215.6C302.78 250.87 302.74 286.15 302.7 321.42C303.75 324.2 303.61 327 302.8 329.8C302.8 340.9 302.8 352 302.81 363.09C303.01 367.6 303.51 372.12 303.31 376.61C303.12 380.81 304.22 382.52 308.79 383.15C330.03 386.09 348.04 381.68 360.15 362.36C360.39 360.81 360.15 359 362.3 358.51C368.13 358.36 373.95 358.18 379.78 358.07C394.74 357.79 384.25 346.53 387.03 340.96C388.68 337.66 386.44 334.82 383.16 333.51C381.77 332.95 380.02 333.26 378.43 333.23C373.66 333.15 368.88 333.11 364.11 333.05C364.14 331.78 364.17 330.5 364.2 329.23C364.2 326.77 364.22 324.32 364.23 321.86C364.02 316 363.81 310.14 363.6 304.28C362.18 304.36 360.76 304.44 359.34 304.52C359.25 310.14 359.16 315.77 359.06 321.39C360.11 324.2 359.97 327.03 359.16 329.86C359.37 341.55 359.31 353.18 352.26 363.37C345.61 375.57 323.61 383.69 310.54 378.88C308.46 378.11 307.64 376.99 307.72 374.82C307.86 371.11 307.81 367.39 307.84 363.68C307.84 352.19 307.84 340.69 307.84 329.2C307.85 326.76 307.87 324.32 307.88 321.89C307.36 286.49 307.81 251.1 308.82 215.72C308.59 213.09 308.16 210.45 308.16 207.82C308.23 148.65 308.52 89.48 308.23 30.31C308.19 22.84 311.04 21.39 317.21 21.14C337.99 20.29 352 31.12 357.07 52.97C358.68 59.91 359.57 67.18 359.6 74.3C359.82 119.81 359.72 165.33 359.69 210.85C359.69 212.43 359.35 214.01 359.17 215.6C359.15 221.87 359.13 228.14 359.11 234.41C348.16 234.48 337.21 234.53 326.25 234.63C323.11 234.66 321.24 233.82 321.53 239.46C322.54 259.37 323.47 279.41 321.06 299.3C320.48 304.11 322.52 304.04 325.71 304.08C336.92 304.21 348.13 304.38 359.33 304.53C360.75 304.45 362.17 304.37 363.59 304.29C370.48 304.31 377.44 303.01 384.21 305.11C387.13 306.01 388.48 304.91 388.12 302.19C387.45 297.18 390.2 291.75 386.33 287.16C386.16 286.96 385.23 287.14 384.86 287.42C378.38 292.35 371.05 289.24 364.11 289.66C364.28 284.82 363.48 279.9 365.24 275.18C367.62 274.45 367.34 279.39 370.12 277.55C372.03 276.28 371.09 274.12 371.18 272.36C371.33 269.43 370.85 266.42 371.3 263.55C372.19 257.95 369.41 257.09 364.89 257.95C364.97 262.1 362.57 261.83 359.94 261.16C362.57 261.84 364.97 262.1 364.89 257.95C364.53 254.45 364.18 250.96 363.83 247.47C371.23 247.63 378.88 245.39 386.11 250.63C386.74 243.72 387.12 237.77 385.81 231.16C378.8 237.34 370.99 233.66 363.71 234.45C363.87 227.96 364.03 221.47 364.19 214.99C364.16 192.75 364.57 170.49 363.99 148.26C363.22 118.65 366.55 88.98 362.38 59.43C358.66 33.08 343.8 13.91 312.08 17.14C305.99 17.76 303.17 19.66 303.2 26.73C303.51 86.76 303.39 146.79 303.36 206.82C303.36 209.74 303.02 212.66 302.83 215.59L302.82 215.6ZM375.72 337.47C377.76 338.04 381.3 336.29 381.31 339.93C381.31 343.58 377.79 342.23 375.75 342.21C373.73 342.18 370.2 343.65 370.18 339.97C370.16 336.3 373.71 338.08 375.72 337.48V337.47ZM376.04 347.54C379.02 347.68 382.63 347.17 382.46 350.18C382.23 354.16 378.2 354.12 375.02 354.16C372.67 354.18 369.77 354.58 369.92 350.86C370.13 345.81 374.33 348.5 376.03 347.54H376.04ZM341.69 290.15C334.66 289.53 339.01 283.52 338.13 280.03C337.37 277 337.96 274.22 342.42 274.52C347.96 274.89 353.53 274.87 359.09 275.02C359.05 279.83 359.01 284.63 358.98 289.44C353.3 291.34 347.38 290.64 341.7 290.14L341.69 290.15ZM359.41 261.03C355.29 262.47 351.02 261.67 346.83 261.74C338.63 261.86 335.5 257.18 338.09 249.48C338.96 246.89 340.76 247.29 342.47 247.3C348.01 247.35 353.55 247.56 359.08 247.7C359.19 252.14 359.3 256.59 359.4 261.03H359.41Z" fill="white"/>
<path d="M121.9 343.19C124.85 339.68 122.14 334.26 117.07 333.55C111.34 332.76 104.51 331.25 99.7899 334.27C95.9399 336.74 98.8399 343.22 98.3399 347.89C98.1099 350.01 98.3599 352.19 98.1199 354.31C97.9499 355.86 96.9299 357.61 99.4699 357.95C101.81 358.26 103.57 357.65 104.15 354.84C104.66 352.34 102.4 348.29 107.15 347.85C111.39 347.46 113.32 350.67 114.61 354C116.22 358.16 119 358.93 123.7 357.27C119.61 352.56 117.04 348.97 121.9 343.19ZM110.37 343.95C108.36 343.24 104.76 345.57 104.34 341.16C103.93 336.82 107.24 337.57 109.75 337.57C112.55 337.57 116.64 336.68 117.02 340.37C117.44 344.46 113.34 343.78 110.37 343.95Z" fill="white"/>
<path d="M19.3899 347.13C19.9399 350.65 23.6999 348.12 25.6699 351.14C23.5099 352.08 21.6999 353.27 19.7499 353.63C14.9699 354.52 8.29987 349.89 8.47987 345.82C8.74987 339.71 13.1399 338.09 18.2799 337.52C20.8299 337.24 23.1699 338.21 25.0199 339.62C27.8399 341.78 28.7199 339.88 29.7299 337.94C31.3099 334.89 28.5599 335.39 27.0799 334.59C24.0699 332.97 20.8699 333.43 17.7099 333.21C10.6199 332.71 5.54987 335.99 3.44987 342.33C1.62987 347.81 3.78987 352.88 8.99987 356.02C13.9799 359.02 26.8699 358.8 29.8099 355.7C30.4599 355.02 30.7099 353.85 30.8999 352.86C32.2799 345.53 28.8899 343.83 19.4099 347.14L19.3899 347.13Z" fill="white"/>
<path d="M195.93 348.62C195.93 343.33 195.94 340.4 195.93 337.47C195.92 335.55 195.84 333.5 193.23 333.46C190.65 333.43 190.52 335.41 190.41 337.37C190.07 343.46 190.99 349.57 189.82 355.67C189.23 358.78 192.06 357.91 193.66 358.01C195.63 358.13 197.33 358.05 196.52 354.95C195.79 352.18 195.97 349.17 195.93 348.62Z" fill="white"/>
<path d="M841.45 337.86C841.44 335.58 841.1 333.34 838.12 333.47C835.46 333.59 835.76 335.79 835.59 337.65C835.3 340.98 836.35 344.44 834.48 348.73C830.21 344.05 826.25 339.91 822.55 335.54C820.95 333.65 819.16 332.91 816.93 333.44C813.98 334.15 814.73 336.71 814.7 338.72C814.61 343.53 814.58 348.35 814.69 353.17C814.73 354.88 812.33 357.76 816.37 357.93C820.42 358.1 819.08 355.01 819.25 352.8C819.49 349.57 818.39 346.12 820.36 342.61C825.64 346.42 829.93 350.4 833.28 355.21C834.93 357.58 836.71 358.6 839.28 357.76C841.95 356.89 841.43 354.38 841.45 352.31C841.49 347.49 841.47 342.68 841.45 337.86Z" fill="white"/>
<path d="M745.45 353.72C743.49 354.36 741.18 354.33 739.09 354.09C736.54 353.79 732.42 355.8 732.26 351.02C732.09 346.11 736.27 348.1 738.82 347.63C740.72 347.28 743.51 348.49 743.67 345.11C743.84 341.59 740.98 342.75 739.09 342.32C736.77 341.78 732.56 343.99 732.52 340.19C732.47 335.59 737.03 338.29 739.49 337.6C740.48 337.32 741.68 337.79 742.68 337.53C744.52 337.05 748.06 340.49 748.02 335.77C747.98 331.96 744.48 333.64 742.38 333.29C741.34 333.11 740.24 333.26 739.17 333.26C730.483 333.253 726.14 337.673 726.14 346.52C726.14 354.227 730.153 358.14 738.18 358.26C740.59 358.26 743.09 357.86 745.38 358.37C747.75 358.9 748.91 358.8 748.87 356.1C748.83 353.64 748.06 352.89 745.45 353.74V353.72Z" fill="white"/>
<path d="M649.58 345.58C648.55 345.29 647.05 345.69 647.27 346.94C648.07 351.34 652.28 347.98 654.28 349.81C654.45 349.97 654.48 350.28 654.88 351.31C652.66 352.08 650.73 353.08 648.69 353.39C644.12 354.1 640.39 352.01 637.38 348.85C635.54 346.91 635.64 344.54 637.52 342.42C640.51 339.06 643.98 336.74 648.72 337.63C650.25 337.92 651.78 338.63 653.13 339.43C655.2 340.65 656.44 340.33 657.52 338.12C658.96 335.18 656.76 335.42 655.07 334.63C650.44 332.48 645.54 332.7 640.95 333.67C636.1 334.69 632.57 338.33 631.07 343.13C629.54 348.06 632.13 351.9 635.69 355.02C639.76 358.59 651.58 359.17 656.4 356.52C660.33 354.35 659.13 350.64 658.44 348.03C657.16 343.18 652.58 346.46 649.57 345.59L649.58 345.58Z" fill="white"/>
<path d="M638.74 298.67C660.99 288.39 662.96 260.69 647.92 245.75C633.18 231.12 606.04 231.7 591.06 239.8C588.31 241.29 586.53 244.46 582.94 244.51C581.49 235.01 582.34 225.47 582.41 215.94C582.12 215.21 581.58 214.49 581.57 213.76C581.51 152.18 581.53 90.61 581.42 29.03C581.42 24.99 583.13 24.28 586.7 24.08C591.89 23.79 598.99 26.84 601.77 22.65C604.25 18.92 602.41 12.28 602.39 6.93001C602.39 5.07 602.14 3.22 602.01 1.36C576.82 1.34 551.63 1.39 526.45 1.22C523.78 1.2 518.55 1.31 518.55 1.31C517.48 1.31 516.38 1.46 515.3 1.46C515.3 1.46 515.69 5.3 515.72 8.05C515.88 23.45 515.77 23.56 530.74 23.81C534.48 23.87 536.39 24.2 536.37 28.88C536.18 78.7 536.22 128.52 536.32 178.34C536.32 182.28 535.57 184.03 531.11 183.91C519.33 183.61 507.53 183.63 495.74 183.91C491.6 184.01 490.96 182.42 490.97 178.78C491.07 128.69 491.06 78.6 490.98 28.51C490.98 25.29 491.51 23.95 495.26 23.76C508.5 23.09 508.51 22.89 508.47 9.60001C508.47 6.93001 508.25 4.27 508.13 1.6C494.29 1.41 480.45 1.22 466.61 1.02C453.82 1.14 441.03 1.26 428.23 1.39C428.11 7.27001 428.19 13.17 427.8 19.04C427.54 22.96 428.92 24.34 432.76 23.92C435.14 23.66 437.62 24.16 439.98 23.82C446.34 22.88 448.6 24.8 448.58 31.8C448.4 92.84 448.64 153.89 448.75 214.93L449.22 234.47H415.23C415.39 227.96 415.54 221.44 415.7 214.93C414.7 175.83 417.85 136.64 413.69 97.62C411.18 74.06 405.92 51.15 393.31 30.6C383.83 15.15 371.22 3.85 352.58 0.880005C336.56 0.910005 320.53 0.940005 304.51 0.970005L244.88 1.44C244.8 7.32 244.98 13.21 244.54 19.06C244.18 23.88 245.53 26.1 250.67 25.31C252.76 24.99 254.99 25.54 257.07 25.2C263.6 24.16 265.48 26.42 265.44 33.27C265.13 91.57 265.27 149.86 265.22 208.16C265.22 210.75 266.05 213.52 264.3 215.94C264.25 230.64 264.2 245.33 264.15 260.03C236.33 260.64 240.92 265.6 242.05 238.3C242.15 235.92 242.43 234.73 239.91 234.69C233.98 234.6 228.05 234.66 221.32 234.66C226.45 245.05 224.09 254.53 224.4 263.75C224.76 274.46 226.71 285.86 223.79 295.71C220.8 305.78 225.21 304.26 231.03 304.08C232.91 304.02 234.79 304 236.66 304.08C241.09 304.28 243.16 304.14 241.78 297.96C237.07 277 239.42 274.55 260.77 274.61C262.37 274.61 263.98 274.74 265.58 274.81C265.44 290.5 265.3 306.19 265.15 321.88C265.16 324.31 265.17 326.75 265.18 329.18C265.26 331.21 266.14 332.77 267.91 333.81C265.71 341.55 266.99 349.42 267.12 357.24C269.95 357.28 270.61 355.77 270.45 353.17C270.24 349.64 270.4 346.09 270.4 341.06C274.01 347.36 276.76 352.16 279.82 357.51C283.14 352.24 285.87 347.92 289.55 342.08C289.55 347.42 289.53 350.82 289.55 354.23C289.56 355.91 289.79 357.55 291.98 357.62C294.19 357.7 294.5 356.1 294.51 354.4C294.53 348.79 294.54 343.18 294.52 337.57C294.52 335.69 294.66 333.71 291.91 333.51C289.83 333.36 288.59 333.95 287.58 336.05C286.21 338.89 284.05 341.35 282.36 344.06C280.16 347.6 278.66 346.99 276.9 343.61C274.95 339.87 272.58 336.34 270.39 332.72L270.26 329.75C269.48 326.96 269.36 324.18 270.35 321.42C270.32 305.96 270.3 290.49 270.27 275.03C280.7 274.12 281.06 274.13 280.55 284.64C280.3 289.82 283.41 295.84 277.63 300.24C276.52 301.08 276.96 303.35 279.12 303.81C280.15 304.03 281.25 304.03 282.31 304.02C286.86 303.99 292.12 305.35 295.79 303.54C301.21 300.85 295.53 295.84 295.87 291.66C297.33 273.61 294.45 255.4 297.47 237.37C297.89 234.87 296.56 234.69 294.92 234.67C289.13 234.61 283.33 234.65 275.66 234.65C281.61 240.2 280.67 245.88 280.68 251.35C280.693 257.837 277.22 260.773 270.26 260.16C270.25 245.29 270.23 230.42 270.22 215.55C270.05 212.62 269.72 209.7 269.72 206.77C269.69 147.54 269.56 88.31 269.88 29.09C269.92 21.99 268.17 19.21 261.12 20.54C260.34 20.69 259.51 20.56 258.71 20.56C249.76 20.56 246.87 16.26 249.37 7.29C250.11 4.64 251.75 4.85 253.58 4.86C286.27 5.17 318.98 5.04 351.65 6.03C364.16 6.41001 374.2 13.57 382.19 23.17C397.26 41.3 403.21 63.11 407.23 85.68C410.34 103.15 411.29 120.76 411.14 138.47C410.92 164.17 410.78 189.88 410.6 215.58L410.63 234.26C407.9 235.1 400.73 233.55 407.8 239.64C409.9 241.45 409.03 244.16 409.04 246.48C409.11 261.18 409.15 275.89 409.02 290.59C408.99 293.95 409.86 297.07 405.73 300.07C402.07 302.73 406.75 303.75 409.15 304.39C407.92 310.15 406.69 315.91 405.45 321.67C405.01 324.66 404.55 327.64 402.63 330.14C399.97 342.33 394.44 353.23 387.64 363.57C372.21 387.06 350.42 397.71 322.37 396.96C300.66 396.38 278.93 396.54 257.21 397.01C250.55 397.15 250.75 393.98 250.73 389.28C250.71 384.75 250.83 382.03 256.9 382.2C269.53 382.57 269.52 382.15 269.66 369.42C269.68 367.3 270.01 365.19 270.2 363.07C269.89 361.05 270.21 358.63 267.18 358.35C264.61 359.42 265.72 361.86 265.18 363.69C265.21 366.9 265.02 370.13 265.31 373.32C265.64 376.93 264.14 377.83 260.74 377.87C256.04 377.93 249.41 375.59 247.11 378.99C244.73 382.51 246.31 388.74 246.23 393.78C246.2 395.91 246.37 398.05 246.45 400.18C269.43 400.22 292.42 400.21 315.4 400.39C317.91 400.41 337.35 400.53 337.9 400.48C355.41 398.9 369.78 391.01 381.69 378.47C386.59 373.31 390.88 367.56 395.44 362.08C399.88 351.23 404.31 340.38 408.75 329.53C409.04 326.4 409.27 323.24 411.84 320.93C410.74 315.23 414.34 309.97 413.39 304.28C416.05 304.21 418.7 304.18 421.35 304.05C425.78 303.83 431.29 305.73 425.58 297.34C422.6 292.96 424.78 284.97 424.92 278.61C424.98 275.84 427.54 276.71 429.24 276.45C438.11 275.09 445.27 277.08 448.73 286.35C446.77 297.89 448.89 309.56 447.61 321.13C449.44 324.15 449.31 327.18 447.65 330.21C447.69 341.04 447.73 351.87 447.77 362.71C449.7 366.21 448.24 370 448.73 373.62C449.27 377.63 447.24 378.4 443.65 378.59C438.5 378.85 431.5 375.9 428.69 380.09C426.2 383.8 427.9 390.34 427.81 395.63C427.78 397.22 427.97 398.8 428.06 400.39C455.95 400.9 483.84 401.15 511.73 400.27C511.79 395.77 511.38 391.2 512.01 386.78C513.07 379.31 510.06 377.52 502.97 377.85C490.63 378.43 490.59 378.01 491.32 365.63C491.38 364.64 491.92 363.67 492.23 362.69C492.27 351.86 492.31 341.03 492.35 330.2C490.72 327.17 490.57 324.16 492.39 321.15C491.92 297.64 491.53 274.13 492.59 250.62C499.77 247.7 507.31 249.23 514.69 248.89C516.91 248.79 518.28 249.53 518.25 252.03C518.06 267.52 518.43 283.04 517.4 298.47C517.1 302.98 517.15 304.25 521.52 304.09C526.86 303.89 532.2 303.83 537.55 303.7C536.42 301.53 535.73 299.3 535.31 297.03C535.73 299.29 536.42 301.52 537.55 303.7C537.55 309.66 537.55 315.63 537.55 321.59C537.57 324.23 537.59 326.87 537.61 329.51V363.33C537.68 367.07 537.61 370.82 537.86 374.54C538.09 377.99 536.77 379.05 533.29 379.19C528.37 379.39 521.66 376.6 519 380.54C516.63 384.06 518.32 390.33 518.27 395.39C518.26 396.99 518.42 398.59 518.51 400.18C546.82 400.18 575.12 400.18 603.43 400.18C603.52 396.19 603.66 392.21 603.67 388.22C603.69 381.213 600.26 377.71 593.38 377.71C584.84 377.71 580.89 373.423 581.53 364.85C581.59 364.11 582.09 363.41 582.39 362.69C582.39 351.83 582.39 340.96 582.4 330.1C581.01 327.09 580.8 324.1 582.51 321.14C582.11 311.57 581.72 301.99 582.74 292.43C600.14 305.77 619.09 307.65 638.68 298.6L638.74 298.67ZM599.53 251.97C609.56 245.62 620.39 246.12 630.56 251.21C639.61 255.74 643.44 265.74 641.1 274.98C639.23 282.36 629.14 289.65 620.35 289.95C618.75 290 617.14 289.95 614.62 289.95C609.15 290.79 603.25 289.3 598.17 285.5C585.46 275.98 586.02 260.51 599.52 251.97H599.53ZM453.85 249.28C458.44 248.6 460.95 251.01 461.28 255.18C461.67 260.12 458.78 262.86 453.92 263.54C453.51 263.77 453.09 263.96 452.67 264.1C453.09 263.96 453.5 263.77 453.92 263.54C453.9 258.78 453.87 254.03 453.85 249.27V249.28ZM452.05 264.29C451.42 264.43 450.78 264.46 450.12 264.35C450.77 264.46 451.41 264.44 452.05 264.29ZM448.8 263.93C444.29 264.04 439.79 264.22 435.28 264.24C424.7 264.28 422.45 261.12 424.68 250.37C425.3 247.38 426.98 247.26 429.18 247.28C435.82 247.34 442.46 247.41 449.1 247.48C449 252.97 448.9 258.45 448.8 263.94V263.93ZM501.33 234.83C497.32 235.06 495.87 231.39 492.56 231.37C491.77 226.27 491.89 221.16 492.41 216.04C490.08 206.07 490.12 206.01 499.67 206C509.3 205.99 518.97 206.52 528.55 205.83C536.24 205.28 539.63 207.35 537.67 215.33C537.72 221.67 537.76 228.02 537.81 234.36C525.65 234.44 513.46 234.13 501.33 234.83ZM534.79 291.58C534.83 292.5 534.88 293.42 534.97 294.34C534.88 293.42 534.82 292.51 534.79 291.58ZM576.64 303.13C576.18 309.21 576.42 315.34 576.36 321.45C577.33 324.22 577.21 326.99 576.45 329.78C576.45 340.9 576.46 352.03 576.47 363.15C576.87 369.24 575.21 376.83 578.25 381.01C581.25 385.13 589.22 382.29 594.99 382.36C601.38 382.43 598.79 386.96 598.93 389.76C599.08 392.74 600.8 396.96 594.64 396.91C572.12 396.71 549.59 396.74 527.07 396.89C521.4 396.93 523.07 393 523.08 390.21C523.09 387.46 521.34 383.63 527 383.48C532.1 383.34 539.11 386.24 541.84 381.73C544.23 377.78 542.47 371.32 542.56 365.97C542.57 365.17 542.64 364.37 542.68 363.56C542.8 361.76 542.92 359.95 543.04 358.15C546.28 358.08 549.81 358.57 547.82 353.15C547.19 351.43 546.96 348.54 549.9 347.94C552.17 347.47 554.74 346.94 556.54 349.25C558.01 351.13 559.71 352.92 560.74 355.03C562.44 358.51 564.7 358.52 568.37 357.11C564.78 352.54 561.96 348.92 566.85 343.39C570.5 339.26 566.6 333.59 560.66 333.36C554.8 333.13 548.93 333.25 543.06 333.21C542.94 331.94 542.82 330.68 542.71 329.41C542.71 326.87 542.73 324.32 542.74 321.78C542.66 297.58 542.59 273.38 542.51 249.17C547.82 249.04 553.1 248.23 558.38 250.01C562.5 251.4 562.02 247.84 561.76 245.73C561.17 241.02 563.84 235.86 559.88 231.66C559.72 231.49 558.77 231.79 558.44 232.12C553.66 236.79 547.79 233.93 542.42 234.47C542.51 228.04 542.6 221.61 542.68 215.18C542.65 213.3 542.31 211.37 542.64 209.56C543.89 202.59 540.8 201.04 534.29 201.39C523.86 201.95 513.38 201.54 502.92 201.54C492.853 201.54 487.323 206.227 486.33 215.6C486.29 250.9 486.26 286.19 486.22 321.49C487.23 324.25 487.09 327.02 486.32 329.81C486.32 340.94 486.32 352.06 486.32 363.19C486.5 367.98 487.06 372.8 486.76 377.57C486.49 382.01 488.2 383.25 492.27 382.81C494.66 382.55 497.13 383.04 499.5 382.71C505.54 381.86 507.75 383.75 507.56 390.31C507.39 395.95 506 397.37 500.41 397.28C479.5 396.93 458.58 396.96 437.67 397.27C432.51 397.35 431.88 395.07 432.37 391.08C432.8 387.56 430.51 383.05 437.59 382.9C453.03 382.59 453.01 382.23 453.34 367.15C453.37 365.83 453.67 364.52 453.84 363.2C454.02 361.54 454.21 359.88 454.39 358.22C460.81 358.27 467.28 357.85 473.62 358.59C476.42 358.92 476.83 358.45 476.79 356.2C476.75 354.17 476.76 352.67 473.67 353.78C471.27 354.64 468.38 354.29 465.72 354.19C463.51 354.11 460.44 355.08 460.12 351.4C459.75 347.2 462.95 347.91 465.56 347.56C467.79 347.26 471.79 349.29 471.48 344.68C471.23 340.99 467.74 342.93 465.67 342.45C464.91 342.27 464.07 342.42 463.27 342.39C461.53 342.33 460.03 341.95 460.24 339.72C460.4 338.01 461.72 337.63 463.09 337.62C466.57 337.6 470.13 337.25 473.5 337.9C476.16 338.41 476.82 337.84 476.82 335.42C476.82 333.01 476.04 332.56 473.44 332.75C467.05 333.22 460.6 332.98 454.17 333.02C454.06 331.95 453.95 330.88 453.84 329.82C453.1 327.04 452.96 324.27 453.94 321.52C453.99 315.6 454.04 309.68 454.1 303.75C461.03 303.87 467.96 304.06 474.89 304.07C476.56 304.07 478.9 304.98 479.64 302.45C480.36 300 477.98 300 476.79 298.85C470.35 292.61 466.43 284.43 461.2 277.24C459.58 275.02 461.59 274.58 462.8 273.84C475.73 265.91 478.91 260.57 476.57 250.4C473.78 238.29 464.09 235.87 453.8 234.36C453.8 228.12 453.81 221.87 453.82 215.63C453.65 212.7 453.33 209.78 453.33 206.85C453.3 147.35 453.18 87.85 453.48 28.35C453.52 21.08 451.79 17.93 444.31 19.24C442.75 19.51 441.1 19.32 439.49 19.27C435.99 19.17 431.47 20.64 432.34 14.18C432.95 9.64001 431.75 5.02 439.62 5.29C458.9 5.97 478.23 5.84 497.53 5.33C504.13 5.16 503.73 8.29 504.02 12.95C504.37 18.51 502.25 19.52 497.24 19.39C486.4 19.12 486.39 19.39 486.39 30.47C486.39 80.32 486.51 130.17 486.24 180.02C486.21 186.37 487.23 188.87 494.32 188.54C507.96 187.9 521.67 188.16 535.33 188.46C539.92 188.56 541.08 187.19 541.07 182.67C540.91 130.14 540.92 77.61 541.06 25.08C541.07 20.65 540.03 18.59 535.33 19.23C533.22 19.51 531.05 19.28 528.9 19.28C520.65 19.26 518.06 15.5 520.38 7.56C521.26 4.54 523.35 4.96 525.37 4.96C547.89 4.92 570.42 5.10001 592.94 4.83C599.41 4.75001 597.87 8.94001 597.9 12.35C597.92 15.78 599.43 20.12 592.98 19.91C587.99 19.75 581.39 17.54 578.31 20.93C574.72 24.88 577.1 31.67 577.09 37.21C576.99 93.76 577.03 150.31 577 206.87C577 209.8 576.68 212.72 576.51 215.65C576.53 228.28 576.55 240.92 576.57 253.55C572.22 265.02 571.95 276.25 578.59 287.06C574.59 292.02 577.08 297.81 576.67 303.19L576.64 303.13ZM547.86 341.01C547.69 335.41 552.36 337.82 555.02 337.61C557.98 337.38 562.69 336.5 562.53 340.98C562.37 345.6 557.56 343.38 554.57 344.05C552.37 343.03 548.01 345.98 547.86 341.01Z" fill="white"/>
<path d="M58.1499 236.52C39.9299 232.5 21.5899 235.71 1.79993 234.47C4.81993 239.09 4.84993 242.22 4.82993 245.43C4.76993 260.95 4.82993 276.48 4.77993 292C4.77993 294.11 5.12993 296.61 4.16993 298.26C1.08993 303.56 3.88993 304.12 8.18993 304.1C19.4399 304.06 30.6899 304.34 41.9299 304.03C60.3199 303.52 73.8399 297.33 78.5899 279.99C82.7999 264.66 75.6899 240.39 58.1499 236.53V236.52ZM59.6699 284.57C57.2899 287.82 54.1099 289.77 50.2499 289.89C42.2199 290.14 34.1799 289.86 26.1499 290.03C22.1099 290.12 21.1299 288.1 21.2099 284.57C21.3399 278.95 21.2399 273.33 21.2399 267.71C21.2399 267.44 21.2099 267.17 21.2399 266.91C21.8599 260.6 18.2199 251.41 22.7599 248.59C29.0999 244.66 38.4599 246.4 46.2699 247.76C62.9299 250.68 69.8999 270.64 59.6699 284.57Z" fill="white"/>
<path d="M162.23 287.12C162.12 287.04 161.77 287.3 161.52 287.39C147.32 293.02 132.53 288.51 118.08 289.9C114.64 290.23 113.83 287.91 114.39 285.3C115.15 281.77 111.82 275.32 116.84 275.15C125.76 274.85 135.28 271.63 143.84 277.03C146.41 278.65 147.3 277.55 147.37 275.24C147.52 270.16 147.46 265.07 147.41 259.98C147.39 258.09 145.96 256.29 144.55 257.73C137.09 265.37 127.82 260.19 119.55 261.68C115.16 262.47 114.49 259.98 114.17 256.09C113.63 249.44 115.1 245.93 122.71 247.16C126.36 247.76 130.21 247.03 133.94 247.31C143.29 248.01 152.99 245.01 162.2 250.25C163.25 243.94 163.13 237.92 161.61 231.43C159.07 235.44 155.46 234.57 152.16 234.58C135.55 234.6 118.94 234.61 102.33 234.58C98.82 234.58 97.54 234.35 97.83 239.61C98.86 258.56 99.42 277.7 97.81 296.57C97.14 304.43 99.18 304.03 104.69 304.16C123.64 304.61 142.62 302.84 161.56 305.09C166.34 305.66 164.58 301.31 164.29 299.46C163.65 295.34 167.05 290.47 162.24 287.1L162.23 287.12Z" fill="white"/>
<path d="M842.94 291.12C842.91 276.92 843.06 262.72 842.85 248.53C842.78 243.77 842.96 239.27 847.46 234.63C838.72 234.99 831.47 233.72 823.9 235.51C829.47 243.04 826.52 250.91 826.91 258.36C827.02 260.4 824.92 260.55 823.3 260.55C812.58 260.58 801.86 260.57 791.14 260.57C789.18 260.57 787.06 260.43 787.3 257.78C787.99 250.39 784.79 242.53 790.48 235.26C782.87 234.17 775.83 234.47 767.31 235.08C772.13 238.8 771.26 243.14 771.27 247.24C771.31 262.24 770.5 277.31 771.78 292.2C772.15 296.5 763.82 300.75 771.08 303.68C775.46 305.45 781.13 304.05 786.22 304.07C786.75 304.07 787.29 304.04 787.82 303.98C790.46 303.68 791.16 301.84 789.76 300.1C784.17 293.16 788.51 285.24 787.27 277.9C786.76 274.84 789.17 274.64 791.47 274.64C801.92 274.66 812.37 274.64 822.82 274.66C824.68 274.66 826.93 274.54 826.97 277.22C827.07 283.91 829.31 291.93 826.43 297C821.26 306.09 826.97 303.93 831.56 304.08C833.97 304.16 836.39 304.19 838.79 304.08C843.1 303.86 850.36 305.67 843.32 297.4C842.23 296.11 842.9 293.26 842.89 291.12H842.94Z" fill="white"/>
<path d="M747.82 267.52C744.9 267.25 741.92 267.6 738.99 267.39C730.07 266.75 720.92 269.21 711.96 265.29C710.85 271.08 711.01 276.75 712.02 284.4C716.27 276.47 722.4 278.2 727.99 278.19C730.41 278.19 733.71 277.11 733.78 281.54C733.83 285.08 734.22 288.43 729.52 289.74C722.31 291.75 715.08 292.74 707.6 292.3C690.46 291.31 680.17 271.89 689.04 257.13C697.26 243.45 725.45 243.17 738.14 257.67C740.4 252.08 742.22 247.12 744.41 242.34C745.57 239.81 745.81 238.61 742.46 238.1C729.33 236.12 716.27 233.33 702.87 234.63C689.23 235.96 677.88 241.51 673.1 255.04C668.5 268.07 668.57 281.14 678.81 292.22C694.73 309.44 730.63 305.83 746.72 295.73C748.98 294.31 748.88 292.74 747.89 290.34C745.29 284.08 741.74 277.72 749.96 272.25C752.53 270.54 751.07 267.81 747.82 267.51V267.52Z" fill="white"/>
</g>
<defs>
<clipPath id="clip0_1864_11993">
<rect width="849.18" height="400" fill="white" transform="translate(0.169922 0.880005)"/>
</clipPath>
</defs>
</svg>
