<svg width="801" height="276" viewBox="0 0 801 276" fill="none" xmlns="http://www.w3.org/2000/svg">
<g clip-path="url(#clip0_1864_12006)">
<path d="M131.1 53.4501C131.1 39.1401 131.43 26.7401 130.99 14.3601C130.68 5.63011 133.68 1.46011 142.87 2.48011C147.1 2.95011 151.44 2.68011 155.72 2.53011C161.8 2.32011 164.03 5.25011 163.99 11.1401C163.68 51.4001 165.25 91.7601 162.86 131.88C160.11 178.15 121.41 208.61 74.2899 205.02C28.5599 201.54 -2.12008 165.62 0.299922 118.34C3.75992 50.7101 66.3399 27.3301 116.76 46.6401C121.07 48.2901 125.13 50.6001 131.1 53.4601V53.4501ZM34.3699 128.33C34.1799 137.27 36.6599 151.29 47.7899 162.5C61.6999 176.51 80.3799 180.03 99.9099 172.23C119.49 164.41 130.16 146.62 130.11 121.85C130.07 98.0301 119.17 79.7301 100.55 72.2401C65.6099 58.1801 35.0599 81.3201 34.3699 128.33Z" fill="white"/>
<path d="M721.39 164.48C730.71 140.64 738.93 119.75 747.05 98.8101C753.23 82.8901 759.36 66.9401 765.37 50.9501C766.93 46.7901 768.27 42.6101 773.85 43.1401C782.22 43.9301 791.2 40.4701 798.82 45.2801C801.62 47.0401 799.38 51.6801 798.06 54.8301C772.56 115.44 747.4 176.2 721.32 236.55C711.83 258.51 693.37 270.68 669.97 274.64C664.91 275.5 657.48 278.62 655.09 269.62C651.83 257.33 655.73 245.23 664.09 243.14C679.59 239.26 690.9 230.39 698.24 216.27C702.18 208.7 702.76 201.61 699.32 193.18C680.78 147.72 663.06 101.93 644.63 56.4301C640.58 46.4401 641.79 42.7201 653.49 42.8701C676.05 43.1801 676.02 42.6901 683.85 63.7301C695.96 96.3001 708.11 128.85 721.39 164.46V164.48Z" fill="white"/>
<path d="M510.03 58.9201C528.52 41.0601 549.32 38.6101 571.29 40.9801C601.53 44.2401 622.73 69.0901 623.73 103.9C624.58 133.41 623.73 162.96 624.08 192.48C624.18 200.63 620.65 203.14 613.25 202.62C609.41 202.35 605.52 202.29 601.69 202.63C593.26 203.37 590.48 199.67 590.59 191.38C590.95 164.42 590.92 137.45 590.63 110.5C590.34 82.9201 573.99 67.6801 546.76 69.0101C524.28 70.1001 510.48 84.8001 509.9 109.8C509.31 135.04 509.91 160.3 509.62 185.55C509.56 191.15 512.67 199.62 505.62 201.51C497.68 203.64 488.65 202.56 480.23 201.66C476.21 201.23 476.86 196.29 476.85 192.94C476.82 145.86 476.92 98.7801 476.73 51.7101C476.7 45.0901 479.04 42.1501 485.67 42.6401C488.23 42.8301 490.82 42.7901 493.38 42.6301C503.8 41.9701 513.49 42.0801 510.03 58.9301V58.9201Z" fill="white"/>
<path d="M258.12 40.5401C283.31 40.6501 304.63 48.0201 315.67 72.9101C318.13 78.4701 323.49 85.8601 314.59 90.7301C307.31 94.7101 288.45 90.7701 285.33 85.5401C275.85 69.6401 265.99 65.1601 248.05 68.4701C239.12 70.1101 231.13 73.1601 229.83 83.5201C228.44 94.6301 235.87 99.7501 244.92 102.85C260.25 108.11 275.89 112.54 291.08 118.16C305.27 123.41 316.71 132.19 320.44 147.91C324.72 165.93 317.79 183 302.26 193.8C276.35 211.81 230.47 207.91 207.89 185.73C206.06 183.94 204.12 182.1 202.86 179.92C198.43 172.32 189.54 162.78 195.98 155.95C202.14 149.41 214.67 153.77 224.39 154.14C228.09 154.28 228.17 158.35 229.61 160.81C239.48 177.64 265.6 183.23 281.43 171.85C293.34 163.29 292.1 149.52 278.19 143.95C265.55 138.88 252.32 135.28 239.32 131.12C230.77 128.39 222.25 125.69 214.71 120.57C190.18 103.93 189.47 71.1501 213.31 53.2801C224.91 44.5901 239.07 40.5801 258.12 40.5201V40.5401Z" fill="white"/>
<path d="M400.44 86.7101C400.44 107.68 400.45 128.65 400.44 149.62C400.42 172.48 402.62 175.38 425.02 174.75C436.3 174.43 439.91 177.68 439.62 189.13C439.35 199.4 437.01 204.49 425.93 203.1C420.86 202.46 415.66 202.96 410.53 202.68C380.23 201.06 367.09 187.52 366.89 157.48C366.74 133.94 366.86 110.4 366.86 86.8601C366.86 69.4801 366.82 68.8101 349.7 69.5401C338.55 70.0101 336.07 65.6401 335.91 55.4001C335.73 44.7501 339.96 42.3001 349.6 42.4901C366.85 42.8301 366.86 42.3801 366.86 24.7201C366.86 24.2901 366.86 23.8601 366.86 23.4401C366.86 2.75012 374.31 -2.69988 394.79 2.43012C401.51 4.11012 400.39 9.03012 400.41 13.5301C400.49 37.9201 400.45 62.3201 400.45 86.7101H400.44Z" fill="white"/>
<path d="M437.41 35.3301C449.26 35.0901 459.15 44.4901 459.03 55.8701C458.91 66.6301 449.32 76.4501 438.58 76.7901C427.24 77.1501 417.16 67.2801 417.13 55.7801C417.1 44.5401 426.01 35.5501 437.41 35.3201V35.3301Z" fill="white"/>
</g>
<defs>
<clipPath id="clip0_1864_12006">
<rect width="800" height="275.26" fill="white" transform="translate(0.169922 0.620117)"/>
</clipPath>
</defs>
</svg>
