<svg width="176" height="59" viewBox="0 0 176 59" fill="none" xmlns="http://www.w3.org/2000/svg">
<path fill-rule="evenodd" clip-rule="evenodd" d="M59.495 58.6626L59.729 58.8386C59.963 58.9556 60.255 58.8976 60.489 58.6626C60.548 58.6036 60.606 58.5456 60.723 58.4866C61.249 57.9616 62.536 56.8496 64.584 55.1526C65.52 54.3926 66.573 53.5136 67.801 52.5786C68.152 52.2876 68.386 52.1706 68.562 52.1706C68.737 52.2876 69.03 52.6376 69.381 53.2236C69.673 53.7486 70.258 54.3936 71.194 55.1536C71.369 55.3876 71.603 55.5636 71.837 55.7396C73.007 56.7336 74.002 57.4346 74.938 57.9626C75.64 58.3706 76.107 58.5466 76.459 58.4876L83.596 52.5796C84.239 51.9366 84.414 51.4686 84.298 51.2926L82.659 50.0636C81.606 49.1866 81.08 48.4266 80.963 47.7236V27.9516C80.904 26.5476 80.495 25.3186 79.618 24.3826L77.395 22.2766C76.518 21.2826 75.347 21.3406 73.885 22.5696L67.275 27.8346C66.749 28.2436 66.514 28.5956 66.573 28.7706L67.802 29.9406C68.621 30.8176 68.972 31.5206 68.855 32.0456V50.8836C68.855 51.5846 68.504 51.8196 67.86 51.4676L65.579 50.0636C64.409 49.3626 63.531 48.3096 62.829 46.9056V28.3606L62.537 26.3716C62.537 26.0796 62.011 25.3766 60.958 24.3826C59.963 23.3876 59.086 22.6866 58.326 22.1596C57.799 21.7496 57.214 21.6916 56.571 21.8676L55.459 22.5696L48.206 28.5946C48.557 28.7696 49.142 29.3546 50.019 30.3496C50.896 31.2856 51.248 32.2796 50.955 33.2156V48.0746C50.955 48.8926 51.014 49.5956 51.13 50.0626L52.007 52.5786C52.358 53.3406 53.119 54.2176 54.405 55.1526C54.581 55.3286 54.815 55.4456 54.99 55.6216L59.495 58.6626ZM16.732 0.690628L11.642 0.515625C9.946 0.807625 8.952 1.15862 8.6 1.62762L0 11.7476L1.345 11.9236H8.19C9.243 11.9236 10.296 12.0986 11.232 12.4496L28.606 17.7146C29.542 18.0066 29.952 18.8256 29.776 19.9376V45.6186H17.902V16.1346L17.551 15.0816L5.442 21.3996V56.6746C5.384 57.4926 5.501 57.9616 5.793 58.0786L7.548 57.7266C9.654 57.1406 12.696 56.7906 16.615 56.7906C19.365 56.7906 23.109 57.3746 27.671 58.4856L28.9 58.6616L29.485 57.5506C29.777 57.0836 30.304 56.2636 31.123 55.1526C31.708 54.3926 32.469 53.5136 33.346 52.4616C34.399 51.0576 36.096 49.5376 38.435 47.7816C40.365 46.3186 41.769 45.3836 42.53 45.0906L44.226 44.3896C44.167 43.8056 43.934 42.9856 43.583 42.0496C43.291 41.2896 43.173 32.1626 43.173 14.5546C43.173 12.4486 42.295 10.5766 40.599 8.99663C39.429 7.94363 38.201 7.24162 37.031 6.89162L16.732 0.690628ZM154.028 35.2056L145.311 20.3466L125.715 25.0846V51.4086C125.715 52.8716 126.123 54.1586 126.944 55.1526C127.645 56.0886 128.698 56.8496 130.044 57.3756C131.624 58.0786 133.612 58.4866 135.952 58.6626C136.714 58.7216 137.415 58.7796 138.233 58.7796C139.169 58.7796 140.047 58.7206 140.924 58.6626C143.264 58.5456 145.369 58.1376 147.301 57.5516L150.987 47.3156L138.878 49.0106C137.474 49.0106 136.771 48.1336 136.771 46.3776C136.771 45.2076 137.064 44.4476 137.591 44.1546L154.028 35.2056ZM142.505 38.2466L137.064 41.1726V29.4136L142.505 38.2466ZM168.653 5.60463C168.067 4.96063 167.307 4.37563 166.372 3.73263C165.261 3.03063 164.558 2.79663 164.267 3.08863L155.843 10.4596L157.304 11.9216C158.007 12.6236 158.359 13.4426 158.359 14.3786V48.5416C158.416 48.7756 158.591 49.2446 159.002 49.9456C160.231 52.1706 161.4 53.9246 162.395 55.1526C162.747 55.6216 163.04 55.9706 163.389 56.3226L165.846 58.2526C166.08 58.4286 166.373 58.6046 166.549 58.6626C166.899 58.8386 167.192 58.8966 167.426 58.8386L167.602 58.6626L175.207 51.7606C175.732 51.2336 175.85 50.8836 175.674 50.7076L173.979 49.9456C173.276 49.5956 172.516 49.0096 171.813 48.1336C171.053 47.3156 170.76 46.7296 170.76 46.3776V11.2206C170.759 9.05563 170.058 7.18463 168.653 5.60463ZM95.061 21.9266C94.243 22.0436 93.715 22.1606 93.481 22.4526L87.047 27.7176C86.462 28.2436 86.462 28.7706 86.872 29.2386L88.452 30.4676C89.271 31.0526 89.622 31.9296 89.505 32.9826C89.622 41.6406 89.622 46.8476 89.505 48.4866C89.446 49.7136 89.446 50.4746 89.622 50.8846C89.679 51.1166 90.03 51.6446 90.558 52.4626C91.142 53.1656 92.079 54.1016 93.482 55.1536C94.537 55.9716 95.824 56.8506 97.285 57.8446C98.047 58.3116 98.572 58.6046 98.982 58.6626C99.158 58.7216 99.332 58.7216 99.451 58.6626C99.51 58.6626 99.51 58.6626 99.51 58.6626L99.86 58.2526L100.212 57.7276C100.329 57.4936 101.616 56.6746 104.073 55.1536C105.184 54.5106 106.471 53.7496 107.932 52.8136C109.278 52.0536 113.022 50.4736 119.282 48.2516V21.9266H107.583V50.1806C107.524 51.2916 107.407 51.8776 107.114 51.8776L105.827 51.1156C104.015 50.2386 102.845 49.5376 102.317 49.0106C101.499 48.3096 101.088 47.7236 101.088 47.1986V28.0686C101.088 26.8986 100.563 25.7866 99.51 24.6756L97.168 22.5706C96.642 22.1016 95.997 21.8676 95.061 21.9266Z" fill="white"/>
</svg>
