<svg width="24" height="24" viewBox="0 0 24 24" fill="none" xmlns="http://www.w3.org/2000/svg">
<g clip-path="url(#clip0_2676_12048)">
<path d="M11.2841 12.9472C11.316 13.1377 11.3583 13.3132 11.3952 13.4599C11.4046 13.4975 11.4135 13.5324 11.4219 13.5654C11.4489 13.6715 11.4706 13.7572 11.4899 13.8467C11.5333 14.0484 11.5406 14.1733 11.5232 14.2824C11.4185 14.6581 11.1285 15.0131 10.6021 15.1363L8.83158 15.5507L10.1298 16.8239C10.7826 17.4642 12.0366 18.1731 13.4147 17.7027C13.8359 17.5763 14.3084 17.309 14.6236 17.0368L14.6345 17.0275L14.645 17.0178C15.3303 16.3909 15.736 15.4135 15.6999 14.4764C15.6985 14.3262 15.6831 14.1462 15.6344 13.9535C15.4646 13.1429 15.007 12.6245 14.6072 12.2527C14.5027 12.1555 14.3591 12.0311 14.2382 11.9263C14.1696 11.8669 14.1082 11.8137 14.0654 11.7754C13.9075 11.6341 13.7878 11.5141 13.6926 11.3903L13.682 11.3765L13.671 11.3631C13.5596 11.2283 13.4448 11.0233 13.2882 10.7206L12.2793 8.76997L11.4703 10.8116C11.1778 11.55 11.1612 12.2326 11.2841 12.9472ZM10.6411 12.5852C9.85742 10.5852 10.488 8.24374 12.1188 6.88097C12.1489 8.09112 12.6221 9.28924 13.5221 10.1662L13.5221 10.1662L13.5272 10.1711C13.836 10.4678 14.1606 10.7078 14.438 10.9103C14.4602 10.9265 14.4821 10.9424 14.5036 10.9581C14.7563 11.1423 14.967 11.2959 15.1654 11.4695C15.1902 11.4943 15.2142 11.5183 15.2375 11.5415C15.4093 11.7123 15.5405 11.8429 15.6511 11.9819L15.656 11.9888C15.6671 12.0042 15.6835 12.0274 15.704 12.0565C15.745 12.1151 15.8011 12.1964 15.8614 12.2873C15.9943 12.488 16.1038 12.6708 16.1462 12.7661L16.1554 12.7869L16.1656 12.8072L16.2495 12.975C16.8008 14.3295 16.4212 15.9347 15.2922 16.9556C14.2897 17.8478 12.8188 18.1358 11.314 17.9477L11.3094 17.9472C10.0523 17.796 8.85242 17.0165 8.16291 15.9336C7.94313 15.5282 7.79066 15.191 7.71369 14.8621L7.7006 14.8062L7.68119 14.7521C7.60112 14.5291 7.56997 14.3178 7.52311 13.9999C7.5148 13.9435 7.50599 13.8838 7.49633 13.8201C7.48571 13.5721 7.49632 13.322 7.52679 13.0738C7.66607 13.3763 7.83778 13.6651 8.04179 13.9336C8.13465 14.0787 8.25539 14.2039 8.39682 14.3018C8.80809 14.6429 9.35226 14.7201 9.84571 14.5383L9.88497 14.5239L9.92289 14.5062C10.3375 14.3127 10.77 13.8566 10.77 13.21C10.77 12.9235 10.6832 12.6958 10.6515 12.6124C10.6495 12.6074 10.6478 12.6028 10.6463 12.5989L10.6438 12.592L10.6411 12.5852ZM12 23C18.0523 23 23 18.0523 23 12C23 5.94772 18.0523 1 12 1C5.94772 1 1 5.94772 1 12C1 18.0523 5.94772 23 12 23Z" stroke="url(#paint0_linear_2676_12048)" stroke-width="2"/>
</g>
<defs>
<linearGradient id="paint0_linear_2676_12048" x1="2.875" y1="12" x2="21.125" y2="12" gradientUnits="userSpaceOnUse">
<stop stop-color="#FF382B"/>
<stop offset="1" stop-color="#C53364"/>
</linearGradient>
<clipPath id="clip0_2676_12048">
<rect width="24" height="24" fill="white"/>
</clipPath>
</defs>
</svg>
