<svg width="24" height="24" viewBox="0 0 24 24" fill="none" xmlns="http://www.w3.org/2000/svg">
<path d="M21 9.75012H20.2153C20.0269 7.70157 19.0799 5.79733 17.56 4.41089C16.0402 3.02445 14.0572 2.25586 12 2.25586C9.9428 2.25586 7.95981 3.02445 6.43998 4.41089C4.92015 5.79733 3.97314 7.70157 3.78469 9.75012H3C2.80109 9.75012 2.61032 9.82914 2.46967 9.96979C2.32902 10.1104 2.25 10.3012 2.25 10.5001C2.2533 12.2837 2.74415 14.0325 3.66948 15.5573C4.59481 17.0821 5.9194 18.3249 7.5 19.1514V19.5001C7.5 19.8979 7.65804 20.2795 7.93934 20.5608C8.22064 20.8421 8.60218 21.0001 9 21.0001H15C15.3978 21.0001 15.7794 20.8421 16.0607 20.5608C16.342 20.2795 16.5 19.8979 16.5 19.5001V19.1514C18.0806 18.3249 19.4052 17.0821 20.3305 15.5573C21.2559 14.0325 21.7467 12.2837 21.75 10.5001C21.75 10.3012 21.671 10.1104 21.5303 9.96979C21.3897 9.82914 21.1989 9.75012 21 9.75012ZM16.2637 5.27168C16.4356 5.41231 16.6003 5.56075 16.7578 5.717C14.7613 6.41933 13.1114 7.86275 12.15 9.74825H9.38437C9.85313 8.43427 10.7161 7.29706 11.8555 6.49198C12.9948 5.68689 14.3549 5.25319 15.75 5.25012C15.9216 5.25012 16.0931 5.25856 16.2637 5.27168ZM13.8862 9.75012C14.7955 8.38595 16.1712 7.40029 17.7553 6.97793C18.2733 7.82042 18.5982 8.76714 18.7069 9.75012H13.8862ZM12 3.75012C12.6018 3.75052 13.2009 3.83155 13.7812 3.99106C12.3679 4.34166 11.072 5.05863 10.024 6.0697C8.97606 7.08078 8.21316 8.35023 7.81219 9.75012H5.29312C5.47917 8.10093 6.26562 6.57787 7.50254 5.47132C8.73946 4.36476 10.3403 3.75209 12 3.75012Z" fill="#111D2E"/>
</svg>
