<svg width="32" height="33" viewBox="0 0 32 33" fill="none" xmlns="http://www.w3.org/2000/svg">
<path d="M10.4 3.54443H21.6C25.8666 3.54443 29.3333 7.0111 29.3333 11.2778V22.4778C29.3333 24.5288 28.5185 26.4958 27.0683 27.9461C25.618 29.3963 23.651 30.2111 21.6 30.2111H10.4C6.13329 30.2111 2.66663 26.7444 2.66663 22.4778V11.2778C2.66663 9.22676 3.48139 7.25976 4.93167 5.80947C6.38195 4.35919 8.34895 3.54443 10.4 3.54443ZM10.1333 6.2111C8.86025 6.2111 7.63935 6.71681 6.73918 7.61699C5.83901 8.51716 5.33329 9.73806 5.33329 11.0111V22.7444C5.33329 25.3978 7.47996 27.5444 10.1333 27.5444H21.8666C23.1397 27.5444 24.3606 27.0387 25.2607 26.1385C26.1609 25.2384 26.6666 24.0175 26.6666 22.7444V11.0111C26.6666 8.35777 24.52 6.2111 21.8666 6.2111H10.1333ZM23 8.2111C23.442 8.2111 23.8659 8.38669 24.1785 8.69926C24.491 9.01182 24.6666 9.43574 24.6666 9.87777C24.6666 10.3198 24.491 10.7437 24.1785 11.0563C23.8659 11.3688 23.442 11.5444 23 11.5444C22.5579 11.5444 22.134 11.3688 21.8214 11.0563C21.5089 10.7437 21.3333 10.3198 21.3333 9.87777C21.3333 9.43574 21.5089 9.01182 21.8214 8.69926C22.134 8.38669 22.5579 8.2111 23 8.2111ZM16 10.2111C17.7681 10.2111 19.4638 10.9135 20.714 12.1637C21.9642 13.414 22.6666 15.1097 22.6666 16.8778C22.6666 18.6459 21.9642 20.3416 20.714 21.5918C19.4638 22.8421 17.7681 23.5444 16 23.5444C14.2318 23.5444 12.5362 22.8421 11.2859 21.5918C10.0357 20.3416 9.33329 18.6459 9.33329 16.8778C9.33329 15.1097 10.0357 13.414 11.2859 12.1637C12.5362 10.9135 14.2318 10.2111 16 10.2111ZM16 12.8778C14.9391 12.8778 13.9217 13.2992 13.1715 14.0493C12.4214 14.7995 12 15.8169 12 16.8778C12 17.9386 12.4214 18.956 13.1715 19.7062C13.9217 20.4563 14.9391 20.8778 16 20.8778C17.0608 20.8778 18.0782 20.4563 18.8284 19.7062C19.5785 18.956 20 17.9386 20 16.8778C20 15.8169 19.5785 14.7995 18.8284 14.0493C18.0782 13.2992 17.0608 12.8778 16 12.8778Z" fill="white"/>
</svg>
