<svg width="1200" height="207" viewBox="0 0 1200 207" fill="none" xmlns="http://www.w3.org/2000/svg">
<g clip-path="url(#clip0_1864_11689)">
<path d="M359.66 84.73C359.54 87.7 359.32 90.68 359.32 93.65C359.32 117.69 359.35 141.73 359.38 165.77C359.38 168.82 359.4 168.83 356.28 168.81C350.52 168.77 344.76 168.7 339 168.66C336.94 168.64 334.88 168.66 332.68 168.66C332.59 167.7 332.47 167.06 332.47 166.42C332.42 125.93 332.38 85.43 332.36 44.94C332.36 42.88 332.53 40.83 332.63 38.52C335.72 38.44 338.67 38.34 341.62 38.3C344.72 38.27 347.81 38.27 350.91 38.32C352.77 38.35 354.67 38.29 356.47 38.67C358.29 39.05 359.83 40.2 360.92 41.77C364.75 47.26 368.52 52.79 372.36 58.27C375.29 62.45 378.33 66.56 381.25 70.74C382.84 73.02 384.23 75.43 385.8 77.72C388.83 82.14 391.92 86.51 394.97 90.92C397.3 94.29 399.61 97.68 401.93 101.05C404 104.06 406.1 107.05 408.14 110.09C409.41 111.98 410.54 113.97 411.85 115.84C412.45 116.7 413.32 117.38 414.07 118.15L414.57 118C414.72 117.32 415 116.63 415 115.95C414.95 92.84 414.86 69.73 414.81 46.62C414.81 44.6 414.94 42.57 415.1 40.55C415.15 39.87 415.48 39.2 415.73 38.38C416.65 38.29 417.56 38.11 418.47 38.12C423.43 38.15 428.4 38.24 433.36 38.29C435.04 38.31 436.73 38.27 438.41 38.3C440.34 38.34 440.94 38.85 441.13 40.8C441.34 43.08 441.53 45.38 441.53 47.66C441.55 56.48 441.47 65.3 441.46 74.12C441.44 94.54 441.46 114.97 441.44 135.39C441.44 145.58 441.38 155.76 441.33 165.95C441.33 168.2 441.05 168.68 438.76 168.69C432.03 168.72 425.3 168.58 418.57 168.48C418.22 168.48 417.78 168.25 417.54 167.99C415.61 165.94 413.74 163.88 412.39 161.32C411.23 159.12 409.46 157.25 408.02 155.2C406.26 152.68 404.55 150.12 402.84 147.57C400.94 144.73 399.06 141.87 397.17 139.02C396.25 137.62 395.37 136.2 394.41 134.83C391.38 130.49 388.31 126.19 385.29 121.84C382.84 118.3 380.43 114.72 378.04 111.14C376.06 108.18 374.19 105.13 372.14 102.21C370.48 99.85 368.59 97.66 366.88 95.34C366.21 94.44 365.77 93.37 365.15 92.43C364.33 91.19 363.41 90.02 362.59 88.78C361.72 87.47 360.91 86.12 360.08 84.79C359.94 84.78 359.8 84.76 359.66 84.75V84.73Z" fill="white"/>
<path d="M885.19 37.96C892.37 37.97 902.71 37.13 909.89 37.14C910.02 37.14 915.19 37.5 915.3 37.55C919.2 38.14 918.04 37.76 921.82 38.65C925.22 39.45 928.66 40.2 931.93 41.39C934.43 42.3 937.02 43.5 938.95 45.25C941.59 47.64 944.4 50.03 945.84 53.53C947.15 56.71 948.32 59.86 949.07 63.26C950.47 69.54 950.1 75.79 949.55 82.03C949.08 87.33 947.78 92.54 943.98 96.6C941.33 99.42 938.23 101.68 934.23 102.33C933.97 102.37 933.71 102.45 933.46 102.54C933.34 102.58 933.26 102.7 932.91 102.98C933.75 103.39 934.44 103.77 935.18 104.08C937.42 105 939.82 105.64 941.88 106.85C945.77 109.14 948.72 112.35 949.97 116.85C950.16 117.52 950.61 118.12 950.8 118.79C951.19 120.17 951.53 121.57 951.78 122.98C951.94 123.89 951.5 124.93 952.63 125.56C952.83 125.67 952.84 126.21 952.84 126.56C952.91 130.66 953.51 134.84 952.87 138.83C952.02 144.1 951.66 149.55 948.84 154.44C946.49 158.51 943.3 161.5 939.32 163.85C936.23 165.68 932.89 166.67 929.44 167.57C924.43 168.88 919.34 169.04 914.25 169.47C910.68 169.77 907.14 170.32 903.55 170.13C897.49 169.81 891.44 169.49 885.39 169.17C885.3 169.17 885.21 169.15 885.13 169.15C879.77 169.06 874.42 169.05 869.06 168.87C864.24 168.71 859.43 168.34 854.61 168.1C853.53 168.05 853.11 167.5 853.1 166.52C853.06 162.42 853.01 158.32 853.01 154.23C852.99 120.93 852.99 87.64 852.98 54.34C852.98 49.93 852.98 45.52 853 41.11C853 40.6 853.13 40.09 853.21 39.49C863.79 38.11 874.36 38.28 885.2 37.98M879.89 146.65C882.6 146.65 885.08 146.68 887.55 146.65C895.03 146.55 902.52 146.52 910 146.29C913.88 146.17 917.67 145.66 921.01 143.2C923.12 141.65 924.68 139.64 925.03 137.37C925.6 133.71 925.47 129.92 925.37 126.19C925.32 124.47 924.95 122.63 924.22 121.07C921.77 115.83 916.73 114.38 911.67 113.31C909.41 112.84 906.99 113.02 904.65 113.01C896.81 112.98 888.97 113.01 881.12 113.01C880.74 113.01 880.36 113.05 879.89 113.08V146.65ZM879.89 93.76C882.05 93.91 883.93 94.15 885.82 94.16C891.45 94.2 897.08 94.04 902.7 94.16C908.64 94.29 914.06 92.77 919.1 89.73C919.32 89.6 919.56 89.42 919.68 89.2C920.43 87.87 921.35 86.59 921.84 85.16C923.57 80.22 923.51 75.2 922.09 70.2C921.78 69.11 921.79 67.75 920.27 67.4C920.15 67.37 920.07 67.12 919.99 66.97C918.63 64.5 916.2 63.18 913.81 62.27C910.48 61.01 906.88 60.54 903.27 60.54C896.4 60.54 889.53 60.52 882.66 60.53C881.71 60.53 880.76 60.64 879.9 60.7V93.75L879.89 93.76Z" fill="white"/>
<path d="M988.57 38.5C991.05 38.36 993.34 38.13 995.63 38.13C1021.56 38.11 1047.49 38.11 1073.42 38.13C1074.44 38.13 1075.45 38.24 1076.47 38.26C1077.44 38.28 1077.93 38.81 1078.07 39.7C1078.15 40.22 1078.2 40.75 1078.2 41.28C1078.22 46.97 1078.23 52.66 1078.24 58.35C1078.24 61.08 1077.77 61.74 1075.01 61.96C1072.5 62.17 1069.96 62.13 1067.44 62.13C1052.24 62.13 1037.03 62.09 1021.83 62.06C1020.06 62.06 1018.29 61.97 1016.51 61.94C1015.61 61.92 1015.14 62.28 1015.16 63.29C1015.25 70.39 1015.34 77.48 1015.36 84.58C1015.36 86.95 1015.21 89.32 1015.1 91.7C1015.04 93.03 1015.57 93.54 1016.94 93.68C1019.39 93.93 1021.79 93.85 1024.19 93.26C1024.91 93.09 1025.69 93.15 1026.44 93.15C1041.16 93.17 1055.87 93.19 1070.59 93.21C1071.37 93.21 1072.16 93.21 1073.28 93.21C1072.86 100.88 1073.5 108.33 1073.06 116.15C1069.21 116.15 1065.67 116.15 1062.14 116.15C1049.11 116.14 1036.08 116.12 1023.04 116.1C1020.83 116.1 1018.62 116.12 1016.41 116.1C1015.43 116.1 1015.13 116.56 1015.14 117.51C1015.26 125.75 1015.35 134 1015.42 142.24C1015.42 142.89 1015.26 143.55 1015.2 144.21C1015.1 145.4 1015.69 146.15 1016.87 146.05C1018.46 145.92 1020.14 146.52 1021.66 145.49C1021.97 145.28 1022.52 145.39 1022.97 145.39C1039.99 145.39 1057.01 145.37 1074.04 145.44C1075.41 145.44 1076.81 146.03 1078.14 146.51C1078.44 146.62 1078.66 147.39 1078.64 147.86C1078.55 151.34 1078.35 154.82 1078.26 158.29C1078.19 160.85 1078.21 163.41 1078.21 165.96C1078.21 168.5 1077.9 168.82 1075.28 168.8C1069.52 168.75 1063.76 168.67 1058 168.66C1039.25 168.64 1020.5 168.64 1001.75 168.66C998.29 168.66 994.84 168.76 991.38 168.8C990.85 168.8 990.32 168.74 989.79 168.69C988.88 168.6 988.54 168.12 988.54 167.19C988.58 148.67 988.6 130.14 988.6 111.62C988.6 89.17 988.58 66.72 988.57 44.27C988.57 42.47 988.57 40.67 988.57 38.53V38.5Z" fill="white"/>
<path d="M814.89 139.15C815.11 139 815.31 138.88 815.3 138.88C815.8 140.95 816.31 143.03 816.8 145.11C817.04 146.14 817.25 147.17 817.47 148.2C817.73 149.42 817.44 150.84 818.76 151.68C818.81 151.71 818.79 151.85 818.81 151.93C819.62 155.3 820.44 158.67 821.26 162.04C821.64 163.61 822.07 165.16 822.37 166.74C822.49 167.35 822.33 168.01 822.29 168.73C821.78 168.77 821.44 168.82 821.1 168.82C814.01 168.83 806.93 168.82 799.84 168.85C797.72 168.85 797.05 168.47 796.48 166.43C795.56 163.17 794.78 159.87 793.85 156.61C793.65 155.89 793.07 155.28 792.69 154.6C792.57 154.38 792.51 154.13 792.46 153.88C791.97 151.25 791.53 148.6 790.99 145.98C790.85 145.31 790.3 144.73 790.11 144.06C788.98 140.04 787.9 136 786.8 131.97C786.78 131.89 786.72 131.82 786.5 131.45C785.45 131.45 784.23 131.45 783.01 131.45C772.99 131.45 762.97 131.45 752.96 131.42C749.51 131.41 746.05 131.33 742.6 131.23C741.44 131.2 741.06 131.63 740.8 132.77C740 136.2 738.98 139.58 738.05 142.98C736.75 147.73 735.44 152.49 734.13 157.24C733.18 160.71 732.22 164.18 731.27 167.65C731 168.62 730.23 168.77 729.4 168.77C726.03 168.77 722.66 168.74 719.29 168.74C715.92 168.74 712.56 168.77 709.19 168.78C708.53 168.78 707.86 168.82 707.2 168.78C705.77 168.7 705.07 168 705.4 166.63C706.36 162.66 707.46 158.71 708.52 154.76C709.11 152.59 709.74 150.43 710.36 148.27C710.97 146.16 711.63 144.05 712.2 141.93C712.85 139.53 713.41 137.1 714.05 134.69C714.47 133.12 714.95 131.56 715.42 130.01C715.87 128.52 716.36 127.03 716.79 125.53C716.99 124.81 717.19 124.07 717.22 123.33C717.26 122.31 717.09 121.3 718.21 120.67C718.43 120.55 718.43 120.04 718.51 119.7C719.25 116.58 719.98 113.46 720.73 110.34C721.07 108.93 721.41 107.52 721.84 106.13C722.71 103.27 723.64 100.42 724.54 97.57C724.65 97.23 724.8 96.91 724.88 96.57C725.76 93 726.54 89.41 727.52 85.87C728.57 82.06 729.84 78.3 730.95 74.5C731.63 72.18 732.15 69.82 732.79 67.49C733.33 65.5 733.96 63.53 734.51 61.54C734.68 60.91 734.67 60.22 734.85 59.6C736.2 54.99 737.27 50.27 739.58 45.99C740.15 44.93 740.58 43.69 741.42 42.89C742.77 41.59 744.27 40.31 745.95 39.52C747.8 38.65 749.89 38.25 751.91 37.81C758.48 36.38 765.16 37.05 771.77 37.22C775.31 37.31 778.9 38.42 782.32 39.55C784.96 40.42 786.98 42.44 788.14 45.07C789.33 47.77 790.54 50.48 791.51 53.26C792.24 55.37 792.59 57.6 793.17 59.77C794.37 64.28 795.62 68.78 796.84 73.28C797.47 75.61 798.03 77.97 798.73 80.29C799.49 82.79 800.44 85.24 801.18 87.75C801.74 89.64 802.05 91.61 802.58 93.51C803.35 96.31 804.26 99.08 805.03 101.88C806.86 108.5 808.67 115.11 810.42 121.75C811.26 124.94 811.9 128.19 812.72 131.4C813.38 133.98 814.16 136.53 814.9 139.13L814.89 139.15ZM767.62 61.8C767.5 61.72 766.98 61.57 766.87 61.27C766.18 59.4 764.56 59.82 763.27 59.95C761.8 60.1 760.44 60.75 759.99 62.42C759.54 64.08 759.1 65.73 758.64 67.39C757.19 72.68 755.73 77.97 754.28 83.26C753.52 86.02 752.77 88.78 752.04 91.54C750.68 96.64 749.34 101.75 747.98 106.86C747.42 108.96 747.99 109.62 750.17 109.52C752.54 109.41 754.92 109.36 757.3 109.35C764.12 109.32 770.93 109.34 777.75 109.31C779.63 109.31 780.3 108.47 779.89 106.56C779.18 103.25 778.39 99.95 777.61 96.65C777.55 96.38 777.26 96.17 777.12 95.9C776.85 95.39 776.53 94.9 776.38 94.35C776.11 93.34 775.98 92.29 775.73 91.27C775.5 90.34 775.15 89.44 774.93 88.51C774.69 87.53 774.63 86.5 774.35 85.53C773.33 82.09 772.19 78.68 771.22 75.22C769.99 70.86 768.87 66.47 767.63 61.79L767.62 61.8Z" fill="white"/>
<path d="M569.94 120.15C570.07 121.64 570.27 123.13 570.32 124.62C570.48 129.2 570.68 133.78 570.66 138.36C570.65 141.13 570.53 143.95 569.95 146.64C569.2 150.13 567.6 153.36 565.39 156.23C562.18 160.41 557.91 163.2 553.15 165.25C551.1 166.13 548.84 166.52 546.69 167.2C541.05 168.97 535.23 169.37 529.39 169.5C523.87 169.62 518.35 169.57 512.83 169.4C507.21 169.23 501.58 168.95 495.97 168.49C492.45 168.2 488.96 167.56 485.47 166.95C483.05 166.52 480.65 165.93 478.28 165.27C477.86 165.15 477.4 164.3 477.39 163.78C477.35 160.17 477.41 156.55 477.47 152.94C477.5 150.88 477.6 148.82 477.67 146.63C478.44 146.63 479.01 146.63 479.58 146.63C495.27 146.63 510.97 146.7 526.66 146.57C530.03 146.54 533.49 146.12 536.75 145.29C540.49 144.33 542.93 141.96 543.79 137.78C544.69 133.42 543.93 129.62 541.4 126.22C540.32 124.77 538.54 123.77 536.94 122.8C535.4 121.87 533.67 121.27 532.05 120.46C527.59 118.23 522.76 116.99 518.14 115.2C509.97 112.06 501.83 108.85 493.7 105.6C489.42 103.88 486.4 100.62 484.15 96.77C482.63 94.17 481.28 91.38 480.48 88.5C478.84 82.66 478.41 76.64 478.81 70.57C479.04 67.1 479.1 63.61 479.43 60.15C479.68 57.48 480.91 55.12 482.39 52.9C483.46 51.29 484.52 49.67 485.61 48.07C485.82 47.76 486.14 47.51 486.44 47.26C486.64 47.09 487.03 47.04 487.1 46.85C487.75 45.24 489.44 45.16 490.64 44.35C496.43 40.45 502.97 38.95 509.78 38.32C512.1 38.11 514.43 38.04 516.78 37.71C516.44 37.61 516.09 37.5 515.52 37.33C515.89 37.22 516.07 37.12 516.24 37.12C520.89 37.12 525.55 37.12 530.2 37.12C531.35 37.12 532.51 37.03 533.66 37.15C534.76 37.26 535.84 37.59 536.93 37.81C537.36 37.9 537.8 38 538.23 38.02C541.99 38.24 545.76 38.29 549.5 38.69C553.37 39.11 557.22 39.76 561.04 40.49C563.52 40.96 564.29 42.26 564.29 44.71C564.29 49.25 564.38 53.78 564.43 58.32C564.43 58.88 564.43 59.44 564.43 60.19C562.76 60.32 561.24 60.53 559.71 60.54C546.9 60.55 534.08 60.59 521.27 60.47C517.77 60.44 514.43 61.11 511.28 62.34C508.64 63.37 506.69 65.32 506.04 68.49C505.36 71.78 505.62 74.95 506.03 78.18C506.11 78.83 506.5 79.49 506.89 80.04C509.31 83.42 512.83 85.13 516.62 86.56C524.89 89.69 533.15 92.88 541.34 96.21C546.41 98.27 551.46 100.44 556.33 102.92C561.39 105.49 565.1 109.56 567.47 114.73C568.16 116.23 568.54 117.87 569.08 119.44C569.17 119.71 569.39 119.95 569.54 120.2C569.67 120.18 569.79 120.17 569.92 120.15H569.94Z" fill="white"/>
<path d="M630.69 62.09C619.87 62.09 609.19 62.09 598.51 62.08C597.18 62.08 595.84 62.02 594.54 61.78C594.05 61.69 593.29 61.03 593.29 60.62C593.15 53.66 593.12 46.7 593.05 39.75C593.05 38.78 593.53 38.43 594.44 38.42C600.91 38.32 607.37 38.12 613.84 38.11C638.8 38.08 663.76 38.11 688.71 38.11C690.39 38.11 692.07 38.31 693.75 38.29C695.08 38.28 695.63 39 695.7 40.13C695.87 42.9 696.02 45.67 696.05 48.44C696.09 51.83 696 55.23 695.96 58.62C695.96 58.97 695.92 59.33 695.88 59.67C695.64 61.63 695.63 61.77 693.62 61.8C684.58 61.93 675.54 61.99 666.51 62.06C663.77 62.08 661.03 62.06 658.08 62.06C658.02 62.59 657.87 63.27 657.87 63.95C657.89 89.44 657.93 114.94 657.94 140.43C657.94 149.21 657.86 157.98 657.87 166.76C657.87 167.87 657.45 168.41 656.41 168.57C655.89 168.65 655.36 168.75 654.83 168.75C647.87 168.76 640.92 168.76 633.96 168.77C633.65 168.77 633.34 168.77 633.03 168.76C631.27 168.64 631.04 168.34 631.03 166.57C630.98 154.57 630.88 142.58 630.87 130.58C630.87 111.04 630.92 91.5 630.94 71.96C630.94 68.92 630.88 65.88 630.84 62.83C630.84 62.62 630.75 62.41 630.68 62.09H630.69Z" fill="white"/>
<path d="M1114.94 103.25C1114.94 83 1114.94 62.75 1114.94 42.5C1114.94 38.97 1115.38 38.37 1118.94 38.32C1125.9 38.22 1132.85 38.29 1139.81 38.32C1141.04 38.32 1141.99 39.74 1142.02 41.59C1142.06 44.24 1142.02 46.88 1142.02 49.53C1141.99 68.94 1141.93 88.35 1141.93 107.76C1141.93 113.76 1142.19 119.75 1142.19 125.75C1142.19 131.26 1142 136.77 1141.86 142.28C1141.75 146.92 1143.1 146.13 1146.7 145.94C1147.99 145.87 1149.27 145.4 1150.55 145.4C1163.89 145.36 1177.24 145.36 1190.58 145.39C1191.43 145.39 1192.27 145.73 1193.13 145.87C1193.69 145.96 1194.27 146 1194.83 146C1195.4 146 1195.98 145.85 1196.55 145.87C1199.27 145.92 1199.97 146.61 1199.97 149.27C1199.97 155.14 1199.95 161 1199.99 166.87C1199.99 167.78 1199.69 168.35 1198.8 168.47C1197.53 168.63 1196.25 168.79 1194.98 168.79C1176.58 168.76 1158.19 168.68 1139.79 168.66C1133.5 168.66 1127.2 168.78 1120.91 168.79C1119.5 168.79 1118.09 168.61 1116.67 168.52C1115.66 168.45 1115.16 167.93 1115.11 166.92C1115.06 165.73 1114.9 164.55 1114.9 163.36C1114.89 143.33 1114.9 123.3 1114.9 103.28C1114.91 103.28 1114.93 103.28 1114.94 103.28V103.25Z" fill="white"/>
<path d="M291.82 39.58C291.91 40.43 292.08 41.42 292.09 42.4C292.14 48.09 292.17 53.78 292.17 59.47C292.18 92.68 292.2 125.9 292.18 159.11C292.18 161.58 291.97 164.04 291.86 166.51C291.82 167.51 291.4 168.27 290.35 168.37C288.42 168.55 286.49 168.72 284.56 168.74C279.02 168.8 273.48 168.79 267.95 168.76C267.23 168.76 266.46 168.56 265.8 168.26C265.45 168.1 265.11 167.53 265.09 167.13C265.03 165.62 265.14 164.1 265.14 162.58C265.11 149.48 265.04 136.38 265.03 123.28C265.01 99.2 265.03 75.11 265.04 51.03C265.04 47.68 265.11 44.33 265.22 40.99C265.3 38.59 265.58 38.22 267.89 38.19C274.63 38.1 281.36 38.1 288.1 38.15C288.85 38.15 289.59 38.71 290.34 39.01C290.74 39.17 291.14 39.32 291.81 39.57L291.82 39.58Z" fill="white"/>
<path d="M187.53 103.11C187.53 136.14 187.5 169.17 187.58 202.2C187.58 205.54 186.8 206.89 183.08 206.88C122.76 206.76 62.44 206.81 2.11 206.66C1.41 206.66 0.1 204.5 0.1 203.35C0 155.14 0 106.94 0 58.74C0 50.12 0 41.5 0 32.88C0 29.15 3.08 29.69 5.23 29.32C13.05 27.97 20.9 26.83 28.73 25.57C33.37 24.82 37.99 23.98 42.63 23.22C52.77 21.56 62.92 19.92 73.07 18.3C77.46 17.6 81.88 17.06 86.26 16.33C98.99 14.21 111.71 12 124.45 9.90996C131.31 8.78996 138.21 7.94996 145.06 6.78996C156.85 4.78996 168.61 2.60996 180.39 0.569959C182.24 0.249959 184.17 0.119959 186.04 0.279959C186.58 0.319959 187.43 1.64996 187.43 2.39996C187.5 35.97 187.49 69.55 187.49 103.12H187.52L187.53 103.11ZM9.91 202.49C10.48 202.59 11.05 202.78 11.63 202.78C68.41 202.78 125.19 202.78 181.97 202.73C182.34 202.73 183.02 202.23 183.04 201.94C183.25 197.56 183.48 193.18 183.49 188.8C183.52 144.01 183.52 99.22 183.51 54.42C183.51 38.6 183.48 22.77 183.28 6.94996C183.28 6.16996 181.36 4.61996 180.54 4.74996C168.53 6.59996 156.55 8.69996 144.56 10.68C137.79 11.8 131 12.75 124.23 13.87C113.97 15.57 103.73 17.38 93.47 19.11C88.17 20 82.86 20.84 77.55 21.69C68.26 23.18 58.96 24.63 49.67 26.15C41.91 27.42 34.17 28.74 26.42 30.06C20.83 31.01 15.25 32 9.67 32.97C8.64 33.26 7.6 33.56 6.57 33.85C7.06 35.01 7.7 35.59 8.62 36.46C8.71 36.58 8.78 36.71 8.88 36.82C13.77 42.48 18.56 48.23 23.62 53.74C24.83 55.06 26.89 56.38 28.56 56.39C65.96 56.51 103.37 56.42 140.77 56.51C141.63 56.51 143.22 58.05 143.23 58.88C143.37 80.68 143.35 102.49 143.36 124.29C143.36 138.18 143.48 152.07 143.24 165.96C143.21 167.93 145.6 171.83 140.32 171.82C103.88 171.74 67.44 171.82 31 171.7C27.58 171.69 25.56 172.44 23.68 175.65C19.05 183.53 13.77 191.02 8.75 198.66C8.09 199.81 7.44 200.97 6.78 202.12C7.84 202.24 8.9 202.36 9.96 202.48L9.91 202.49ZM3.71 195.54C3.63 195.33 3.92 196.08 4.21 196.83C4.62 196.55 5.16 196.37 5.41 195.99C9.81 189.36 14.2 182.72 18.55 176.06C20.18 173.57 22.92 171.1 23.08 168.49C23.59 160.24 23.04 151.93 23.05 143.65C23.1 116.91 23.24 90.17 23.26 63.43C23.26 61.64 23.16 59.39 22.14 58.15C17.1 52.04 11.74 46.18 6.47 40.26C5.8 39.51 5.01 38.87 4.27 38.19C4.08 38.86 3.73 39.53 3.73 40.19C3.7 91.62 3.71 143.06 3.71 195.55V195.54ZM82.87 60.12V60.09C64.7 60.09 46.53 60.08 28.36 60.16C27.78 60.16 26.71 61.13 26.69 61.67C26.56 66.18 26.63 70.7 26.63 75.22C26.67 105.03 26.71 134.85 26.73 164.66C26.73 166.81 26.56 168.22 29.88 168.2C65.55 168 101.23 168.09 136.9 168C137.72 168 139.13 167.06 139.24 166.39C139.61 164.12 139.6 161.78 139.6 159.46C139.62 127.25 139.63 95.03 139.5 62.82C139.5 61.91 137.83 60.23 136.92 60.22C118.9 60.07 100.88 60.1 82.85 60.1L82.87 60.12Z" fill="white"/>
<path d="M8.70002 198.67C13.72 191.03 19 183.54 23.63 175.66C25.52 172.45 27.53 171.7 30.95 171.71C67.39 171.83 103.83 171.75 140.27 171.83C145.55 171.84 143.16 167.94 143.19 165.97C143.43 152.08 143.31 138.19 143.31 124.3C143.31 102.49 143.32 80.6899 143.18 58.8899C143.18 58.0599 141.58 56.52 140.72 56.52C103.32 56.43 65.91 56.5199 28.51 56.3999C26.84 56.3999 24.78 55.07 23.57 53.75C18.52 48.24 13.72 42.4899 8.83002 36.8299C8.73002 36.7199 8.66002 36.59 8.57002 36.4699C7.65002 35.8099 6.94002 34.8 6.52002 33.86L9.62002 32.98C15.2 32.01 20.79 31.02 26.37 30.07C34.12 28.75 41.87 27.42 49.62 26.16C58.91 24.64 68.21 23.19 77.5 21.7C82.81 20.85 88.12 20.01 93.42 19.12C103.68 17.39 113.92 15.59 124.18 13.88C130.95 12.76 137.74 11.81 144.51 10.69C156.5 8.70995 168.48 6.60995 180.49 4.75995C181.31 4.62995 183.22 6.17995 183.23 6.95995C183.43 22.78 183.46 38.61 183.46 54.43C183.47 99.22 183.47 144.01 183.44 188.81C183.44 193.19 183.2 197.57 182.99 201.95C182.98 202.24 182.3 202.74 181.92 202.74C125.14 202.78 68.36 202.79 11.58 202.79C11.01 202.79 10.44 202.6 9.86002 202.5L6.68002 202.14L8.65002 198.68L8.70002 198.67Z" fill="white"/>
</g>
<defs>
<clipPath id="clip0_1864_11689">
<rect width="1200" height="206.67" fill="white" transform="translate(0 0.209961)"/>
</clipPath>
</defs>
</svg>
