<svg width="24" height="24" viewBox="0 0 24 24" fill="none" xmlns="http://www.w3.org/2000/svg">
<g clip-path="url(#clip0_2613_6)">
<path d="M17.1586 6.84369C16.7686 6.4536 16.5403 5.93069 16.5192 5.37951C16.4982 4.82834 16.686 4.28955 17.0451 3.87088C17.0748 3.83606 17.0903 3.7913 17.0884 3.74557C17.0864 3.69985 17.0673 3.65653 17.0348 3.62431L14.9662 1.55338C14.932 1.5192 14.8857 1.5 14.8373 1.5C14.789 1.5 14.7426 1.5192 14.7084 1.55338L11.4112 4.85056C11.2896 4.97219 11.1979 5.12048 11.1436 5.28369C11.0894 5.44727 10.9979 5.59599 10.8762 5.71804C10.7546 5.84009 10.6062 5.93211 10.4428 5.98681C10.2795 6.04123 10.131 6.13286 10.0092 6.25447L1.55341 14.7084C1.51923 14.7426 1.50003 14.7889 1.50003 14.8373C1.50003 14.8856 1.51923 14.932 1.55341 14.9662L3.622 17.0348C3.65422 17.0673 3.69753 17.0864 3.74326 17.0883C3.78898 17.0902 3.83374 17.0748 3.86856 17.0451C4.28714 16.6856 4.82606 16.4975 5.37742 16.5184C5.92878 16.5393 6.4519 16.7677 6.84206 17.1579C7.23221 17.548 7.4606 18.0711 7.48151 18.6225C7.50242 19.1739 7.3143 19.7128 6.95481 20.1313C6.92511 20.1662 6.90967 20.2109 6.91158 20.2566C6.9135 20.3024 6.93262 20.3457 6.96513 20.3779L9.03372 22.4465C9.06791 22.4807 9.11428 22.4999 9.16263 22.4999C9.21097 22.4999 9.25734 22.4807 9.29153 22.4465L17.7478 13.9907C17.8694 13.8689 17.961 13.7204 18.0154 13.5571C18.0696 13.3935 18.1611 13.2448 18.2828 13.1228C18.4044 13.0007 18.5528 12.9087 18.7162 12.854C18.8794 12.7996 19.0277 12.708 19.1493 12.5863L22.4465 9.28916C22.4807 9.25496 22.4999 9.2086 22.4999 9.16025C22.4999 9.11191 22.4807 9.06554 22.4465 9.03134L20.3779 6.96275C20.3457 6.93025 20.3024 6.91112 20.2567 6.90921C20.211 6.9073 20.1662 6.92274 20.1314 6.95244C19.7133 7.31214 19.1748 7.50078 18.6237 7.48061C18.0725 7.46045 17.5493 7.23298 17.1586 6.84369Z" stroke="white" stroke-width="2.90909" stroke-miterlimit="10"/>
<path d="M11.7417 6.58299L10.9678 5.80908M14.9091 9.75033L14.393 9.23471M18.1903 13.0316L17.4164 12.2577" stroke="white" stroke-width="2.90909" stroke-miterlimit="10" stroke-linecap="round"/>
</g>
<defs>
<clipPath id="clip0_2613_6">
<rect width="24" height="24" fill="white"/>
</clipPath>
</defs>
</svg>
