<svg width="1660" height="1113" viewBox="0 0 1660 1113" fill="none" xmlns="http://www.w3.org/2000/svg">
<g filter="url(#filter0_d_1567_155)">
<path d="M1551.87 721.585C1551.79 720.795 1550.89 720.381 1550.24 720.841L1491.21 762.765C1490.56 763.225 1490.65 764.214 1491.37 764.545L1557.2 794.707C1557.92 795.038 1558.73 794.463 1558.66 793.673L1551.87 721.585Z" fill="url(#paint0_linear_1567_155)"/>
</g>
<g filter="url(#filter1_d_1567_155)">
<path d="M1487.33 824.133C1486.47 823.71 1485.48 824.37 1485.54 825.321L1495.17 976.947C1495.23 977.898 1496.29 978.427 1497.09 977.899L1623.59 893.752C1624.38 893.224 1624.31 892.035 1623.45 891.612L1487.33 824.133Z" fill="url(#paint1_linear_1567_155)"/>
</g>
<g filter="url(#filter2_d_1567_155)">
<path d="M1430.18 1044.43C1431.03 1044.85 1432.03 1044.2 1431.97 1043.25L1419.43 836.32C1419.37 835.369 1418.31 834.836 1417.51 835.362L1244.58 949.686C1243.78 950.212 1243.85 951.401 1244.71 951.827L1430.18 1044.43Z" fill="url(#paint2_linear_1567_155)"/>
</g>
<g filter="url(#filter3_d_1567_155)">
<path d="M118.715 401.449C118.83 402.235 119.752 402.603 120.376 402.11L177.212 357.252C177.836 356.76 177.693 355.777 176.955 355.483L109.688 328.691C108.95 328.397 108.17 329.012 108.285 329.798L118.715 401.449Z" fill="url(#paint3_linear_1567_155)"/>
</g>
<g filter="url(#filter4_d_1567_155)">
<path d="M177.923 295.761C178.798 296.14 179.755 295.431 179.647 294.484L162.362 143.54C162.253 142.593 161.16 142.118 160.394 142.686L38.315 233.127C37.549 233.695 37.6846 234.879 38.559 235.258L177.923 295.761Z" fill="url(#paint4_linear_1567_155)"/>
</g>
<g filter="url(#filter5_d_1567_155)">
<path d="M223.866 72.8558C222.993 72.4737 222.033 73.1802 222.139 74.1276L245.137 280.154C245.243 281.101 246.334 281.579 247.102 281.013L414.027 158.083C414.795 157.518 414.662 156.334 413.789 155.952L223.866 72.8558Z" fill="url(#paint5_linear_1567_155)"/>
</g>
<path d="M441.589 586.982H455.099L398.252 765.426H387.291L332.738 620.121L279.204 765.426H268.243L210.121 586.982H223.887L274.106 743.758L329.679 592.845H335.542L392.389 744.012L441.589 586.982ZM501.897 753.19H589.335V765.426H488.896V586.982H586.531V599.473H501.897V666.772H579.903V678.753H501.897V753.19ZM640.809 753.19H728.246V765.426H627.808V586.982H725.442V599.473H640.809V666.772H718.814V678.753H640.809V753.19ZM879.904 765.426L808.016 679.008H779.72V765.426H766.719V586.982H779.72V666.772H808.016L873.531 586.982H889.846L819.488 672.635L896.474 765.426H879.904ZM936.307 753.19H1023.74V765.426H923.306V586.982H1020.94V599.473H936.307V666.772H1014.31V678.753H936.307V753.19ZM1187.13 586.982H1199.62V765.426H1188.66L1074.96 609.67V765.426H1062.22V586.982H1073.94L1187.13 742.228V586.982ZM1307.22 586.982V587.237C1359.73 587.237 1397.72 624.71 1397.72 676.204C1397.72 727.953 1359.73 765.426 1307.22 765.426H1252.41V586.982H1307.22ZM1306.96 753.445C1352.09 753.445 1384.72 720.815 1384.72 676.204C1384.72 631.593 1352.09 599.218 1306.96 599.218H1265.41V753.445H1306.96Z" fill="white"/>
<path d="M441.589 586.982V586.101H440.941L440.748 586.718L441.589 586.982ZM455.099 586.982L455.939 587.249L456.305 586.101H455.099V586.982ZM398.252 765.426V766.307H398.896L399.092 765.693L398.252 765.426ZM387.291 765.426L386.466 765.736L386.68 766.307H387.291V765.426ZM332.738 620.121L333.563 619.812L332.73 617.593L331.911 619.817L332.738 620.121ZM279.204 765.426V766.307H279.819L280.031 765.73L279.204 765.426ZM268.243 765.426L267.405 765.699L267.603 766.307H268.243V765.426ZM210.121 586.982V586.101H208.907L209.283 587.255L210.121 586.982ZM223.887 586.982L224.726 586.713L224.53 586.101H223.887V586.982ZM274.106 743.758L273.267 744.026L274.048 746.465L274.933 744.062L274.106 743.758ZM329.679 592.845V591.964H329.064L328.852 592.54L329.679 592.845ZM335.542 592.845L336.367 592.535L336.152 591.964H335.542V592.845ZM392.389 744.012L391.564 744.323L392.465 746.718L393.23 744.276L392.389 744.012ZM441.589 587.863H455.099V586.101H441.589V587.863ZM454.26 586.714L397.413 765.158L399.092 765.693L455.939 587.249L454.26 586.714ZM398.252 764.545H387.291V766.307H398.252V764.545ZM388.116 765.116L333.563 619.812L331.913 620.431L386.466 765.736L388.116 765.116ZM331.911 619.817L278.378 765.121L280.031 765.73L333.565 620.426L331.911 619.817ZM279.204 764.545H268.243V766.307H279.204V764.545ZM269.081 765.153L210.959 586.709L209.283 587.255L267.405 765.699L269.081 765.153ZM210.121 587.863H223.887V586.101H210.121V587.863ZM223.048 587.251L273.267 744.026L274.945 743.489L224.726 586.713L223.048 587.251ZM274.933 744.062L330.506 593.149L328.852 592.54L273.279 743.453L274.933 744.062ZM329.679 593.726H335.542V591.964H329.679V593.726ZM334.717 593.155L391.564 744.323L393.214 743.702L336.367 592.535L334.717 593.155ZM393.23 744.276L442.429 587.245L440.748 586.718L391.548 743.749L393.23 744.276ZM501.897 753.19H501.016V754.071H501.897V753.19ZM589.335 753.19H590.216V752.308H589.335V753.19ZM589.335 765.426V766.307H590.216V765.426H589.335ZM488.896 765.426H488.015V766.307H488.896V765.426ZM488.896 586.982V586.101H488.015V586.982H488.896ZM586.531 586.982H587.412V586.101H586.531V586.982ZM586.531 599.473V600.354H587.412V599.473H586.531ZM501.897 599.473V598.592H501.016V599.473H501.897ZM501.897 666.772H501.016V667.653H501.897V666.772ZM579.903 666.772H580.784V665.89H579.903V666.772ZM579.903 678.753V679.634H580.784V678.753H579.903ZM501.897 678.753V677.872H501.016V678.753H501.897ZM501.897 754.071H589.335V752.308H501.897V754.071ZM588.453 753.19V765.426H590.216V753.19H588.453ZM589.335 764.545H488.896V766.307H589.335V764.545ZM489.777 765.426V586.982H488.015V765.426H489.777ZM488.896 587.863H586.531V586.101H488.896V587.863ZM585.649 586.982V599.473H587.412V586.982H585.649ZM586.531 598.592H501.897V600.354H586.531V598.592ZM501.016 599.473V666.772H502.778V599.473H501.016ZM501.897 667.653H579.903V665.89H501.897V667.653ZM579.021 666.772V678.753H580.784V666.772H579.021ZM579.903 677.872H501.897V679.634H579.903V677.872ZM501.016 678.753V753.19H502.778V678.753H501.016ZM640.809 753.19H639.927V754.071H640.809V753.19ZM728.246 753.19H729.127V752.308H728.246V753.19ZM728.246 765.426V766.307H729.127V765.426H728.246ZM627.808 765.426H626.926V766.307H627.808V765.426ZM627.808 586.982V586.101H626.926V586.982H627.808ZM725.442 586.982H726.323V586.101H725.442V586.982ZM725.442 599.473V600.354H726.323V599.473H725.442ZM640.809 599.473V598.592H639.927V599.473H640.809ZM640.809 666.772H639.927V667.653H640.809V666.772ZM718.814 666.772H719.695V665.89H718.814V666.772ZM718.814 678.753V679.634H719.695V678.753H718.814ZM640.809 678.753V677.872H639.927V678.753H640.809ZM640.809 754.071H728.246V752.308H640.809V754.071ZM727.365 753.19V765.426H729.127V753.19H727.365ZM728.246 764.545H627.808V766.307H728.246V764.545ZM628.689 765.426V586.982H626.926V765.426H628.689ZM627.808 587.863H725.442V586.101H627.808V587.863ZM724.561 586.982V599.473H726.323V586.982H724.561ZM725.442 598.592H640.809V600.354H725.442V598.592ZM639.927 599.473V666.772H641.69V599.473H639.927ZM640.809 667.653H718.814V665.89H640.809V667.653ZM717.933 666.772V678.753H719.695V666.772H717.933ZM718.814 677.872H640.809V679.634H718.814V677.872ZM639.927 678.753V753.19H641.69V678.753H639.927ZM879.904 765.426L879.226 765.989L879.49 766.307H879.904V765.426ZM808.016 679.008L808.694 678.444L808.429 678.127H808.016V679.008ZM779.72 679.008V678.127H778.839V679.008H779.72ZM779.72 765.426V766.307H780.601V765.426H779.72ZM766.719 765.426H765.838V766.307H766.719V765.426ZM766.719 586.982V586.101H765.838V586.982H766.719ZM779.72 586.982H780.601V586.101H779.72V586.982ZM779.72 666.772H778.839V667.653H779.72V666.772ZM808.016 666.772V667.653H808.433L808.697 667.331L808.016 666.772ZM873.531 586.982V586.101H873.114L872.85 586.423L873.531 586.982ZM889.846 586.982L890.526 587.541L891.71 586.101H889.846V586.982ZM819.488 672.635L818.807 672.076L818.345 672.638L818.809 673.198L819.488 672.635ZM896.474 765.426V766.307H898.35L897.152 764.863L896.474 765.426ZM880.581 764.862L808.694 678.444L807.339 679.571L879.226 765.989L880.581 764.862ZM808.016 678.127H779.72V679.889H808.016V678.127ZM778.839 679.008V765.426H780.601V679.008H778.839ZM779.72 764.545H766.719V766.307H779.72V764.545ZM767.6 765.426V586.982H765.838V765.426H767.6ZM766.719 587.863H779.72V586.101H766.719V587.863ZM778.839 586.982V666.772H780.601V586.982H778.839ZM779.72 667.653H808.016V665.89H779.72V667.653ZM808.697 667.331L874.212 587.541L872.85 586.423L807.335 666.213L808.697 667.331ZM873.531 587.863H889.846V586.101H873.531V587.863ZM889.165 586.422L818.807 672.076L820.169 673.194L890.526 587.541L889.165 586.422ZM818.809 673.198L895.795 765.988L897.152 764.863L820.166 672.072L818.809 673.198ZM896.474 764.545H879.904V766.307H896.474V764.545ZM936.307 753.19H935.426V754.071H936.307V753.19ZM1023.74 753.19H1024.63V752.308H1023.74V753.19ZM1023.74 765.426V766.307H1024.63V765.426H1023.74ZM923.306 765.426H922.425V766.307H923.306V765.426ZM923.306 586.982V586.101H922.425V586.982H923.306ZM1020.94 586.982H1021.82V586.101H1020.94V586.982ZM1020.94 599.473V600.354H1021.82V599.473H1020.94ZM936.307 599.473V598.592H935.426V599.473H936.307ZM936.307 666.772H935.426V667.653H936.307V666.772ZM1014.31 666.772H1015.19V665.89H1014.31V666.772ZM1014.31 678.753V679.634H1015.19V678.753H1014.31ZM936.307 678.753V677.872H935.426V678.753H936.307ZM936.307 754.071H1023.74V752.308H936.307V754.071ZM1022.86 753.19V765.426H1024.63V753.19H1022.86ZM1023.74 764.545H923.306V766.307H1023.74V764.545ZM924.187 765.426V586.982H922.425V765.426H924.187ZM923.306 587.863H1020.94V586.101H923.306V587.863ZM1020.06 586.982V599.473H1021.82V586.982H1020.06ZM1020.94 598.592H936.307V600.354H1020.94V598.592ZM935.426 599.473V666.772H937.188V599.473H935.426ZM936.307 667.653H1014.31V665.89H936.307V667.653ZM1013.43 666.772V678.753H1015.19V666.772H1013.43ZM1014.31 677.872H936.307V679.634H1014.31V677.872ZM935.426 678.753V753.19H937.188V678.753H935.426ZM1187.13 586.982V586.101H1186.25V586.982H1187.13ZM1199.62 586.982H1200.5V586.101H1199.62V586.982ZM1199.62 765.426V766.307H1200.5V765.426H1199.62ZM1188.66 765.426L1187.95 765.945L1188.21 766.307H1188.66V765.426ZM1074.96 609.67L1075.68 609.15L1074.08 606.968V609.67H1074.96ZM1074.96 765.426V766.307H1075.84V765.426H1074.96ZM1062.22 765.426H1061.34V766.307H1062.22V765.426ZM1062.22 586.982V586.101H1061.34V586.982H1062.22ZM1073.94 586.982L1074.66 586.463L1074.39 586.101H1073.94V586.982ZM1187.13 742.228L1186.42 742.747L1188.01 744.933V742.228H1187.13ZM1187.13 587.863H1199.62V586.101H1187.13V587.863ZM1198.74 586.982V765.426H1200.5V586.982H1198.74ZM1199.62 764.545H1188.66V766.307H1199.62V764.545ZM1189.37 764.906L1075.68 609.15L1074.25 610.189L1187.95 765.945L1189.37 764.906ZM1074.08 609.67V765.426H1075.84V609.67H1074.08ZM1074.96 764.545H1062.22V766.307H1074.96V764.545ZM1063.1 765.426V586.982H1061.34V765.426H1063.1ZM1062.22 587.863H1073.94V586.101H1062.22V587.863ZM1073.23 587.501L1186.42 742.747L1187.84 741.709L1074.66 586.463L1073.23 587.501ZM1188.01 742.228V586.982H1186.25V742.228H1188.01ZM1307.22 586.982H1308.1V586.101H1307.22V586.982ZM1307.22 587.237H1306.34V588.118H1307.22V587.237ZM1252.41 765.426H1251.53V766.307H1252.41V765.426ZM1252.41 586.982V586.101H1251.53V586.982H1252.41ZM1265.41 599.218V598.337H1264.53V599.218H1265.41ZM1265.41 753.445H1264.53V754.326H1265.41V753.445ZM1306.34 586.982V587.237H1308.1V586.982H1306.34ZM1307.22 588.118C1359.26 588.118 1396.83 625.21 1396.83 676.204H1398.6C1398.6 624.21 1360.21 586.355 1307.22 586.355V588.118ZM1396.83 676.204C1396.83 727.454 1359.26 764.545 1307.22 764.545V766.307C1360.21 766.307 1398.6 728.451 1398.6 676.204H1396.83ZM1307.22 764.545H1252.41V766.307H1307.22V764.545ZM1253.29 765.426V586.982H1251.53V765.426H1253.29ZM1252.41 587.863H1307.22V586.101H1252.41V587.863ZM1306.96 754.326C1352.57 754.326 1385.6 721.305 1385.6 676.204H1383.83C1383.83 720.324 1351.6 752.563 1306.96 752.563V754.326ZM1385.6 676.204C1385.6 631.098 1352.56 598.337 1306.96 598.337V600.099C1351.61 600.099 1383.83 632.087 1383.83 676.204H1385.6ZM1306.96 598.337H1265.41V600.099H1306.96V598.337ZM1264.53 599.218V753.445H1266.29V599.218H1264.53ZM1265.41 754.326H1306.96V752.563H1265.41V754.326Z" fill="white"/>
<path d="M422.655 368.066H492.248L421.89 546.51H367.592L297.234 368.066H366.827L394.614 462.896L422.655 368.066ZM567.965 498.585H632.715V546.51H509.334V368.066H631.44V415.991H567.965V435.365H624.812V479.211H567.965V498.585ZM897.708 498.585H962.458V546.51H839.077V368.066H961.183V415.991H897.708V435.365H954.555V479.211H897.708V498.585ZM1136.61 368.066V419.814H1088.43V546.51H1028.78V419.814H980.601V368.066H1136.61ZM1312.42 368.066V419.814H1264.24V546.51H1204.59V419.814H1156.41V368.066H1312.42Z" fill="white"/>
<path d="M422.655 368.066V367.184H421.996L421.81 367.816L422.655 368.066ZM492.248 368.066L493.068 368.389L493.543 367.184H492.248V368.066ZM421.89 546.51V547.391H422.49L422.71 546.833L421.89 546.51ZM367.592 546.51L366.772 546.833L366.992 547.391H367.592V546.51ZM297.234 368.066V367.184H295.939L296.414 368.389L297.234 368.066ZM366.827 368.066L367.673 367.818L367.487 367.184H366.827V368.066ZM394.614 462.896L393.768 463.144L394.61 466.017L395.459 463.146L394.614 462.896ZM422.655 368.947H492.248V367.184H422.655V368.947ZM491.428 367.742L421.07 546.187L422.71 546.833L493.068 368.389L491.428 367.742ZM421.89 545.629H367.592V547.391H421.89V545.629ZM368.412 546.187L298.054 367.742L296.414 368.389L366.772 546.833L368.412 546.187ZM297.234 368.947H366.827V367.184H297.234V368.947ZM365.982 368.313L393.768 463.144L395.459 462.648L367.673 367.818L365.982 368.313ZM395.459 463.146L423.5 368.316L421.81 367.816L393.769 462.646L395.459 463.146ZM567.965 498.585H567.084V499.466H567.965V498.585ZM632.715 498.585H633.596V497.704H632.715V498.585ZM632.715 546.51V547.391H633.596V546.51H632.715ZM509.334 546.51H508.452V547.391H509.334V546.51ZM509.334 368.066V367.184H508.452V368.066H509.334ZM631.44 368.066H632.322V367.184H631.44V368.066ZM631.44 415.991V416.872H632.322V415.991H631.44ZM567.965 415.991V415.109H567.084V415.991H567.965ZM567.965 435.365H567.084V436.246H567.965V435.365ZM624.812 435.365H625.694V434.483H624.812V435.365ZM624.812 479.211V480.092H625.694V479.211H624.812ZM567.965 479.211V478.33H567.084V479.211H567.965ZM567.965 499.466H632.715V497.704H567.965V499.466ZM631.834 498.585V546.51H633.596V498.585H631.834ZM632.715 545.629H509.334V547.391H632.715V545.629ZM510.215 546.51V368.066H508.452V546.51H510.215ZM509.334 368.947H631.44V367.184H509.334V368.947ZM630.559 368.066V415.991H632.322V368.066H630.559ZM631.44 415.109H567.965V416.872H631.44V415.109ZM567.084 415.991V435.365H568.846V415.991H567.084ZM567.965 436.246H624.812V434.483H567.965V436.246ZM623.931 435.365V479.211H625.694V435.365H623.931ZM624.812 478.33H567.965V480.092H624.812V478.33ZM567.084 479.211V498.585H568.846V479.211H567.084ZM897.708 498.585H896.827V499.466H897.708V498.585ZM962.458 498.585H963.339V497.704H962.458V498.585ZM962.458 546.51V547.391H963.339V546.51H962.458ZM839.077 546.51H838.195V547.391H839.077V546.51ZM839.077 368.066V367.184H838.195V368.066H839.077ZM961.183 368.066H962.065V367.184H961.183V368.066ZM961.183 415.991V416.872H962.065V415.991H961.183ZM897.708 415.991V415.109H896.827V415.991H897.708ZM897.708 435.365H896.827V436.246H897.708V435.365ZM954.555 435.365H955.437V434.483H954.555V435.365ZM954.555 479.211V480.092H955.437V479.211H954.555ZM897.708 479.211V478.33H896.827V479.211H897.708ZM897.708 499.466H962.458V497.704H897.708V499.466ZM961.577 498.585V546.51H963.339V498.585H961.577ZM962.458 545.629H839.077V547.391H962.458V545.629ZM839.958 546.51V368.066H838.195V546.51H839.958ZM839.077 368.947H961.183V367.184H839.077V368.947ZM960.302 368.066V415.991H962.065V368.066H960.302ZM961.183 415.109H897.708V416.872H961.183V415.109ZM896.827 415.991V435.365H898.589V415.991H896.827ZM897.708 436.246H954.555V434.483H897.708V436.246ZM953.674 435.365V479.211H955.437V435.365H953.674ZM954.555 478.33H897.708V480.092H954.555V478.33ZM896.827 479.211V498.585H898.589V479.211H896.827ZM1136.61 368.066H1137.49V367.184H1136.61V368.066ZM1136.61 419.814V420.696H1137.49V419.814H1136.61ZM1088.43 419.814V418.933H1087.55V419.814H1088.43ZM1088.43 546.51V547.391H1089.31V546.51H1088.43ZM1028.78 546.51H1027.9V547.391H1028.78V546.51ZM1028.78 419.814H1029.66V418.933H1028.78V419.814ZM980.601 419.814H979.72V420.696H980.601V419.814ZM980.601 368.066V367.184H979.72V368.066H980.601ZM1135.73 368.066V419.814H1137.49V368.066H1135.73ZM1136.61 418.933H1088.43V420.696H1136.61V418.933ZM1087.55 419.814V546.51H1089.31V419.814H1087.55ZM1088.43 545.629H1028.78V547.391H1088.43V545.629ZM1029.66 546.51V419.814H1027.9V546.51H1029.66ZM1028.78 418.933H980.601V420.696H1028.78V418.933ZM981.482 419.814V368.066H979.72V419.814H981.482ZM980.601 368.947H1136.61V367.184H980.601V368.947ZM1312.42 368.066H1313.3V367.184H1312.42V368.066ZM1312.42 419.814V420.696H1313.3V419.814H1312.42ZM1264.24 419.814V418.933H1263.36V419.814H1264.24ZM1264.24 546.51V547.391H1265.12V546.51H1264.24ZM1204.59 546.51H1203.71V547.391H1204.59V546.51ZM1204.59 419.814H1205.47V418.933H1204.59V419.814ZM1156.41 419.814H1155.53V420.696H1156.41V419.814ZM1156.41 368.066V367.184H1155.53V368.066H1156.41ZM1311.54 368.066V419.814H1313.3V368.066H1311.54ZM1312.42 418.933H1264.24V420.696H1312.42V418.933ZM1263.36 419.814V546.51H1265.12V419.814H1263.36ZM1264.24 545.629H1204.59V547.391H1264.24V545.629ZM1205.47 546.51V419.814H1203.71V546.51H1205.47ZM1204.59 418.933H1156.41V420.696H1204.59V418.933ZM1157.29 419.814V368.066H1155.53V419.814H1157.29ZM1156.41 368.947H1312.42V367.184H1156.41V368.947Z" fill="white"/>
<path fill-rule="evenodd" clip-rule="evenodd" d="M730.717 367.338H654.508V547.611H730.717C780.498 547.611 820.854 507.255 820.854 457.474C820.854 407.693 780.498 367.338 730.717 367.338ZM685.078 525.894L720.506 507.138L724.887 506.775L731.963 515.682L746.534 514.757L747.84 513.463L750.256 512.584L751.024 510.939L753.603 508.634L743.039 507.419L742.314 506.179L745.422 506.826L747.903 505.377L758.07 502.501L758.904 500.284L760.561 498.452L759.265 497.147L759.429 495.72L750.151 498.41C747.128 497.869 741.216 496.11 741.76 493.398C742.303 490.686 745.423 484.185 746.916 481.274C748.875 475.141 752.791 461.892 752.781 457.96C752.771 454.028 752.427 442.601 752.256 437.379C753.967 432.566 757.51 422.896 757.993 422.72C758.17 422.656 759.031 422.05 760.187 421.235C762.976 419.27 767.485 416.094 768.269 416.388C769.156 416.722 779.268 414.667 784.212 413.599C784.79 411.931 782.284 408.232 767.639 406.778C763.458 404.563 753.913 400.863 749.179 403.786C747.367 404.445 743.685 406.276 743.449 408.329C743.212 410.383 738.769 412.126 736.576 412.741C732.492 413.042 722.97 415.337 717.561 422.114C713.047 418.608 701.036 414.374 689.111 425.488C692.288 424.697 700.469 424.829 707.781 431.682C708.447 431.759 710.143 434.787 711.597 446.284C707.345 448.878 698.275 455.965 696.011 463.566L706.024 459.516C706.19 460.595 706.303 463.132 705.434 464.65C704.565 466.169 707.219 490.194 708.655 502.017L685.078 525.894Z" fill="white"/>
<defs>
<filter id="filter0_d_1567_155" x="1488.71" y="720.649" width="72.0163" height="78.2809" filterUnits="userSpaceOnUse" color-interpolation-filters="sRGB">
<feFlood flood-opacity="0" result="BackgroundImageFix"/>
<feColorMatrix in="SourceAlpha" type="matrix" values="0 0 0 0 0 0 0 0 0 0 0 0 0 0 0 0 0 0 127 0" result="hardAlpha"/>
<feOffset dy="2.06381"/>
<feGaussianBlur stdDeviation="1.03191"/>
<feComposite in2="hardAlpha" operator="out"/>
<feColorMatrix type="matrix" values="0 0 0 0 0 0 0 0 0 0 0 0 0 0 0 0 0 0 0.25 0"/>
<feBlend mode="normal" in2="BackgroundImageFix" result="effect1_dropShadow_1567_155"/>
<feBlend mode="normal" in="SourceGraphic" in2="effect1_dropShadow_1567_155" result="shape"/>
</filter>
<filter id="filter1_d_1567_155" x="1483.06" y="824.002" width="143.554" height="159.06" filterUnits="userSpaceOnUse" color-interpolation-filters="sRGB">
<feFlood flood-opacity="0" result="BackgroundImageFix"/>
<feColorMatrix in="SourceAlpha" type="matrix" values="0 0 0 0 0 0 0 0 0 0 0 0 0 0 0 0 0 0 127 0" result="hardAlpha"/>
<feOffset dy="2.47658"/>
<feGaussianBlur stdDeviation="1.23829"/>
<feComposite in2="hardAlpha" operator="out"/>
<feColorMatrix type="matrix" values="0 0 0 0 0 0 0 0 0 0 0 0 0 0 0 0 0 0 0.25 0"/>
<feBlend mode="normal" in2="BackgroundImageFix" result="effect1_dropShadow_1567_155"/>
<feBlend mode="normal" in="SourceGraphic" in2="effect1_dropShadow_1567_155" result="shape"/>
</filter>
<filter id="filter2_d_1567_155" x="1241.55" y="835.155" width="192.903" height="214.359" filterUnits="userSpaceOnUse" color-interpolation-filters="sRGB">
<feFlood flood-opacity="0" result="BackgroundImageFix"/>
<feColorMatrix in="SourceAlpha" type="matrix" values="0 0 0 0 0 0 0 0 0 0 0 0 0 0 0 0 0 0 127 0" result="hardAlpha"/>
<feOffset dy="2.47658"/>
<feGaussianBlur stdDeviation="1.23829"/>
<feComposite in2="hardAlpha" operator="out"/>
<feColorMatrix type="matrix" values="0 0 0 0 0 0 0 0 0 0 0 0 0 0 0 0 0 0 0.25 0"/>
<feBlend mode="normal" in2="BackgroundImageFix" result="effect1_dropShadow_1567_155"/>
<feBlend mode="normal" in="SourceGraphic" in2="effect1_dropShadow_1567_155" result="shape"/>
</filter>
<filter id="filter3_d_1567_155" x="106.21" y="328.616" width="73.4587" height="77.8444" filterUnits="userSpaceOnUse" color-interpolation-filters="sRGB">
<feFlood flood-opacity="0" result="BackgroundImageFix"/>
<feColorMatrix in="SourceAlpha" type="matrix" values="0 0 0 0 0 0 0 0 0 0 0 0 0 0 0 0 0 0 127 0" result="hardAlpha"/>
<feOffset dy="2.06381"/>
<feGaussianBlur stdDeviation="1.0319"/>
<feComposite in2="hardAlpha" operator="out"/>
<feColorMatrix type="matrix" values="0 0 0 0 0 0 0 0 0 0 0 0 0 0 0 0 0 0 0.25 0"/>
<feBlend mode="normal" in2="BackgroundImageFix" result="effect1_dropShadow_1567_155"/>
<feBlend mode="normal" in="SourceGraphic" in2="effect1_dropShadow_1567_155" result="shape"/>
</filter>
<filter id="filter4_d_1567_155" x="35.3369" y="142.441" width="146.795" height="158.377" filterUnits="userSpaceOnUse" color-interpolation-filters="sRGB">
<feFlood flood-opacity="0" result="BackgroundImageFix"/>
<feColorMatrix in="SourceAlpha" type="matrix" values="0 0 0 0 0 0 0 0 0 0 0 0 0 0 0 0 0 0 127 0" result="hardAlpha"/>
<feOffset dy="2.47658"/>
<feGaussianBlur stdDeviation="1.23829"/>
<feComposite in2="hardAlpha" operator="out"/>
<feColorMatrix type="matrix" values="0 0 0 0 0 0 0 0 0 0 0 0 0 0 0 0 0 0 0.25 0"/>
<feBlend mode="normal" in2="BackgroundImageFix" result="effect1_dropShadow_1567_155"/>
<feBlend mode="normal" in="SourceGraphic" in2="effect1_dropShadow_1567_155" result="shape"/>
</filter>
<filter id="filter5_d_1567_155" x="219.654" y="72.75" width="197.354" height="213.459" filterUnits="userSpaceOnUse" color-interpolation-filters="sRGB">
<feFlood flood-opacity="0" result="BackgroundImageFix"/>
<feColorMatrix in="SourceAlpha" type="matrix" values="0 0 0 0 0 0 0 0 0 0 0 0 0 0 0 0 0 0 127 0" result="hardAlpha"/>
<feOffset dy="2.47658"/>
<feGaussianBlur stdDeviation="1.23829"/>
<feComposite in2="hardAlpha" operator="out"/>
<feColorMatrix type="matrix" values="0 0 0 0 0 0 0 0 0 0 0 0 0 0 0 0 0 0 0.25 0"/>
<feBlend mode="normal" in2="BackgroundImageFix" result="effect1_dropShadow_1567_155"/>
<feBlend mode="normal" in="SourceGraphic" in2="effect1_dropShadow_1567_155" result="shape"/>
</filter>
<linearGradient id="paint0_linear_1567_155" x1="1569.81" y1="776.361" x2="1497.03" y2="743.011" gradientUnits="userSpaceOnUse">
<stop stop-color="#FF382B"/>
<stop offset="1" stop-color="#C53364"/>
</linearGradient>
<linearGradient id="paint1_linear_1567_155" x1="1485.41" y1="823.181" x2="1585.31" y2="973.374" gradientUnits="userSpaceOnUse">
<stop stop-color="#BB5BFA"/>
<stop offset="1" stop-color="#D3408C"/>
</linearGradient>
<linearGradient id="paint2_linear_1567_155" x1="1271.74" y1="1004.95" x2="1457.72" y2="882.002" gradientUnits="userSpaceOnUse">
<stop stop-color="#70EEF0"/>
<stop offset="1" stop-color="#036CDA"/>
</linearGradient>
<linearGradient id="paint3_linear_1567_155" x1="98.0171" y1="347.652" x2="172.393" y2="377.276" gradientUnits="userSpaceOnUse">
<stop stop-color="#70EEF0"/>
<stop offset="1" stop-color="#036CDA"/>
</linearGradient>
<linearGradient id="paint4_linear_1567_155" x1="179.891" y1="296.615" x2="72.5095" y2="151.67" gradientUnits="userSpaceOnUse">
<stop stop-color="#BB5BFA"/>
<stop offset="1" stop-color="#D3408C"/>
</linearGradient>
<linearGradient id="paint5_linear_1567_155" x1="384.105" y1="104.261" x2="204.582" y2="236.468" gradientUnits="userSpaceOnUse">
<stop stop-color="#FF382B"/>
<stop offset="1" stop-color="#C53364"/>
</linearGradient>
</defs>
</svg>
