<?xml version="1.0" encoding="UTF-8"?>
<svg id="Laag_1" data-name="Laag 1" xmlns="http://www.w3.org/2000/svg" viewBox="0 0 974.42 400">
  <defs>
    <style>
      .cls-1 {
        fill: #fff;
      }
    </style>
  </defs>
  <path class="cls-1" d="m510.56,217.21c-11.14,13.8-25.09,15.99-41.88,12.17-9.73-2.21-20.28-.79-30.44-1,1.11-1.29,1.81-2.54-.23-3.6,4.59-3.86,4.25-8.58,1.85-13.24-11.59-22.5-23.37-44.9-34.98-67.39-7.28-14.1-14.27-28.34-21.6-42.42-2.3-4.43-4.68-7.28-8.65-.52-5.51,9.39-10.8,18.87-15.97,28.45-2.41,4.46-1.82,6.92,2.08,10.24,24.2,20.61,37.72,46.28,41.2,78.5,1.42,13.12-4.4,10.07-10.95,10.06-36.79-.07-73.58-.16-110.37-.38-2.65-.02-6.36,1.7-7.82-1.85-1.66-4.04,1.29-7.29,4.34-8.55,9.78-4.06,13.15-13.34,17.92-21.23,9.42-15.58,17.79-31.8,27.13-47.44,3.04-5.09-.13-6.13-3.27-7.36-18.31-7.18-37.46-8.19-56.09-3.34-38.14,9.93-64.25,43.59-68.58,81.48-.97,8.48-3.58,9.78-15.77,9.64-8.27-.09-7.37-5.51-6.7-10.26,5.29-37.63,21.71-68.32,55.22-88.57,23.68-14.31,48.92-20.35,76.3-15.72,8.35,1.41,16.81,2.61,24.69,6.56,5.27,2.64,9.54-.79,12.47-5.19,2.05-3.07,3.58-6.49,5.34-9.73-2.58-2.84-6-1.81-9.12-1.82-30.9-.14-61.81-.15-92.71-.33-3.16-.02-7.56,1.5-8.34-3.78-.74-5.04-.6-9.69,6.74-8.69,1.44.2,2.95.13,4.41-.03,3.69-.38,4.72-2.74,4.64-6.15-.09-4.01-3.07-3-5.08-2.84-5.65.46-9.83-.97-10.73-7.25-.86-6.02.2-9.76,7.96-9.68,46.79.48,93.59.58,140.38.68,3.99,0,6.49,1.46,8.32,4.88,13.24,24.8,25.21,50.26,38.45,75.08,3.44,6.44,5.4,4.98,9.24,2.78,15.88-9.09,31.68-18.32,47.51-27.49,22.22-12.87,44.44-25.73,66.65-38.62,14-8.13,27.88-16.47,42.03-24.32,3.62-2.01,4.39-3,3.38-7.62-2.04-9.35-7.85-17.07-9.83-26.35-.62-2.9-4.31-2.46-6.88-2.49-10.59-.11-21.19-.02-31.79-.22-8.8-.17-14.01-4.52-13.74-11.09.29-7.21,4.65-10.98,13.77-11.06,18.25-.15,36.5-.19,54.74.1,11.61.18,16.57,9.53,9.89,18.98-2.43,3.43-2.32,5.52-1,9.24,10.13,28.56,23.81,55.65,34.35,84.03,2.21,5.96,4.66,7.88,12.44,6.47,22.79-4.14,45.81-4.67,68.41,3.05,22.11,7.55,40.5,20.01,53.89,39.17,9.41,13.48,18.51,27.55,19.9,44.38.53,6.45,4.48,11.74,3.86,18.4-.48,5.14-1.9,7.69-7.33,7.25-2.92-.24-5.89-.18-8.82,0-4.91.29-6.67-1.98-6.92-6.78-1.72-33.65-18.64-58.68-46.81-75.25-21.48-12.63-45.76-14.41-70.2-9.27-3.08.65-6.1,2.15-3.6,7.35,10.16,21.11,16.8,43.78,28.61,64.2,2.82,4.87,8.22,6.65,11.27,11.03,1.1,1.58,3.5,2.52,2.63,5.08-.9,2.66-3.35,1.71-5.19,2.06-1.14.22-2.35.03-3.52.04-21.96.09-25.77-3.27-33.56-24.72-5.6-15.41-12.92-30.19-19.04-45.42-2.77-6.89-7.16-5.66-11.21-2.6-22.11,16.64-33.63,39.33-36.33,66.52-.44,4.47-1.16,5.94-5.8,6.14-17.88.75-16.78,1.07-14.27-17.35,3.27-24.04,14.91-43.63,29.78-61.56,5.58-6.72,13.62-11.52,20.92-16.67,6.79-4.79,2.29-9.64.13-13.76-2.69-5.1-6.29-2.38-9.48.45-19.91,17.57-40.52,34.39-59.61,52.81-15.14,14.61-32.07,27.17-46.53,42.42-1.29-.57-1.88.06-2.08,1.29Zm-31.47-5.13c2.85.85,5.36-1.24,8.12-3.74,11.87-10.77,23.6-21.78,35.8-32.07,30.52-25.74,59.21-53.5,89.68-79.24,6.86-5.8,3.2-11.23.08-15.67-3.05-4.33-8.65-2.36-12.33.23-17.78,12.52-37.49,21.73-56.02,32.98-30.76,18.68-62.25,36.16-93.56,53.92-3.52,1.99-3.88,3.97-3.23,7.52,1.63,8.97,8.65,15.5,10.93,23.86,2.94,10.82,10.97,11.27,20.55,12.2Zm-113.25,12.02c14.13.43,15.21-.43,13.87-9.83-3.13-21.98-13.63-39.96-30.06-54.73-3.75-3.37-5.84-3.12-8.7,1.36-10.77,16.83-19.93,34.57-29.99,51.8-2.31,3.95-2.93,5.6,2.97,6.45,18.29,2.64,36.86,1.88,51.91,4.95Zm-54.62-132.94s0,.07,0,.1c3.81,0,7.64-.19,11.44.05,3.9.25,5.12-1.36,4.92-5.11-.18-3.34.34-6.48-4.7-6.34-7.91.21-15.84-.07-23.75.05-2.91.04-5.92.23-5.68,4.68.21,3.75,1.7,6.22,5.46,6.5,4.08.3,8.21.07,12.31.07Z"/>
  <path class="cls-1" d="m85.17,342.48c2.76,8.55,11.55,11.17,16.98,17.14,4.73,5.19,10.44,9.47,15.46,14.41,1.12,1.1,4.06,2.74,1.52,4.92-1.7,1.46-2.84-.72-4.29-1.58-12.92-7.61-22.35-19.78-35.52-27.07-1.38-.76-2.76-2.67-2.96-4.2-1.09-8.36-5.52-15.74-5.47-24.7.04-7.02-3.07-14.5-7.56-20.67-.84-1.15-1.98-2.48-3.63-1.91-1.72.6-3.04,1.95-2.91,3.92.45,6.76-.75,14.4,2.06,20.02,3.3,6.6-2.03,13.54,3.11,19.86,1.54,1.9-3.61,2.45-5.71.92-3.33-2.41-6.33-5.26-10.55-6.2-1.77,2.24,3.99,5.49-.81,7.28-3.42,1.28-5.58-.95-7.4-3.37-2.39-3.19-5.3-5.13-11.4-5.11,10.76,9.5,20.39,17.73,29.67,26.35,3.03,2.81,10.77,4.97,6.93,9.79-3.48,4.37-7.15-2.83-10-5.07-11.96-9.38-23.15-19.74-35.72-28.39-1.81-1.24-3.62-3.43-4.1-5.5-4.36-18.49-8.49-37.03-12.55-55.59-1.03-4.71.37-9.36,4.68-11.33,10.72-4.89,20.22-12.01,31.41-16.1,6.69-2.45,8.61.68,9.78,5.88.56,2.52.48,5.07,1.3,7.68,2.62,8.29,7.45,10.76,14.09,5.52,9.23-7.27,20.49-10.47,30.47-16.24,7.92-4.58,13.32-.76,14.41,8.36,1.62,13.64,3.42,15,15.34,8.3,9.84-5.53,19.52-11.32,29.81-15.96,8.92-4.02,11.26-2.7,13.66,6.89,3.94,15.72,7.4,31.5,10.21,47.49,1.84,10.49,1.64,21.46,4.26,31.16,1.98,7.33-1.69,15.74,4.22,22.07.51.55.32,2.5-.26,3.19-1.61,1.87-2.9.23-4.41-.7-7.51-4.63-14.08-10.39-20.36-16.52-2.5-2.44-4.71-5.4-9.9-3.77,8.65,7.74,16.9,15.12,25.16,22.5,1.96,1.75,4.11,3.31,5.87,5.23,1,1.09,1.08,2.77-.15,3.99-1.01,1-2.27.67-3.1-.21-4.46-4.69-11.2-6.13-15.35-11.47-5.25-6.76-13.49-9.99-19.97-15.39-4.95-4.12-7.12-9.06-8.94-15.26-2.95-10.05-4.13-20.41-6.83-30.46-.83-3.1-1.89-5.97-5.67-5.19-3.51.72-4.79,3.21-4.98,7.06-.49,9.61,3.94,18.18,5.91,27.15,1.53,6.96,1.87,13.55,1.58,20.31-.25,5.74-3.97,2.79-6.12,1.41-2.99-1.91-4.62-6.29-10.53-4.62,6.94,6.38,13.37,12.21,19.68,18.18,1.29,1.22,4.46,2.19,2.59,4.57-1.53,1.93-3.65.33-5.36-1-11.26-8.76-22.54-17.49-33.87-26.16-1.1-.84-2.59-1.16-3.9-1.73-.08-.23-.11-.5-.26-.69-.08-.1-.34-.07-.52-.1.3.22.6.44.9.66Z"/>
  <path class="cls-1" d="m973.43,370.13c-3.7,1.63-6.41.79-8.81-1.16-13.08-10.61-25.9-21.55-39.27-31.78-7.7-5.89-2.98-15.35-7.79-22.23-2.55-3.64-1.96-9.56-2.53-14.48-1.45-12.36-8.64-19.08-21.33-19.27-12.06-.18-24.12-.06-36.18,0-9.52.04-15.08,6.9-12.51,16.04,2.76,9.86,4.73,19.79,4.58,30.03-.05,3.27,1.42,5.79,3.23,7.9,1.99,2.32,3.25,5.32,1.55,7.1-3.58,3.75-1.89,5.92.97,8.53,1.94,1.77,2.65,4.49,1.14,6.38-2.46,3.06-3.88-.67-5.56-1.69-2.9-1.77-5-4.91-11.09-5.5,17.08,18.4,36.84,31.44,52.77,48.33-.5.56-1.01,1.11-1.51,1.67-23.67-18.53-47.35-37.05-71.02-55.58,1.79,7.1,7.39,10.83,11.99,15.04,11.41,10.44,23.54,20.08,35.38,30.05,1.53,1.29,4.13,2.81,2.64,4.82-2.03,2.74-4.45.06-6-1.23-18.08-15.21-35.84-30.79-55.44-44.09-3.04-2.06-5.7-5.63-4.31-8.9,1.93-4.53-1.51-7.79-1.37-10.88.69-15.89-10.85-28.99-8.34-45.6,2.32-15.35,16.42-32.29,32.07-32.36,28.78-.13,57.62-1.78,86.31,1.28,25.01,2.67,42.21,14.73,49.25,40.47,3.65,13.35,6.29,26.63,7.38,40.3.22,2.68,2.1,4.06,3.08,6.08.86,1.77,3.25,4.34.3,5.95-4.39,2.39-2.67,5.09-1.08,7.93.85,1.51,2.32,2.88.39,4.53-1.99,1.69-3.74.77-5.5-.58-6.47-4.96-12.22-10.95-20.53-13.58,7.92,9.79,19.86,15.75,27.16,26.49Z"/>
  <path class="cls-1" d="m527.6,350.69c14.94,16.58,33.49,29.3,48.86,45.59-24.66-13.84-44.55-34.23-67.41-50.52-.65.76-1.3,1.51-1.95,2.27,18.07,16.03,36.14,32.06,54.29,48.16-2.85,2.68-4.52.82-5.54.02-22.02-17.41-42.85-36.32-65.9-52.44-1.56-1.09-3.29-3.21-3.38-4.92-.95-19.13-9.12-36.77-11.22-55.65-1.45-13.04-.91-14.06,11.82-19.21,7.5-3.03,13.85-8.3,21.49-11.34,3.68-1.46,7.12-2.47,10.92-2.47,35.32.02,70.63.04,105.95.21,4.07.02,9.96-1.43,10.44,4.89.42,5.57-3.65,8.41-9.09,9.86-3.86,1.03-7.87,2.79-10.94,5.29-10.26,8.34-21.94,9.78-34.63,9.28-16.46-.64-32.96-.33-49.44-.23-8.64.05-9.69,1.93-6.45,10.11.64,1.61,1.07,3.3,1.52,4.98,4.41,16.54,4.4,16.36,22.1,16.01,17.3-.34,34.61-.27,51.92-.32,3.27-.01,6.98.07,8.15,3.78,1.38,4.34-2.52,5.46-5.43,6.55-11.13,4.18-19.83,12.29-29.94,18.1-1.47.85-4.06,2.25-4.68,1.71-6.96-5.96-15.13.71-22.58-2.57-5.18-2.28-11.3,2.78-10.88,7.49q.79,8.68-7.99,5.38Z"/>
  <path class="cls-1" d="m687.27,349.92c17.7,15.49,35.39,30.99,53.09,46.48-.7.84-1.39,1.69-2.09,2.53-27.08-21.28-54.17-42.56-81.25-63.84-.44.57-.88,1.13-1.31,1.7,21.93,19.21,43.86,38.42,65.79,57.63-.57.72-1.14,1.45-1.71,2.17-4.3-.61-7.82-3.55-10.59-6.32-16-16.03-35.37-27.9-52.34-42.7-3.08-2.69-8.93-7.18-7.76-8.53,5.89-6.77-1.74-10.24-2.28-15.12-1.62-14.69-6.32-28.6-9.87-42.78-1.43-5.73-.04-8.55,4.8-11.23,9.87-5.47,19.74-10.89,29.82-16,7.36-3.74,11.26.78,11.76,5.45,1.53,14.39,7.97,27.8,7.86,42.44-.04,4.88-.38,9.84,3.62,13.99,2.06,2.13,1.86,5.61.88,8.45-1.05,3.04-1.15,4.86,2.03,7.13,1.89,1.34,7.27,5.88-.66,7.9-3.21.82.07,1.91.07,2.87,0,3.22,5.13,6.07,1.29,9.34-4.32,3.67-6.28-2.43-11.14-1.54Z"/>
  <path class="cls-1" d="m336.76,350.99c10.74,12.53,24.08,22.13,35.93,33.35,1.76,1.66,5.82,3.36,3.59,5.94-3.24,3.74-4.56-1.4-6.46-2.88-17.49-13.67-34.76-27.63-52.4-41.11-5.58-4.27-9.07-8.42-10.08-16.08-1.86-14.12-5.59-28.01-8.94-41.9-3.71-15.39-2.73-18.16,11.67-24.7,7.4-3.36,13.36-9.01,21.26-11.74,5.81-2,8.36-.37,9.95,4.47,1.37,4.16,2.6,8.49,3.03,12.83,1.43,14.39,6.77,28,7.96,42.45.53,6.37-.74,12.72,2.9,19.31,2.67,4.82-4.17,1.66-7.13,3.37,6.66,5.3,11.04,10.58,9.72,20.37-.83,6.15,8.93,8.8,13.31,13.7,4.82,5.39,11.9,8.61,16.28,17.31-11.16-4.16-17.88-12-26.01-17.46-8.28-5.56-14.32-14.27-24.59-17.21Z"/>
  <path class="cls-1" d="m475.9,333.97c.16,2.01-.69,4.01-2.63,3.79-3.96-.44-4.78,2.44-6.28,4.82-.91,1.44-1.68,3.69-3.77,2.97-7.1-2.44-11.6,2.63-16.43,5.83-3.32,2.2-5.74,2.38-8.55.13-4.78-3.83-9.49-7.75-14.18-11.69-2.71-2.28-4.26-4.29-.51-7.52,4.09-3.51.97-8.5.34-12.3-2.02-12.36-5.14-24.55-8.14-36.72-2.27-9.2.47-15.72,9.56-18.23,9.08-2.51,16.03-9.02,24.99-11.75,6.1-1.85,8.51-.28,10.05,5.5,4.39,16.48,7.15,33.25,10.21,50,1.52,8.33,1.15,17.33,5.34,25.18Z"/>
  <path class="cls-1" d="m238.48,321.19c10.53-2.31,23.2-1.12,35.76-1.89,6.2-.38,12.35,1.42,18.78.9,4.59-.37,5.1,3.51,1.69,6.34-8.24,6.84-16.8,13.27-27.53,15.84-2.21.53-4.85-.1-6.46,2.14-3,4.19-5.97,3.36-9.52.49-2.44-1.97-5.84-6.26-7.37,1.13-.32,1.55-2.74,3.11-4.28,1.75-8.54-7.55-17.19.55-25.8-.32-4.01-.41-8.14,1.01-11.39-2.56-1.73-1.89-4.71-3.18-4.25-6.22.52-3.46,3.91-2.54,6.21-3.48,7.16-2.92,12.45-8.88,19.99-11.8,4.26-1.65,7.97-2.4,14.16-2.32Z"/>
  <path class="cls-1" d="m364.18,44.99c-9.71,0-19.41.06-29.11-.02-7.37-.06-11.2-4.06-11.43-11.28-.23-7.1,3.42-10.91,10.59-10.57,20.5.96,41.06-1.05,61.56,1.5,6.64.83,9.12,3.53,9.16,10.03.04,7.01-3.17,10.51-9.86,10.65-10.29.22-20.59.06-30.89.06,0-.12,0-.24,0-.36Z"/>
  <path class="cls-1" d="m208.43,104.29c-17.44.05-17.58.05-17.39-13.3.11-7.89-3.38-18.27,1.34-23.03,5.54-5.6,16.21-1.08,24.6-1.93,5.81-.59,7.74,1.86,7.79,7.54.04,4.7-1.42,6.41-6.02,5.79-1.72-.23-3.57-.21-5.26.15-4.07.86-5.36,3.51-5.06,7.62.29,3.97,2.38,4.94,5.78,4.86,2.64-.06,5.32-.2,7.93.1,4.63.53,3.87,4.16,4.09,7.38.24,3.5-1.38,4.82-4.56,4.83-4.41.02-8.82,0-13.23,0Z"/>
  <path class="cls-1" d="m959.66,387.96c-12.18-3.13-18.17-17.02-31.95-17.75,8.86,8.18,17.72,16.36,26.55,24.51-2.86,3.26-3.84,1-5.04.05-8.47-6.75-16.9-13.55-25.39-20.28-7.73-6.13,4.17-8.33,2.92-13.97-.58-2.6,4.39-.9,6.07.71,9.04,8.7,19.5,15.92,26.85,26.73Z"/>
  <path class="cls-1" d="m366.5,395.78c-18.26-12.75-37.02-24.66-52.45-40.77-1.57-1.64-4.07-3.37-2.27-5.91,1.74-2.46,4.13-.23,5.31.82,16.75,15.01,34.57,28.84,49.42,45.86Z"/>
  <path class="cls-1" d="m627.77,386.41c-2.54-.5-3.18-.46-3.62-.74-3.78-2.37-7.98-8.49-11.57-5.36-4.21,3.68,5.6,5.3,4.54,10.78-10.78-4.15-17.13-13.6-26.63-19.8,3.03-2.6,5.99-2.35,7.82-.95,3.8,2.91,6.68,4.8,9.34-1.09.96-2.13,2.74-1.28,4.41-.18,6.29,4.14,12.01,8.74,15.71,17.34Z"/>
  <path class="cls-1" d="m543.94,399.8c-18.07-15.66-35.14-29.19-52.88-41.84-2.02-1.44-2.15-3.85-1-5.42,1.88-2.55,4.18-1.03,6,.57,12.53,10.94,25.11,21.83,37.48,32.94,3.69,3.31,9.43,5.02,10.39,13.75Z"/>
  <path class="cls-1" d="m970.98,382.35c-5.09,2.49-8.41-1.88-11.35-4.1-10.16-7.68-19.8-16.07-29.39-24.47-2.06-1.81-6.56-4.05-3.6-7.45,2.6-2.98,5.71-.18,8.23,2.05,10.91,9.67,21.93,19.21,32.87,28.85,1.47,1.29,3.5,2.32,3.25,5.12Z"/>
  <path class="cls-1" d="m708.06,398.95c-13.35-6.94-22.77-16.49-33.33-24.44-5.57-4.19-10.82-8.81-16.37-13.03-2.6-1.98-6.31-4.11-3.73-7.35,2.11-2.65,5.58.26,7.32,2.19,7.47,8.27,17.09,14.04,24.89,21.84,6.57,6.56,14.56,11.57,21.22,20.8Z"/>
  <path class="cls-1" d="m58.83,379.28c-6.93,1.52-10.11-2.65-13.88-5.51-8.82-6.7-17.24-13.91-26.1-20.56-2.36-1.77-3.4-3.23-1.81-5.62,1.32-1.97,3.41-2.4,5.32-.71,12.19,10.77,24.32,21.59,36.48,32.4Z"/>
  <path class="cls-1" d="m849.98,389.34c-2.49,1.27-3.68,1.76-5.52.3-9.3-7.37-18.87-14.41-28.21-21.72-2.25-1.76-4.56-3.69-5.44-6.7-.3-1.02-1.51-1.83-.55-3.07,1.28-1.66,2.49-.82,3.68.12,6.61,5.23,13.38,10.29,19.78,15.77,5.47,4.69,10.53,9.87,16.27,15.31Z"/>
  <path class="cls-1" d="m719.63,372.47c5.3-1.78,7.67-2.07,9.65-.35,8.64,7.48,17.22,15.02,25.78,22.59,1.03.91,2.39,1.96,1.25,3.69-.71,1.06-1.77,1.82-2.86.85-10.24-9.21-20.46-18.44-33.82-26.78Z"/>
  <path class="cls-1" d="m906.45,400c-11.76-9.31-23.53-18.63-36.62-28.99,10.74.29,23.29,9.6,38.27,26.9-.55.7-1.1,1.39-1.65,2.09Z"/>
  <path class="cls-1" d="m528.32,396.1c-9.52-1.26-14.67-9-21.84-13.68-3.15-2.06-5.84-4.87-8.54-7.53-1.8-1.76-6.85-2.44-3.87-6.13,1.79-2.21,4.52.86,6.54,2.32,10.15,7.29,17.8,17.36,27.71,25.03Z"/>
  <path class="cls-1" d="m940.69,399.97c-8.61-2.44-13.49-10.25-20.58-14.89-3.64-2.38-6.93-5.32-10.26-8.15-1.26-1.07-4.67-1.34-2.29-4.31,1.9-2.38,3.92-.41,5.34.53,3.81,2.53,7.48,5.32,10.93,8.32,6.23,5.43,12.25,11.09,18.36,16.65-.5.62-1,1.23-1.5,1.85Z"/>
  <path class="cls-1" d="m171.07,384.52c-9.6-10.03-20.02-16.68-29.79-24.19-1.53-1.18-2.28-3.01-1.44-4.63.93-1.8,3.13-1.86,4.6-.81,9.97,7.09,18.63,15.66,26.98,24.53.5.53-.1,2.11-.35,5.1Z"/>
  <path class="cls-1" d="m79.08,354.21c9.46,8.19,18.3,15.84,28.15,24.37-12.44.27-29.46-14.43-28.15-24.37Z"/>
  <path class="cls-1" d="m20.18,361.63c10.62,5.68,18.14,13.76,26.27,21.04,1.43,1.28,2.09,3.14.71,4.65-1.41,1.54-2.54-.12-3.51-1.08-6.05-5.98-12.94-10.89-19.96-15.65-2.83-1.92-4.05-4.6-3.5-8.97Z"/>
  <path class="cls-1" d="m576.01,370.11c13.28,4.47,20.92,15.72,30.79,24.25-12.74-4.98-22-14.39-30.79-24.25Z"/>
  <path class="cls-1" d="m163.64,389.13c-9.98-4.89-18.19-11.6-22.98-21.83,8.8,6.08,18.5,11.15,22.98,21.83Z"/>
  <path class="cls-1" d="m585.55,391.53c-10.03-4.37-17.19-12.56-25.75-18.84-.9-.66-1.46-2.16-.11-2.91.87-.48,2.54-.66,3.24-.14,8.5,6.26,17.68,11.86,22.62,21.9Z"/>
  <path class="cls-1" d="m684.2,392.65c-8.41-2.33-12.67-8.22-18.42-11.62-2.46-1.45-5.01-3.66-7.43-5.63-1.61-1.31-3.5-3.03-2.25-5.09,1.38-2.26,3.61-1.09,5.27.19,7.97,6.16,15.71,12.57,22.82,22.14Z"/>
  <path class="cls-1" d="m754.74,371.61c12.36,1.22,18.31,10.83,25.22,19.2-9.96-4.3-17.69-11.67-25.22-19.2Z"/>
  <path class="cls-1" d="m101.36,390.78c-8.21-2.6-14.57-7.74-20.27-13.82-.88-.94-1.14-2.34-.2-3.1.72-.58,2.52-.87,3.13-.39,6.44,5.06,13.76,9.3,17.34,17.31Z"/>
  <path class="cls-1" d="m916.93,395.68c-8.69-7.11-17.38-14.22-26.21-21.46,6.87-1.82,24.41,11.18,26.21,21.46Z"/>
  <path class="cls-1" d="m769.12,394.33c-11.98-4.49-20.04-14.47-29.94-21.98,13.77,1.98,19.47,15.24,29.94,21.98Z"/>
  <path class="cls-1" d="m433.64,352.86c.2,3.43-.36,5-2.12,5.96-2.8,1.53-2.27-1.5-3.33-2.38-4.25-3.54-8.64-6.91-12.85-10.5-1.76-1.51-3.79-3.55-2.06-5.98,1.62-2.28,4.25-1.64,6.36-.37,6.03,3.65,10.8,8.55,14,13.27Z"/>
  <path class="cls-1" d="m396.53,378.6c-11.15.17-15.05-10.69-23.24-15.3,12.33-2.07,15.85,9.43,23.24,15.3Z"/>
  <path class="cls-1" d="m417.07,364.67c-4.18,3.94-7.45,6.16-11.45.04-1.98-3.03-5.74-4.84-8.38-7.51-1.72-1.74-6.38-2.78-3.28-6.43,2.68-3.17,5.4.21,7.47,1.64,3.57,2.47,6.94,5.38,9.83,8.6,1.58,1.76,3.92,2.03,5.81,3.67Z"/>
  <path class="cls-1" d="m405.86,373.43c-8.82-1.95-14.84-8.24-21.5-13.47-1.42-1.11-.58-2.49.57-3.68,1.8-1.85,3.56-.43,4.63.42,6.07,4.8,12.51,9.27,16.3,16.73Z"/>
  <path class="cls-1" d="m408.7,345.2c2.46.2,17.01,13.53,17.16,15.79.24,3.59-2.89,3.18-4.11,2.28-5.59-4.15-10.9-8.7-16.16-13.26-.66-.57-.95-2.28-.61-3.15.57-1.46,2.21-1.67,3.72-1.66Z"/>
  <path class="cls-1" d="m770.9,370.68c10.55,1.07,14.89,8.06,20.74,14.29-6.41.09-14.72-5.65-20.74-14.29Z"/>
  <path class="cls-1" d="m65.77,359.17c-.05,3.22-2.23,3.42-4.65,2.1-2.02-1.1-3.6-2.98-5.55-4.25-2.95-1.91-6.28-3.44-6.01-7.75.08-1.29.96-2.12,2.26-2.24,4.09-.39,6.49,2.22,8.58,5.11,1.67,2.3,5.16,3.13,5.36,7.03Z"/>
  <path class="cls-1" d="m37.56,390.98c-7.91.33-9.9-7.13-15.13-9.41-.26-.11-.22-1.71.17-2.31.78-1.21,2.37-.98,3.06-.26,3.7,3.84,8.9,6.25,11.9,11.98Z"/>
  <path class="cls-1" d="m637.78,378.02c-1.31.83-1.58,1.15-1.79,1.11-5.04-.79-9.63-2.32-11.42-7.79-.13-.41.91-1.73,1.34-1.7,5.47.37,8.65,3.92,11.86,8.38Z"/>
  <path class="cls-1" d="m787.21,372.52c7.24-2.43,10.86,1.69,14.5,7.8-7.25.63-9.97-5.14-14.5-7.8Z"/>
  <path class="cls-1" d="m659.99,388.68c7.31-.29,11.02,3.82,13.12,10.07-4.37-3.36-8.75-6.72-13.12-10.07Z"/>
  <path class="cls-1" d="m438,224.77c2.04,1.06,1.34,2.32.23,3.6-2.25-1.08-1.95-2.3-.23-3.6Z"/>
  <path class="cls-1" d="m510.56,217.21c.21-1.23.79-1.85,2.08-1.29-.48.8-.86,1.72-2.08,1.29Z"/>
</svg>