<svg width="448" height="401" viewBox="0 0 448 401" fill="none" xmlns="http://www.w3.org/2000/svg">
<g clip-path="url(#clip0_1864_12013)">
<path d="M86.8801 159.9C86.8801 116.72 86.9001 73.5399 86.8301 30.3599C86.8301 28.2299 87.3001 27.5899 89.5201 27.5999C111.64 27.6899 133.77 27.6999 155.89 27.6399C165.1 27.6199 174.31 27.0599 183.51 27.3199C206.2 27.9499 228.9 27.4799 251.59 27.5999C278.6 27.7399 305.62 27.6799 332.63 27.5399C337.37 27.5199 342.09 27.1599 346.86 27.5399C349.17 27.7199 349.48 28.4099 349.46 30.3999C349.38 42.8999 349.41 55.3999 349.41 67.8999C349.41 130.16 349.41 192.42 349.41 254.69C349.41 266.17 349.35 277.66 349.45 289.14C349.47 291.44 348.94 292.19 346.48 292.18C314.24 292.12 282 292.18 249.76 292.2C232.16 292.21 214.56 292.19 196.96 292.2C185.9 292.2 174.85 292.24 163.79 292.24C138.83 292.24 113.88 292.21 88.9201 292.28C86.9401 292.28 86.8701 291.44 86.8701 289.94C86.9001 255.89 86.9001 221.84 86.9001 187.79C86.9001 178.5 86.9001 169.2 86.9001 159.91C86.9001 159.91 86.8901 159.91 86.8801 159.91V159.9ZM239.36 127.76L239.25 127.82C236.26 131.82 235.15 136.56 234.06 141.29C233.91 141.95 234.09 142.69 235.13 142.29C236.12 142.84 237.22 142.67 238.27 142.67C261.25 142.67 284.22 142.68 307.2 142.64C310.46 142.64 313.61 141.28 316.94 141.7C322.95 142.47 328.96 142.93 335.02 142.22C337.75 141.9 339.02 140.45 338.15 137.79C337.68 136.35 337.54 134.93 337.56 133.44C337.59 131.63 337.55 129.82 337.58 128.02C337.6 126.93 337.21 126.08 336.04 126.45C333 127.41 330.01 126.36 327 126.37C313.53 126.45 300.05 126.46 286.57 126.37C274.25 126.29 261.94 126.69 249.62 126.27C246.36 126.16 242.97 126.3 239.77 127.39C239.62 127.51 239.48 127.63 239.33 127.75L239.36 127.76ZM186.26 269.93C186.32 270.35 186.37 270.77 186.43 271.2L186.49 271.25C187.24 273.76 188.11 276.24 188.68 278.79C189.11 280.73 189.98 281.4 192.02 281.42C198.15 281.46 204.31 280.79 210.42 281.99C211.49 282.2 212.77 282.05 213.78 281.64C216.83 280.41 220.09 280.5 223.14 280.63C228.11 280.84 233.08 281.39 238.08 281.46C240.59 281.49 241.81 280.56 242.48 278.2C243.25 275.48 243.87 272.7 245.21 270.17C246.57 267.61 246.17 266.88 243.21 266.58C242.48 266.5 241.73 266.55 240.99 266.55C230.15 266.55 219.31 266.53 208.48 266.55C201.91 266.56 195.35 266.64 188.78 266.68C186.4 266.553 185.557 267.637 186.25 269.93H186.26ZM258.71 71.3099C258.21 71.2799 257.94 71.6299 257.81 71.9999C256.18 76.5599 254.47 81.1099 253.01 85.7299C252.52 87.2699 253.91 86.7499 254.72 86.6499C255.62 86.7399 256.51 86.8999 257.41 86.8999C274.5 86.8999 291.58 86.9399 308.67 86.8399C311.27 86.8299 313.89 85.9999 316.49 86.4099C322.37 87.3399 328.28 86.6699 334.17 86.8099C336.66 86.8699 337.99 85.0899 337.75 82.6399C337.52 80.3599 337.48 78.0999 337.94 75.7999C338.68 72.0499 336.51 69.2799 333.13 69.7299C326.28 70.6499 319.38 69.7499 312.53 70.5799C308.88 71.0199 305.1 70.0599 301.5 70.3899C295.11 70.9799 288.74 71.0299 282.35 71.0999C274.47 71.1899 266.58 70.8199 258.71 71.3199V71.3099ZM184.36 183.65V183.7C175.89 183.7 167.43 183.69 158.96 183.7C156.64 183.7 155.81 184.61 156.5 186.4C157.75 189.68 158.95 192.95 159.6 196.44C159.84 197.77 160.65 199.76 162.11 199.71C164.01 199.64 165.71 200.39 167.54 200.31C173.34 200.04 179.12 201.22 184.96 200.37C187.61 199.98 190.26 199.46 193 199.4C206.2 199.12 219.41 200.81 232.61 199.42C233.18 199.36 233.76 199.4 234.33 199.48C241.67 200.42 249.07 199.68 256.44 200.2C259.88 200.44 263.45 199.91 266.97 199.92C270.57 199.92 271.68 199.03 273 195.68C274.23 192.55 274.39 189.1 276.1 186.11C277.37 183.88 277.18 183.64 274.65 183.64C256.9 183.64 239.14 183.64 221.39 183.64C218.97 183.64 217.19 184.33 217.01 187.13C216.97 187.78 216.72 188.41 216.63 189.05C216.52 189.85 216.19 190.6 215.43 190.75C214.66 190.9 214.38 190 214.13 189.48C213.68 188.53 213.47 187.47 213.15 186.45C212.55 184.56 211.62 183.55 209.28 183.6C200.98 183.78 192.68 183.67 184.38 183.67L184.36 183.65ZM116.88 126.39V126.43C110.55 126.43 104.21 126.43 97.8801 126.43C94.0101 126.43 94.0501 126.43 93.8701 130.43C93.7601 132.89 94.1701 135.38 93.5901 137.8C92.8301 141 93.5701 142.18 96.9301 142.11C100.35 142.04 103.74 142.7 107.18 142.29C112.1 141.71 117 142.86 121.93 142.69C128.82 142.46 135.71 142.44 142.6 142.23C148.68 142.05 154.75 142.34 160.81 142.68C172.05 143.3 183.28 141.46 194.53 142.56C197.52 142.85 198.23 141.77 197.35 138.9C196.35 135.61 195.04 132.42 193.9 129.18C193.26 127.36 192.01 126.81 190.11 126.78C172.11 126.56 154.11 127.24 136.11 126.42C129.71 126.13 123.28 126.37 116.87 126.37L116.88 126.39ZM166.47 211.44C166.46 212.64 166.12 213.49 166.47 214.51C167.61 217.83 169.15 221.03 169.8 224.52C170 225.62 170.6 226.35 171.71 226.46C173.9 226.68 176.1 226.92 178.3 226.95C183.46 227.03 188.61 226.73 193.76 226.63C205.64 226.39 217.54 226.59 229.43 226.67C231.48 226.68 233.51 225.58 235.51 226.31C237.75 227.13 240.02 227.04 242.32 227.04C247.17 227.04 252.02 227.01 256.87 227.07C260.26 227.11 260.98 226.75 262.02 223.44C263.03 220.24 264.63 217.29 265.74 214.12C266.5 211.95 265.72 211.66 264.24 211.38C263.29 211.19 262.27 211.3 261.29 211.3C234.66 211.3 208.03 211.29 181.39 211.3C178.44 211.3 175.51 211.25 172.55 211.62C170.62 211.86 168.59 212.84 166.47 211.44ZM138.67 98.7399C138.67 98.7399 138.67 98.7799 138.67 98.8099C124.61 98.8099 110.56 98.8399 96.5001 98.7799C94.4701 98.7799 93.6801 99.4399 93.8001 101.49C93.9401 103.95 93.6801 106.43 93.9101 108.88C94.0401 110.24 92.4701 111.89 93.9001 112.73C95.0301 113.39 96.7701 113.05 98.2401 113.06C105.21 113.14 112.19 112.61 119.15 112.71C127.73 112.83 136.3 113.37 144.91 113.15C158.45 112.79 171.99 113.11 185.51 113.83C188 113.96 189.23 112.24 188.24 109.97C187.19 107.56 186.02 105.19 185.22 102.71C184.2 99.5299 183.42 98.7499 180.1 98.7499C166.29 98.7499 152.48 98.7499 138.67 98.7499V98.7399ZM133.49 71.0999C121.16 71.1099 108.84 71.1499 96.5101 71.0799C94.4701 71.0699 93.7201 71.7499 93.8001 73.7999C93.9301 76.9999 93.8101 80.2099 93.8401 83.4099C93.8701 86.7999 93.9801 86.8899 97.2901 86.8999C112 86.9199 126.71 87.0999 141.41 86.9099C153.25 86.7599 165.08 87.7399 176.92 87.0399C179.38 86.8899 179.77 86.2899 178.68 83.9799C177.42 81.3099 176.01 78.7099 175.37 75.7899C174.52 71.9199 173.52 71.0999 169.48 71.0999C157.48 71.0899 145.49 71.0999 133.49 71.0999ZM282.92 98.7299C272.65 98.7399 262.38 98.7999 252.11 98.6999C249.58 98.6699 248.23 99.6699 247.28 101.95C245.97 105.1 245.24 108.49 243.28 111.37C242.51 112.5 243.03 113.09 244.27 113.03C246.89 112.91 249.5 112.73 252.11 112.56C257.28 112.22 262.4 113.15 267.57 113.12C270.62 113.1 273.6 112.52 276.64 112.54C289.46 112.63 302.27 112.65 315.09 112.66C321.91 112.66 328.73 112.58 335.55 112.6C337.27 112.6 338.14 112.06 338.1 110.19C338.03 107.24 338.06 104.31 338.4 101.35C338.78 98.0899 337.41 97.1699 334.27 98.1799C332.92 98.6099 331.57 98.8199 330.16 98.7599C324.6 98.4999 319.07 98.3799 313.48 98.6099C303.31 99.0299 293.11 98.7299 282.92 98.7299ZM211.96 238.86C211.96 238.86 211.96 238.89 211.96 238.9C200.94 238.9 189.93 238.9 178.91 238.9C175.68 238.9 174.93 239.92 175.88 243.06C176.04 243.61 176.34 244.11 176.59 244.63C177.69 246.9 178.98 249.07 179.69 251.53C180.38 253.92 182.16 255.2 184.66 255C195.06 254.18 205.49 254.85 215.91 254.31C226.24 253.77 236.59 254.49 246.93 254.76C249.54 254.83 251.18 253.87 252.26 251.71C253.42 249.37 254.53 246.99 255.52 244.58C255.98 243.46 256.62 242.4 256.64 241.09C256.66 239.54 256.09 238.55 254.51 238.91C250.41 239.87 246.36 238.79 242.28 238.82C232.17 238.9 222.06 238.85 211.95 238.85L211.96 238.86ZM338.03 48.4799C338.03 48.4799 338.07 48.4799 338.1 48.4799C338.1 47.4899 338.1 46.5099 338.1 45.5199C338.13 40.7499 337.11 39.6699 332.4 39.6299C326.07 39.5899 319.74 39.5899 313.41 39.5899C300.2 39.5899 286.99 39.4399 273.78 39.6499C268.29 39.7399 268.28 40.2599 266.94 44.5599C266.12 47.2099 264.93 49.7599 263.75 52.2899C262.55 54.8699 262.98 55.6299 265.79 55.8299C268.43 56.0199 270.97 55.1099 273.62 55.3399C278.1 55.7299 282.6 56.2999 287.07 56.1299C292.78 55.9099 298.45 55.4699 304.19 55.7399C310.5 56.0299 316.83 55.8799 323.14 55.3499C326.93 55.0399 330.66 55.9899 334.44 55.8199C337.48 55.6799 338 55.1599 338.02 52.1799C338.03 50.9499 338.02 49.7099 338.02 48.4799H338.03ZM113.62 39.9399C113.62 39.9399 113.62 40.0099 113.62 40.0399C107.78 40.0399 101.94 40.0399 96.1001 40.0399C94.6901 40.0399 93.2201 40.3299 93.5701 42.1599C94.1101 45.0299 93.7801 47.8999 93.8101 50.7599C93.8601 55.8299 93.8001 55.7999 98.7801 55.7899C105.44 55.7799 112.1 55.7899 118.76 55.8399C134.54 55.9599 150.31 55.6699 166.09 55.2999C168.53 55.2399 169.07 54.4099 168 52.2899C166.44 49.1999 164.91 46.0699 164.14 42.7199C163.64 40.5399 162.67 39.8999 160.64 39.9799C150.48 40.3799 140.32 39.4499 130.15 39.8799C124.65 40.1199 119.13 39.9199 113.62 39.9199V39.9399ZM202.97 172.73C203.78 172.73 204.19 172.74 204.6 172.73C208.28 172.62 209.18 171.19 207.57 167.94C206.47 165.72 205.66 163.44 205.19 161C204.33 156.58 203.55 156.04 199.02 156.01C198.45 156.01 197.87 156.01 197.3 156.01C188.76 156.01 180.22 155.95 171.68 156.03C164.22 156.09 156.76 155.68 149.31 156.44C146.9 156.69 146.41 157.25 147.12 159.5C148.13 162.7 149.16 165.89 150.07 169.12C150.31 169.98 150.6 170.86 151.43 170.99C154.41 171.46 157.22 172.67 160.29 172.81C165.19 173.05 169.91 171.66 174.92 172.09C184.36 172.91 193.9 171.85 202.97 172.73ZM257.56 155.99V156.06C249.09 156.06 240.62 156.06 232.16 156.06C228.3 156.06 228.18 156.06 227.2 159.74C226.31 163.08 224.9 166.22 223.85 169.48C223.13 171.72 224.11 172.65 226.42 172.33C228.28 172.07 230.11 171.68 232.02 171.73C241.87 172.01 251.72 171.73 261.58 172.12C267.26 172.34 273.05 171.86 278.79 171.78C280.11 171.76 281.09 171.17 281.56 170.07C283.13 166.38 284.69 162.67 286.04 158.89C286.85 156.63 286.22 155.99 283.71 155.98C274.99 155.97 266.28 155.98 257.56 155.98V155.99ZM118.11 155.99C118.11 155.99 118.11 156 118.11 156.01C117.45 156.01 116.79 156.01 116.14 156.01C109.81 156.03 103.48 156.01 97.1501 156.07C95.5801 156.08 93.8601 156.11 93.8501 158.4C93.8301 162.18 93.7901 165.96 93.8301 169.74C93.8401 170.91 94.3301 171.86 95.7601 171.73C103.09 171.1 110.31 173.15 117.61 172.67C123 172.32 128.35 171.63 133.77 171.69C135.66 171.71 137.52 170.89 139.54 171.46C142.1 172.18 143.52 170.87 143.59 168.14C143.65 165.59 142.9 163.12 143 160.55C143.17 156.52 142.53 155.98 138.34 155.97C131.6 155.96 124.86 155.97 118.12 155.97L118.11 155.99ZM119.24 254.69C119.24 254.69 119.24 254.71 119.24 254.73C125.98 254.73 132.72 254.73 139.46 254.73C142.5 254.73 142.9 254.29 143.14 251.2C143.39 247.99 142.74 244.82 142.7 241.63C142.67 239.68 142.01 238.86 139.93 238.88C125.43 239.02 110.92 238.69 96.4201 239.37C94.4101 239.46 93.6201 240.31 93.6901 242.26C93.7901 244.81 93.8001 247.35 93.8201 249.9C93.8501 254.26 94.0801 254.51 98.5301 254.68C99.1001 254.7 99.6801 254.7 100.26 254.7C106.59 254.7 112.92 254.7 119.24 254.7V254.69ZM119.09 183.64V183.66C112.03 183.66 104.97 183.63 97.9101 183.67C94.7201 183.69 93.7501 184.66 93.8101 187.79C93.8601 190.49 94.1901 193.18 94.2501 195.87C94.3201 199.2 94.3201 199.35 97.7101 199.33C107.54 199.27 117.38 199.89 127.21 198.98C128.66 198.85 130.22 198.82 131.6 199.2C134.47 199.99 137.19 199.84 140.03 199.04C141.89 198.52 142.62 197.56 142.61 195.75C142.59 192.47 142.48 189.18 142.66 185.9C142.77 183.94 142.03 183.56 140.27 183.58C133.21 183.66 126.15 183.61 119.09 183.61V183.64ZM117.47 211.3C117.47 211.3 117.47 211.32 117.47 211.33C110.4 211.33 103.33 211.36 96.2701 211.31C94.6901 211.3 93.7801 211.65 93.7701 213.46C93.7501 217.15 93.9601 220.83 93.6401 224.52C93.5701 225.35 93.6501 226.93 95.1301 226.44C97.8801 225.52 100.49 226.81 103.17 226.61C109.38 226.16 115.56 227.19 121.8 226.67C126.82 226.25 131.92 227.48 136.99 226.56C137.78 226.42 138.6 226.61 139.41 226.86C141.85 227.62 142.55 227.12 142.62 224.43C142.7 221.39 142.64 218.35 142.62 215.31C142.61 211.86 142.36 211.59 138.92 211.32C138.35 211.27 137.77 211.3 137.19 211.3C130.61 211.3 124.04 211.3 117.46 211.3H117.47ZM314.56 254.22V254.18C321.38 254.18 328.21 254.07 335.03 254.24C337.39 254.3 338.1 253.42 338.06 251.27C337.99 247.34 337.27 243.43 337.57 239.48C337.69 237.88 336.64 237.66 335.5 237.9C331.83 238.66 328.16 237.98 324.5 237.93C319.49 237.86 314.5 238.11 309.51 238.39C307.73 238.49 305.84 237.72 304.16 238.07C300.82 238.78 297.51 238.91 294.14 238.84C291.71 238.79 290.38 240.36 290.2 242.81C289.99 245.54 290.75 248.18 290.73 250.88C290.7 253.98 290.87 254.18 294.1 254.2C300.92 254.23 307.75 254.21 314.57 254.21L314.56 254.22ZM290.69 191.51C290.69 192.83 290.84 194.16 290.66 195.45C290.34 197.69 291.41 198.42 293.42 198.85C298.44 199.94 303.58 198.98 308.6 199.87C312.41 200.54 316.04 198.53 319.77 199C324.37 199.58 328.92 198.65 333.5 198.95C334.39 199.01 335.31 198.91 336.2 198.78C337.89 198.54 338.69 197.74 338.67 195.82C338.63 192.11 337.22 188.57 337.55 184.83C337.65 183.63 336.7 183.63 335.85 183.63C322.86 183.63 309.87 183.49 296.89 183.72C290.81 183.82 290.73 184.24 290.71 190.28C290.71 190.69 290.71 191.1 290.71 191.51H290.69ZM119.37 266.57C112.47 266.57 105.57 266.58 98.6701 266.56C97.5901 266.56 96.5601 266.7 95.5301 267.02C94.5401 267.34 94.0601 267.71 93.9701 269C93.7101 272.67 93.8801 276.34 93.7501 280.01C93.7001 281.37 94.4401 281.86 95.8001 281.73C104.23 280.88 112.68 281.43 121.12 281.43C123.29 281.43 125.49 282.13 127.68 281.65C129.65 281.21 131.61 281.19 133.53 281.56C135.9 282.01 138.27 281.78 140.65 281.86C141.78 281.9 142.35 281.29 142.54 280.32C142.81 278.97 143.18 277.68 142.86 276.21C142.36 273.88 142.28 271.41 142.76 269.11C143.23 266.87 142.4 266.55 140.55 266.56C133.49 266.6 126.42 266.58 119.36 266.58L119.37 266.57ZM302.68 155.99C299.8 155.99 297.34 155.95 294.88 156C292.05 156.06 291.2 156.92 291.17 159.69C291.15 162.48 291.27 165.28 291.1 168.06C290.96 170.34 291.94 171.23 294.07 171.21C297.43 171.19 300.79 171.15 304.12 171.7C307.6 172.27 311.01 171.15 314.51 171.22C321.07 171.34 327.62 171.63 334.18 171.73C337.17 171.77 338 170.87 338.06 167.96C338.1 166.24 338.02 164.51 338.04 162.79C338.12 154.9 336.53 155.59 330.39 156.17C324.41 156.73 318.5 155.88 312.53 156.28C309.21 156.5 305.69 156.19 302.67 155.99H302.68ZM313.05 211.27V211.29C306.56 211.29 300.07 211.31 293.58 211.27C291.99 211.27 291.12 211.71 291.16 213.5C291.23 216.62 291.12 219.74 291.13 222.87C291.13 224.99 291.91 226.27 294.37 226.1C297.15 225.92 299.94 225.98 302.7 226.54C304.2 226.84 305.8 227.59 307.25 226.81C308.51 226.13 309.76 226.14 311.06 226.13C318.95 226.09 326.84 226.04 334.72 226.07C336.78 226.07 337.75 225.41 337.6 223.2C337.45 220.91 337.57 218.6 337.57 216.3C337.57 212.14 337 211.55 332.76 211.28C332.35 211.25 331.94 211.28 331.53 211.28C325.37 211.28 319.2 211.28 313.04 211.28L313.05 211.27ZM315.7 266.54C309.37 266.54 303.04 266.55 296.71 266.54C295.47 266.54 294.28 266.73 293.06 266.94C291.6 267.2 291.15 267.94 291.17 269.3C291.21 272.01 291.17 274.72 291.17 277.44C291.17 280.47 291.85 281.27 294.89 281.28C308.01 281.33 321.13 281.34 334.25 281.32C336.99 281.32 337.84 280.32 338.08 277.63C338.35 274.65 337.33 271.77 337.59 268.82C337.76 266.89 336.94 266.48 335.17 266.5C328.68 266.59 322.18 266.54 315.69 266.54H315.7Z" fill="white"/>
<path d="M361.46 11.9799C359.09 16.2799 355.7 19.7499 352.18 23.0799C350.95 24.2499 349.19 24.2899 347.54 24.2299C328 23.5699 308.45 23.7999 288.9 23.7899C221.91 23.7499 154.92 23.7499 87.93 23.7699C86.21 23.7699 85.07 23.2399 83.88 22.0399C81.33 19.4599 79.2 16.5399 76.79 13.8499C78.76 13.7899 80.79 14.0099 82.69 13.6199C88.34 12.4599 94.08 12.2699 99.79 12.0499C102.93 11.9299 106.12 12.2199 109.3 12.0099C116.28 11.5499 123.24 12.5099 130.22 12.4399C130.68 12.5699 131.15 12.8199 131.61 12.8199C142.03 12.7399 152.45 13.1799 162.86 12.1799C166.34 11.8499 169.9 12.5099 173.42 12.4499C181.62 12.3199 189.85 12.0999 198.02 12.1899C214.34 12.3799 230.65 12.8899 246.98 12.8299C266.29 12.7599 285.6 12.7699 304.9 12.7499C305.98 12.7499 307.03 12.7099 308.05 12.3199C309.06 13.1099 310.31 13.0299 311.36 12.7999C316.54 11.6699 321.81 12.2599 327.01 12.0499C338.47 11.5699 349.97 11.9499 361.45 11.9699L361.46 11.9799Z" fill="white"/>
<path d="M53.32 357.55C52.29 358.08 52.12 358.75 51.9 359.34C47.26 371.53 43.12 383.9 39.02 396.28C38.03 399.26 36.9 400.25 33.7 400.25C32.48 400.25 31.26 400 30.06 399.92C27.95 399.78 27.23 398.58 26.76 396.88C24.74 389.6 22.21 382.49 19.75 375.35C17.99 370.23 16 365.19 14.09 360.13C13.87 359.54 13.68 358.85 12.89 358.66C12.12 359.08 12.46 359.82 12.46 360.41C12.4 372.66 12.31 384.91 12.36 397.16C12.36 399.53 11.56 400.42 9.21002 400.25C6.92002 400.08 4.60002 400.03 2.31002 400.2C0.38002 400.34 2.00458e-05 399.64 0.02002 397.85C0.11002 385.19 0.09002 372.52 0.10002 359.86C0.10002 353.12 0.08002 346.37 0.06002 339.63C0.06002 338.51 -0.0299799 337.43 1.65002 337.6C6.79002 338.12 11.97 337.13 17.13 338.01C18.74 338.28 19.39 338.98 19.82 340.34C23.09 350.66 26.38 360.97 29.69 371.28C30.34 373.31 31.14 375.29 31.91 377.28C32.16 377.93 32.17 378.93 33.13 378.91C34.1 378.89 34.37 377.97 34.64 377.19C35.58 374.39 36.57 371.6 37.44 368.78C40.19 359.84 42.88 350.89 45.63 341.95C46.82 338.1 47.67 337.57 51.66 337.61C55.44 337.65 59.23 337.78 63 337.56C65.24 337.43 65.8 338.16 65.78 340.3C65.69 354.44 65.72 368.59 65.71 382.73C65.71 387.17 65.71 391.61 65.63 396.05C65.57 399.25 64.8 399.91 61.59 399.81C59.78 399.76 57.96 399.64 56.17 399.77C54.04 399.92 53.31 399.18 53.32 396.98C53.41 384.73 53.35 372.47 53.35 360.22C53.35 359.41 53.35 358.59 53.35 357.53L53.32 357.55Z" fill="white"/>
<path d="M72.6801 15.8299C75.4201 16.9499 76.2001 20.0499 78.5101 21.6099C79.1101 22.0199 79.5301 22.6899 80.1001 23.1499C82.2801 24.8699 83.1001 27.0599 82.9501 29.8399C82.1301 44.8599 82.5401 59.8899 82.5201 74.9199C82.4701 117.9 82.5201 160.89 82.5401 203.87C82.5401 233.05 82.5401 262.22 82.5601 291.4C82.5601 292.86 82.3001 294.19 81.1401 295.18C78.2501 297.62 75.6301 300.32 73.1301 303.16C72.7001 301.91 72.5501 300.64 72.5601 299.31C72.5701 295.09 72.8001 290.87 72.6101 286.63C72.4101 282.22 72.8901 277.8 72.9501 273.39C73.0701 265.37 72.7401 257.35 72.5901 249.32C72.5801 248.75 72.6301 248.16 72.1201 247.74C73.3001 246.97 73.0701 245.77 73.0701 244.64C73.0701 191.62 73.0701 138.6 73.0701 85.5799C73.0701 80.6499 73.0201 75.7199 73.0001 70.7899C73.2101 67.3399 72.5701 63.9399 72.5301 60.4899C72.4201 49.9799 73.1201 39.4799 73.0501 28.9799C73.0301 25.4799 72.3501 21.9899 73.1201 18.4899C73.3201 17.6099 73.1001 16.6899 72.6801 15.8599V15.8299Z" fill="white"/>
<path d="M363.27 69.9999C363.26 95.1599 363.23 120.33 363.24 145.49C363.24 182.17 363.05 218.84 363.41 255.51C363.56 270.21 363.55 284.91 363.68 299.6C363.68 300.3 364.13 301.26 363.39 301.64C362.61 302.04 362.2 301.01 361.61 300.63C358.97 298.88 357.22 296.22 354.97 294.07C353.77 292.92 353.84 291.4 353.84 289.92C353.84 272.08 353.85 254.23 353.84 236.39C353.84 192.4 353.82 148.4 353.83 104.41C353.83 81.8499 353.9 59.2799 353.89 36.7199C353.89 33.5299 353.65 30.3299 353.45 27.1399C353.37 25.7599 353.91 24.7699 354.99 23.9899C357.61 22.0799 359.76 19.7399 361.42 16.9499C361.74 16.3999 364.64 13.0399 365.48 13.4099C366.25 13.7399 366.53 17.7899 366.53 18.4099C366.53 19.3599 365.64 20.1199 366.32 21.0899C366.3 21.8299 363.24 22.0699 363.23 22.7999C362.9 36.5799 363.76 50.3699 362.78 64.1499C362.64 66.0899 362.47 68.0899 363.25 69.9899L363.27 69.9999Z" fill="white"/>
<path d="M77.1901 304.53C76.8401 302.43 78.6701 301.61 79.6801 300.31C82.3401 296.92 85.6501 295.48 90.1401 295.6C104.27 295.98 118.41 296.25 132.54 296.01C165.59 295.46 198.63 295.83 231.68 295.67C269.67 295.48 307.65 295.63 345.64 295.51C349.53 295.5 352.92 295.68 355.17 299.46C355.8 300.52 357.13 301.18 358.17 301.96C358.76 302.4 359.58 302.74 359.27 303.64C358.99 304.43 358.14 304.1 357.53 304.16C357.04 304.21 356.54 304.17 356.05 304.17C346.86 304.13 337.67 304 328.48 304.12C326.56 304.15 324.58 304.76 322.65 304.47C317.59 303.71 312.52 304.14 307.45 304.17C294.46 304.14 281.47 304.09 268.47 304.1C262.98 304.1 257.46 304.49 252.02 304.35C239.54 304.04 227.06 304.2 214.58 304.15C186.87 304.03 159.15 304.07 131.44 304.05C131.03 304.05 130.62 304.11 130.21 304.14C128.98 304.1 127.76 304.03 126.53 304.04C110.08 304.07 93.6401 303.9 77.2001 304.53H77.1901Z" fill="white"/>
<path d="M137.18 369.81C137.18 361.51 137.2 353.2 137.16 344.9C137.16 343.02 136.93 341.14 136.77 339.26C136.68 338.13 137.04 337.65 138.28 337.67C149.94 337.85 161.62 337.63 173.26 338.24C179.71 338.58 184.21 342.64 186.65 348.74C189.54 355.95 187.58 364.01 181.83 368.28C181.25 368.71 180.53 368.96 179.94 369.38C179.17 369.93 178.71 370.46 179.94 371.16C184.63 373.87 186.61 378.23 186.95 383.41C187.25 388 187.63 392.56 188.52 397.08C188.89 398.97 188.48 399.93 186.18 399.79C183.41 399.62 180.62 399.83 177.89 399.07C176.66 398.73 175.88 398.19 175.74 396.8C175.31 392.73 174.75 388.67 174.3 384.6C173.67 378.81 170.63 375.56 164.85 375.2C160.43 374.92 155.97 375.16 151.54 375.08C149.8 375.05 150.05 376.17 150.05 377.22C150.05 383.8 149.95 390.38 150.09 396.95C150.14 399.18 149.37 399.86 147.27 399.75C144.89 399.63 142.5 399.69 140.12 399.77C138.1 399.84 137.13 399.12 137.15 396.94C137.22 387.9 137.18 378.85 137.18 369.81ZM160.23 365.77C160.23 365.77 160.23 365.69 160.23 365.66C162.03 365.66 163.84 365.57 165.64 365.68C173.54 366.14 175.98 359.24 174.3 353.26C173.84 351.61 172.91 350.62 171.3 350.01C165.02 347.63 158.49 348.72 152.06 348.59C150.87 348.56 149.92 349.22 150.01 350.94C150.19 354.62 150.03 358.32 150.05 362.01C150.06 365.06 150.71 365.71 153.84 365.77C155.97 365.81 158.1 365.77 160.24 365.77H160.23Z" fill="white"/>
<path d="M306.66 400.76C291.82 400.47 280.78 391.39 277.78 378.35C275.65 369.08 276.22 360.29 280.41 351.81C284.76 343 291.9 338.12 301.66 336.54C308.66 335.4 315.08 336.86 321.27 339.65C327.06 342.25 330.8 347.28 333.32 352.78C337.83 362.62 338 372.94 333.63 382.87C329.87 391.43 323.34 397.47 314.15 400.05C311.6 400.77 308.84 401.09 306.65 400.77L306.66 400.76ZM323.25 368.84C323.46 366.01 323.22 363.21 322.3 360.42C319.45 351.76 313.97 346.84 305.53 347.49C300.23 347.89 295.46 350.26 293.04 354.77C289.36 361.6 288.57 369.26 290.81 376.84C291.83 380.31 293.02 383.77 296.28 386.21C299.81 388.86 303.68 389.07 307.72 388.92C313.42 388.71 317.99 386.55 320.77 381.25C322.82 377.35 323.62 373.26 323.26 368.85L323.25 368.84Z" fill="white"/>
<path d="M307.44 304.18C312.51 304.15 317.58 303.72 322.64 304.48C324.57 304.77 326.55 304.16 328.47 304.13C337.66 304 346.85 304.13 356.04 304.18C356.84 304.33 358.25 302.5 359.05 302.63C364.44 306.35 363.09 305.75 362.85 299.29C362.67 294.44 361.88 289.92 361.96 285.1C362 282.55 362.24 280.03 362.33 277.46C362.55 271.07 361.53 264.55 361.34 258.14C361.27 255.76 361.42 252.74 360.92 250.39C360.58 248.78 364.61 248.52 366.21 248.41C369.9 248.15 373.6 248.14 377.29 248.47C378.33 248.56 378.92 249.08 379.16 250.32C379.68 253.03 379.61 255.74 379.44 258.43C378.6 271.98 379.24 285.54 379.08 299.1C379.01 305.51 378.95 311.93 379.08 318.34C379.12 320.49 378.4 320.92 376.39 320.84C372.55 320.68 368.74 320.3 364.89 320.21C346.22 319.8 327.55 319.76 308.89 319.86C307.34 319.86 307.29 319.26 307.33 317.98C307.45 313.38 307.43 308.78 307.46 304.17L307.44 304.18Z" fill="white"/>
<path d="M77.1899 304.53C93.6299 303.91 110.08 304.07 126.52 304.04C127.75 304.04 128.97 304.11 130.2 304.14C130.23 309.07 130.25 314 130.3 318.94C130.31 320.06 130.15 320.92 128.7 320.75C120.35 319.75 111.96 320.52 103.59 320.36C97.5099 320.24 91.4199 320.37 85.3399 320.25C82.0499 320.18 78.8099 321.26 75.5499 320.77C70.6499 320.04 65.7399 320.34 60.8299 320.32C58.8099 320.32 58.6399 319.19 58.6999 317.59C59.1099 305.85 59.4199 294.1 59.0099 282.35C58.6999 273.39 58.8699 264.44 58.7499 255.48C58.7299 254 58.7299 252.52 58.7899 251.04C58.9299 247.89 59.0599 247.78 62.2499 247.77C65.5399 247.75 68.8299 247.73 72.1099 247.72C72.6199 248.14 72.5699 248.73 72.5799 249.3C72.7199 257.32 73.0599 265.35 72.9399 273.37C72.8699 277.78 72.3999 282.2 72.5999 286.61C72.7899 290.84 72.5599 295.06 72.5499 299.29C72.5499 300.62 72.6999 301.89 73.1199 303.14C73.7699 305.67 74.7799 306.02 77.1799 304.52L77.1899 304.53Z" fill="white"/>
<path d="M346.08 368.13C346.08 358.67 346.13 349.21 346.03 339.76C346.01 337.95 346.61 337.57 348.27 337.57C362.09 337.63 375.9 337.62 389.72 337.58C391.27 337.58 391.96 337.93 391.86 339.64C391.73 341.93 391.81 344.24 391.9 346.54C391.98 348.67 391.02 349.45 388.93 349.44C380.13 349.39 371.33 349.42 362.53 349.43C359.52 349.43 359.32 349.61 359.29 352.64C359.27 355.11 359.38 357.58 359.25 360.04C359.16 361.81 359.84 362.28 361.53 362.27C369.84 362.22 378.14 362.33 386.45 362.24C388.41 362.22 389.07 362.78 388.92 364.73C388.76 366.69 388.76 368.68 388.92 370.65C389.06 372.55 388.5 373.19 386.49 373.16C378.6 373.05 370.7 373.16 362.81 373.1C360.85 373.08 359.75 373.24 359.6 375.76C359.44 378.46 359.34 381.17 359.31 383.87C359.28 387.06 359.68 387.47 362.82 387.49C371.7 387.55 380.58 387.65 389.46 387.53C391.9 387.5 392.63 388.29 392.4 390.59C392.22 392.38 392.19 394.22 392.4 396.01C392.66 398.26 391.5 398.99 389.61 399.08C387.56 399.18 385.5 399.18 383.45 399.18C374.82 399.18 366.18 399.22 357.55 399.16C354.27 399.14 350.99 398.82 347.71 398.8C345.88 398.8 346.04 397.67 346.04 396.5C346.04 387.04 346.04 377.59 346.04 368.13H346.1H346.08Z" fill="white"/>
<path d="M363.27 69.9999C362.48 68.1099 362.66 66.1099 362.8 64.1599C363.78 50.3899 362.92 36.5899 363.25 22.8099C363.27 22.0699 363.29 21.3299 363.31 20.5899C364.7 18.7899 364.84 16.6899 364.53 14.5899C364.29 12.9799 363.53 11.6199 361.47 11.9699C349.99 11.9399 338.49 11.5699 327.03 12.0499C321.83 12.2699 316.56 11.6699 311.38 12.7999C310.32 13.0299 309.08 13.1099 308.07 12.3199C307.52 9.89989 307.43 7.44989 307.53 4.96989C307.66 1.84989 308.43 1.02989 311.56 1.01989C323.65 0.99989 335.73 1.01989 347.82 1.00989C352.92 1.00989 358.02 0.92989 363.11 1.00989C367.87 1.06989 372.63 1.34989 377.39 1.39989C379.42 1.41989 379.64 2.57989 379.59 4.13989C379.41 10.4599 379.1 16.7799 379.1 23.0899C379.1 32.9399 378.99 42.7899 379.19 52.6499C379.29 57.5499 379.19 62.4899 379.05 67.4099C378.97 70.1299 378.18 70.8799 375.4 71.1199C371.28 71.4799 367.37 69.8099 363.28 69.9999H363.27Z" fill="white"/>
<path d="M71.4499 399.79C78.2199 382.01 84.8799 364.51 91.5099 347.01C92.2299 345.1 92.7199 343.1 93.3499 341.15C94.0999 338.85 95.7199 337.68 98.1499 337.67C100.2 337.67 102.29 337.89 104.3 337.6C107.13 337.2 108.53 338.42 109.43 340.92C113.24 351.4 117.11 361.85 120.99 372.31C123.89 380.14 126.81 387.97 129.78 395.78C130.92 398.78 130.39 399.69 127.16 399.75C124.86 399.79 122.56 399.74 120.26 399.77C118.58 399.8 117.46 399.19 116.97 397.46C116.21 394.78 115.08 392.23 114.43 389.51C113.9 387.33 112.44 385.91 110.04 385.9C103.88 385.9 97.7199 385.97 91.5599 385.95C89.8299 385.95 88.8799 386.61 88.3899 388.32C87.5299 391.3 86.4299 394.22 85.4999 397.19C84.9299 399.02 83.7699 399.84 81.8499 399.82C78.5699 399.77 75.2999 399.81 71.4299 399.81L71.4499 399.79ZM100.96 375.63C100.96 375.63 100.96 375.58 100.96 375.56C102.76 375.56 104.58 375.44 106.37 375.59C108.59 375.78 108.99 374.72 108.39 372.94C106.47 367.2 104.52 361.47 102.53 355.75C102.34 355.19 102.17 354.35 101.32 354.42C100.64 354.47 100.54 355.18 100.32 355.69C97.7099 361.7 95.8199 367.97 93.7599 374.18C93.3599 375.37 93.7399 375.64 94.8099 375.64C96.8599 375.62 98.9099 375.64 100.96 375.64V375.63Z" fill="white"/>
<path d="M72.68 15.8299C73.1 16.6599 73.32 17.5799 73.12 18.4599C72.34 21.9599 73.02 25.4599 73.05 28.9499C73.12 39.4599 72.41 49.9499 72.53 60.4599C72.57 63.9099 73.21 67.3199 73 70.7599C68.81 70.7199 64.62 70.6499 60.43 70.6599C59.02 70.6599 58.17 70.2199 58.32 68.6999C59.11 60.9999 58.59 53.2699 58.66 45.5599C58.78 31.5899 58.71 17.6199 58.73 3.6499C58.73 0.619897 58.73 0.789897 61.74 0.929897C66 1.1299 70.28 1.0699 74.56 1.0799C82.04 1.0799 89.52 0.859897 96.99 1.0999C107.17 1.4299 117.36 1.3899 127.54 1.4599C129.99 1.4799 130.92 2.4299 130.89 4.8399C130.86 7.3999 130.58 9.9099 130.23 12.4299C123.25 12.4999 116.29 11.5499 109.31 11.9999C106.13 12.2099 102.94 11.9199 99.8 12.0399C94.1 12.2599 88.35 12.4599 82.7 13.6099C80.8 13.9999 78.77 13.7799 76.8 13.8399C76.24 13.6999 75.69 13.5599 75.14 13.4399C73.15 13.0199 72.11 13.5899 72.7 15.8199L72.68 15.8299Z" fill="white"/>
<path d="M245.09 380.01C246.38 379.58 246.65 378.74 246.96 377.87C250.9 366.82 253.99 355.5 257.61 344.35C258.19 342.56 258.75 340.76 259.28 338.95C259.58 337.91 260.23 337.57 261.29 337.59C264.49 337.64 267.7 337.64 270.9 337.59C272.1 337.57 272.52 338.03 272.43 339.19C272.29 340.93 271.81 342.58 271.27 344.21C265.91 360.29 260.54 376.37 255.16 392.45C254.7 393.84 254.11 395.16 254.05 396.68C253.98 398.4 252.93 399.26 251.11 399.25C247.82 399.22 244.53 399.21 241.25 399.34C239 399.43 237.65 398.38 236.96 396.39C235.79 393 234.68 389.59 233.59 386.17C228.75 371.02 223.93 355.87 219.11 340.71C218.14 337.65 218.21 337.58 221.49 337.61C223.87 337.64 226.27 337.86 228.64 337.67C230.82 337.49 231.84 338.2 232.48 340.34C235.66 350.86 238.98 361.33 242.28 371.81C243.14 374.53 244.12 377.2 245.08 380.01H245.09Z" fill="white"/>
<path d="M422.11 337.61C429.75 337.61 437.4 337.65 445.04 337.58C446.72 337.56 447.43 338 447.3 339.79C447.13 342.16 447.09 344.56 447.19 346.94C447.27 348.94 446.41 349.48 444.55 349.44C440.03 349.35 435.51 349.48 430.99 349.39C429.4 349.36 428.83 349.83 428.86 351.47C428.92 355.58 428.67 359.69 428.79 363.79C429.09 373.98 428.27 384.15 428.41 394.34C428.42 395.07 428.3 395.93 428.62 396.52C429.67 398.46 428.98 398.86 427.06 398.79C424.19 398.69 421.31 398.67 418.44 398.81C416.31 398.91 415.58 398.19 415.6 396C415.68 383.1 415.64 370.19 415.63 357.29C415.63 355.4 415.51 353.5 415.63 351.62C415.74 349.9 415.15 349.33 413.41 349.36C408.65 349.46 403.87 349.31 399.11 349.43C397.26 349.48 396.65 348.95 396.8 347.08C396.98 344.71 396.96 342.31 396.84 339.94C396.75 338.13 397.32 337.52 399.2 337.55C406.84 337.65 414.49 337.59 422.13 337.59L422.11 337.61Z" fill="white"/>
<path d="M199.41 368.35C199.41 358.82 199.45 349.3 199.37 339.77C199.36 338.04 199.84 337.48 201.58 337.57C204.28 337.71 207 337.6 209.71 337.61C211.59 337.61 212.67 338.17 212.66 340.44C212.6 359 212.62 377.56 212.68 396.12C212.68 398.43 211.83 399.19 209.5 399.37C206.81 399.58 204.18 399.82 201.47 399.46C199.75 399.24 199.37 398.53 199.38 396.93C199.45 387.4 199.41 377.88 199.41 368.35Z" fill="white"/>
<path d="M258.72 71.3199C258.37 73.9899 257.19 76.3999 256.21 78.8399C255.19 81.3899 254.9 83.9899 254.73 86.6499C253.92 86.7499 252.53 87.2799 253.02 85.7299C254.47 81.1099 256.18 76.5699 257.82 71.9999C257.95 71.6299 258.22 71.2799 258.72 71.3099V71.3199Z" fill="white"/>
<path d="M239.26 127.82C238.65 131.37 237.16 134.65 236.03 138.03C235.56 139.45 235.26 140.83 235.14 142.29C234.1 142.68 233.91 141.94 234.06 141.28C235.15 136.55 236.26 131.81 239.25 127.81L239.26 127.82Z" fill="white"/>
<path d="M188.79 266.69C186.97 267.01 187.46 269.13 186.26 269.94C185.567 267.647 186.41 266.563 188.79 266.69Z" fill="white"/>
<path d="M186.43 271.2C186.43 271.2 186.49 271.26 186.49 271.25L186.43 271.2Z" fill="white"/>
</g>
<defs>
<clipPath id="clip0_1864_12013">
<rect width="447.32" height="400" fill="white" transform="translate(0 0.879883)"/>
</clipPath>
</defs>
</svg>
