<svg width="474" height="601" viewBox="0 0 474 601" fill="none" xmlns="http://www.w3.org/2000/svg">
<g clip-path="url(#clip0_1864_11673)">
<path d="M124.39 17.6C141.88 7.22995 160.02 -3.88005 180.75 5.83995C197.05 13.48 212.2 23.93 225.72 36.13C245.8 54.2599 262.17 74.8999 267.44 103.74C279.01 94.64 287.34 83.9599 298.04 75.8699C305.04 70.5799 310.77 63.51 318.81 59.58C330.9 53.68 335.87 40.57 345.89 33.0499C356.6 25.0099 362.57 13.3 371.84 4.26995C376.17 0.0499525 379.04 -0.520048 383.47 4.07995C395.48 16.56 407.72 28.84 420.24 40.7999C424.47 44.84 423.12 46.94 419.8 50.47C408.99 61.9799 397.34 73.3699 385.46 82.84C361.96 101.57 350.18 129.96 326.48 147.8C321.42 151.61 316.97 156.22 312.04 160.22C306.57 164.66 303.66 170.6 305.61 177.05C308.17 185.52 307.73 194.24 308.88 202.73C311.14 219.37 307.96 235.18 292.21 245.56C283.17 251.52 282.79 254.58 290.16 263.61C304.52 281.21 319.36 298.43 333.51 316.2C337.88 321.69 340.08 316.29 342.16 315.07C353.34 308.52 364.45 302.18 377.96 302.38C389.03 302.55 391.74 306.81 386.95 316.75C380.05 331.05 368.59 341.36 356.12 350.48C338.82 363.12 321.84 376.37 300.51 382.18C293.86 383.99 286.38 386.77 282.07 381.01C277.33 374.68 281.96 366.82 286.27 361.78C292.24 354.79 296.57 346.04 305.54 341.64C308.8 340.04 311.05 337.2 308.11 332.51C296.4 313.81 285.09 294.87 273.71 275.96C270.48 270.59 268.02 268.87 262.52 274.56C241.51 296.3 220.33 317.91 198.34 338.63C187.63 348.72 177.58 359.09 168.59 370.73C160.58 381.11 141.9 383.68 131.52 372.67C107.53 347.22 82.2299 323.01 57.5799 298.18C53.3399 293.91 49.4099 289.24 45.9099 284.35C39.0299 274.75 41.99 261.08 52.62 253.38C75.31 236.95 92.52 214.78 113.06 196.11C116.23 193.23 114.72 191.77 112.45 190.1C87.43 171.69 77.1599 144.47 68.9699 116.26C65.3899 103.94 63.1999 91.2 60.8599 78.57C59.6799 72.2 63.66 67.4799 67.36 62.6C68.1 63.56 68.9 64.17 68.79 64.51C64.59 78.22 64.8499 79.2899 78.9699 75.77C99.6099 70.63 117.49 59.13 134.97 47.4C146.67 39.55 157.43 30.4 166.8 19.78C169.99 16.16 174.98 12.46 171.74 7.00995C168.74 1.96995 164.12 5.91995 160.01 6.48995C147.73 8.19995 137.47 15.12 126.08 19.07C125.52 18.57 124.96 18.07 124.4 17.58L124.39 17.6ZM152.09 347.47C153.79 344.67 154.82 341.97 156.68 340.07C186.47 309.58 217.59 280.38 246.13 248.65C249.62 244.77 251.16 242.71 246.69 238.27C241.35 232.96 237.73 225.93 232.46 220.53C223.86 211.73 214.69 204.99 200.51 208.24C184.17 211.99 167.19 212.86 150.75 208.39C142.71 206.2 138.25 209.07 133.02 214.51C116.57 231.64 99.79 248.47 82.61 264.87C77.16 270.07 77.2999 273.35 82.3699 278.34C103.64 299.3 124.66 320.51 145.79 341.61C147.17 342.99 148.65 344.27 152.1 347.47H152.09Z" fill="white"/>
<path d="M75.0898 529C85.8098 529.03 96.4798 527.95 107.22 530.58C114.54 532.37 120.16 535.89 121.43 542.82C122.69 549.69 127.73 558.31 117.07 563.2C108.22 567.27 110.27 572.48 115.45 578.58C119.46 583.3 122.62 588.79 125.85 594.12C126.97 595.97 128.11 597.86 130.14 597.77C133.18 597.63 131.64 594.67 132.22 593.03C139.06 573.82 145.92 554.61 152.53 535.32C154.11 530.71 156.18 527.46 161.53 528.82C166.46 530.08 172.89 524.92 175.91 534.49C182.83 556.42 191.26 577.87 199.04 599.38C187.67 602.07 179.47 600.53 179 587.25C178.88 583.73 176.52 583.83 174.1 583.83C170.36 583.83 166.57 584.25 162.9 583.74C154.39 582.54 148.65 584.47 148.39 594.4C148.28 598.5 145.91 600.27 141.75 600.18C133.95 600.03 126.14 599.9 118.36 600.23C113.8 600.42 111.65 597.68 109.71 594.52C106.1 588.63 102.68 582.62 99.1998 576.65C97.3498 573.48 94.3798 573.14 91.2698 573.81C87.7098 574.58 89.5298 577.63 89.2598 579.67C88.9598 582.01 89.1898 584.42 89.1898 586.79C89.1898 595.837 84.4665 600.223 75.0198 599.95C74.1098 576.3 73.9798 552.65 75.0898 529ZM92.8498 540.35C86.4298 543.76 89.9698 549.72 89.3298 554.23C88.8798 557.45 87.7398 562.95 94.0698 561.2C99.6798 559.64 107.84 559.68 107.41 550.76C106.99 542 98.5498 543.48 92.8398 540.36L92.8498 540.35ZM164.58 540.75C161.84 549.91 160.47 556.71 157.76 562.93C155.02 569.22 157.73 569.29 162.77 569.7C170.81 570.35 174.91 569.11 170.86 559.89C168.54 554.6 167.2 548.87 164.59 540.75H164.58Z" fill="white"/>
<path d="M252.4 511.14C259.74 500.17 265.94 490.48 272.61 481.12C275.42 477.18 275.33 474.31 272.61 470.31C266.34 461.1 260.67 451.49 254.74 442.02C276.72 435.14 276.01 456.64 286.39 465.47C288.92 461.53 291.83 457.71 293.98 453.51C301.51 438.77 300.25 440.81 316.94 441.47C311.87 449.77 307.63 458.39 301.81 465.77C295.75 473.46 295.41 479.67 301.5 487.41C307.36 494.85 312.06 503.19 317.27 511.14C303.35 516.66 298.17 508.17 292.91 498.15C285.72 484.48 284.84 484.6 277.54 496.81C274.36 502.13 272.71 510.44 267.18 511.7C258.12 513.76 248.28 512.47 238.78 512.35C235.63 512.31 233.98 510.17 234.01 506.97C234.1 498.01 229.74 495.87 220.99 495.76C210.53 495.63 203.44 496.81 201.13 508.9C199.6 516.89 191.87 512.37 187.68 511.97C181.55 511.38 186.33 506.98 187.18 504.47C193.25 486.39 199.43 468.34 205.76 450.35C208.14 443.57 212.14 440.46 220.43 440.62C228.84 440.79 228.99 445.93 230.81 451.02C237.83 470.66 244.91 490.27 252.42 511.14H252.4ZM227.4 481.6C223.69 472.92 223.63 463.58 218.52 455.62C214.68 459.63 213.88 463.83 213.51 468.67C213.19 472.89 210.95 476.96 209.38 481.6H227.39H227.4Z" fill="white"/>
<path d="M162.48 477.63C159.33 475.02 161.84 470.47 158.06 466.07C153.89 479.41 149.11 491.4 146.59 503.85C144.5 514.18 137.88 512.46 131.18 512.42C129.32 512.41 128.47 511.76 127.88 509.67C123.69 494.92 119.23 480.24 114.78 465.3C109.82 466.79 111.23 470.88 111.88 472.9C115.38 483.88 112.61 495.07 113.72 506.07C114.31 511.91 111.59 512.81 106.68 512.54C102.43 512.3 99.0698 512.97 99.2398 506.43C99.7398 486.74 99.6598 467.03 99.2698 447.33C99.1498 441.37 101.81 441.3 106.47 440.89C116.04 440.03 121.5 441.65 123.43 453.09C125.67 466.38 131.22 479.11 135.9 493.83C143.55 480.34 145.84 466.72 150.32 453.98C155.31 439.8 159.44 437.69 175.07 442.92C174.93 465.99 174.79 489.07 174.64 512.14C170.72 512.12 166.81 512.11 162.89 512.09C162.75 500.6 162.62 489.12 162.48 477.63Z" fill="white"/>
<path d="M460.56 529.08C469.8 526.99 473.54 529.57 472.9 540.06C471.87 556.62 472.86 573.3 472.43 589.92C472.34 593.22 475.75 599.69 469.56 599.72C463.15 599.75 455.09 604.42 450.19 594.88C443.58 582 435.97 569.62 428.69 557.09C427.29 554.69 426.54 550.1 422.75 551.81C419.91 553.09 422.99 556.45 423.07 558.83C423.52 571.36 423.66 583.91 423.52 596.45C423.44 603.14 417.99 599.37 414.99 600.04C411.76 600.76 409.25 600.21 409.29 595.57C409.5 574.87 409.37 554.18 409.4 533.48C409.4 531.57 409.03 529.71 411.85 528.77C419.6 526.17 429.05 529.96 433.24 537.33C440.87 550.74 448.76 564 456.94 577.99C458.2 574.77 459.18 572.26 460.17 569.74C460.47 568.09 460.73 566.44 459.24 565.16C459.24 553.83 459.24 542.51 459.24 531.18C459.68 530.48 460.13 529.78 460.57 529.08H460.56Z" fill="white"/>
<path d="M257.35 565.15C257.35 553.82 257.35 542.5 257.35 531.17C257.79 530.47 258.24 529.77 258.68 529.07C267.92 526.98 271.66 529.56 271.02 540.05C270 556.61 270.98 573.29 270.55 589.91C270.46 593.21 273.87 599.68 267.68 599.71C261.27 599.74 253.25 604.39 248.3 594.87C241.47 581.72 233.49 569.17 226.17 556.28C224.85 553.95 224.1 550.39 220.87 551.77C218.67 552.71 220.71 555.74 220.82 557.85C221.49 570.69 221.7 583.57 221.64 596.43C221.61 603.13 216.13 599.37 213.13 600.04C209.92 600.75 207.37 600.24 207.42 595.58C207.63 574.88 207.5 554.18 207.53 533.49C207.53 531.58 207.15 529.72 209.96 528.77C217.84 526.09 227.24 529.97 231.37 537.31C238.93 550.76 246.87 564 255.05 578C256.32 574.76 257.3 572.25 258.28 569.73C258.58 568.08 258.84 566.43 257.35 565.15Z" fill="white"/>
<path d="M1.67987 529C12.8899 528.93 24.1199 528.5 35.3199 528.91C42.5199 529.17 57.4199 545.54 58.4899 554.29C61.5799 579.42 52.4799 599.97 20.8599 600.13C14.4399 600.16 8.02987 600.02 1.60987 599.95C0.699874 576.3 0.569874 552.65 1.67987 529ZM15.7799 564.2C15.7799 569.96 16.1899 575.76 15.6699 581.47C15.1499 587.17 17.5899 588.37 22.5899 587.93C31.9799 587.1 39.3399 583.23 42.0599 573.85C45.3999 562.32 40.9899 547.76 33.6799 543.61C22.0799 537.01 15.7799 540.68 15.7799 554.03C15.7799 557.42 15.7799 560.81 15.7799 564.19V564.2Z" fill="white"/>
<path d="M289.36 529.19C298.68 528.57 303.34 532.893 303.34 542.16C303.34 547.5 303.34 552.85 303.34 560.26C309.55 552.54 315.37 546.73 319.43 539.88C324.93 530.6 331.75 526.03 343.32 529.77C339.26 538.94 331.45 546.09 325.32 554.14C321.39 559.3 321.54 562.66 324.56 567.34C331.27 577.74 337.86 588.22 344.72 599.01C327.91 601.49 328.03 601.43 317.52 583.79C314.85 579.31 313.65 570.92 307.68 572.12C299.48 573.77 303.8 582.33 303.54 587.75C302.92 600.57 303.34 600.59 289.36 599.72C289.36 576.2 289.36 552.69 289.36 529.17V529.19Z" fill="white"/>
<path d="M354.3 563.71C354.3 554.55 354.57 545.38 354.2 536.23C353.98 530.89 354.89 528.25 361.17 528.61C370.64 529.17 380.18 529.09 389.66 528.63C395.52 528.34 394.97 531.61 395.23 535.54C395.55 540.29 393.54 541.38 389.33 541.05C385.62 540.76 381.86 541.16 378.14 540.95C372.39 540.62 368.51 541.34 368.39 548.86C368.27 556.89 372.38 557.82 378.59 557.33C381.29 557.12 384.04 557.52 386.73 557.25C391.27 556.79 393.44 557.92 393.27 563.19C393.12 567.75 392.5 570.28 387.19 569.62C383.85 569.2 380.35 569.97 377.03 569.46C369.48 568.28 368.4 571.77 368.33 578.48C368.26 585.67 369.49 589.32 377.6 587.99C381.57 587.34 385.75 588.18 389.79 587.8C394.66 587.35 395.37 589.76 395.18 593.8C395.01 597.31 395.62 600.43 390.2 600.23C380.03 599.86 369.84 599.89 359.67 600.23C354.86 600.39 354.13 598.33 354.22 594.23C354.44 584.06 354.29 573.87 354.29 563.69L354.3 563.71Z" fill="white"/>
<path d="M340.08 483.45V470.23C340.08 456.63 340.1 456.31 326.43 455.49C320.05 455.11 319.86 451.63 319.52 446.77C319.13 441.21 321.9 440.95 326.16 441C340.06 441.18 353.96 441.23 367.86 440.98C372.73 440.89 375.09 441.65 374.96 447.45C374.84 452.7 372.82 454.15 368.37 453.27C356.78 450.97 355.24 456.92 355.89 466.67C356.69 478.82 355.75 491.08 356.22 503.27C356.47 509.78 355.55 512.77 347.77 512.79C340.19 512.81 339.72 509.57 340.01 503.79C340.35 497.03 340.09 490.23 340.09 483.45H340.08Z" fill="white"/>
<path d="M85.2998 47.64C81.1198 53.18 76.1698 57.92 69.2798 63.53C71.4398 53.58 77.5898 49.62 83.9598 45.84C84.4098 46.44 84.8498 47.04 85.2998 47.64Z" fill="white"/>
<path d="M97.53 37.45C94.66 42.3 90.2 45.23 85.3 47.64C84.85 47.04 84.41 46.44 83.96 45.84C87.52 41.86 90.98 37.75 96.16 35.72C96.62 36.3 97.07 36.87 97.53 37.45Z" fill="white"/>
<path d="M101.95 31.88C104.95 28.18 108.64 25.59 113.43 24.79C114.03 25.3 114.63 25.81 115.23 26.31C111.45 28.8 108.6 32.82 103.64 33.37C103.08 32.87 102.52 32.37 101.95 31.88Z" fill="white"/>
<path d="M113.43 24.79C115.83 20.48 120.74 20.01 124.39 17.6C124.95 18.1 125.51 18.6 126.07 19.09C124.12 23.99 118.65 23.61 115.23 26.31C114.63 25.8 114.03 25.29 113.43 24.79Z" fill="white"/>
<path d="M96.1599 35.72C97.2799 33.21 100.09 33.26 101.96 31.88C102.52 32.38 103.08 32.88 103.65 33.37C102.54 36.11 100.55 37.56 97.5399 37.44C97.0799 36.86 96.6299 36.29 96.1699 35.71L96.1599 35.72Z" fill="white"/>
</g>
<defs>
<clipPath id="clip0_1864_11673">
<rect width="472.41" height="600" fill="white" transform="translate(0.879883 0.880005)"/>
</clipPath>
</defs>
</svg>
