<svg width="24" height="24" viewBox="0 0 24 24" fill="none" xmlns="http://www.w3.org/2000/svg">
<path d="M10.414 3.01205C10.5466 3.38707 10.5247 3.79938 10.3533 4.15831C10.1819 4.51724 9.87498 4.7934 9.5 4.92605C8.20376 5.38434 7.05844 6.19012 6.1892 7.25533C5.31995 8.32054 4.76024 9.60419 4.57122 10.966C4.3822 12.3278 4.57115 13.7154 5.11742 14.9771C5.66369 16.2387 6.54626 17.326 7.66868 18.12C8.7911 18.914 10.1102 19.3842 11.4818 19.4792C12.8533 19.5742 14.2246 19.2904 15.4458 18.6587C16.667 18.027 17.691 17.0718 18.406 15.8975C19.121 14.7232 19.4995 13.3749 19.5 12.0001C19.5 10.8001 19.22 9.67005 18.721 8.66805C18.6333 8.49162 18.5812 8.29964 18.5676 8.10307C18.5541 7.9065 18.5794 7.70919 18.6422 7.5224C18.7688 7.14517 19.0402 6.83372 19.3965 6.65655C19.7528 6.47939 20.1649 6.45103 20.5422 6.57771C20.9194 6.70439 21.2308 6.97573 21.408 7.33205C22.1284 8.78257 22.5022 10.3805 22.5 12.0001C22.5 17.7991 17.799 22.5001 12 22.5001C6.201 22.5001 1.5 17.7991 1.5 12.0001C1.5 7.42605 4.424 3.53905 8.5 2.09805C8.87502 1.9655 9.28733 1.98732 9.64626 2.15873C10.0052 2.33013 10.2813 2.63707 10.414 3.01205ZM12.5 3.01405C12.4998 2.7859 12.5514 2.56067 12.6507 2.35529C12.7501 2.14991 12.8947 1.96971 13.0737 1.82825C13.2527 1.68678 13.4615 1.58771 13.6842 1.53849C13.907 1.48927 14.1381 1.49117 14.36 1.54405L14.488 1.58105L17.474 2.57705C17.8396 2.69889 18.1443 2.95677 18.3249 3.29721C18.5055 3.63766 18.5481 4.03455 18.4439 4.40559C18.3398 4.77662 18.0968 5.09332 17.7654 5.29002C17.434 5.48672 17.0396 5.54832 16.664 5.46205L16.526 5.42305L15.5 5.08105V12.0001L15.495 12.1921C15.4567 12.8893 15.2107 13.5592 14.7886 14.1155C14.3665 14.6719 13.7876 15.0892 13.1264 15.3139C12.4652 15.5386 11.7519 15.5603 11.0783 15.3764C10.4046 15.1924 9.80136 14.8111 9.34614 14.2816C8.89091 13.752 8.60451 13.0984 8.52375 12.4047C8.443 11.7111 8.57159 11.0092 8.89298 10.3892C9.21438 9.76921 9.71389 9.25955 10.3273 8.92575C10.9407 8.59195 11.6399 8.44927 12.335 8.51605L12.5 8.53605V3.01405Z" fill="black"/>
</svg>
