<svg width="799" height="401" viewBox="0 0 799 401" fill="none" xmlns="http://www.w3.org/2000/svg">
<g clip-path="url(#clip0_1864_11901)">
<path d="M740.51 0.880005C742.58 2 744.89 2.83 746.69 4.28C751.96 8.56001 752.93 16.68 748 21.07C743.81 24.8 737.22 24.86 732.41 20.8C728.08 17.14 726.62 12.48 728.51 7.03C729.43 4.36 731.34 2.55 734.04 1.63C734.68 1.41 735.29 1.13 735.92 0.880005C737.45 0.880005 738.98 0.880005 740.51 0.880005ZM746.21 10.83C746.21 6.38 742.35 2.59 737.82 2.6C734.02 2.6 731.18 5.4 731.2 9.12C731.22 13.45 735.08 17.21 739.54 17.25C743.4 17.28 746.2 14.59 746.21 10.83Z" fill="white"/>
<path d="M798.07 94.46C797.09 96.15 796.27 97.97 795.09 99.5C791.63 103.99 785.14 105.91 780.06 103.11C776.64 101.23 774.54 96.01 775.35 92.15C776.14 88.41 777.83 85.43 780.93 83.14C786.22 79.24 795.72 80.43 797.74 88.46C797.77 88.6 797.95 88.69 798.07 88.81V94.46ZM796.43 90.95C796.4 87.15 793.54 84.22 789.92 84.27C785.57 84.33 781.78 88.37 781.83 92.88C781.87 96.69 784.66 99.44 788.43 99.4C792.74 99.34 796.47 95.41 796.44 90.95H796.43Z" fill="white"/>
<path d="M406.49 299.1C399.45 299.16 392.4 299.2 385.36 299.3C379.67 299.38 373.98 299.54 368.3 299.66C367.83 299.66 367.36 299.66 366.88 299.66C363.67 299.77 360.47 299.95 357.26 299.98C354.09 300 350.93 299.87 347.76 299.81C347.19 299.84 346.62 299.88 346.05 299.91C334.24 300.08 322.42 300.23 310.61 300.41C290.8 300.72 270.99 301.04 251.19 301.38C250.77 301.38 250.35 301.62 249.93 301.74C249.82 301.76 249.7 301.78 249.59 301.81C244.41 301.73 239.23 301.65 234.05 301.57C233.84 301.57 233.64 301.57 233.43 301.57C231.89 301.64 230.34 301.71 228.8 301.78C228.45 301.78 228.09 301.78 227.74 301.78C225.74 301.77 223.75 301.75 221.75 301.74C221.39 301.51 221.04 301.28 220.68 301.05C220.38 298.86 220.05 296.68 219.78 294.49C219.65 293.39 219.62 292.28 219.55 291.18C219.33 290.83 219.12 290.48 218.9 290.13C218.74 288.71 218.59 287.29 218.41 285.88C218.24 284.57 218.03 283.27 217.83 281.96C217.91 281.91 217.99 281.87 218.07 281.82C217.99 281.79 217.9 281.77 217.82 281.74C217.47 279.58 217.11 277.43 216.76 275.27C216.85 275.16 216.93 275.05 217.02 274.94C216.86 274.86 216.7 274.78 216.54 274.69C216.34 273.11 216.15 271.54 215.94 269.96C215.75 268.53 215.55 267.1 215.36 265.67C215.44 265.63 215.52 265.6 215.61 265.56C215.53 265.54 215.44 265.51 215.36 265.49C214.91 262.42 214.46 259.35 214.01 256.28C214 256.14 213.99 255.99 213.98 255.85C213.52 252.59 212.99 249.34 212.6 246.08C211.96 240.68 211.19 235.29 210.92 229.87C210.82 227.79 209.8 225.6 211.03 223.41C211.34 222.85 210.6 221.73 210.42 220.85C210.26 220.06 210.12 219.26 210.1 218.46C209.96 213.6 209.71 208.74 209.77 203.88C209.83 199.03 210.2 194.19 210.46 189.35C210.48 189.02 210.68 188.7 210.79 188.38C210.87 188.33 210.94 188.28 211.02 188.23C210.94 188.2 210.85 188.17 210.77 188.14C210.82 186.42 210.77 184.75 211.98 183.21C212.41 182.66 211.72 181.35 211.94 180.49C212.49 178.32 213.15 176.16 213.99 174.09C216.44 168.03 219.7 162.49 224.09 157.55C229.63 151.32 236.1 146.32 243.04 141.81C249.71 137.47 256.2 132.85 262.83 128.45C272.34 122.13 281.85 115.83 291.44 109.65C303.7 101.75 316.85 95.65 330.51 90.55C339.71 87.12 349.1 84.44 358.7 82.46C367.33 80.68 375.97 78.92 384.6 77.15C385.05 77.06 385.48 76.88 386.02 76.7C383.96 73.36 382.94 69.8 383.14 65.95C383.37 61.37 385.06 57.36 388.15 54C392.1 49.71 397.02 47.56 402.88 47.11C410.39 46.53 416.78 48.69 422.17 53.91C422.38 54.11 422.62 54.3 422.79 54.54C423.53 55.57 424.26 56.62 425.06 57.77C428.7 51.59 434.83 49.23 441.25 47.69C445.53 46.67 450 46.77 454.43 47.11C455.5 47.19 456.85 46.81 457.69 46.15C464.07 41.13 471.35 37.96 479.12 36C482.52 35.15 486.14 35.17 489.66 34.81C496.82 34.09 503.77 35.25 510.52 37.47C519.18 40.32 526.87 44.88 533.18 51.57C533.62 52.03 533.87 52.67 534.47 53.11C537.75 42.27 544.61 36.5 555.7 37.52C564.71 38.35 570.26 43.86 572.24 52.68C575.17 50.74 578.02 48.7 581.02 46.9C585.41 44.26 590.25 42.73 595.28 41.91C598.48 41.39 601.73 40.86 604.95 40.9C608.7 40.95 612.49 41.39 616.18 42.09C623.43 43.47 630.1 46.31 635.87 51.03C642.09 56.13 646.45 62.32 647.65 70.5C648.89 78.98 646.32 86.25 641.05 92.78C634.87 100.43 626.57 104.48 617.28 106.84C615.5 107.29 613.67 107.58 611.86 107.88C611.52 107.94 611.13 107.73 610.98 107.7C614.54 106.38 618.36 105.34 621.82 103.61C629.37 99.83 634.96 94.11 637.37 85.8C639.2 79.5 638.27 73.45 634.92 67.86C629.55 58.9 621.17 54.44 611.23 52.46C604.08 51.04 596.93 51.31 590.06 53.61C581.69 56.42 574.69 61.2 570.57 69.41C570.37 69.81 569.75 70 568.88 70.58C570.52 64.39 569.07 59.35 565.27 55.14C562.87 52.48 559.64 50.9 556.03 50.34C546 48.78 537.31 56.58 537.66 66.73C534.48 64.54 531.23 62.15 527.83 59.99C522.95 56.9 517.56 54.92 511.91 53.93C507.69 53.2 503.35 52.81 499.07 52.87C492.48 52.96 486.13 54.49 480.01 57.05C471.79 60.49 465.02 65.83 459.47 72.7C454.29 79.11 450.82 86.43 449.58 94.59C448.9 99.07 448.67 103.68 448.91 108.2C449.1 111.88 449.61 115.62 451.47 119.05C452.69 121.31 453.25 123.92 454.3 126.3C455.08 128.06 456.15 129.69 457.08 131.35C454.01 131.06 450.95 130.65 447.88 130.51C441.77 130.24 436.24 131.99 431.45 135.83C427.52 138.98 424.88 142.97 424.82 148.14C424.8 150.32 425.38 152.56 425.97 154.69C426.47 156.47 427.71 157.62 429.57 158.43C441.6 163.64 450.4 172.27 456.18 184.01C456.39 184.43 456.57 184.86 456.78 185.29C456.83 185.39 456.93 185.46 457.15 185.71C465.8 180.29 475.09 179.38 484.66 182.87C491.54 185.38 496.66 190.13 500.25 196.52C506.71 208.03 504.32 222.79 496.22 230.8C496.74 228.98 497.4 227.24 497.72 225.43C498.07 223.49 498.05 221.48 498.29 219.52C498.4 218.64 499.04 217.76 498.94 216.94C498.62 214.24 497.97 211.57 497.64 208.87C496.95 203.34 493.94 199.08 490.26 195.24C486.71 191.54 482.24 189.23 477.24 188.53C469.73 187.48 462.77 189.14 456.9 194.25C455.36 195.59 453.94 197.08 452.37 198.6C451.95 197.25 451.56 195.87 451.09 194.53C449.57 190.17 447.39 186.25 444.41 182.64C440.46 177.87 435.87 173.99 430.26 171.49C425.08 169.18 419.72 167.57 413.88 167.5C407.58 167.43 401.5 168.11 395.66 170.46C389.25 173.03 383.83 176.94 379.43 182.33C375.31 187.38 372.37 193.01 371.37 199.39C370.74 203.42 370.96 207.61 371.12 211.72C371.33 217.14 373.65 221.9 376.43 226.44C379.61 231.65 383.82 235.85 389.03 239.04C390.49 239.94 391.95 240.85 393.41 241.75C393.58 241.79 393.75 241.82 393.92 241.86L393.94 241.98L394.06 241.99L394.18 242.02H394.3C395.75 242.52 397.2 242.99 398.63 243.54C399.5 243.87 399.35 244.29 398.63 244.66C398.54 244.75 398.44 244.83 398.35 244.92C396.36 247.36 394 249.6 392.46 252.3C389.37 257.69 389.33 263.36 392.13 268.99C392.75 270.24 393.24 271.54 393.79 272.82C394.24 273.14 394.69 273.46 395.14 273.78C395.2 273.93 395.26 274.08 395.32 274.23C395.48 274.47 395.65 274.71 395.81 274.95C400.36 280.83 406.21 285.16 412.76 288.46C418.67 291.43 424.96 293.4 431.74 292.95C432.96 292.87 434.17 292.72 435.38 292.61C435.72 292.7 436.06 292.8 436.4 292.89C431.67 294.43 427.01 296.31 422.18 297.43C417.72 298.47 413.07 298.7 408.51 299.28C407.82 299.23 407.14 299.17 406.45 299.12L406.49 299.1ZM409.74 89.88C408.91 89.88 408.44 89.85 407.98 89.88C402.6 90.34 397.21 90.76 391.84 91.28C387.75 91.68 383.64 92.04 379.6 92.73C373.7 93.74 367.81 94.87 361.98 96.24C354.79 97.93 347.6 99.72 340.52 101.82C330.62 104.77 320.93 108.33 311.63 112.88C304.56 116.34 297.49 119.82 290.63 123.66C282.21 128.37 274.67 134.39 267.12 140.37C260.33 145.75 253.54 151.12 246.77 156.52C246.37 156.84 246.1 157.33 245.46 158.13C250.01 157.84 254.02 157.52 258.03 157.34C264.57 157.05 271.12 156.87 277.66 156.61C283.26 156.39 288.87 156.13 294.47 155.91C300.66 155.66 306.85 155.44 313.04 155.2C318.47 154.98 323.9 154.73 329.33 154.51C335.28 154.26 341.24 154.04 347.19 153.8C352.85 153.57 358.51 153.34 364.18 153.1C370.02 152.86 375.85 152.59 381.69 152.39C386.43 152.23 391.17 152.14 395.91 152.03C396.88 152.01 397.49 151.78 397.67 150.59C398.07 147.89 398.65 145.22 399.19 142.55C400.79 134.69 402.41 126.83 404.01 118.96C405.53 111.49 407.05 104.02 408.55 96.55C408.98 94.41 409.32 92.26 409.74 89.88ZM387.57 76.28C400.54 74.5 413.36 72.75 426.18 70.99C426.05 70.45 425.91 70.07 425.86 69.68C425.41 65.88 423.67 62.56 420.91 60.18C414.41 54.59 406.89 52.94 398.71 56.01C391.05 58.89 384.91 66.93 387.57 76.28ZM448.74 54.06C446.77 54.23 444.92 54.32 443.08 54.57C437.68 55.31 432.97 57.47 429.69 61.94C427.72 64.62 426.61 67.69 427.84 71.14C430.24 70.98 432.48 70.59 434.69 70.73C438.15 70.95 440.34 69.74 441.12 66.27C441.18 65.99 441.38 65.74 441.53 65.49C443.87 61.78 446.2 58.08 448.74 54.06ZM433.16 93.25C431.99 103.52 430.82 113.79 429.66 124.07H441.61C441.96 120.95 441.87 120.87 440.41 118.25C439.45 116.54 438.63 114.74 437.88 112.93C435.28 106.64 433.88 100.08 433.16 93.25Z" fill="white"/>
<path d="M112.23 202.27C107.14 202.99 102.04 203.67 96.9501 204.43C92.1101 205.15 87.7501 207.35 83.4301 209.42C79.6901 211.21 76.2501 213.64 72.6801 215.79C72.6201 215.84 72.5501 215.89 72.4901 215.94C67.6601 219.82 63.0301 223.9 59.2901 228.88C57.2901 231.54 55.5101 234.37 53.6301 237.12C52.7101 237.18 52.2301 237.55 52.6101 238.54C52.3601 239.04 52.1101 239.53 51.8701 240.03C51.7801 240.12 51.7001 240.22 51.6101 240.31C50.4101 243.23 49.0501 246.11 48.0501 249.1C47.1201 251.87 46.6001 254.77 45.8501 257.6C43.5201 266.34 44.3801 275.3 43.9101 284.17C43.9401 284.5 43.9601 284.83 43.9901 285.16C44.1901 287.95 44.3801 290.75 44.6001 293.78C41.9101 293.58 39.2401 293.38 36.5601 293.18C30.6101 292.74 24.6601 292.33 18.7101 291.85C16.5001 291.67 14.2401 291.55 12.1201 290.98C10.9601 290.67 9.64006 289.69 9.10006 288.64C8.27006 287.03 8.05006 285.11 7.52006 283.12C8.74006 283.03 9.59006 282.97 10.5501 282.9V258.06H7.40006C7.36006 257.37 7.31006 256.82 7.31006 256.26C7.32006 250.02 7.33006 243.79 7.37006 237.55C7.37006 236.57 7.64006 235.6 7.70006 234.62C7.90006 231.14 7.92006 227.64 9.54006 224.42C9.64006 224.31 9.73006 224.21 9.83006 224.1C10.7501 223.03 11.6801 221.97 12.6001 220.9C12.7301 220.81 12.8601 220.73 12.9901 220.64C15.2501 220.2 14.9201 218.22 15.1901 216.71C16.0601 211.97 16.8201 207.2 17.6101 202.45C18.2501 198.64 20.7701 196.11 23.5401 193.75C24.3201 193.09 25.1901 192.54 26.0201 191.94C26.1501 191.85 26.2801 191.76 26.4101 191.66C27.3701 191.04 28.3201 190.43 29.2801 189.81C29.3801 189.72 29.4901 189.63 29.5901 189.55C29.8201 189.4 30.0501 189.25 30.2801 189.1C30.4001 189.03 30.5201 188.96 30.6301 188.89C31.3401 188.49 32.0401 188.09 32.7501 187.69C32.8701 187.62 32.9801 187.55 33.1001 187.48C37.8101 185.38 42.4801 183.19 47.2301 181.2C51.8201 179.28 56.4401 177.44 61.1401 175.82C66.3001 174.05 71.5401 172.5 76.7901 171C82.2501 169.44 87.7501 168.02 93.2601 166.62C98.2201 165.36 103.19 164.13 108.19 163.04C112.17 162.18 116.19 161.5 120.22 160.85C125.74 159.96 131.27 159.09 136.82 158.4C140.22 157.98 143.66 158 147.08 157.71C149.82 157.48 152.55 157.06 155.28 156.78C158.45 156.45 161.69 156.45 164.79 155.8C167.06 155.33 169.33 156.15 171.56 155.25C172.53 154.86 173.79 155.21 174.92 155.16C177.08 155.07 179.23 154.88 181.39 154.81C184.94 154.71 188.52 154.88 192.05 154.57C198.73 154 205.4 153.3 212.04 152.41C216.59 151.8 221.09 150.77 225.62 149.95C226.1 149.86 226.61 149.94 227.59 149.94C225.46 152.01 223.61 153.79 221.78 155.6C220.59 156.77 219.26 157.86 218.3 159.2C217.12 160.87 216.26 162.77 215.25 164.56C215.08 164.86 214.83 165.11 214.62 165.39C213.49 165.55 213.55 166.33 213.69 167.16C213.16 168.21 212.64 169.27 212.11 170.32C212.03 170.56 211.95 170.8 211.87 171.04C210.78 174.61 209.57 178.15 208.64 181.77C208.07 183.98 207.82 186.29 207.63 188.58C207.28 192.7 206.93 196.83 206.87 200.97C206.81 205.79 207.05 210.62 207.19 215.44C207.27 218.06 207.41 220.69 207.53 223.31V224.03C208 229.29 208.42 234.55 208.97 239.81C209.64 246.27 210.33 252.73 211.15 259.18C211.69 263.45 212.51 267.68 213.14 271.94C213.6 275.03 213.95 278.14 214.35 281.24C214.49 281.68 214.64 282.13 214.78 282.57C215.13 285.59 215.38 288.63 215.86 291.63C216.32 294.51 217.04 297.34 217.63 300.2C217.72 300.64 217.72 301.09 217.79 301.77C213.94 301.88 210.22 301.98 206.49 302.09C205.71 301.69 204.92 301.26 204.35 302.39C203.67 302.29 202.99 302.09 202.32 302.09C197.57 302.11 192.83 302.18 188.08 302.23C187.86 302.26 187.65 302.3 187.43 302.33C186.25 302.37 185.07 302.4 183.89 302.44C183.42 302.44 182.95 302.44 182.47 302.44C181.08 302.44 179.7 302.44 177.97 302.44C179.62 298.12 181.17 294.07 182.72 290.02C182.87 289.8 183.02 289.58 183.17 289.36C183.45 286.92 183.73 284.48 184.01 282.04C184.11 281.18 184.2 280.32 184.28 279.46C184.29 279.35 184.2 279.18 184.25 279.12C185.41 277.72 184.39 276.2 184.48 274.74C184.58 273.09 184.87 271.37 184.52 269.8C183.74 266.3 184.96 262.54 183.03 259.18C182.72 258.65 183.19 257.72 183.02 257.06C182.32 254.4 181.51 251.76 180.74 249.11C180.68 248.78 180.61 248.45 180.55 248.12C180.02 246.92 179.48 245.71 178.95 244.51C179.03 244.45 179.12 244.39 179.2 244.33C179.11 244.28 179.03 244.23 178.94 244.18C176.05 239.45 173.22 234.68 170.25 229.99C167.47 225.6 163.53 222.24 159.79 218.72C159.76 218.51 159.73 218.3 159.7 218.1C159.52 218.19 159.35 218.28 159.17 218.37C156.54 216.48 153.92 214.57 151.27 212.71C147.6 210.14 143.47 208.49 139.37 206.78C139.05 206.65 138.68 206.65 138.34 206.59C137.74 206.28 137.14 205.98 136.55 205.67C135.73 205.43 134.91 205.19 134.1 204.96C133.99 204.88 133.88 204.81 133.77 204.73C132.47 204.55 131.17 204.37 129.87 204.19C129.66 204.05 129.44 203.9 129.23 203.76C127.37 203.45 125.52 203.02 123.64 202.85C120.19 202.53 116.73 202.37 113.27 202.14C112.91 202.17 112.55 202.2 112.18 202.23L112.23 202.27Z" fill="white"/>
<path d="M146.85 219.73C148.13 220.59 149.42 221.44 150.7 222.3C150.83 222.39 150.96 222.48 151.09 222.57C151.43 222.83 151.78 223.1 152.12 223.36C152.25 223.45 152.38 223.54 152.51 223.63C159.71 229.58 165.79 236.44 169.9 244.92C169.99 245.02 170.09 245.13 170.18 245.23C175.39 255.64 177.29 266.66 176.3 278.23C176.12 280.35 176.23 282.56 175.7 284.59C174.72 288.35 173.62 292.12 172.11 295.69C163.91 315.11 149.61 327.58 129.17 332.95C122.08 334.81 114.87 335.18 107.64 334.29C85.53 331.54 69.28 320.11 59.01 300.46C52.17 287.38 50.79 273.41 53.88 258.99C54.31 256.98 54.27 254.77 55.13 252.97C57.66 247.65 60.13 242.23 63.36 237.33C69.52 227.97 77.99 221.08 88.15 216.32C94.56 213.32 101.26 211.44 108.36 211C110.16 210.89 111.95 210.35 113.74 210.36C116.36 210.39 119 210.62 121.59 210.99C124.37 211.38 127.17 211.85 129.87 212.61C133.24 213.55 136.51 214.82 139.83 215.95C139.94 216.05 140.05 216.15 140.16 216.24C142.27 217.32 144.38 218.41 146.49 219.49C146.61 219.57 146.74 219.65 146.86 219.73H146.85ZM93.49 273.12C93.52 273.02 93.55 272.92 93.58 272.83C94.56 272.7 95.55 272.65 96.5 272.44C98.54 272 100.68 271.75 102.57 270.93C106.06 269.41 106.58 267.19 104.1 264.31C102.47 262.42 100.57 260.61 98.45 259.33C91.42 255.09 84.24 251.09 77.1 247.02C75.73 246.24 74.81 246.81 74.05 248.05C71.37 252.45 69.52 257.17 68.26 262.16C67.88 263.66 68.43 264.52 69.77 265.06C73.68 266.65 77.53 268.43 81.52 269.79C85.43 271.12 89.49 272.03 93.49 273.12ZM124.92 282.64C122.15 282.68 121.16 284.03 120.42 285.64C118.84 289.1 119.23 292.64 120.2 296.15C122.07 302.9 125.63 308.85 129.09 314.85C130.22 316.8 131.17 317.3 133.12 316.19C137.24 313.86 141.26 311.34 145.22 308.74C146.78 307.72 146.79 306.37 145.63 304.76C142.82 300.85 140.16 296.81 137.09 293.12C134.45 289.94 131.41 287.06 128.35 284.26C127.3 283.3 125.66 282.98 124.9 282.65L124.92 282.64ZM114.77 225.09L114.7 225.51C113.82 225.51 112.93 225.55 112.05 225.51C110.53 225.43 109.89 226.42 109.82 227.64C109.51 232.71 109.11 237.79 109.16 242.86C109.19 245.61 109.86 248.4 110.58 251.08C111.24 253.56 112.74 255.63 114.96 257.07C117.67 258.83 120.45 258.5 122.47 255.96C123.48 254.69 124.49 253.25 124.92 251.73C126.26 247.02 127.38 242.25 128.47 237.48C128.96 235.33 129.15 233.11 129.51 230.93C129.86 228.81 129.36 227.74 127.31 227.32C123.15 226.48 118.96 225.83 114.77 225.1V225.09ZM102.3 282.75C99.92 282.77 96.61 283.95 93.52 286.49C88.21 290.85 83.09 295.44 77.89 299.93C76.89 300.8 76.91 301.7 77.72 302.69C80.99 306.67 84.73 310.11 89.13 312.84C90.48 313.68 91.39 313.45 92.3 312.29C95.42 308.32 98.71 304.47 101.65 300.37C104.25 296.75 106.63 292.92 107.33 288.38C107.9 284.65 106.11 282.71 102.3 282.75ZM142.59 278.55C148.29 277.68 154.04 276.88 159.75 275.83C160.52 275.69 161.56 274.32 161.61 273.47C161.91 268.86 161.24 264.32 159.91 259.9C159.53 258.63 158.58 257.82 157.25 258.16C150.2 259.97 143.13 261.73 136.17 263.82C134.06 264.45 132.08 265.89 130.35 267.33C128.5 268.86 128.44 270.44 129.54 272.37C130.8 274.6 132.59 276.35 135.05 277.06C137.45 277.75 139.96 278.05 142.59 278.56V278.55ZM102.23 234.38C102.12 234.38 102 234.36 101.89 234.36C101.89 232.77 101.94 231.18 101.88 229.6C101.8 227.81 101.15 227.4 99.38 227.9C91.97 229.97 85.88 234.21 80.48 239.53C79 240.98 79.13 242.04 81.04 243.05C86.51 245.91 92.02 248.69 97.55 251.43C99.41 252.35 100.63 251.69 101.06 249.62C101.24 248.76 100.95 247.82 101.03 246.94C101.4 242.76 101.83 238.58 102.24 234.41L102.23 234.38ZM135.86 256.63C141.61 255.28 147.38 254.01 153.1 252.56C156.21 251.78 156.44 250.76 154.48 248.04C154.35 247.85 154.29 247.62 154.17 247.42C150.59 241.44 145.77 236.66 139.92 232.92C138.42 231.96 137 232.58 136.7 234.34C135.59 240.79 134.51 247.24 133.5 253.7C133.18 255.76 133.72 256.25 135.86 256.63ZM67.11 273.92C67.11 273.92 67.06 273.92 67.04 273.92C67.17 275.38 67.27 276.84 67.42 278.3C68.03 284.09 69.82 289.52 72.43 294.7C72.99 295.82 73.8 296.21 74.8 295.27C79.36 290.96 83.95 286.66 88.41 282.25C90.13 280.55 89.85 279.59 87.57 278.62C81.74 276.15 75.89 273.72 70.03 271.32C67.31 270.21 66.99 270.46 67.09 273.39C67.09 273.57 67.11 273.74 67.11 273.92ZM158.86 279.52C152.59 280.73 146.31 281.88 140.07 283.19C137.84 283.66 137.72 284.15 138.67 286.29C141.24 292.04 145.14 296.89 149.13 301.68C150.14 302.9 150.96 302.81 151.99 301.5C156.53 295.78 159.34 289.26 160.82 282.15C161.17 280.46 160.62 279.84 158.86 279.52ZM114.12 320.26C116.39 320.07 118.66 319.93 120.92 319.66C122.51 319.47 123 318.7 122.32 317.41C119.81 312.64 117.38 307.82 114.63 303.19C112.74 300 111.38 299.91 108.92 302.62C105.25 306.66 101.76 310.85 98.24 315.02C97.19 316.26 97.5 317.06 99.11 317.59C103.98 319.17 108.96 320.15 114.11 320.27L114.12 320.26ZM116.3 279.16C119.77 279.84 123.18 276.54 123.15 273C123.12 269.55 120.1 266.79 116.35 266.79C112.63 266.79 109.61 269.58 109.57 273.04C109.53 276.56 112.38 279.15 116.3 279.15V279.16Z" fill="white"/>
<path d="M616.99 193.18C619.56 191.05 623.04 188.54 626.08 185.57C631.43 180.33 635.12 174 636.24 166.51C636.71 163.34 636.32 160.04 636.34 156.79C636.37 151.68 634.32 147.32 631.2 143.5C626.33 137.55 619.91 134.55 612.22 134.41C609.82 134.36 607.36 134.3 605.02 134.75C593.45 136.98 584.68 143.3 578.68 153.41C577.45 155.48 576.58 157.77 575.43 160.18C574.8 158.67 574.33 157.26 573.66 155.96C570.22 149.32 565.32 144.17 558.08 141.79C554.9 140.74 551.63 140.77 548.15 141.1C539.09 141.97 531.44 151.96 530.44 161.05C530.18 163.46 530.42 165.91 530.37 168.35C530.36 168.84 530.08 169.33 529.59 169.85C529.5 169.07 529.38 168.29 529.33 167.5C529.2 165.1 529.06 162.7 528.99 160.3C528.81 154.46 531.5 149.59 534.39 144.82C536.35 141.57 539.67 139.94 542.83 138.21C546.79 136.05 551.26 135.47 555.48 136.3C562.4 137.67 568.11 141.45 572.23 147.35C572.46 147.68 572.71 147.99 572.88 148.21C575.51 145.42 577.97 142.48 580.77 139.91C587.65 133.59 595.67 129.33 604.92 127.64C615.14 125.77 624.86 126.96 633.51 133.1C641.76 138.96 645.82 147.23 646.6 157.22C646.95 161.75 646.46 166.22 645.05 170.49C643.66 174.68 641.82 178.72 640.15 182.9C640.15 182.9 640.46 183.04 640.77 183.03C646.23 182.86 651.67 183.6 656.73 185.38C667.61 189.21 676.74 195.5 681.83 206.34C687.6 218.62 684.84 233.01 675.23 242.6C670.04 247.78 664.04 251.63 657.12 253.86C653.47 255.04 649.6 255.71 645.78 256.11C642.28 256.48 638.7 256.2 635.16 256.18C634.8 256.18 634.44 256.01 633.85 255.85C636.63 255.34 639.14 254.96 641.6 254.4C644.4 253.76 647.28 253.23 649.92 252.17C655.61 249.88 660.79 246.72 665.08 242.23C668.64 238.51 671.33 234.23 672.33 229.17C674.28 219.22 671.07 210.86 663.76 204.03C659.62 200.16 654.86 197.18 649.41 195.47C646.3 194.49 643.17 193.49 639.98 192.84C637.61 192.36 635.13 192.22 632.71 192.3C627.19 192.48 621.67 192.88 617.02 193.15L616.99 193.18Z" fill="white"/>
<path d="M692.18 92.64C700.43 92.89 707.91 95.24 714.19 100.81C719.15 105.21 721.99 110.73 722.88 117.32C724.87 132.04 714.26 143.05 704.08 147.4C699.6 149.32 694.88 150.28 690.11 150.53C685.93 150.75 681.79 149.76 677.8 148.34C674.12 147.03 670.94 144.94 667.86 142.56C662.48 138.4 660.09 132.57 658.74 126.29C658.24 123.94 658.77 121.32 659.12 118.86C659.45 116.53 659.84 114.11 660.77 111.98C663.48 105.78 667.93 101.02 673.81 97.65C679.49 94.4 685.58 92.63 692.18 92.64ZM685.53 99.95C680.04 100.01 675.08 101.59 670.87 105.03C666.37 108.7 663.66 113.55 663.6 119.42C663.56 123.73 665.22 127.67 668.27 130.79C671.64 134.24 675.5 136.31 680.64 136.86C685.49 137.37 689.94 137.13 694.18 135.04C703.19 130.61 707.18 122.49 705.12 113.75C704.2 109.83 702.18 106.39 698.53 104.22C696.63 103.09 694.84 101.61 692.78 100.96C690.49 100.23 687.96 100.26 685.53 99.95Z" fill="white"/>
<path d="M728.85 234.22C729.07 234.37 729.3 234.52 729.52 234.66C729.65 234.75 729.78 234.84 729.91 234.93C734.87 238.91 738.27 244.08 739.3 250.23C740.71 258.64 738.3 268.73 728.36 272.99C724.01 274.85 719.67 274.44 715.29 272.79C711.42 271.33 708.77 268.41 706.32 265.41C704.83 263.59 704.22 261.07 703.16 258.89C701.5 255.47 701.24 251.74 701.77 248.18C702.86 240.93 706.61 233.77 715.01 231.65C719.83 230.43 724.25 231.63 728.47 233.96C728.6 234.05 728.73 234.14 728.86 234.22H728.85ZM710.58 241.02C708.35 246.8 709.31 252.17 713.05 256.96C716.14 260.91 720.21 263.12 725.38 261.82C730.25 260.6 732.82 257.03 733.7 252.31C734.7 246.95 732.98 242.27 729.47 238.19C729.39 238.11 729.32 238.04 729.24 237.96C724.66 233.94 719.05 233.06 714.4 236.18C713.83 236.74 713.26 237.3 712.68 237.86C712.07 238.79 711.46 239.71 710.85 240.64C710.76 240.76 710.67 240.89 710.58 241.01V241.02Z" fill="white"/>
<path d="M685.14 44.34C685.42 51.86 679.2 58.07 671.21 58.49C662.54 58.95 654.88 53.17 652.46 45.08C650.08 37.11 654.8 28.42 663.63 26.93C672.76 25.39 682.96 31.61 684.9 41.37C685.09 42.34 685.07 43.35 685.14 44.34ZM666.13 29.01C658.69 29 654.31 36.01 657.63 42.67C659.42 46.25 662.39 48.3 666.25 49.32C672 50.83 677.95 46.45 678 40.52C678.05 34.39 672.51 29.02 666.12 29.01H666.13Z" fill="white"/>
<path d="M760.96 166.81C768.48 166.81 775.15 171.38 777.6 178.43C779.98 185.27 776.99 193.53 767.71 196.08C759.43 198.36 749.6 192.54 746.81 184.39C743.95 176.03 750.9 166.2 760.96 166.8V166.81ZM764.93 194.11C771.39 194.16 775.74 188.82 774.06 182.92C772.37 176.99 765.3 173.43 759.52 175.58C755.65 177.02 752.96 181.22 753.6 184.79C754.54 190.01 759.47 194.07 764.93 194.11Z" fill="white"/>
<path d="M659.7 291.53C653.01 291.87 648.92 285.11 650.04 279.21C651.31 272.48 656.29 268.58 661.64 268.05C667.84 267.43 672.78 271.72 673.1 277.81C673.5 285.5 666.59 292.01 659.7 291.54V291.53ZM671.29 278.25C671.26 274.19 668.58 271.37 664.85 271.48C660.51 271.61 656.59 275.61 656.53 279.99C656.47 283.75 659.44 286.72 663.22 286.69C667.7 286.66 671.32 282.87 671.29 278.25Z" fill="white"/>
<path d="M406.49 299.1C407.18 299.15 407.86 299.21 408.55 299.26C407.77 300.45 407.11 299.97 406.49 299.1Z" fill="white"/>
<path d="M204.41 302.43C204.98 301.3 205.77 301.73 206.55 302.13C205.84 302.23 205.12 302.33 204.41 302.43Z" fill="white"/>
<path d="M213.74 167.22C213.6 166.39 213.54 165.61 214.67 165.45C214.36 166.04 214.05 166.63 213.74 167.22Z" fill="white"/>
<path d="M52.6101 238.54C52.2301 237.55 52.7101 237.17 53.6301 237.12C53.2901 237.59 52.9501 238.07 52.6101 238.54Z" fill="white"/>
<path d="M136.6 205.72C137.2 206.03 137.8 206.33 138.39 206.64C137.79 206.33 137.19 206.03 136.6 205.72Z" fill="white"/>
<path d="M436.43 292.87C436.09 292.78 435.75 292.68 435.41 292.59C436.08 292.44 436.75 292.29 437.41 292.15C437.45 292.26 437.49 292.36 437.53 292.47C437.16 292.61 436.8 292.74 436.43 292.88V292.87Z" fill="white"/>
<path d="M220.68 301.05C221.04 301.28 221.39 301.51 221.75 301.74C220.71 302.57 220.72 301.78 220.68 301.05Z" fill="white"/>
<path d="M112.23 202.27C112.59 202.24 112.95 202.21 113.32 202.18C113.18 202.39 113.04 202.6 112.91 202.82C112.69 202.64 112.46 202.45 112.24 202.27H112.23Z" fill="white"/>
<path d="M233.43 301.57C233.64 301.57 233.84 301.57 234.05 301.57C233.92 301.71 233.79 301.85 233.65 301.99C233.58 301.85 233.5 301.71 233.43 301.57Z" fill="white"/>
<path d="M187.49 302.37C187.71 302.34 187.92 302.3 188.14 302.27C188.02 302.42 187.91 302.56 187.79 302.71C187.69 302.6 187.59 302.48 187.49 302.37Z" fill="white"/>
<path d="M216.54 274.69C216.7 274.77 216.86 274.85 217.02 274.94C216.93 275.05 216.85 275.16 216.76 275.27C216.69 275.08 216.61 274.89 216.54 274.7V274.69Z" fill="white"/>
<path d="M159.23 218.42C159.41 218.33 159.58 218.24 159.76 218.15C159.79 218.36 159.82 218.57 159.85 218.77C159.64 218.65 159.44 218.53 159.23 218.41V218.42Z" fill="white"/>
<path d="M394.33 241.99H394.21L394.09 241.97C394.15 241.88 394.22 241.8 394.28 241.71C394.3 241.8 394.31 241.9 394.33 241.99Z" fill="white"/>
<path d="M530.39 171.8C530.39 171.8 530.49 171.86 530.54 171.89C530.49 171.87 530.43 171.84 530.38 171.82L530.4 171.8H530.39Z" fill="white"/>
<path d="M210.76 188.13C210.84 188.16 210.93 188.19 211.01 188.22C210.93 188.27 210.86 188.32 210.78 188.37C210.78 188.29 210.77 188.21 210.76 188.13Z" fill="white"/>
<path d="M30.6601 188.9C30.5401 188.97 30.4201 189.04 30.3101 189.11C30.4301 189.04 30.5501 188.97 30.6601 188.9Z" fill="white"/>
<path d="M29.61 189.56C29.51 189.65 29.4 189.74 29.3 189.82C29.4 189.73 29.51 189.64 29.61 189.56Z" fill="white"/>
<path d="M0.310059 385.38C1.73006 380.95 3.12006 376.51 4.58006 372.09C5.39006 369.62 6.05006 367.05 7.22006 364.75C10.2101 358.88 15.4601 356.17 21.7701 355.8C26.5601 355.52 31.4101 355.68 36.1801 356.17C38.7001 356.43 41.2501 357.56 43.5301 358.78C45.6901 359.94 46.5101 362.13 46.6301 364.71C46.8601 369.62 44.8701 374.01 43.6701 378.57C42.6001 382.64 41.3801 386.7 39.8401 390.61C38.1801 394.81 35.2401 397.97 30.6901 399.21C29.3101 399.59 27.8501 399.8 26.4201 399.83C21.4201 399.9 16.4201 399.69 11.4301 399.9C5.47006 400.15 1.77006 396.75 0.590059 392.09C0.500059 391.74 0.410059 391.38 0.320059 391.03C0.310059 389.14 0.310059 387.26 0.310059 385.38ZM20.0801 392.44C23.6001 393.06 25.8101 390.85 27.4301 387.67C27.5901 387.36 27.7401 387.04 27.8601 386.71C29.5501 381.97 31.2801 377.24 32.8801 372.47C33.3001 371.21 33.4501 369.82 33.4801 368.49C33.5301 365.83 31.8801 364.25 29.2001 364.19C28.0201 364.17 26.8401 364.27 25.6701 364.18C22.4901 363.94 20.3801 365.54 19.0401 368.18C18.2001 369.84 17.5601 371.63 17.0601 373.42C15.8801 377.65 14.4701 381.86 13.8301 386.17C13.1401 390.9 14.8801 392.44 20.0801 392.44Z" fill="white"/>
<path d="M0.310059 391.03C0.400059 391.38 0.490059 391.74 0.580059 392.09H0.440059H0.310059C0.310059 391.73 0.310059 391.38 0.310059 391.03Z" fill="white"/>
<path d="M605.53 390.8C609.19 384.49 612.73 378.37 616.28 372.24C619.31 367.02 622.33 361.8 625.39 356.6C625.59 356.27 626.08 355.91 626.44 355.91C630.53 355.86 634.62 355.88 638.95 355.88C636.16 360.77 633.48 365.55 630.74 370.28C626.49 377.63 622.27 385.01 617.88 392.28C615.85 395.64 613.24 398.68 609.17 399.51C606.4 400.08 603.49 400.02 600.64 400.16C600.37 400.17 599.97 399.69 599.79 399.35C598.37 396.73 596.99 394.09 595.59 391.44C594.24 393.14 592.99 394.89 591.57 396.49C589.66 398.65 587.18 399.88 584.29 399.95C580.25 400.05 576.2 399.97 572.07 399.97V369.37H583.01V390.13C583.1 390.15 583.2 390.18 583.29 390.2C589.93 378.73 596.56 367.25 603.2 355.78H616.42C612.83 362.08 609.35 368.22 605.84 374.34C604.36 376.93 602.8 379.48 601.33 382.08C601.15 382.4 601.1 382.98 601.26 383.29C602.6 385.74 604.01 388.16 605.52 390.79L605.53 390.8Z" fill="white"/>
<path d="M82.11 400.04C86.12 385.14 90.07 370.46 94.06 355.65H96.03C103.79 355.65 111.56 355.83 119.32 355.59C124.56 355.43 129.93 358.36 130.69 365.52C131.95 377.44 128.34 387.67 120.43 396.47C118.17 398.98 115.28 400.12 111.79 400.08C102.56 399.97 93.32 400.04 84.09 400.04C83.52 400.04 82.95 400.04 82.12 400.04H82.11ZM98.07 391.53C101.58 391.53 104.8 391.59 108.03 391.51C110.02 391.46 111.75 390.57 112.76 388.85C116.7 382.19 119.2 375.09 118.98 367.24C118.93 365.37 118.02 364.41 116.31 364.39C112.9 364.35 109.48 364.35 106.07 364.42C105.65 364.42 104.97 364.9 104.88 365.27C102.59 373.94 100.36 382.63 98.07 391.53Z" fill="white"/>
<path d="M735.23 400.04H723.31C727.94 385.13 732.5 370.44 737.07 355.71H750.53C749.18 360.22 747.87 364.63 746.51 369.18C749.34 369.18 752.05 369.24 754.74 369.12C755.19 369.1 755.82 368.39 755.99 367.88C757.3 363.88 758.51 359.84 759.78 355.74H773.27C768.81 370.56 764.37 385.31 759.94 400.04C756.14 400.04 752.55 400.04 748.97 400.04C748.35 400.04 747.73 400.04 747.12 400.04C746.83 399.77 746.25 399.42 746.3 399.24C746.92 397 747.71 394.81 748.29 392.57C749.52 387.82 751.49 383.29 752.68 378.38H743.73C742.42 382.78 741.11 387.26 739.75 391.73C738.9 394.5 737.97 397.23 737.07 399.98C736.46 400 735.85 400.02 735.24 400.05L735.23 400.04Z" fill="white"/>
<path d="M268.34 368.07C268.64 367.12 268.94 366.17 269.25 365.22C269.23 365.1 269.26 365 269.34 364.91C270.31 362.07 271.28 359.22 272.25 356.38C272.31 356.22 272.35 356.05 272.44 355.77H285.9C281.45 370.56 277.02 385.3 272.61 399.96H258.69C260.95 392.71 263.16 385.59 265.41 378.35H256.45C255.73 380.64 254.95 383 254.23 385.38C252.9 389.81 251.58 394.25 250.31 398.7C250.03 399.69 249.59 400.09 248.49 400.07C244.4 400 240.31 400.04 235.95 400.04C237.55 394.88 238.94 389.95 240.62 385.12C242.29 380.32 243.26 375.33 245.03 370.56C246.82 365.73 248.17 360.74 249.74 355.73H263.26C261.87 360.22 260.52 364.6 259.12 369.14H265.86C267.85 369.85 268.52 369.56 268.32 368.07H268.34Z" fill="white"/>
<path d="M301.12 400.13C298.06 400.13 294.98 400.36 291.95 400.08C285.24 399.45 281.38 392.31 283.23 385.57C284.88 379.58 286.77 373.64 288.76 367.76C291.1 360.85 296.21 357.15 303.31 356.14C309.29 355.28 315.25 355.72 321.17 356.76C321.57 356.83 321.97 356.96 322.36 357.08C328.46 358.89 330.45 362.69 329.19 368.74C328.05 374.18 326.31 379.5 324.72 384.83C323.97 387.34 323.14 389.86 321.97 392.19C319.26 397.57 314.73 400.16 308.71 400.14C306.18 400.14 303.65 400.14 301.12 400.14V400.12V400.13ZM316.42 369.18C316 365.57 314.94 364.53 311.4 364.54C310.28 364.54 309.16 364.63 308.05 364.52C305.43 364.26 303.66 365.57 302.33 367.57C301.59 368.68 300.98 369.92 300.59 371.2C299.1 376.1 297.6 381.01 296.35 385.97C295.7 388.55 296.87 392.24 300.1 392.62C301.77 392.82 303.52 392.85 305.16 392.56C308.25 392.01 309.61 389.46 310.66 386.89C312.09 383.37 313.34 379.77 314.53 376.17C315.28 373.89 315.79 371.52 316.41 369.19L316.42 369.18Z" fill="white"/>
<path d="M346.32 400.04C343.91 400.04 341.5 400.04 339.09 400.04C333.02 400.04 329.32 396.75 328.37 390.77C327.91 387.89 328.5 385.24 329.37 382.55C330.85 377.98 332.31 373.4 333.67 368.8C335.93 361.15 341.09 356.92 348.91 356.05C355.19 355.35 361.5 355.27 367.67 357.06C374.89 359.16 375.55 363.45 374.37 368.91C372.95 375.54 370.84 382.03 368.82 388.52C367.6 392.45 365.46 395.86 361.77 398.06C359.39 399.48 356.79 399.97 354.09 400.02C351.5 400.07 348.91 400.03 346.33 400.03L346.32 400.04ZM354.2 364.03C353.39 364.18 352.09 364.22 350.94 364.66C347.9 365.82 346.64 368.51 345.74 371.36C344.57 375.04 343.41 378.73 342.46 382.48C341.98 384.39 341.85 386.41 341.81 388.39C341.77 390.32 342.79 391.73 344.67 392.39C347.48 393.37 352.73 392.85 354.55 389.37C355.12 388.28 355.79 387.23 356.21 386.08C357.77 381.86 359.31 377.62 360.72 373.35C361.19 371.92 361.45 370.38 361.53 368.87C361.67 366.41 360.54 365.01 358.13 364.48C357 364.23 355.81 364.21 354.18 364.04L354.2 364.03Z" fill="white"/>
<path d="M521.24 400.04C523.55 392.68 525.75 385.64 527.97 378.6C530.22 371.47 532.5 364.34 534.7 357.19C535.05 356.06 535.52 355.65 536.77 355.67C542.95 355.75 549.13 355.6 555.3 355.75C558.24 355.82 561.25 355.99 563.93 357.54C567.19 359.42 569.23 361.95 569.27 365.98C569.37 374.99 564.81 381.31 557.83 386.7C559.51 390.91 561.28 395.33 563.15 400.04C559.04 400.04 555.18 400.07 551.33 399.99C550.96 399.99 550.47 399.3 550.26 398.83C548.81 395.63 547.38 392.41 546.05 389.16C545.65 388.18 545.14 387.86 544.11 387.9C541.76 387.98 539.41 387.92 536.84 387.92C536 390.85 535.14 393.8 534.3 396.76C533.673 398.953 532.22 400.053 529.94 400.06H521.25L521.24 400.04ZM540.29 379.11C543.58 379.11 546.75 379.26 549.89 379.03C551.05 378.95 552.36 378.19 553.23 377.35C555.9 374.8 557.18 371.65 556.91 367.86C556.75 365.66 555.89 364.36 553.72 364.28C550.61 364.17 547.5 364.25 544.3 364.25C542.96 369.22 541.64 374.12 540.29 379.1V379.11Z" fill="white"/>
<path d="M675.57 400.06H663.27V390.61C660.2 390.61 657.27 390.86 654.39 390.55C650.83 390.16 648.4 391.18 646.83 394.51C646.09 396.08 644.73 397.34 643.88 398.87C643.25 400.01 642.45 400.19 641.31 400.17C637.96 400.12 634.61 400.15 631.26 400.14C631.16 400.14 631.06 400.06 630.8 399.94C632.21 397.59 633.6 395.26 635.01 392.94C640.76 383.43 646.5 373.91 652.28 364.41C653.1 363.06 654.05 361.78 655.02 360.53C657.59 357.23 660.82 355.41 665.2 355.71C668.59 355.94 672.01 355.76 675.57 355.76V400.06ZM663.05 383.03V367.22C659.93 372.65 656.98 377.76 653.95 383.03H663.05Z" fill="white"/>
<path d="M504.77 391.75C504.87 390.9 504.63 390.47 503.64 390.49C499.82 390.54 495.99 390.48 492.17 390.55C491.65 390.56 490.98 391 490.66 391.44C488.9 393.85 487.16 396.29 485.54 398.8C484.96 399.69 484.39 400.09 483.32 400.07C479.79 400.01 476.27 400.05 472.51 400.05C472.78 399.49 472.97 399.04 473.22 398.63C480.49 386.61 487.74 374.58 495.07 362.6C496.39 360.45 497.99 358.39 500.29 357.19C501.65 356.48 503.23 355.87 504.74 355.8C508.85 355.61 512.96 355.74 517.2 355.74V399.99H504.77C504.77 397.57 504.77 395.18 504.77 392.8C504.77 392.46 504.77 392.12 504.77 391.77V391.75ZM504.55 367.42C501.49 372.74 498.61 377.73 495.66 382.85H504.77C504.77 377.92 504.77 373.1 504.77 368.28C504.77 368.12 504.7 367.96 504.56 367.42H504.55Z" fill="white"/>
<path d="M151.81 400.03C151.96 398.72 152.02 397.63 152.22 396.57C152.56 394.78 153.08 393.03 153.33 391.23C153.48 390.17 153.92 389.89 154.89 389.89C161.13 389.93 167.37 390.01 173.6 389.9C175.1 389.88 176.69 389.45 178.05 388.81C179.49 388.13 180.11 386.67 179.61 385.07C179.14 383.57 177.89 383.19 176.39 383.17C172.99 383.13 169.55 383.21 166.18 382.82C161.39 382.26 159.16 379.97 158.72 375.16C158.44 372.09 158.16 368.84 158.88 365.91C160.32 360.03 163.36 356 170.75 355.76C179.44 355.48 188.15 355.7 197.14 355.7C196.61 359.32 196.07 362.99 195.51 366.83C193.41 366.83 191.36 366.83 189.31 366.83C184.54 366.83 179.77 366.73 175.01 366.89C173.63 366.93 172.13 367.46 170.96 368.2C169.75 368.96 169.5 370.39 170.07 371.83C170.71 373.45 172.32 374.61 173.58 374.26C175.69 373.68 177.51 374.75 179.52 374.5C181.56 374.24 183.69 374.58 185.77 374.8C188.47 375.08 190.71 377.64 191.01 380.66C191.29 383.5 190.58 386.13 189.33 388.65C186.99 393.37 183.71 397.17 178.72 399.2C177.65 399.63 176.46 399.98 175.32 399.99C167.56 400.06 159.8 400.03 151.82 400.03H151.81Z" fill="white"/>
<path d="M680.09 400.15C680.77 396.71 681.42 393.46 682.11 389.96H683.95C690.13 389.96 696.31 389.96 702.49 389.96C704.25 389.96 706.05 389.73 707.1 388.25C707.72 387.37 708.14 385.86 707.8 384.93C707.51 384.13 706.07 383.35 705.08 383.27C701.63 382.98 698.13 383.25 694.7 382.85C689.42 382.23 687.11 379.41 687.02 374.1C686.99 372.39 686.99 370.69 687.02 368.98C687.14 361.16 691.56 356.09 699.22 355.8C707.91 355.47 716.62 355.72 725.55 355.72C725.01 359.41 724.47 363.03 723.91 366.84H722.15C716.5 366.84 710.85 366.8 705.2 366.86C703.66 366.88 702.01 366.89 700.62 367.45C699.64 367.84 698.55 369.05 698.37 370.06C698.19 371.04 698.81 372.55 699.6 373.23C700.48 373.98 701.93 374.3 703.16 374.38C705.86 374.54 708.57 374.42 711.28 374.43C717.41 374.46 720.15 378.17 719.07 384.23C718.31 388.5 716.22 391.88 713.4 394.92C710.19 398.38 706.25 400.28 701.37 400.2C694.37 400.07 687.37 400.17 680.1 400.17L680.09 400.15Z" fill="white"/>
<path d="M469.21 389.31C468.25 393.03 467.36 396.48 466.45 400.03C464.48 400.03 462.61 400.03 460.74 400.03C454.5 400.03 448.26 399.98 442.03 400.06C439.83 400.09 437.77 399.67 436.12 398.31C435.15 397.52 434.47 396.23 433.97 395.03C432.44 391.39 432.27 387.63 432.92 383.73C434.25 375.79 437.27 368.64 442.19 362.27C445.65 357.77 450.01 355.5 455.83 355.7C463 355.95 470.18 355.76 477.6 355.76C476.7 359.46 475.83 363.02 474.93 366.71C472.37 366.71 469.86 366.71 467.34 366.71C464.4 366.71 461.42 366.98 458.52 366.64C454.96 366.22 453.1 368.09 451.52 370.76C448.71 375.51 447.3 380.63 447.4 386.16C447.44 388.48 448.23 389.3 450.59 389.3C456.71 389.31 462.82 389.3 469.21 389.3V389.31Z" fill="white"/>
<path d="M237.56 366.72C231.45 366.72 225.46 366.76 219.46 366.69C217.97 366.67 216.91 367.14 215.97 368.29C211.55 373.7 209.94 380 210.1 386.84C210.14 388.51 211.09 389.25 212.9 389.25C219.13 389.26 225.37 389.25 231.85 389.25C230.96 392.71 230.12 396.03 229.2 399.34C229.11 399.65 228.44 400 228.04 400C219.86 400.04 211.68 400.09 203.5 400C200.32 399.97 197.98 398.3 196.73 395.36C194.96 391.22 194.77 386.93 195.73 382.55C195.88 381.86 195.66 381.1 195.81 380.41C195.94 379.83 196.41 379.34 196.64 378.77C198.1 375.14 199.25 371.35 201.06 367.92C203.42 363.46 206.35 359.28 211.11 356.97C212.53 356.28 214.2 355.81 215.77 355.79C223.82 355.67 231.88 355.74 240.27 355.74C239.36 359.45 238.47 363.04 237.57 366.71L237.56 366.72Z" fill="white"/>
<path d="M55.0801 355.71H67.7501C65.8101 362.53 63.9101 369.25 61.9801 375.97C61.1301 378.94 60.1701 381.88 59.3501 384.87C58.3801 388.42 59.7401 390.14 63.4001 390.14C69.0401 390.14 74.6801 390.14 80.6101 390.14C79.6601 393.38 78.7901 396.44 77.8401 399.48C77.7501 399.76 77.1101 400.01 76.7301 400.02C69.2601 400.05 61.7801 400.14 54.3101 400C49.7501 399.92 46.6901 396.42 46.2101 391.38C45.8501 387.67 46.7401 384.2 47.8201 380.72C49.0901 376.63 50.2601 372.51 51.4501 368.4C52.6701 364.21 53.8601 360.01 55.0901 355.71H55.0801Z" fill="white"/>
<path d="M374.61 384.66C375.68 381.23 376.79 377.8 377.82 374.35C379.65 368.2 381.43 362.03 383.25 355.79H395.88C394.79 359.65 393.72 363.47 392.63 367.28C390.94 373.19 389.19 379.08 387.56 385.01C387.29 386 387.19 387.16 387.44 388.13C387.76 389.4 388.63 390.29 390.2 390.28C395.73 390.23 401.26 390.26 406.79 390.26H408.66C407.62 393.67 406.64 396.87 405.64 400.15C397.75 400.15 389.87 400.24 381.99 400.1C379.17 400.05 377.06 398.46 375.66 395.96C373.8 392.65 374.14 389.15 374.57 385.61C374.59 385.41 374.51 385.19 374.48 384.99C374.53 384.88 374.57 384.77 374.62 384.66H374.61Z" fill="white"/>
<path d="M268.34 368.07C268.54 369.56 267.87 369.85 265.88 369.14C266.08 367.36 267.48 368.34 268.34 368.07Z" fill="white"/>
<path d="M735.23 400.04C735.84 400.02 736.45 400 737.06 399.97C736.5 401.39 735.87 400.92 735.23 400.04Z" fill="white"/>
<path d="M747.11 400.04C747.73 400.04 748.35 400.04 748.96 400.04C748.19 401 748.06 401 747.11 400.04Z" fill="white"/>
<path d="M269.33 364.91C269.25 365 269.22 365.11 269.24 365.22C269.23 365.14 269.2 365.05 269.21 364.97C269.21 364.95 269.29 364.93 269.33 364.91Z" fill="white"/>
<path d="M26.4301 191.67C26.3001 191.76 26.1701 191.85 26.0401 191.95C26.1701 191.86 26.3001 191.77 26.4301 191.67Z" fill="white"/>
<path d="M72.48 215.93C72.54 215.88 72.61 215.83 72.67 215.78C72.62 215.85 72.56 215.9 72.48 215.93Z" fill="white"/>
<path d="M140.15 216.24C140.04 216.14 139.93 216.04 139.82 215.95C139.93 216.05 140.04 216.15 140.15 216.24Z" fill="white"/>
<path d="M249.59 301.81C249.7 301.78 249.81 301.75 249.93 301.74C249.91 301.82 249.9 301.91 249.88 301.99C249.78 301.93 249.69 301.87 249.59 301.81Z" fill="white"/>
<path d="M728.85 234.22C728.72 234.13 728.59 234.04 728.46 233.96C728.59 234.05 728.72 234.14 728.85 234.22Z" fill="white"/>
<path d="M215.35 265.49C215.43 265.51 215.52 265.54 215.6 265.56C215.52 265.6 215.44 265.63 215.35 265.67C215.35 265.61 215.35 265.55 215.35 265.48V265.49Z" fill="white"/>
<path d="M178.99 244.23C179.08 244.28 179.16 244.33 179.25 244.38C179.17 244.44 179.08 244.5 179 244.56C179 244.45 179 244.34 178.99 244.24V244.23Z" fill="white"/>
<path d="M217.82 281.73C217.9 281.76 217.99 281.78 218.07 281.81C217.99 281.86 217.91 281.9 217.83 281.95C217.83 281.88 217.83 281.81 217.82 281.73Z" fill="white"/>
<path d="M530.38 171.81C530.38 171.81 530.28 171.75 530.24 171.72C530.29 171.74 530.35 171.77 530.4 171.79L530.38 171.81Z" fill="white"/>
<path d="M714.38 236.18C713.81 236.74 713.24 237.3 712.66 237.86C713.23 237.3 713.8 236.74 714.38 236.18Z" fill="white"/>
<path d="M729.45 238.18C729.35 238.13 729.27 238.06 729.22 237.95C729.3 238.03 729.37 238.1 729.45 238.18Z" fill="white"/>
</g>
<defs>
<clipPath id="clip0_1864_11901">
<rect width="797.76" height="400" fill="white" transform="translate(0.310059 0.880005)"/>
</clipPath>
</defs>
</svg>
