<svg width="600" height="600" viewBox="0 0 600 600" fill="none" xmlns="http://www.w3.org/2000/svg">
<path d="M429.41 183.082H403.945V233.027C403.945 249.246 421.301 263.191 442.699 263.191C464.109 263.191 482.918 249.082 482.918 233.027V183.082H457.453V228C457.453 235.465 451.125 241.465 443.344 241.465C435.398 241.465 429.07 235.465 429.07 227.848V183.094H429.41V183.082Z" fill="white"/>
<path d="M26.4375 155.672V259.137H0V134.273H47.5078C68.0977 134.273 85.125 150.973 85.125 171.41C85.125 188.766 72.9609 203.355 56.5898 207.082L93.2344 259.137H61.7813L35.3437 218.273V188.438H41.5078C51.2344 188.438 59.1797 181.137 59.1797 172.219C59.1797 163.301 51.7148 155.684 41.9883 155.684H26.4375V155.672Z" fill="white"/>
<path d="M268.863 259.137V128.273H243.891V190.055C237.246 183.562 228.973 180 219.246 180C198.656 180 181.945 198.164 181.945 220.699C181.945 243.082 198.645 261.398 219.246 261.398C228.973 261.398 238.219 257.672 243.891 250.699V259.289H268.863V259.137ZM226.535 240.164C216.48 240.164 208.207 231.246 208.207 220.055C208.207 208.863 216.48 199.945 226.535 199.945C236.59 199.945 244.863 208.863 244.863 220.055C244.535 231.082 236.438 240.164 226.535 240.164Z" fill="white"/>
<path d="M373.617 191.355C380.426 185.027 384.645 176.602 384.645 167.191C384.645 158.602 381.398 150.973 375.727 144.809C369.727 138.316 359.344 134.426 345.082 134.426H302.59V259.289H357.563C378.48 258.961 395.672 243.07 395.672 223.453C395.508 209.191 390.492 199.137 373.617 191.355ZM352.535 237.563H328.699V156.809H345.398C352.699 156.809 358.863 162.316 358.863 169.781C358.863 177.246 352.699 183.246 345.398 183.246H336.645V205.781H352.863C361.617 205.781 368.273 213.082 368.273 221.836C367.945 230.59 362.109 237.082 352.535 237.563Z" fill="white"/>
<path d="M115.137 211.465C115.137 203.027 121.945 196.383 130.219 196.383C138.656 196.383 145.301 203.191 145.301 211.465H115.137ZM170.109 225.562C170.273 223.781 170.438 222.152 170.438 220.371C170.766 193.453 153.082 178.699 130.383 178.699C107.684 178.699 89.1914 197.344 89.1914 220.371C89.1914 243.398 107.684 262.043 130.383 262.043C147.738 262.043 161.355 254.098 168.328 241.77L148.055 232.523C145.465 238.031 139.465 241.934 132.492 241.934C123.246 241.934 115.465 234.797 115.465 225.551C115.945 225.562 170.109 225.562 170.109 225.562Z" fill="white"/>
<path d="M519.727 128.438H494.754V259.301H519.727V128.438Z" fill="white"/>
<path d="M562.219 128.438H537.246V259.301H562.219V128.438Z" fill="white"/>
<path d="M225.539 345.727C225.539 312.968 252.001 286.348 284.918 286.348C317.677 286.348 344.297 312.81 344.297 345.727C344.297 378.645 317.84 405.103 284.922 405.105C251.996 404.944 225.539 378.327 225.539 345.727Z" stroke="white" stroke-width="3.51562"/>
<path d="M234.164 329.355C235.137 331.793 235.137 334.863 234.492 337.465C234.328 337.629 234.164 337.629 234 337.465C233.508 335.191 233.027 333.082 232.219 330.82C231.727 329.52 230.109 328.383 230.754 327.094C231.082 326.766 231.727 326.766 232.219 326.93C233.027 327.563 233.508 328.383 234.164 329.355ZM259.465 351.41C261.246 353.52 262.383 355.629 261.902 358.383C261.574 358.875 261.738 359.848 260.93 360C260.602 360.164 260.285 359.836 260.285 359.508C260.121 358.043 260.121 356.59 259.313 355.453C258.34 354.48 257.203 352.535 255.75 352.535C254.613 352.863 253.805 354.152 253.16 354.973C253.16 355.137 252.996 355.137 252.832 354.973C252.188 353.355 253.477 352.055 253.969 350.918C254.941 349.945 254.777 347.355 256.887 348C258.164 348.809 258.492 350.438 259.465 351.41ZM256.055 370.219C256.219 371.191 256.219 372.656 255.246 373.137C254.274 373.465 252.973 373.629 252 373.465C251.672 373.301 251.356 373.137 251.508 372.82C252 371.355 253.453 369.902 254.918 369.574C255.41 369.563 255.891 369.563 256.055 370.219ZM140.918 312.492C144.645 313.465 148.863 313.465 151.617 316.383C153.234 318.328 153.399 321.574 152.109 323.52C149.836 327.246 145.465 329.191 142.863 332.438C140.109 334.711 139.301 338.109 139.945 341.52C140.918 344.438 143.836 346.547 146.918 346.711C151.617 346.875 155.191 344.438 158.918 342.328C162.645 339.574 166.219 336.164 170.426 335.027C173.344 334.055 176.426 334.535 179.18 333.41C182.098 332.766 184.535 330.328 186.961 328.055C189.715 325.781 192.797 324.645 196.207 324.809C199.289 325.301 201.07 322.371 203.344 320.59C206.906 317.344 211.781 317.027 215.988 315.082C218.906 314.109 221.344 312 224.262 310.547C227.016 309.41 230.59 309.082 233.18 310.219C234.961 311.027 236.742 311.836 238.371 313.137L251.18 323.836C251.344 324.328 251.824 324.645 252.152 324.809C255.715 329.191 259.617 333.563 262.535 338.426C263.508 340.207 264 341.836 264.481 343.781C265.125 351.082 267.07 357.398 269.344 363.727C269.988 364.699 271.289 365.508 271.934 366.48C274.043 369.398 275.18 372.973 278.578 374.918L280.524 375.891C280.688 376.055 280.688 376.383 280.524 376.535L280.195 376.863C276.305 377.508 273.223 375.082 271.277 372.328C269.977 369.738 268.359 367.137 265.441 366C265.277 366 265.113 366.164 265.113 366.164C265.441 367.137 266.414 367.781 266.731 368.602C267.867 370.383 268.84 372.164 269.32 374.109C269.965 376.219 272.238 377.52 273.856 378.645L276.445 379.945C276.774 380.109 276.938 380.59 276.609 380.918L276.281 381.082C272.063 381.246 268.172 379.781 265.254 376.699C264.609 375.891 263.637 375.234 262.5 375.234C260.555 377.016 258.774 378.48 256.172 378.645C253.418 378.152 250.664 378.152 248.227 379.137C245.953 379.945 243.844 380.918 241.418 380.918C240.281 380.918 238.981 380.426 238.5 379.301C238.5 377.836 237.527 376.383 238.336 374.918L239.953 372.48C239.953 372.152 239.789 371.836 239.461 371.836C238.816 371.672 237.68 372.809 237.352 371.672C237.516 369.234 239.941 367.781 241.406 366.164C241.734 364.219 242.543 362.602 243.996 360.973C243.996 360.809 243.832 360.48 243.504 360.48C241.395 360.809 239.449 361.289 237.176 361.289C235.395 362.262 233.285 362.906 231.176 362.262C230.684 361.934 230.848 361.453 231.012 361.125C233.285 358.207 233.93 354.316 233.449 350.742C233.285 350.578 233.285 350.25 232.957 350.25C232.629 350.25 232.629 350.578 232.465 350.742C231.973 354.152 230.848 356.906 229.055 359.824C227.59 361.289 225.492 361.289 223.547 361.77C223.055 361.934 222.574 362.414 222.574 362.906C222.574 364.207 223.383 365.016 223.875 365.988L227.93 373.605C228.094 375.715 227.121 377.66 226.629 379.605C226.793 379.934 227.121 379.77 227.438 379.605C228.902 378.305 229.875 376.688 230.356 374.742C230.52 373.934 230.191 372.961 229.863 372.305L225.645 363.715C225.973 363.223 226.617 363.223 227.109 363.07C228.082 363.07 229.055 363.563 230.027 363.879C231 366.469 232.137 369.07 233.754 371.344C234.082 372.809 234.563 374.59 233.59 375.727C232.617 377.672 231.645 379.137 230.508 380.918C229.371 382.055 227.754 381.891 226.289 382.055H225.797C222.07 384.164 218.016 385.301 213.961 386.59C212.18 387.398 210.234 386.754 208.77 385.617C207.305 384.48 206.66 382.863 205.852 381.563C204.715 380.098 202.934 381.398 201.797 380.59C200.66 378.809 199.524 377.18 198.715 375.234C198.715 374.742 198.715 374.262 199.207 373.934C200.672 373.441 202.125 373.441 203.742 373.289C205.207 373.125 206.66 373.453 207.633 374.426C209.578 376.699 210.387 379.617 213.141 381.07C215.414 381.234 217.195 380.578 219.141 379.605C220.277 378.961 221.578 377.988 221.578 376.688C221.414 373.77 219.469 371.66 217.195 370.043C214.758 368.742 212.332 367.125 210.551 364.852C209.578 363.551 209.414 362.098 208.934 360.961C208.77 360.633 208.125 360.633 207.961 360.797C206.988 361.605 207.797 363.07 207.797 363.879C207.961 364.523 208.289 365.344 207.961 365.824C206.496 366.961 204.715 366.316 202.934 366.469C199.524 366.305 196.125 364.852 192.551 365.168C189.141 365.332 184.277 367.758 181.852 364.195C180.551 360.949 180.879 356.895 181.524 353.66C181.524 353.332 181.195 353.016 180.879 353.016C180.551 352.852 180.234 353.016 180.07 353.344C179.098 356.59 178.934 360.316 178.125 363.727C176.824 366.645 174.715 369.891 171.633 371.508C168.879 372.973 165.797 373.453 162.551 373.781C156.551 373.945 151.043 375.082 147.305 380.273C146.977 380.766 146.496 381.246 146.66 381.891C146.824 382.055 147.305 382.219 147.469 382.055C151.524 377.52 156.715 375.563 162.715 375.891C168.387 375.891 174.07 374.918 177.633 370.055C178.606 368.918 179.25 367.781 180.07 366.645C180.715 366.645 181.207 367.453 181.688 367.781C181.852 369.563 180.387 370.699 179.742 372C178.934 373.617 178.125 375.41 176.66 376.383C174.715 376.875 173.25 378.164 171.469 379.137C169.688 379.945 167.578 380.273 165.469 379.781C162.879 379.289 159.469 378.645 156.879 379.781C155.578 380.59 154.441 382.055 153.316 382.699C151.535 383.508 150.07 384.973 147.961 384.809C146.496 384.48 144.879 383.508 143.578 384.809C141.961 386.273 141.633 388.699 139.688 389.672C137.25 390.973 134.824 389.672 132.387 389.508C132.715 387.07 133.031 384.973 134.66 383.18C135.633 383.016 136.441 382.852 137.25 382.207C138.223 381.398 138.867 380.262 139.524 379.289C141.633 377.988 143.906 377.016 145.195 374.906C146.168 372.797 146.168 371.016 147.785 369.07L148.594 368.742L152.813 368.414C154.594 367.605 156.059 366.797 157.676 365.496C158.168 365.004 158.32 364.195 158.168 363.387C157.359 361.277 156.703 359.977 156.223 357.715C155.731 355.441 156.059 353.332 155.731 350.742C155.566 350.578 155.402 350.098 155.086 350.098C152.168 350.742 149.578 351.562 146.332 351.07C142.113 350.578 137.578 347.824 136.113 343.453C134.649 339.891 134.977 334.699 137.731 331.617C140.32 328.535 143.402 326.109 146.484 323.344C146.977 323.016 146.977 322.371 147.129 321.879C147.129 321.234 146.484 320.742 145.992 320.414C144.047 319.922 141.938 320.578 139.992 319.77C136.746 318.633 134.156 315.551 133.664 311.988C133.5 310.371 133.828 309.07 134.637 307.934C136.699 310.055 138.492 311.836 140.918 312.492ZM131.508 383.027V383.52C130.699 385.465 130.207 387.574 129.563 389.848C128.098 389.684 126.809 389.203 125.836 388.711C125.508 388.383 125.836 388.066 125.836 387.738C127.301 386.438 126.809 384.82 127.137 383.203C127.301 382.23 128.274 381.422 129.246 380.93C130.219 381.246 130.863 382.383 131.508 383.027ZM138.328 376.535C137.52 378.152 136.383 379.945 134.766 380.918C134.121 381.082 133.301 381.082 132.656 380.754C132.328 380.426 131.684 380.109 131.684 379.453C131.848 378.809 131.52 377.988 132.176 377.672C133.477 376.863 134.766 376.055 135.902 374.918C136.231 374.754 136.875 374.59 137.039 374.918C137.836 375.563 138.164 375.891 138.328 376.535ZM217.465 375.891C217.629 376.535 218.602 377.355 217.957 378C216.656 378.973 215.203 379.617 213.574 379.465C212.274 378.492 212.438 376.711 211.301 375.574C210.973 374.602 209.52 374.602 209.836 373.629L210.328 373.301C212.109 373.301 213.738 373.301 215.52 372.973C217.301 372.645 216.809 374.754 217.465 375.891Z" fill="white"/>
<path d="M317.192 350.109C318.164 351.41 318.973 352.699 319.629 354.164C319.793 354.492 319.629 354.809 319.465 355.137C319.301 355.465 318.973 355.781 318.492 355.465C317.356 355.137 317.52 353.355 316.055 353.52C315.082 353.52 314.438 354.328 313.617 354.82C312.152 356.121 310.371 357.41 310.055 359.203C309.727 359.848 309.891 360.984 309.246 361.312C308.918 361.477 308.438 361.148 308.438 360.82C308.274 358.23 309.082 355.957 310.875 354.176C312.656 352.711 313.793 350.766 315.258 348.984C316.219 348.809 316.863 349.465 317.192 350.109ZM317.836 371.027C318.164 371.672 318.809 372.492 318.328 373.301C317.684 373.793 316.547 373.465 315.738 373.465C314.766 372.973 314.438 371.684 314.438 370.547C314.438 370.219 314.438 370.055 314.766 369.738C315.891 369.891 317.027 370.219 317.836 371.027ZM341.508 322.863C342 323.508 341.508 324.164 341.18 324.644C338.906 326.754 336.317 328.863 334.688 331.453C334.043 332.262 333.551 333.234 333.223 334.207C333.223 334.371 333.059 334.371 332.895 334.371C332.402 333.07 333.059 331.617 333.387 330.48C334.524 327.562 336.949 324.645 339.715 322.535C340.055 322.219 341.192 322.055 341.508 322.863ZM350.438 312.645C352.219 313.781 352.875 316.055 354.82 316.535C358.231 317.344 361.793 318.152 364.875 319.617C367.149 320.754 369.094 322.371 371.203 324C373.149 324.973 375.422 324.973 377.531 325.617C380.449 326.426 382.887 328.535 385.641 330.316C389.051 333.07 394.078 332.754 397.969 334.371C404.297 336.48 409.324 341.344 415.16 344.098C418.078 345.715 422.777 346.371 425.695 344.59C427.805 343.125 428.941 341.344 428.613 338.59C427.477 332.098 420.34 328.863 417.106 323.508C416.461 322.207 415.969 320.59 416.297 319.125C417.598 316.043 420.832 314.262 423.762 313.125C426.035 311.988 428.789 312.316 430.899 311.016C431.707 310.523 432.363 309.879 432.844 309.398C433.336 309.398 433.336 309.891 433.488 310.207C434.133 313.934 433.488 317.988 430.242 320.098C428.942 321.07 427.324 321.398 426.024 321.715C424.723 322.207 422.297 321.223 422.461 323.496C422.789 324.633 423.762 325.277 424.57 326.086C428.953 329.648 433.16 334.523 433.488 340.195C433.652 344.578 430.57 348.469 426.844 350.25C423.926 351.387 420.516 351.867 417.598 351.059C416.789 350.895 415.488 350.086 414.844 351.223C414.68 352.523 415.488 353.496 415.488 354.469C415.816 356.578 415.816 359.168 415.16 361.277C414.832 362.895 413.215 364.687 414.668 366.305C416.133 368.578 418.887 367.922 421.313 368.25C422.613 368.414 423.094 369.867 423.422 370.84C423.914 372.141 423.914 373.594 424.395 374.402C424.395 376.84 427.149 377.648 428.285 379.266C429.902 381.047 431.203 383.965 433.957 383.801C434.93 385.746 435.422 387.363 435.738 389.637L435.41 389.965C433.137 389.965 430.219 390.609 428.602 388.992C426.656 387.691 426.012 384.293 423.246 385.266C421.945 386.238 420.328 386.566 418.863 385.91C417.399 385.418 416.426 384.129 415.301 383.32C411.574 380.402 406.547 379.102 401.52 380.238C398.602 381.047 396.492 378.937 394.219 377.648C391.301 376.348 390.492 373.266 389.836 370.512L389.344 367.266C389.344 366.937 389.672 366.621 389.988 366.457H390.481C392.262 370.348 395.508 374.895 399.727 376.184C403.617 377.801 407.344 375.691 411.563 376.512C415.453 377.004 418.699 379.43 421.617 381.867C421.945 381.867 422.109 381.703 422.262 381.375V381.047C418.699 376.512 413.508 374.074 407.672 374.555C402.809 375.527 398.109 373.91 395.18 369.855C393.563 367.418 392.426 364.992 392.098 362.238C391.606 359.156 390.961 355.594 389.824 352.828C389.496 352.664 389.18 352.336 388.852 352.5L388.524 352.992C389.016 355.91 389.988 359.637 388.852 362.719C388.043 365.309 385.606 366.129 383.18 366.281C380.742 366.445 378.645 365.953 376.043 365.953C370.371 365.789 365.344 368.062 359.508 367.57C360 366.105 360.973 364.652 360.481 363.187C360.316 362.859 359.836 362.859 359.508 362.859C358.371 363.504 358.535 364.969 357.891 365.777C356.59 367.887 354.328 369.668 351.891 370.16C350.109 371.461 348.645 373.078 347.191 374.695C346.699 375.187 346.699 376.16 346.863 376.805C348 379.723 351.246 379.887 353.836 380.695C355.137 380.859 356.274 380.367 356.754 379.23C357.891 377.449 358.055 374.695 360.481 374.367H365.988C366.481 374.531 366.797 374.859 367.125 375.34L366.961 376.148C365.66 377.613 365.18 379.559 363.715 380.531C362.742 380.859 361.606 380.531 360.961 381.34C360.633 383.285 360.152 385.23 358.207 386.203C356.742 387.504 354.797 386.848 353.18 386.367C350.262 385.23 347.18 384.586 344.262 383.613C342.961 383.285 342.481 381.668 341.18 381.34C339.879 381.012 338.426 381.984 337.453 380.848C336.809 379.383 336.481 378.41 336.152 376.957C335.66 375.984 335.344 374.848 335.18 373.875C335.016 372.902 335.18 372.258 335.508 371.437L339.563 363.973C339.891 363.48 340.207 363 340.699 362.836C341.672 363 342.809 363.48 343.617 363.973L343.453 364.465L339.234 370.957C338.262 373.066 339.234 375.34 340.207 377.121C340.371 377.285 340.535 377.613 340.699 377.449C340.535 376.148 340.371 374.859 340.699 373.559C341.027 372.258 341.836 371.121 342.481 370.148L345.727 365.285C346.055 364.477 346.055 363.176 345.399 362.367C343.934 360.902 341.988 360.422 340.699 358.641C337.945 355.078 337.781 350.695 337.453 346.148C337.453 345.82 337.125 345.34 336.645 345.176C336.316 345.012 336 345.504 335.836 345.668C335.027 348.586 335.508 352.312 336.328 354.914C336.82 357.023 337.793 358.969 338.766 360.914C338.93 361.242 338.602 361.723 338.274 361.887C336 362.051 333.891 361.887 331.781 361.559C328.863 361.066 326.918 358.805 324.481 357.176C324.152 357.012 323.988 357.34 323.836 357.504C324.481 360.586 327.891 362.531 329.027 365.449C329.672 367.887 331.945 369.504 332.438 372.094C332.438 372.422 332.109 372.902 331.793 373.066C330.984 373.23 330.176 372.738 329.356 373.23C329.191 374.695 330.164 376.148 329.52 377.285C328.711 378.586 327.574 380.039 326.274 380.039C323.356 379.066 320.602 377.766 317.684 377.121C315.574 376.957 313.629 377.285 311.684 377.449C309.738 377.121 308.602 375.34 307.149 374.531C306.656 374.367 306.176 374.367 305.848 374.695C302.766 377.777 299.203 381.34 294.492 381.187C294.164 381.187 294 380.859 294 380.543V380.215C296.109 378.27 298.535 376.488 299.508 373.723C300.152 371.449 302.098 369.996 302.754 367.887C302.918 367.559 302.59 367.394 302.262 367.242L301.77 367.57C299.332 370.008 297.715 372.598 295.934 375.187C294.152 376.969 291.715 378.105 288.961 377.461C288.633 377.297 288.633 376.816 288.797 376.488C298.524 370.488 299.66 359.789 302.414 350.051C304.359 343.559 305.66 336.914 310.852 331.723C318.469 323.285 327.879 318.422 336.316 311.133C337.617 309.996 338.906 308.859 340.371 308.859C344.438 308.754 347.672 310.383 350.438 312.645ZM440.59 382.383C441.399 383.519 441.082 385.301 441.399 386.437C441.563 387.41 442.863 388.219 442.207 389.191L438.797 390.328C438.152 390.328 438.469 389.519 438.152 389.191C437.824 387.082 437.344 385.781 436.688 383.836C436.524 382.699 437.66 381.891 438.469 381.246C439.137 381.082 439.781 382.055 440.59 382.383ZM432.492 375.41C433.793 376.547 435.41 377.355 436.383 378.656C436.547 379.301 436.055 379.957 435.738 380.437C435.246 380.93 434.602 381.246 433.793 381.246C432.984 381.246 432.328 380.754 431.848 380.109C431.039 378.809 429.902 377.672 429.574 376.547C430.383 375.727 431.508 374.437 432.492 375.41ZM356.438 374.109C356.274 375.727 355.793 377.027 355.137 378.492C354.645 379.465 353.192 379.137 352.219 378.984C351.246 378.656 349.629 378.492 349.465 377.039C349.301 375.738 349.957 374.449 350.602 373.629C352.066 373.465 353.684 373.793 355.137 373.465C355.945 373.465 356.438 373.617 356.438 374.109Z" fill="white"/>
<path d="M31.6172 472.383H53.5078V467.836H36.6445V452.437H52.8633V447.727H36.6445V436.383H53.5078V431.836H31.6172V472.383Z" fill="white"/>
<path d="M74.918 472.383H79.9453V442.055L110.59 474.164V431.836H105.563V461.836L74.918 429.727V472.383Z" fill="white"/>
<path d="M132.328 472.383H154.219V467.836H137.508V452.437H153.727V447.727H137.508V436.383H154.219V431.836H132.328V472.383Z" fill="white"/>
<path d="M187.301 454.699C193.137 454.055 197.027 449.191 197.027 443.344C197.027 439.453 195.082 435.563 191.672 433.617C188.59 431.672 184.535 431.672 180.973 431.672H174.809V472.371H179.836V455.18H181.945L193.945 472.371H200.109L187.301 454.699ZM179.836 436.219H181.301C186.328 436.219 192.328 437.191 192.328 443.52C192.328 450.012 186.656 450.984 181.629 450.984H180.012L179.836 436.219Z" fill="white"/>
<path d="M236.59 451.945V456.48H247.125C246.961 463.125 240.152 468.48 233.824 468.48C225.07 468.48 218.098 460.371 218.098 451.945C218.098 442.863 225.234 435.41 234.316 435.41C239.344 435.41 244.207 438.164 247.125 442.055L250.687 438.645C246.797 433.617 240.469 430.699 234.152 430.699C222.48 430.699 213.07 440.262 213.07 451.945C213.07 463.137 222.152 473.027 233.66 473.027C245.016 473.027 252.961 464.437 252.961 453.246V451.629L236.59 451.945Z" fill="white"/>
<path d="M280.535 454.699V472.383H285.562V454.699L298.863 431.836H293.027L283.137 449.191L273.082 431.836H267.246L280.535 454.699Z" fill="white"/>
<path d="M333.727 472.383H342C354.809 472.383 365.027 465.738 365.027 451.793C365.027 438.176 354.645 431.52 342.164 431.52H333.727V472.383ZM338.754 436.383H340.535C350.918 436.383 359.836 440.109 359.836 452.109C359.836 463.945 350.918 467.672 340.535 467.672H338.754V436.383Z" fill="white"/>
<path d="M396.809 454.699C402.644 454.055 406.535 449.191 406.535 443.344C406.535 439.453 404.59 435.563 401.18 433.617C398.098 431.672 394.043 431.672 390.48 431.672H384.316V472.371H389.344V455.18H391.453L403.453 472.371H409.617L396.809 454.699ZM389.355 436.219H390.82C395.848 436.219 401.848 437.191 401.848 443.52C401.848 450.012 396.176 450.984 391.148 450.984H389.531L389.355 436.219Z" fill="white"/>
<path d="M430.535 431.836H425.508V472.535H430.535V431.836Z" fill="white"/>
<path d="M450.809 472.383H455.836V442.055L486.328 474.164V431.836H481.301V461.836L450.809 429.727V472.383Z" fill="white"/>
<path d="M511.945 449.355V431.836H506.918V472.383H511.945V455.508L514.055 453.41L529.301 472.383H536.109L517.465 450L535.781 431.836H529.137L511.945 449.355Z" fill="white"/>
<path d="M588.164 127.617C591.082 127.617 593.355 128.59 595.301 130.535C597.246 132.48 598.219 134.918 598.219 137.672C598.219 140.59 597.246 142.863 595.301 144.809C593.355 146.918 590.918 147.727 588.164 147.727C585.246 147.727 582.973 146.754 580.863 144.809C578.918 142.863 577.945 140.426 577.945 137.672C577.945 134.754 578.918 132.48 580.863 130.535C582.973 128.754 585.246 127.617 588.164 127.617ZM600 137.672C600 134.59 598.863 131.672 596.59 129.234C594.152 126.961 591.563 125.824 588.152 125.824C584.906 125.824 582.152 126.961 579.715 129.234C577.277 131.672 576.305 134.262 576.305 137.672C576.305 140.918 577.441 143.672 579.715 146.109C582.152 148.547 584.742 149.52 588.152 149.52C591.398 149.52 594.152 148.383 596.59 146.109C598.699 143.836 600 141.082 600 137.672ZM591.246 135.246C591.246 136.219 590.754 137.027 589.781 137.355C589.289 137.52 588.48 137.684 587.508 137.684H585.398V132.984H587.344C588.645 132.984 589.617 133.148 590.262 133.477C591.082 133.781 591.246 134.273 591.246 135.246ZM583.465 131.191V144.164H585.738V139.137H587.52C588.82 139.137 589.629 139.301 590.109 139.629C590.918 140.121 591.41 141.094 591.41 142.547V143.52V143.848V144.012V144.176H593.684L593.52 144.012C593.52 143.848 593.355 143.684 593.355 143.367C593.355 143.039 593.355 142.723 593.355 142.395V141.422C593.355 140.777 593.027 140.121 592.711 139.312C592.219 138.668 591.41 138.176 590.437 138.012C591.246 137.848 591.902 137.684 592.383 137.367C593.191 136.875 593.684 135.902 593.684 134.777C593.684 133.16 593.039 132.023 591.574 131.531C590.766 131.203 589.629 131.039 588.012 131.039H583.477V131.191H583.465Z" fill="white"/>
</svg>
