<svg width="1200" height="288" viewBox="0 0 1200 288" fill="none" xmlns="http://www.w3.org/2000/svg">
<g clip-path="url(#clip0_1864_11394)">
<path d="M0.720073 198.46C1.91007 198.15 0.150073 185.38 0.150073 184.18C0.150073 181.66 0.370073 179.14 0.0200729 176.63C-0.159927 169.81 1.89007 163.45 4.06007 157.11C4.76007 155.06 5.45007 153 6.15007 150.94C6.49007 152.7 8.18007 153.64 8.81007 155.16C12.4901 163.97 18.4901 171.25 24.4301 178.54C30.4401 185.91 38.2801 191.16 46.3001 196.11C54.3701 201.1 63.0901 204.53 72.2501 207.11C75.7201 208.09 79.3001 208.04 82.7201 209.24C85.6501 210.27 88.8301 210.04 91.8701 209.08C95.3201 212.61 98.6301 216.28 102.42 219.48C105.08 221.72 107.64 224.27 110.47 226.08C113.24 227.85 116.2 229.56 119.17 231.13C132.49 238.18 146.46 242.79 161.66 243.32C163.92 243.4 166.16 243.86 168.42 243.93C172.4 244.05 178.09 244.6 181.98 243.82C182.71 246.59 179.51 247.42 178 249.53C167.97 263.57 154.37 273.02 138.72 279.84C136.34 280.88 133.93 281.96 131.44 282.64C124.96 284.42 118.63 286.93 111.8 287.2C104.84 287.48 97.8601 288.05 90.9201 287.82C86.5701 287.68 82.2101 286.78 77.8601 285.89C66.0901 283.47 55.2601 278.97 45.2101 272.6C26.8201 260.95 13.7701 244.9 5.52007 224.83C2.62007 217.79 0.910073 210.64 0.950073 203.06C0.870073 201.52 0.770073 199.98 0.730073 198.45" fill="white"/>
<path d="M4.14007 168.44C3.66007 169.38 4.83007 170.63 3.57007 171.42V167.99C3.91007 167.95 4.07007 168.14 4.14007 168.43V168.44Z" fill="white"/>
<path d="M3.57007 172.4C4.19007 172.22 4.10007 172.69 4.11007 173.02C4.11007 173.37 3.94007 173.55 3.57007 173.38V172.4Z" fill="white"/>
<path d="M183.15 239.45C179.23 240.09 175.3 240.6 171.32 240.34C169.07 240.19 166.84 239.65 164.59 239.49C149.42 238.41 135.63 233.3 122.57 225.78C119.66 224.1 116.76 222.29 114.06 220.42C111.29 218.51 108.83 215.87 106.25 213.53C102.57 210.2 99.4001 206.41 96.0801 202.75C95.5101 201.78 95.1 200.67 94.3601 199.85C90.4501 195.48 87.6101 190.4 84.9101 185.3C82.2001 180.19 80.47 174.66 78.6 169.17C77.01 164.48 75.73 159.7 75.14 154.97C74 145.81 73.74 136.48 75.02 127.27C76.16 119.09 78.55 111.2 81.5 103.46C84.1 96.6498 87.81 90.4398 91.64 84.2898C95.31 79.2298 99.07 74.1298 103.68 69.9798C110.21 64.0998 116.96 58.4498 125.08 54.4898C131.52 51.3498 137.81 47.9598 144.72 45.9498C148.84 44.7598 152.99 43.1498 157.2 42.8398C165.03 42.2498 172.88 41.1298 180.78 41.8798C181.64 41.9598 182.87 42.4198 183.02 40.8298C185.64 42.9398 188.95 42.6898 191.96 43.0898C198.92 44.0398 205.44 46.3498 211.98 48.6898C215.05 49.7898 217.91 51.3298 220.99 52.4498C223.88 53.4998 226.25 55.8998 228.93 57.5698C231.01 58.8598 233.14 60.0498 235.21 61.8398C233.98 62.4298 232.94 62.2498 231.94 62.2498C201.1 62.2498 170.26 62.2798 139.43 62.2098C137.14 62.2098 136.37 62.6698 136.41 65.1598C136.59 74.6198 136.49 84.0798 136.49 93.5398C136.49 94.6698 136.28 95.0998 138.13 95.2098C152.69 96.0498 167.25 95.2798 181.81 95.5198C183.67 95.5498 183.7 96.5698 183.7 97.8898C183.7 104.41 183.72 110.94 183.71 117.46C183.71 156.93 183.69 196.41 183.69 235.88C183.69 237.11 183.63 238.3 183.13 239.43L183.15 239.45Z" fill="white"/>
<path d="M724.69 128.92C732.89 128.89 741.09 128.87 749.29 128.84C750.9 128.84 751.7 129.58 751.68 131.2C751.66 132.66 751.68 134.13 751.68 135.53C752.22 135.95 752.51 135.6 752.78 135.33C757.4 130.9 763.11 128.94 769.29 127.82C778.58 126.13 787.3 127.31 795.37 132.31C797.09 133.38 798.73 134.6 800.28 135.9C801.42 136.86 802.32 136.95 803.49 135.97C809.14 131.21 815.75 128.8 823.04 127.75C825.7 127.37 828.38 127.66 831.02 126.99C833.49 126.36 836.02 127.35 838.54 127.47C843.29 127.71 847.83 128.97 852.27 130.8C856.76 132.65 860.56 135.34 863.81 138.8C871.61 147.1 874.01 157.2 874.32 168.32C874.93 190.41 874.4 212.49 874.63 234.57C874.66 237.34 874.63 240.11 874.72 242.88C874.76 244.04 874.39 244.46 873.19 244.45C865.15 244.4 857.12 244.37 849.08 244.41C847.54 244.41 847.4 243.74 847.41 242.47C847.48 220.86 847.53 199.25 847.53 177.64C847.53 173.41 847.36 169.17 846.18 165.04C844.44 158.91 839.52 155.02 833.13 154.77C830.83 154.68 828.52 154.55 826.26 155.01C818.3 156.61 814.12 161.84 813.15 170.37C812.5 176.06 812.74 181.73 812.73 187.41C812.68 205.59 812.73 223.78 812.81 241.96C812.81 243.8 812.43 244.46 810.41 244.42C802.95 244.28 795.49 244.31 788.02 244.4C786.14 244.42 785.56 243.99 785.57 242.01C785.65 219.58 785.6 197.16 785.64 174.73C785.64 169.25 784.98 163.99 781.24 159.67C779.7 157.89 777.58 156.77 775.33 156.13C769.88 154.58 764.54 154.74 759.57 157.8C756.31 159.81 753.99 162.45 753.06 166.37C752.26 169.72 751.66 173.03 751.66 176.47C751.68 198.24 751.63 220.02 751.73 241.79C751.74 244.02 751.11 244.45 749.02 244.41C741.64 244.28 734.26 244.31 726.88 244.4C725.16 244.42 724.44 244.15 724.5 242.18C724.6 238.87 724.85 235.55 724.15 232.24C723.66 229.92 724.56 227.59 724.56 225.24C724.54 194.74 724.52 164.24 724.51 133.74C724.51 132.93 724.58 132.12 724.62 131.3C724.73 131.24 724.85 131.19 724.96 131.13L724.63 130.79C724.57 130.48 724.52 130.16 724.46 129.85C724.54 129.54 724.61 129.23 724.69 128.93V128.92Z" fill="white"/>
<path d="M179.24 36.8299C179.06 38.4199 177.84 37.9299 176.98 37.8299C169.09 36.9099 161.23 37.8699 153.38 38.2899C149.16 38.5199 144.98 40.0299 140.83 41.1399C133.88 42.9999 127.52 46.2499 121.01 49.2599C112.8 53.0499 105.94 58.5599 99.28 64.2999C94.59 68.3499 90.72 73.3699 86.94 78.3499C85.06 77.3499 83.33 78.3999 81.51 78.6699C67.51 80.8099 54.49 85.6999 42.66 93.2999C32.25 99.9899 23.48 108.58 15.95 118.43C12.53 122.9 10.51 128.24 6.67996 132.42C5.73996 128.32 3.99996 124.46 3.25996 120.28C2.27996 114.69 1.42996 109.11 1.65996 103.42C1.64996 103.13 1.63996 102.84 1.62996 102.56C1.58996 102.02 1.53996 101.48 1.49996 100.94C1.53996 100.9 1.62996 100.85 1.62996 100.83C1.59996 100.73 1.53996 100.63 1.48996 100.54C1.48996 100.03 1.46996 99.5199 1.45996 99.0199C1.49996 98.9899 1.57996 98.9399 1.57996 98.9199C1.54996 98.8199 1.49996 98.7299 1.45996 98.6399C1.45996 98.1099 1.47996 97.5899 1.47996 97.0599C1.51996 97.0299 1.59996 96.9799 1.58996 96.9599C1.56996 96.8599 1.51996 96.7699 1.47996 96.6799C1.48996 96.1499 1.50996 95.6299 1.51996 95.0999C1.75996 94.8199 1.76996 94.5299 1.54996 94.2299C1.56996 93.8699 1.58996 93.5199 1.59996 93.1599C2.13996 91.5999 2.06996 89.9899 1.99996 88.3899C2.60996 77.7399 5.30996 67.5299 9.83996 57.9699C13.68 49.8699 18.75 42.4399 24.46 35.3799C29.52 29.1399 35.49 23.9899 41.52 18.8699C44.22 16.5799 47.57 15.0499 50.63 13.1899C56.63 9.55993 63.14 7.01993 69.78 4.89993C78.5 2.08993 87.37 0.379935 96.6 0.0999346C105.34 -0.170065 113.86 0.459935 122.45 2.09993C133.12 4.13993 143.07 7.98993 152.39 13.2899C158.51 16.7599 164.12 21.1199 169.31 25.9599C172.92 29.3299 176.53 32.6599 179.24 36.8299Z" fill="white"/>
<path d="M315.04 136.63C320.72 131.14 327.33 127.93 335.37 127.22C338.44 126.95 341.42 127.6 344.5 127.22C346.53 126.97 348.83 128.33 350.92 129.18C355.34 130.98 359.38 133.55 362.77 136.81C367.38 141.26 370.72 146.65 372.74 152.78C374.1 156.89 375.04 161.04 375.22 165.42C376.22 189.7 375.35 213.98 375.66 238.26C375.68 239.65 375.63 241.04 375.74 242.42C375.85 243.83 375.51 244.43 373.89 244.41C366.18 244.33 358.47 244.33 350.76 244.42C349.01 244.44 348.61 243.92 348.61 242.23C348.67 220.29 348.65 198.35 348.66 176.41C348.66 172.42 348.4 168.53 346.43 164.86C343.27 158.97 336.16 154.3 330.61 154.76C322.53 155.43 317 161.71 315.21 167.75C314.78 169.21 314.6 170.73 314.6 172.3C314.63 194.98 314.61 217.65 314.6 240.33C314.6 244.05 314.6 244.28 311.19 244.34C303.56 244.48 295.93 244.4 288.31 244.36C286.92 244.36 286.52 243.41 286.93 242.08C287.16 241.33 287.06 240.47 287.06 239.65C287.06 195.52 287.08 151.39 287.02 107.27C287.02 105.29 287.62 104.15 289.33 103.21C292.87 101.25 296.33 99.14 299.78 97.01C303.05 94.99 306 92.48 309.52 90.83C310.25 90.48 311.03 90.04 311.36 89.27C311.93 87.91 313.08 88.18 314.02 88.36C315.07 88.56 314.54 89.57 314.54 90.21C314.6 96.9 314.63 103.59 314.62 110.27C314.61 118.02 314.53 125.77 314.5 133.51C314.5 134.56 314.64 135.61 314.71 136.66C314.36 136.83 314.22 137.15 314.64 137.26C315 137.36 315.01 136.9 315.05 136.61L315.04 136.63Z" fill="white"/>
<path d="M506.06 201.28C495.4 201.28 484.73 201.28 474.07 201.28C472.56 201.28 471.86 201.17 472.31 203.39C473.97 211.61 480.24 214.81 487.03 217.45C495.87 220.89 503.32 218.11 509.74 211.8C510.78 210.78 511.41 210.89 512.38 211.64C514.25 213.08 515.95 214.7 517.61 216.37C521.15 219.94 524.71 223.5 528.58 226.71C529.15 227.18 529.28 227.55 528.83 228.12C523.06 235.46 516.26 241.17 507.02 244.06C499.54 246.4 492.02 246.65 484.54 245.68C474 244.32 464.43 240.4 457.38 231.92C452.46 225.99 449.29 219.22 447.29 211.8C444.33 200.85 443.82 189.7 444.63 178.52C445.59 165.22 449.28 152.61 457.27 141.72C461.45 136.02 467.18 131.86 473.76 128.9C479.03 126.53 484.48 125.71 490.19 125.33C497.6 124.84 504.75 125.69 511.59 128.42C514.91 129.74 517.82 131.92 520.86 133.84C527.27 137.9 530.77 144.15 534.21 150.42C535.23 152.27 535.81 154.52 536.53 156.6C537.87 160.5 538.75 164.57 539.34 168.53C540.35 175.27 540.62 182.16 540.38 189.02C540.26 192.44 540.11 195.87 540.14 199.29C540.15 200.89 539.67 201.33 538.04 201.32C527.38 201.24 516.71 201.28 506.05 201.28H506.06ZM492.26 173.87C498.32 173.87 504.38 173.78 510.44 173.92C512.56 173.97 512.82 173.08 512.37 171.46C511.16 167.13 509.53 162.99 506.72 159.38C503.9 155.75 500.29 153.4 495.68 152.85C484.95 151.55 473.51 160.73 472.14 171.63C471.95 173.17 472.12 173.97 474.08 173.93C480.14 173.79 486.2 173.88 492.26 173.88V173.87Z" fill="white"/>
<path d="M669.48 201.28C658.9 201.28 648.32 201.28 637.74 201.28C635.15 201.28 634.95 201.59 635.8 204.11C638.18 211.12 643.51 215.05 650.2 217.4C659.14 220.53 666.83 218.34 673.29 211.6C674.02 210.84 674.67 210.79 675.39 211.33C676.5 212.14 677.66 212.93 678.58 213.93C682.7 218.36 687.29 222.29 691.66 226.46C692.54 227.29 692.64 227.79 691.98 228.64C687.93 233.8 683.28 238.27 677.36 241.3C670.24 244.95 662.66 246.4 654.71 246.16C647.29 245.93 640.09 244.68 633.37 241.44C628.01 238.86 623.51 235.33 619.8 230.53C613.54 222.43 610.45 213.24 608.96 203.34C607.72 195.11 607.3 186.83 608 178.54C608.99 166.95 611.72 155.72 617.94 145.78C624.42 135.41 633.64 128.57 646.08 126.34C654.75 124.78 663.39 124.75 671.68 127.38C679.92 129.99 687.17 134.34 692.37 141.82C697.03 148.53 699.78 155.76 701.54 163.61C704.19 175.42 703.79 187.34 703.55 199.29C703.51 201.15 702.78 201.34 701.22 201.33C690.64 201.27 680.06 201.3 669.48 201.29V201.28ZM655.65 173.87C661.71 173.87 667.78 173.78 673.84 173.92C675.99 173.97 676.2 173.04 675.75 171.44C674.54 167.1 672.9 162.96 670.09 159.36C667.26 155.73 663.64 153.38 659.03 152.85C648.26 151.6 636.94 160.72 635.52 171.6C635.28 173.42 635.8 173.96 637.7 173.92C643.68 173.79 649.66 173.87 655.65 173.87Z" fill="white"/>
<path d="M956.24 166.66C956.28 162.43 953.14 157.76 949.49 156.54C940.78 153.64 932.35 153.61 924.52 159.17C923.45 159.93 922.25 160.51 921.26 161.34C919.76 162.59 918.99 162.19 918.08 160.6C914.72 154.69 911.29 148.8 907.75 143C906.79 141.43 907.28 140.15 908.34 139.39C915.03 134.59 921.81 129.95 930.14 128.25C938.11 126.62 946 126.94 953.95 128.56C960 129.79 965.22 132.58 969.81 136.42C977.47 142.84 981.8 151.1 983.07 161.09C984.17 169.67 983.94 178.26 983.97 186.85C984.04 205.2 984 223.54 984.1 241.89C984.11 243.91 983.59 244.47 981.53 244.42C974.48 244.27 967.43 244.36 960.38 244.35C958.113 244.35 956.957 243.197 956.91 240.89C956.91 240.49 956.86 240.09 956.81 239.37C953.57 240.87 950.56 242.47 947.4 243.69C941.52 245.94 935.49 246.72 929.11 245.98C919.75 244.91 912.06 240.9 905.95 233.99C901.01 228.4 897.84 221.79 896.41 214.46C894.65 205.52 895.01 196.63 897.74 187.92C901.97 174.41 914.65 164.58 928.76 163C934.8 162.32 940.71 162.17 946.68 163.08C950.01 163.59 953.07 164.87 956.24 166.67V166.66ZM956.52 202.83H956.53C956.53 200.71 956.56 198.59 956.53 196.48C956.5 194.58 955.65 193.02 954.16 191.92C948.58 187.83 942.28 187.27 935.72 188.55C931.49 189.37 927.99 191.04 925.34 194.95C922.41 199.29 922.28 203.72 923.57 208.16C925.25 213.97 929.9 217.06 935.64 218.37C942.48 219.93 948.58 217.81 954.12 213.97C955.58 212.95 956.62 211.26 956.55 209.19C956.48 207.08 956.53 204.96 956.53 202.84L956.52 202.83Z" fill="white"/>
<path d="M1008.19 126.96C1016.4 126.93 1024.61 126.91 1032.81 126.88C1034.47 126.88 1035.34 127.46 1035.21 129.32C1035.06 131.44 1035.18 133.57 1035.18 136.12C1040 132.12 1044.98 129.34 1050.7 128.17C1061.31 125.99 1071.55 126.65 1080.88 132.82C1088.05 137.57 1092 144.45 1094.33 152.55C1096 158.36 1096.01 164.24 1096.27 170.18C1097.24 192.25 1096.42 214.33 1096.69 236.41C1096.71 238.2 1096.49 240.04 1096.78 241.78C1097.25 244.55 1095.11 244.88 1093.63 244.69C1087.83 243.95 1082.03 244.6 1076.25 244.37C1074.05 244.28 1071.22 245.28 1069.81 244C1068.35 242.68 1069.46 239.84 1069.45 237.67C1069.36 215.81 1069.82 193.95 1069.15 172.09C1069.03 168.02 1068.37 164.07 1065.84 160.46C1060.8 153.28 1047.62 152.8 1040.85 159.28C1036.66 163.29 1035.06 168.29 1035.24 173.9C1035.29 175.32 1035.15 176.72 1035.16 178.12C1035.19 199.41 1035.16 220.7 1035.23 241.99C1035.23 243.89 1034.77 244.44 1032.82 244.41C1025.28 244.29 1017.73 244.31 1010.18 244.41C1008.43 244.43 1008.01 243.92 1008.02 242.22C1008.05 238.91 1008.35 235.59 1007.66 232.27C1007.16 229.87 1008.07 227.46 1008.07 225.03C1008.04 193.71 1008.03 162.38 1008.02 131.06C1008.02 130.33 1008.09 129.6 1008.13 128.87C1008.24 128.76 1008.35 128.64 1008.46 128.53C1008.35 128.47 1008.23 128.42 1008.12 128.36C1008.04 128.22 1007.99 128.06 1007.95 127.91C1008.03 127.6 1008.1 127.29 1008.18 126.99L1008.19 126.96Z" fill="white"/>
<path d="M1160.73 245.76C1159.26 245.3 1157.32 246.3 1155.28 246.33C1143.44 246.52 1132.42 243.35 1121.87 238.3C1120.2 237.5 1117.95 236.97 1117.13 235.62C1116.17 234.05 1118.15 232.27 1118.77 230.56C1120.95 224.5 1123.54 218.58 1125.41 212.41C1126.02 210.4 1126.84 210.32 1128.51 211.46C1132.42 214.13 1136.72 216.08 1141.37 217.08C1146.2 218.11 1151.12 218.65 1156.04 218.83C1160.12 218.98 1164.06 217.98 1167.74 216.06C1172.36 213.64 1173.39 207.03 1169.84 203.2C1167.14 200.29 1163.65 199.07 1159.98 198.3C1150.31 196.28 1140.6 194.3 1132.04 189.09C1123.29 183.76 1119.03 175.73 1117.79 165.64C1116.74 157.15 1118.95 149.6 1123.07 142.49C1124.61 139.84 1126.96 137.61 1129.48 135.67C1137.75 129.32 1147.38 127.83 1157.47 127.3C1169.84 126.65 1181.32 128.99 1191.85 135.62C1193.54 136.69 1193.95 137.73 1193.4 139.6C1191.09 147.46 1188.92 155.36 1186.67 163.24C1186.05 165.42 1185.56 165.48 1183.8 163.98C1178.3 159.31 1172.37 155.78 1164.83 155.14C1160.24 154.75 1155.75 154.72 1151.24 155.37C1148.08 155.82 1145.83 157.83 1145.43 160.24C1144.91 163.39 1145.92 165.52 1148.99 167.34C1153.77 170.18 1159.2 171.13 1164.49 172.4C1172.38 174.29 1180.11 176.41 1186.94 181.08C1194.43 186.19 1197.79 193.52 1199.07 202.11C1199.93 207.89 1199.3 213.63 1197.94 219.21C1196.39 225.58 1193.38 231.61 1188.23 235.64C1183.11 239.65 1177.14 242.72 1170.64 244.35C1167.58 245.12 1164.55 246.04 1160.73 245.76Z" fill="white"/>
<path d="M219.68 228.98C219.68 226.56 219.68 224.28 219.68 222C219.7 181.79 219.71 141.59 219.74 101.38C219.74 95.5699 219.79 95.5699 225.5 95.5699C237.22 95.5699 248.95 95.6199 260.67 95.5199C262.82 95.4999 264.01 96.2399 264.78 98.1599C266.72 103 269.36 107.65 270.58 112.65C271.87 117.94 273.58 123.3 273.27 128.88C273.15 131.11 273.92 133.18 273.99 135.36C274.31 145.45 273.66 155.42 271.27 165.29C267.02 182.83 258.09 197.71 245.47 210.46C239.33 216.67 232.25 221.75 224.77 226.23C223.24 227.15 222.06 228.79 219.69 228.97L219.68 228.98Z" fill="white"/>
<path d="M6.82006 140.06C10.5601 135.81 12.4701 130.43 15.7901 125.88C23.1201 115.86 31.7001 107.09 41.9701 100.19C53.6401 92.34 66.5501 87.18 80.5101 84.74C82.3201 84.42 84.0301 83.34 85.9301 84.3C82.0901 90.45 78.3801 96.65 75.7901 103.47C72.8401 111.2 70.4501 119.1 69.3101 127.28C68.0301 136.49 68.2901 145.81 69.4301 154.98C70.0201 159.71 71.2901 164.49 72.8901 169.18C74.7601 174.67 76.4901 180.2 79.2001 185.31C81.9101 190.41 84.7401 195.49 88.6501 199.86C89.3901 200.68 89.8001 201.78 90.3701 202.76C87.3001 203.61 84.1101 203.73 81.2301 202.59C77.8601 201.26 74.2801 201.18 70.8401 200.08C61.7801 197.17 53.1901 193.42 45.3101 188.15C37.4801 182.91 29.8301 177.39 24.0901 169.81C18.4101 162.31 12.6901 154.82 9.32006 145.88C8.74006 144.34 7.08006 143.34 6.81006 141.57C6.81006 141.07 6.83006 140.56 6.83006 140.06H6.82006Z" fill="white"/>
<path d="M587.68 166.58C587.68 191.7 587.66 216.82 587.72 241.94C587.72 243.79 587.39 244.47 585.33 244.43C577.79 244.28 570.24 244.31 562.7 244.39C561.05 244.41 560.69 243.9 560.69 242.34C560.73 197.16 560.72 151.98 560.72 106.79C560.72 105.1 561.18 104.09 562.99 103.11C565.88 101.55 568.6 99.52 571.41 97.78C574.46 95.88 577.67 94.2 580.67 92.19C582.05 91.27 583.51 90.45 584.8 89.42C585.59 88.79 586.43 88.46 587.25 88.79C588.21 89.17 587.75 90.23 587.75 90.98C587.77 114.79 587.76 138.61 587.75 162.42C587.75 163.81 587.75 165.19 587.75 166.58H587.69H587.68Z" fill="white"/>
<path d="M395.91 126.96C404.35 126.93 412.79 126.95 421.24 126.85C422.76 126.83 422.95 127.44 422.93 128.71C422.87 133.68 422.91 138.65 422.91 143.63C422.91 176.32 422.89 209.01 422.96 241.7C422.96 243.74 422.62 244.47 420.34 244.41C412.88 244.24 405.42 244.27 397.96 244.41C396.27 244.44 395.7 243.88 395.84 242.4C396.35 237 395.57 231.61 395.62 226.2C395.92 193.52 395.73 160.83 395.7 128.14C395.7 128.06 395.68 127.98 395.67 127.9C395.75 127.59 395.83 127.28 395.91 126.97V126.96Z" fill="white"/>
<path d="M1200 97.5798H608.25C608.23 97.3098 608.2 97.0298 608.18 96.7598C610.81 96.5498 613.45 96.1698 616.08 96.1598C642.82 96.0998 669.55 96.0798 696.29 96.0798C777.87 96.0798 859.44 96.0798 941.02 96.0798C1019.64 96.0798 1098.25 96.0798 1176.87 96.0798C1182.99 96.0798 1189.1 96.1198 1195.22 96.1198C1196.87 96.1198 1198.45 96.3998 1200 97.5798Z" fill="white"/>
<path d="M627.24 15.2899C632.65 15.2899 638.06 15.3299 643.47 15.2599C644.97 15.2399 645.32 15.7599 645.49 17.2099C646.12 22.5499 644.3 26.8899 641.11 31.1599C635.88 38.1699 631.18 45.5799 626.22 52.7999C624.01 56.0099 621.72 59.1699 619.46 62.3499C619.18 62.7399 618.71 63.0699 619.03 63.6199C619.42 64.2899 620.12 64.2399 620.78 64.2399C626.68 64.2399 632.58 64.2799 638.48 64.2199C640.34 64.1999 642.23 64.5499 644.08 63.9199C645.4 63.4699 645.71 64.5999 645.76 65.4199C645.89 67.7799 645.86 70.1399 645.83 72.5099C645.82 73.6299 645.13 74.0399 644.05 74.0399C633.07 74.0299 622.08 74.0399 611.1 74.0199C609.67 74.0199 609.01 73.3699 608.89 71.7699C608.53 67.0599 609.64 63.1399 612.6 59.1499C619.16 50.3199 625.03 40.9799 631.21 31.8599C632.21 30.3899 633.41 29.0599 634.43 27.6099C634.87 26.9899 635.8 26.3999 635.32 25.5099C634.91 24.7399 633.98 25.1199 633.3 25.1099C626.01 25.0799 618.71 25.0399 611.42 25.1299C609.54 25.1499 608.72 24.7099 608.91 22.6999C609.13 20.3699 607.95 17.3699 609.34 15.8399C610.77 14.2699 613.83 15.3899 616.17 15.3299C619.86 15.2299 623.55 15.2999 627.23 15.2999L627.24 15.2899Z" fill="white"/>
<path d="M762.16 56.41C758.39 56.41 754.62 56.41 750.85 56.41C749.75 56.41 748.7 56.52 748.15 57.65C747.63 58.72 748.54 59.28 749.05 59.96C752.51 64.47 758.6 65.6 763.35 62.49C764.61 61.67 765.39 61.81 766.28 62.83C766.82 63.44 767.4 64.03 768.04 64.53C771.06 66.89 771.14 67.65 768.17 70.03C758.05 78.15 744.37 73.28 740.82 62.39C739.88 59.52 739.24 56.61 739.28 53.54C739.35 49.02 738.5 44.37 740.45 40.08C742.67 35.19 745.24 30.57 750.78 28.42C758.72 25.34 765.22 27.32 770.69 33.48C773.63 36.79 774.61 40.94 775.17 45.11C775.58 48.16 775.24 51.3 775.37 54.39C775.44 56.04 774.78 56.47 773.22 56.43C769.53 56.34 765.84 56.4 762.15 56.4L762.16 56.41ZM757.2 46.62C759.73 46.62 762.27 46.58 764.8 46.64C766.09 46.67 766.57 46.18 766.42 44.9C765.94 40.9 761.61 36.86 757.77 36.88C753.37 36.9 748.87 40.57 748.25 44.63C748.06 45.89 748.32 46.67 749.85 46.63C752.3 46.57 754.75 46.61 757.2 46.62Z" fill="white"/>
<path d="M656.65 57.9499C656.76 47.3399 666.29 40.1699 675.87 43.1299C677.06 43.4999 678.15 44.0199 679.15 44.7399C679.59 45.0499 679.99 45.8299 680.55 45.3699C681.05 44.9599 680.9 44.1599 680.72 43.5199C680.19 41.6099 677.05 38.9899 674.89 38.8299C672.26 38.6299 669.61 38.6099 667.29 40.1199C665.82 41.0799 664.9 40.7799 664.24 39.1999C663.99 38.6099 663.56 38.0899 663.23 37.5299C661.19 34.0399 661.28 33.4499 664.8 31.4799C674.22 26.2099 685.26 30.0899 688.63 38.1899C689.8 40.9899 690.07 43.9099 690.07 46.8799C690.09 55.0299 690.04 63.1799 690.12 71.3299C690.14 73.3799 689.33 74.1499 687.37 74.0399C686.23 73.9799 685.07 73.9999 683.93 74.0399C682.4 74.0899 681.3 73.5999 681.3 71.8999C681.3 70.1999 680.3 70.7999 679.53 71.0998C677.88 71.7499 676.25 72.4699 674.63 73.1999C668.23 76.0799 661.63 71.6999 658.94 67.1899C657.19 64.2599 656.37 61.0399 656.64 57.9599L656.65 57.9499ZM680.82 58.5999C680.81 54.3399 680.73 54.2999 676.72 52.9799C673.9 52.0499 671.28 52.6399 668.62 53.6099C666.48 54.3899 665.59 55.8199 665.49 58.0099C665.39 60.2699 666.07 61.9199 668.26 62.9199C669.93 63.6899 671.67 64.0999 673.44 64.1899C678.25 64.4199 680.83 62.3999 680.82 58.6099V58.5999Z" fill="white"/>
<path d="M901.02 45.6499C901.55 42.3899 898.66 39.0899 895.17 38.8198C892.53 38.6199 889.91 38.7298 887.59 40.2098C886.35 40.9998 885.51 40.8299 884.87 39.4499C884.43 38.4899 883.91 37.5498 883.27 36.7098C881.77 34.7398 882.43 33.2699 884.28 32.0999C892.29 27.0299 901.46 28.1599 907.46 35.1299C909.53 37.5399 910.76 40.9199 910.25 44.5799C909.84 47.5399 910.46 50.5598 910.58 53.5498C910.81 59.4898 910.57 65.4398 910.63 71.3899C910.65 73.2799 909.94 74.1099 908.06 74.0299C906.91 73.9799 905.77 73.9999 904.62 74.0299C903.17 74.0699 901.95 74.1299 901.65 72.0799C901.45 70.7099 900.24 70.9799 899.11 71.5199C896.87 72.5899 894.75 73.8599 892.12 74.0699C884.39 74.6898 877.64 67.8199 877.18 60.0599C876.89 55.0799 877.14 50.0999 881.42 46.6699C885.91 43.0699 894.06 40.1899 901.02 45.6499ZM901.32 58.5399C901.31 54.3598 901.2 54.2898 897.16 52.9598C894.34 52.0298 891.72 52.6499 889.06 53.6299C886.92 54.4199 886.08 55.8898 885.99 58.0698C885.89 60.3498 886.64 61.9599 888.82 62.9499C890.49 63.6999 892.23 64.1199 894.01 64.1899C898.85 64.3799 901.34 62.3998 901.33 58.5399H901.32Z" fill="white"/>
<path d="M842.24 13.3699C842.24 22.9399 842.24 32.2999 842.24 41.6699C842.24 42.4999 842.23 43.3999 843.26 43.6299C844.26 43.8599 844.45 42.8499 844.79 42.3099C847.24 38.4299 850.85 35.4999 853.49 31.7799C853.82 31.3199 854.3 30.9799 854.94 30.9799C858.18 30.9799 861.42 30.9799 865.47 30.9799C862.51 33.7299 860.82 36.5299 858.65 38.9599C856.86 40.9599 855.14 43.0199 853.41 45.0599C852.72 45.8699 853.28 46.6199 853.65 47.3099C858.14 55.6799 861.84 64.4599 866.72 72.6299C867.39 73.7499 866.79 73.9699 865.97 73.9899C863.68 74.0399 861.37 74.0799 859.09 73.9499C857.73 73.8699 857.08 72.7699 856.51 71.6099C853.88 66.2599 851.19 60.9299 848.52 55.5999C847.16 52.8799 846.82 52.8999 844.71 55.1999C842.91 57.1499 841.96 59.2199 842.19 61.9899C842.45 65.1499 842.12 68.3499 842.3 71.5199C842.42 73.6399 841.63 74.2699 839.65 74.0399C838.52 73.9099 837.36 74.0199 836.21 74.0199C833.44 74.0199 832.74 73.4399 833.17 70.7899C833.51 68.7399 833.39 66.7299 833.39 64.7099C833.42 49.9499 833.43 35.1899 833.35 20.4299C833.35 18.6399 833.81 17.5599 835.52 16.8799C837.83 15.9499 839.53 13.8399 842.26 13.3699H842.24Z" fill="white"/>
<path d="M703.45 45.5699C703.45 37.2599 703.5 28.9399 703.41 20.6299C703.39 18.7999 703.76 17.5899 705.61 16.8399C707.09 16.2299 708.39 15.1699 709.79 14.3599C712.08 13.0399 712.31 13.1699 712.31 15.7499C712.31 24.2299 712.3 32.6999 712.33 41.1799C712.33 41.9999 711.8 43.2099 712.89 43.5699C714.02 43.9399 714.53 42.7099 715.13 41.9999C717.91 38.7199 720.64 35.3999 723.4 32.0999C724 31.3799 724.81 30.9699 725.76 30.9699C728.38 30.9499 731.01 30.9599 733.63 30.9699C734.01 30.9699 734.51 30.8399 734.72 31.2999C734.98 31.8799 734.43 32.1599 734.14 32.4999C730.71 36.5599 727.29 40.6399 723.81 44.6599C723.09 45.4999 723.12 46.1899 723.59 47.0799C728.09 55.5299 731.88 64.3499 736.76 72.5999C737.38 73.6599 737 73.9699 736.1 73.9999C733.81 74.0599 731.51 74.1099 729.22 73.9599C728.06 73.8899 727.18 73.1399 726.62 71.9899C723.88 66.3399 721.04 60.7499 718.34 55.0899C717.5 53.3199 716.8 53.0699 715.39 54.5799C713.45 56.6599 711.97 58.7199 712.25 61.8599C712.55 65.1699 712.33 68.5399 712.31 71.8799C712.3 74.1599 711.37 74.8699 709.09 74.3899C708.69 74.3099 708.32 74.1199 707.92 74.0699C703.49 73.5299 703.48 73.5299 703.48 69.0599C703.48 61.2399 703.48 53.4099 703.48 45.5899H703.46L703.45 45.5699Z" fill="white"/>
<path d="M922.01 51.78C922.01 44.37 922.07 37.77 921.97 31.17C921.95 29.43 922.51 28.78 924.21 28.98C924.86 29.06 925.52 28.99 926.18 28.99C929.067 28.99 930.623 30.44 930.85 33.34C930.89 33.8 930.68 34.42 931.26 34.62C931.85 34.82 932.07 34.25 932.34 33.86C935.33 29.65 939.65 28.34 944.4 29.26C950.25 30.39 953.91 34.25 954.91 40.13C956.05 46.83 955.09 53.62 955.47 60.36C955.68 64.08 955.42 67.77 955.44 71.47C955.44 73.25 954.76 73.94 953.02 74.03C946.59 74.38 946.59 74.41 946.59 67.99C946.59 61.14 946.61 54.3 946.59 47.45C946.58 42.49 943.4 38.79 939.21 38.8C934.58 38.81 930.9 42.57 930.86 47.56C930.79 55.47 930.74 63.37 930.9 71.28C930.95 73.63 930.15 74.3 927.99 74.03C927.02 73.91 926.03 74.01 925.04 74.01C921.95 74.01 921.61 73.8 921.81 70.74C922.25 64.14 921.78 57.55 922.01 51.76V51.78Z" fill="white"/>
<path d="M797.45 34.8599C799.34 33.1499 800.57 30.9199 803.09 29.9499C808.81 27.7599 815.15 29.5399 818.7 34.4999C820.63 37.1899 821.47 40.2299 821.5 43.4399C821.58 52.7399 821.48 62.0399 821.56 71.3399C821.58 73.4199 820.72 74.0199 818.79 74.0599C812.7 74.1699 812.7 74.2099 812.7 68.1499C812.7 61.2999 812.72 54.4499 812.7 47.5899C812.69 42.5599 809.64 38.8999 805.44 38.8199C800.77 38.7199 797 42.6099 796.97 47.7199C796.92 55.6299 796.89 63.5499 797 71.4599C797.03 73.4499 796.54 74.3199 794.43 74.0599C793.22 73.9099 791.95 73.8799 790.75 74.0599C788.15 74.4599 787.76 72.6399 787.84 70.9599C788.48 58.0099 787.98 45.0499 788.07 32.0999C788.09 29.7499 788.46 28.5799 791.12 28.9499C792.89 29.1999 795.08 28.4799 796.41 29.2999C797.8 30.1499 796.69 32.4799 797.02 34.1299C797.06 34.3399 797.25 34.5199 797.45 34.8499V34.8599Z" fill="white"/>
<path d="M1082.98 51.82C1082.43 57.77 1081.73 63.77 1077.44 68.34C1069.81 76.49 1054.1 77.26 1048.45 62.66C1046.18 56.8 1046.36 50.94 1047.31 44.81C1048.19 39.16 1051.23 35.07 1055.49 31.98C1063.68 26.03 1074.23 29.08 1079.53 38.49C1081.86 42.64 1082.61 47.16 1082.98 51.82ZM1055.3 51.42C1055.25 53.54 1055.28 55.65 1055.87 57.72C1057.11 62.06 1060.29 64.26 1065.34 64.24C1069.64 64.22 1072.39 61.92 1073.64 57.67C1074.86 53.53 1074.38 49.45 1073.49 45.4C1072.69 41.75 1068.91 38.89 1065.27 38.79C1060.48 38.66 1057.85 40.45 1056.23 44.7C1055.39 46.9 1055.27 49.14 1055.31 51.42H1055.3Z" fill="white"/>
<path d="M999.29 52.5599C999.25 45.1099 1000.99 38.8199 1006.12 33.7199C1013.39 26.4899 1023.92 28.0399 1029.59 34.6399C1037.17 43.4699 1037.52 56.7399 1031.68 66.3599C1027.83 72.7099 1021.4 74.5599 1014.48 73.9099C1007.83 73.2899 1003.78 68.8099 1001.32 62.9099C999.89 59.4699 999.11 55.8599 999.29 52.5699V52.5599ZM1008.04 50.8599C1008.04 53.5999 1008.02 55.7099 1008.63 57.7799C1009.84 61.9199 1012.97 64.1699 1017.67 64.2199C1021.96 64.2699 1025.07 62.1099 1026.25 58.2999C1027.62 53.8799 1027.24 49.4399 1026.16 45.0799C1025.29 41.5799 1021.49 38.8599 1017.94 38.7699C1013.15 38.6599 1010.58 40.4499 1008.94 44.7399C1008.1 46.9499 1008.02 49.1799 1008.04 50.8399V50.8599Z" fill="white"/>
<path d="M423.89 103.48C423.89 111.81 420.01 117.74 412.81 120.31C407.24 122.3 401.35 120.14 398.1 115.52C394.65 110.62 393.54 105.25 395.01 99.31C395.77 96.26 396.31 93.06 398.37 90.71C400.42 88.38 403.18 86.49 406.41 86.33C408.82 86.2 411.32 85.7 413.78 86.68C414.56 86.99 415.28 87.24 415.99 87.74C421.55 91.56 424.24 96.75 423.87 103.48H423.89Z" fill="white"/>
<path d="M972.12 51.2899C972.12 47.8699 972.04 44.4399 972.15 41.0199C972.2 39.3599 971.74 38.4899 969.97 38.7899C967.55 39.2099 966.99 37.9899 967.23 35.8999C967.34 34.9299 967.25 33.9499 967.25 32.9699C967.25 29.4499 967.25 29.4099 970.85 29.0199C971.97 28.8999 972.39 28.4099 972.02 27.4599C971.53 26.1799 971.9 24.8499 971.64 23.5999C971.05 20.7999 972.57 19.3199 974.85 18.4599C976.17 17.9599 977.38 17.3199 978.48 16.5199C980.27 15.2099 980.6 16.1999 980.61 17.7399C980.62 20.7599 980.67 23.7699 980.55 26.7799C980.48 28.4799 981.02 29.2499 982.77 28.9899C982.85 28.9799 982.94 28.9799 983.02 28.9899C984.89 29.3099 987.6 27.9399 988.49 29.7799C989.61 32.1199 988.92 35.0599 988.75 37.7299C988.68 38.7499 987.67 38.7299 986.82 38.7899C984.97 38.9299 982.57 37.9399 981.4 39.2399C980.18 40.5999 981.02 42.9899 981 44.9199C980.95 50.0999 980.99 55.2799 981 60.4599C981.01 64.2299 983.37 65.8999 987.54 65.1199C989.387 64.7732 990.137 65.4799 989.79 67.2399C989.76 67.3999 989.68 67.5499 989.63 67.6999C988.79 69.8999 990.3 73.5499 986.54 73.9499C979.18 74.7199 976.21 72.8899 973.78 68.1499C972.56 65.7799 972.14 63.0599 972.16 60.3299C972.18 57.3099 972.16 54.2999 972.16 51.2799C972.15 51.2799 972.14 51.2799 972.13 51.2799L972.12 51.2899Z" fill="white"/>
<path d="M1093.27 51.1999C1093.27 44.5999 1093.35 37.9999 1093.22 31.3999C1093.18 29.4199 1093.81 28.7599 1095.72 28.9699C1096.85 29.0899 1098.02 29.0499 1099.16 28.9699C1100.93 28.8599 1102.45 28.9099 1102.22 31.3599C1102.17 31.8499 1102.38 32.5599 1103.05 32.7099C1103.65 32.8399 1103.83 32.2699 1104.12 31.8799C1106.39 28.8199 1109.68 28.8599 1112.99 29.0399C1114.05 29.0999 1114.01 29.9499 1113.96 30.6799C1113.8 33.1599 1112.51 35.3099 1111.86 37.6499C1111.64 38.4399 1111 38.1199 1110.43 38.0099C1105.14 36.9399 1102.25 39.3299 1102.23 44.8099C1102.18 53.8199 1102.11 62.8199 1102.15 71.8299C1102.15 73.5299 1101.68 74.1899 1099.94 74.0299C1098.48 73.8999 1096.99 73.9199 1095.52 74.0299C1093.75 74.1599 1093.26 73.3499 1093.27 71.7199C1093.32 64.8799 1093.29 58.0299 1093.29 51.1899H1093.27V51.1999Z" fill="white"/>
<path d="M1122.79 61.9899C1122.79 58.8199 1122.82 55.6399 1122.77 52.4699C1122.75 51.3399 1123 50.4099 1123.93 49.6699C1124.56 49.1599 1125.26 48.9699 1125.99 49.1499C1126.99 49.3999 1126.65 50.2999 1126.72 50.9899C1126.74 51.1499 1126.72 51.3199 1126.72 51.4799C1126.73 54.0332 1127.98 55.0766 1130.47 54.6099C1132.86 54.1599 1135.69 55.6699 1136.85 58.1599C1138.68 62.0899 1138.43 66.0799 1136.77 69.9599C1135.62 72.6299 1132.75 73.9199 1129.79 73.6299C1128.09 73.4599 1126.35 73.4899 1124.64 73.5699C1123.27 73.6299 1122.76 73.1599 1122.79 71.7599C1122.87 68.5099 1122.82 65.2499 1122.82 61.9899H1122.8H1122.79ZM1126.75 64.5099C1126.58 65.3699 1126.84 66.4899 1127.26 67.5499C1127.76 68.8199 1128.67 69.7699 1130.05 70.0699C1131.48 70.3799 1132.35 69.3799 1133.12 68.4199C1134.75 66.3899 1134.47 61.3299 1132.67 59.4599C1131.87 58.6299 1130.9 58.3699 1129.77 58.5899C1127.45 59.0499 1126.77 60.3099 1126.75 64.5099Z" fill="white"/>
<path d="M1163.67 60.3598C1163.67 57.8598 1163.69 55.0098 1163.66 52.1598C1163.64 50.9998 1163.99 50.0298 1165.02 49.4798C1166.32 48.7898 1167.49 48.7898 1167.59 50.6598C1167.67 52.1698 1166.95 54.2798 1167.7 55.0398C1168.65 55.9998 1170.53 54.5398 1172.05 54.5198C1174.56 54.4698 1176.96 56.3398 1178.05 59.2098C1179.66 63.4598 1179 67.5298 1176.82 71.3798C1175.59 73.5498 1171.26 74.5098 1168.72 73.2798C1167.96 72.9098 1167.44 72.3098 1166.87 73.5598C1166.51 74.3498 1165.56 74.0498 1164.86 73.9498C1163.93 73.8198 1164.2 72.9998 1164.09 72.3998C1163.39 68.5198 1163.79 64.6098 1163.67 60.3598ZM1174.95 64.5498C1174.95 63.1098 1174.99 61.9198 1174.44 60.7498C1173.7 59.1698 1172.65 58.1798 1170.84 58.4298C1169.12 58.6698 1168.25 59.6298 1167.93 61.4798C1167.57 63.5398 1167.67 65.4998 1168.03 67.5098C1168.29 68.9698 1169.05 69.8898 1170.54 70.0798C1172 70.2698 1173.26 70.0798 1174.04 68.5398C1174.73 67.1798 1175.09 65.8198 1174.94 64.5398L1174.95 64.5498Z" fill="white"/>
<path d="M1199.1 66.48C1199.1 68.19 1199.1 69.9 1199.1 71.61C1199.1 73.22 1198.33 74.01 1196.69 73.99C1194.64 73.97 1192.59 74.07 1190.55 73.96C1186.76 73.76 1184.63 71.03 1184.74 66.67C1184.85 62.53 1186.97 60.3 1190.8 60.31C1191.37 60.31 1191.96 60.38 1192.52 60.31C1193.18 60.22 1194.3 60.79 1194.37 59.79C1194.43 58.81 1193.42 58.38 1192.43 58.37C1191.2 58.35 1189.97 58.37 1188.74 58.37C1188.07 58.37 1187.4 58.37 1187.29 57.46C1187.19 56.67 1187.28 55.93 1188.1 55.61C1192.43 53.93 1198.56 54.5 1199.08 61.12C1199.22 62.9 1199.1 64.7 1199.1 66.5V66.48ZM1194.65 67.15C1194.91 65.55 1194.51 64.15 1192.49 64.33C1190.87 64.47 1188.89 64.52 1188.74 66.93C1188.63 68.73 1189.99 70.03 1191.97 70.11C1194 70.19 1194.8 69.16 1194.65 67.15Z" fill="white"/>
<path d="M1150.18 67.92C1150.44 64.08 1152.1 60.58 1152.81 56.84C1153.01 55.8 1153.24 54.69 1154.57 54.49C1155.2 54.4 1156.03 54.17 1156.43 54.73C1157.2 55.81 1156.78 57.25 1156.42 58.18C1154.84 62.18 1154.3 66.47 1152.85 70.5C1152.48 71.51 1152.21 72.5 1151.4 73.25C1149.69 74.82 1147.51 74.27 1146.98 72.08C1145.69 66.8 1144.47 61.5 1142.28 56.49C1141.88 55.57 1142.04 54.75 1143.03 54.57C1144.27 54.34 1145.78 54.02 1146.31 55.76C1146.92 57.74 1147.43 59.75 1147.94 61.76C1148.48 63.84 1148.97 65.93 1149.49 68.02C1149.72 67.99 1149.96 67.95 1150.19 67.92H1150.18Z" fill="white"/>
<path d="M315.04 136.63C315 136.92 314.99 137.38 314.63 137.28C314.21 137.16 314.35 136.85 314.7 136.68C314.81 136.63 314.92 136.61 315.04 136.64V136.63Z" fill="white"/>
<path d="M724.69 128.92C724.61 129.23 724.54 129.54 724.46 129.84C724.06 129.41 724.18 129.12 724.69 128.92Z" fill="white"/>
<path d="M1008.19 126.96C1008.11 127.27 1008.04 127.58 1007.96 127.88C1007.56 127.45 1007.68 127.16 1008.19 126.96Z" fill="white"/>
<path d="M395.91 126.96C395.83 127.27 395.75 127.58 395.67 127.89C395.27 127.46 395.39 127.16 395.91 126.96Z" fill="white"/>
<path d="M724.64 130.79L724.97 131.13C724.86 131.19 724.74 131.24 724.63 131.3C724.63 131.13 724.63 130.96 724.63 130.79H724.64Z" fill="white"/>
<path d="M1008.13 128.34C1008.24 128.4 1008.36 128.45 1008.47 128.51C1008.36 128.62 1008.25 128.74 1008.14 128.85C1008.14 128.68 1008.14 128.51 1008.14 128.34H1008.13Z" fill="white"/>
</g>
<defs>
<clipPath id="clip0_1864_11394">
<rect width="1200" height="287.84" fill="white" transform="translate(0 0.0400391)"/>
</clipPath>
</defs>
</svg>
