<svg width="32" height="33" viewBox="0 0 32 33" fill="none" xmlns="http://www.w3.org/2000/svg">
<path d="M21.3333 11.8711V21.5444C21.3329 23.3445 20.7721 25.0998 19.7286 26.5665C18.6851 28.0333 17.2108 29.1387 15.5104 29.7293C13.81 30.32 11.9679 30.3665 10.2398 29.8625C8.51179 29.3584 6.98357 28.3288 5.86738 26.9166C4.75119 25.5044 4.10242 23.7797 4.01115 21.9819C3.91988 20.1842 4.39065 18.4026 5.35809 16.8846C6.32552 15.3667 7.74161 14.1876 9.40973 13.5111C11.0778 12.8346 12.9152 12.6944 14.6667 13.1098V17.3271C13.7531 16.8938 12.7235 16.7689 11.7328 16.9712C10.7421 17.1735 9.84394 17.6922 9.17347 18.4491C8.50299 19.206 8.09649 20.1601 8.01513 21.168C7.93378 22.1759 8.18197 23.1829 8.72236 24.0375C9.26275 24.8921 10.0661 25.5481 11.0115 25.9067C11.9569 26.2654 12.9932 26.3072 13.9645 26.026C14.9357 25.7448 15.7894 25.1558 16.3969 24.3475C17.0045 23.5393 17.3331 22.5556 17.3333 21.5444V3.54443H21.3333C21.3333 5.31254 22.0357 7.00824 23.286 8.25848C24.5362 9.50872 26.2319 10.2111 28 10.2111V14.2111C25.5759 14.2147 23.2234 13.389 21.3333 11.8711Z" fill="white"/>
</svg>
