<svg width="553" height="401" viewBox="0 0 553 401" fill="none" xmlns="http://www.w3.org/2000/svg">
<g clip-path="url(#clip0_1864_11843)">
<path d="M552.38 198.02H0V0.880005H552.38V198.02ZM9.52 188.5H542.85V10.4H9.52V188.5Z" fill="white"/>
<path d="M120.77 158.31L109.54 95.95L98.1799 158.31H73.9399L54.8999 58.7H79.1399L88.1799 125.11L99.6799 59.12H120.09L131.45 125.11L140.49 58.7H164.04L145.15 158.31H120.77Z" fill="white"/>
<path d="M173.63 158.31V58.7H230.18V79.49H196.91V97.2H228.13V117.99H196.91V137.52H232.51L230.46 158.31H173.63Z" fill="white"/>
<path d="M336.72 120.22C336.08 133.15 332.68 143.15 326.52 150.22C320.36 157.29 311.94 160.82 301.26 160.82C289.03 160.82 279.76 156.42 273.46 147.63C267.16 138.84 264.01 125.99 264.01 109.06C264.01 92.13 267.27 78.85 273.8 69.79C280.33 60.72 289.71 56.19 301.94 56.19C311.8 56.19 319.6 59.38 325.35 65.74C331.1 72.11 334.66 81.53 336.03 93.99L313.02 96.64C312.29 89.85 311.01 84.97 309.19 81.99C307.36 79.01 304.76 77.52 301.39 77.52C296.82 77.52 293.47 79.98 291.32 84.91C289.17 89.84 288.1 97.61 288.1 108.21C288.1 118.81 289.2 126.9 291.39 131.93C293.58 136.95 297.05 139.46 301.8 139.46C305.54 139.46 308.39 137.9 310.36 134.79C312.32 131.67 313.53 126.82 313.99 120.21H336.72V120.22Z" fill="white"/>
<path d="M396.15 158.31L392.04 138.08H366.98L362.6 158.31H340.01L366.03 58.7H394.37L419.57 158.31H396.15ZM379.99 78.93L371.23 118.69H388.07L379.99 78.93Z" fill="white"/>
<path d="M476.39 158.31L450.1 101.11V158.31H428.74V58.7H449.82L476.12 115.9V58.7H497.48V158.31H476.39Z" fill="white"/>
<path d="M552.38 400.88H0V187.55H552.38V400.88ZM9.52 391.36H542.85V197.07H9.52V391.36Z" fill="white"/>
<path d="M61.02 348.41V229.37H98.15C111.75 229.37 122.4 232.87 130.13 239.87C137.86 246.87 141.72 256.54 141.72 268.88C141.72 281.22 137.77 290.89 129.87 298.22C121.97 305.56 111.45 309.22 98.32 309.22H89.43V348.4H61.02V348.41ZM97.97 285.39C103.43 285.39 107.58 284 110.43 281.22C113.28 278.44 114.7 274.38 114.7 269.05C114.7 258.49 109.12 253.21 97.97 253.21H89.6V285.39H97.97Z" fill="white"/>
<path d="M213.01 348.41L196.63 305.9C195.93 306.01 194.42 306.07 192.1 306.07H184.08V348.42H156.19V229.38H195.58C209.29 229.38 219.92 232.66 227.48 239.22C235.03 245.78 238.81 254.95 238.81 266.73C238.81 273.07 237.39 278.9 234.54 284.24C231.69 289.58 227.59 294.08 222.25 297.74L243.86 348.42H213.01V348.41ZM194.01 283.39C205.28 283.39 210.92 278.05 210.92 267.39C210.92 256.73 205.34 252.05 194.19 252.05H184.25V283.39H194.01Z" fill="white"/>
<path d="M286.39 229.37H256.76V348.41H286.39V229.37Z" fill="white"/>
<path d="M368.65 348.41L335.19 280.06V348.41H308V229.37H334.84L368.31 297.73V229.37H395.5V348.41H368.65Z" fill="white"/>
<path d="M434.89 348.41V254.71H408.05V229.37H491.36V254.71H464.52V348.41H434.89Z" fill="white"/>
<path d="M510.32 328.5C510.32 328.5 494.07 349.23 494.07 360.43C494.07 371.63 503.03 377.7 510.32 377.7C518.44 377.51 526.85 371.35 526.84 360.43C526.29 346.71 510.32 328.5 510.32 328.5Z" fill="white"/>
<path d="M503.94 348.11C503.94 348.11 499.94 355.28 499.67 359.81C499.4 362.73 501.82 369.75 505.52 369.38C509.17 369.01 508.45 366.46 507.65 365.66C507.12 365.13 503.39 360.34 503.39 355.55C503.39 350.76 503.94 348.11 503.94 348.11Z" fill="#111D2E"/>
</g>
<defs>
<clipPath id="clip0_1864_11843">
<rect width="552.38" height="400" fill="white" transform="translate(0 0.880005)"/>
</clipPath>
</defs>
</svg>
